G04 #@! TF.GenerationSoftware,KiCad,Pcbnew,8.0.7-8.0.7-0~ubuntu24.04.1*
G04 #@! TF.CreationDate,2025-01-09T22:08:51-07:00*
G04 #@! TF.ProjectId,2s 40A PSU and charger,32732034-3041-4205-9053-5520616e6420,V1*
G04 #@! TF.SameCoordinates,Original*
G04 #@! TF.FileFunction,Legend,Bot*
G04 #@! TF.FilePolarity,Positive*
%FSLAX46Y46*%
G04 Gerber Fmt 4.6, Leading zero omitted, Abs format (unit mm)*
G04 Created by KiCad (PCBNEW 8.0.7-8.0.7-0~ubuntu24.04.1) date 2025-01-09 22:08:51*
%MOMM*%
%LPD*%
G01*
G04 APERTURE LIST*
G04 Aperture macros list*
%AMRoundRect*
0 Rectangle with rounded corners*
0 $1 Rounding radius*
0 $2 $3 $4 $5 $6 $7 $8 $9 X,Y pos of 4 corners*
0 Add a 4 corners polygon primitive as box body*
4,1,4,$2,$3,$4,$5,$6,$7,$8,$9,$2,$3,0*
0 Add four circle primitives for the rounded corners*
1,1,$1+$1,$2,$3*
1,1,$1+$1,$4,$5*
1,1,$1+$1,$6,$7*
1,1,$1+$1,$8,$9*
0 Add four rect primitives between the rounded corners*
20,1,$1+$1,$2,$3,$4,$5,0*
20,1,$1+$1,$4,$5,$6,$7,0*
20,1,$1+$1,$6,$7,$8,$9,0*
20,1,$1+$1,$8,$9,$2,$3,0*%
%AMFreePoly0*
4,1,21,2.385355,3.535355,2.400000,3.500000,2.400000,2.000000,2.385355,1.964645,2.350000,1.950000,2.150000,1.950000,2.150000,-1.100000,2.135355,-1.135355,2.100000,-1.150000,-2.100000,-1.150000,-2.135355,-1.135355,-2.150000,-1.100000,-2.150000,1.950000,-2.350000,1.950000,-2.385355,1.964645,-2.400000,2.000000,-2.400000,3.500000,-2.385355,3.535355,-2.350000,3.550000,2.350000,3.550000,
2.385355,3.535355,2.385355,3.535355,$1*%
G04 Aperture macros list end*
%ADD10C,0.120000*%
%ADD11C,0.150000*%
%ADD12C,0.127000*%
%ADD13C,0.152400*%
%ADD14C,0.000000*%
%ADD15C,0.100000*%
%ADD16C,0.850020*%
%ADD17O,2.050020X0.800020*%
%ADD18RoundRect,0.264706X0.760294X-0.635294X0.760294X0.635294X-0.760294X0.635294X-0.760294X-0.635294X0*%
%ADD19O,2.050000X1.800000*%
%ADD20RoundRect,0.050000X0.500000X-0.500000X0.500000X0.500000X-0.500000X0.500000X-0.500000X-0.500000X0*%
%ADD21O,1.100000X1.100000*%
%ADD22RoundRect,0.050000X-0.500000X-0.500000X0.500000X-0.500000X0.500000X0.500000X-0.500000X0.500000X0*%
%ADD23C,0.800000*%
%ADD24C,4.500000*%
%ADD25C,0.700000*%
%ADD26RoundRect,0.165000X-0.195000X0.165000X-0.195000X-0.165000X0.195000X-0.165000X0.195000X0.165000X0*%
%ADD27RoundRect,0.160000X0.160000X0.210000X-0.160000X0.210000X-0.160000X-0.210000X0.160000X-0.210000X0*%
%ADD28RoundRect,0.118750X0.118750X0.131250X-0.118750X0.131250X-0.118750X-0.131250X0.118750X-0.131250X0*%
%ADD29RoundRect,0.050000X0.500000X0.800000X-0.500000X0.800000X-0.500000X-0.800000X0.500000X-0.800000X0*%
%ADD30RoundRect,0.160000X0.210000X-0.160000X0.210000X0.160000X-0.210000X0.160000X-0.210000X-0.160000X0*%
%ADD31RoundRect,0.165000X-0.165000X-0.195000X0.165000X-0.195000X0.165000X0.195000X-0.165000X0.195000X0*%
%ADD32RoundRect,0.271739X-0.353261X-0.678261X0.353261X-0.678261X0.353261X0.678261X-0.353261X0.678261X0*%
%ADD33RoundRect,0.250000X0.250000X0.275000X-0.250000X0.275000X-0.250000X-0.275000X0.250000X-0.275000X0*%
%ADD34C,1.100000*%
%ADD35RoundRect,0.250000X-0.250000X-0.275000X0.250000X-0.275000X0.250000X0.275000X-0.250000X0.275000X0*%
%ADD36RoundRect,0.066667X-0.318333X-0.133333X0.318333X-0.133333X0.318333X0.133333X-0.318333X0.133333X0*%
%ADD37RoundRect,0.165000X0.195000X-0.165000X0.195000X0.165000X-0.195000X0.165000X-0.195000X-0.165000X0*%
%ADD38RoundRect,0.270000X-0.880000X0.405000X-0.880000X-0.405000X0.880000X-0.405000X0.880000X0.405000X0*%
%ADD39RoundRect,0.160000X-0.210000X0.160000X-0.210000X-0.160000X0.210000X-0.160000X0.210000X0.160000X0*%
%ADD40RoundRect,0.387756X-0.562244X-1.362244X0.562244X-1.362244X0.562244X1.362244X-0.562244X1.362244X0*%
%ADD41RoundRect,0.165000X0.165000X0.195000X-0.165000X0.195000X-0.165000X-0.195000X0.165000X-0.195000X0*%
%ADD42RoundRect,0.160000X-0.160000X-0.210000X0.160000X-0.210000X0.160000X0.210000X-0.160000X0.210000X0*%
%ADD43RoundRect,0.100000X1.250000X1.400000X-1.250000X1.400000X-1.250000X-1.400000X1.250000X-1.400000X0*%
%ADD44RoundRect,0.200000X0.425000X-0.200000X0.425000X0.200000X-0.425000X0.200000X-0.425000X-0.200000X0*%
%ADD45FreePoly0,90.000000*%
%ADD46RoundRect,0.102000X-1.400000X-1.400000X1.400000X-1.400000X1.400000X1.400000X-1.400000X1.400000X0*%
%ADD47RoundRect,0.050000X0.406400X-0.127000X0.406400X0.127000X-0.406400X0.127000X-0.406400X-0.127000X0*%
%ADD48RoundRect,0.050000X0.127000X0.406400X-0.127000X0.406400X-0.127000X-0.406400X0.127000X-0.406400X0*%
%ADD49RoundRect,0.050000X1.079500X1.079500X-1.079500X1.079500X-1.079500X-1.079500X1.079500X-1.079500X0*%
%ADD50RoundRect,0.075000X0.362500X0.075000X-0.362500X0.075000X-0.362500X-0.075000X0.362500X-0.075000X0*%
%ADD51RoundRect,0.075000X0.075000X0.362500X-0.075000X0.362500X-0.075000X-0.362500X0.075000X-0.362500X0*%
%ADD52RoundRect,0.050000X1.400000X1.400000X-1.400000X1.400000X-1.400000X-1.400000X1.400000X-1.400000X0*%
%ADD53RoundRect,0.274390X0.475610X-0.288110X0.475610X0.288110X-0.475610X0.288110X-0.475610X-0.288110X0*%
%ADD54RoundRect,0.175000X0.537500X0.175000X-0.537500X0.175000X-0.537500X-0.175000X0.537500X-0.175000X0*%
%ADD55RoundRect,0.172500X-0.197500X0.172500X-0.197500X-0.172500X0.197500X-0.172500X0.197500X0.172500X0*%
%ADD56RoundRect,0.250000X-0.275000X0.250000X-0.275000X-0.250000X0.275000X-0.250000X0.275000X0.250000X0*%
G04 APERTURE END LIST*
D10*
X114500000Y-125700000D02*
X114000000Y-125200000D01*
D11*
X147446009Y-128670112D02*
X147493628Y-128812969D01*
X147493628Y-128812969D02*
X147541247Y-128860588D01*
X147541247Y-128860588D02*
X147636485Y-128908207D01*
X147636485Y-128908207D02*
X147779342Y-128908207D01*
X147779342Y-128908207D02*
X147874580Y-128860588D01*
X147874580Y-128860588D02*
X147922200Y-128812969D01*
X147922200Y-128812969D02*
X147969819Y-128717731D01*
X147969819Y-128717731D02*
X147969819Y-128336779D01*
X147969819Y-128336779D02*
X146969819Y-128336779D01*
X146969819Y-128336779D02*
X146969819Y-128670112D01*
X146969819Y-128670112D02*
X147017438Y-128765350D01*
X147017438Y-128765350D02*
X147065057Y-128812969D01*
X147065057Y-128812969D02*
X147160295Y-128860588D01*
X147160295Y-128860588D02*
X147255533Y-128860588D01*
X147255533Y-128860588D02*
X147350771Y-128812969D01*
X147350771Y-128812969D02*
X147398390Y-128765350D01*
X147398390Y-128765350D02*
X147446009Y-128670112D01*
X147446009Y-128670112D02*
X147446009Y-128336779D01*
X147684104Y-129289160D02*
X147684104Y-129765350D01*
X147969819Y-129193922D02*
X146969819Y-129527255D01*
X146969819Y-129527255D02*
X147969819Y-129860588D01*
X146969819Y-130051065D02*
X146969819Y-130622493D01*
X147969819Y-130336779D02*
X146969819Y-130336779D01*
X147588866Y-130955827D02*
X147588866Y-131717732D01*
X147969819Y-131336779D02*
X147207914Y-131336779D01*
X150115601Y-116465771D02*
X149829887Y-116465771D01*
X149829887Y-116465771D02*
X149544173Y-116608628D01*
X149544173Y-116608628D02*
X149401316Y-116894342D01*
X149401316Y-116894342D02*
X149401316Y-117180057D01*
X149401316Y-117180057D02*
X149544173Y-117465771D01*
X149544173Y-117465771D02*
X149829887Y-117608628D01*
X149829887Y-117608628D02*
X150115601Y-117608628D01*
X150115601Y-117608628D02*
X150401316Y-117465771D01*
X150401316Y-117465771D02*
X150544173Y-117180057D01*
X150544173Y-117180057D02*
X150544173Y-116894342D01*
X150544173Y-116894342D02*
X150401316Y-116608628D01*
X150401316Y-116608628D02*
X150115601Y-116465771D01*
X150401316Y-117037200D02*
X149544173Y-117037200D01*
X111815601Y-115415771D02*
X111529887Y-115415771D01*
X111529887Y-115415771D02*
X111244173Y-115558628D01*
X111244173Y-115558628D02*
X111101316Y-115844342D01*
X111101316Y-115844342D02*
X111101316Y-116130057D01*
X111101316Y-116130057D02*
X111244173Y-116415771D01*
X111244173Y-116415771D02*
X111529887Y-116558628D01*
X111529887Y-116558628D02*
X111815601Y-116558628D01*
X111815601Y-116558628D02*
X112101316Y-116415771D01*
X112101316Y-116415771D02*
X112244173Y-116130057D01*
X112244173Y-116130057D02*
X112244173Y-115844342D01*
X112244173Y-115844342D02*
X112101316Y-115558628D01*
X112101316Y-115558628D02*
X111815601Y-115415771D01*
X112101316Y-115987200D02*
X111244173Y-115987200D01*
X152610839Y-119455113D02*
X152563220Y-119407494D01*
X152563220Y-119407494D02*
X152467982Y-119359875D01*
X152467982Y-119359875D02*
X152229887Y-119359875D01*
X152229887Y-119359875D02*
X152134649Y-119407494D01*
X152134649Y-119407494D02*
X152087030Y-119455113D01*
X152087030Y-119455113D02*
X152039411Y-119550351D01*
X152039411Y-119550351D02*
X152039411Y-119645589D01*
X152039411Y-119645589D02*
X152087030Y-119788446D01*
X152087030Y-119788446D02*
X152658458Y-120359875D01*
X152658458Y-120359875D02*
X152039411Y-120359875D01*
X151658458Y-120312256D02*
X151563220Y-120359875D01*
X151563220Y-120359875D02*
X151372744Y-120359875D01*
X151372744Y-120359875D02*
X151277506Y-120312256D01*
X151277506Y-120312256D02*
X151229887Y-120217017D01*
X151229887Y-120217017D02*
X151229887Y-120169398D01*
X151229887Y-120169398D02*
X151277506Y-120074160D01*
X151277506Y-120074160D02*
X151372744Y-120026541D01*
X151372744Y-120026541D02*
X151515601Y-120026541D01*
X151515601Y-120026541D02*
X151610839Y-119978922D01*
X151610839Y-119978922D02*
X151658458Y-119883684D01*
X151658458Y-119883684D02*
X151658458Y-119836065D01*
X151658458Y-119836065D02*
X151610839Y-119740827D01*
X151610839Y-119740827D02*
X151515601Y-119693208D01*
X151515601Y-119693208D02*
X151372744Y-119693208D01*
X151372744Y-119693208D02*
X151277506Y-119740827D01*
X149610839Y-119693208D02*
X149610839Y-120359875D01*
X149848934Y-119312256D02*
X150087029Y-120026541D01*
X150087029Y-120026541D02*
X149467982Y-120026541D01*
X148896553Y-119359875D02*
X148801315Y-119359875D01*
X148801315Y-119359875D02*
X148706077Y-119407494D01*
X148706077Y-119407494D02*
X148658458Y-119455113D01*
X148658458Y-119455113D02*
X148610839Y-119550351D01*
X148610839Y-119550351D02*
X148563220Y-119740827D01*
X148563220Y-119740827D02*
X148563220Y-119978922D01*
X148563220Y-119978922D02*
X148610839Y-120169398D01*
X148610839Y-120169398D02*
X148658458Y-120264636D01*
X148658458Y-120264636D02*
X148706077Y-120312256D01*
X148706077Y-120312256D02*
X148801315Y-120359875D01*
X148801315Y-120359875D02*
X148896553Y-120359875D01*
X148896553Y-120359875D02*
X148991791Y-120312256D01*
X148991791Y-120312256D02*
X149039410Y-120264636D01*
X149039410Y-120264636D02*
X149087029Y-120169398D01*
X149087029Y-120169398D02*
X149134648Y-119978922D01*
X149134648Y-119978922D02*
X149134648Y-119740827D01*
X149134648Y-119740827D02*
X149087029Y-119550351D01*
X149087029Y-119550351D02*
X149039410Y-119455113D01*
X149039410Y-119455113D02*
X148991791Y-119407494D01*
X148991791Y-119407494D02*
X148896553Y-119359875D01*
X148182267Y-120074160D02*
X147706077Y-120074160D01*
X148277505Y-120359875D02*
X147944172Y-119359875D01*
X147944172Y-119359875D02*
X147610839Y-120359875D01*
X152563220Y-121969819D02*
X152563220Y-120969819D01*
X152563220Y-120969819D02*
X152182268Y-120969819D01*
X152182268Y-120969819D02*
X152087030Y-121017438D01*
X152087030Y-121017438D02*
X152039411Y-121065057D01*
X152039411Y-121065057D02*
X151991792Y-121160295D01*
X151991792Y-121160295D02*
X151991792Y-121303152D01*
X151991792Y-121303152D02*
X152039411Y-121398390D01*
X152039411Y-121398390D02*
X152087030Y-121446009D01*
X152087030Y-121446009D02*
X152182268Y-121493628D01*
X152182268Y-121493628D02*
X152563220Y-121493628D01*
X151610839Y-121922200D02*
X151467982Y-121969819D01*
X151467982Y-121969819D02*
X151229887Y-121969819D01*
X151229887Y-121969819D02*
X151134649Y-121922200D01*
X151134649Y-121922200D02*
X151087030Y-121874580D01*
X151087030Y-121874580D02*
X151039411Y-121779342D01*
X151039411Y-121779342D02*
X151039411Y-121684104D01*
X151039411Y-121684104D02*
X151087030Y-121588866D01*
X151087030Y-121588866D02*
X151134649Y-121541247D01*
X151134649Y-121541247D02*
X151229887Y-121493628D01*
X151229887Y-121493628D02*
X151420363Y-121446009D01*
X151420363Y-121446009D02*
X151515601Y-121398390D01*
X151515601Y-121398390D02*
X151563220Y-121350771D01*
X151563220Y-121350771D02*
X151610839Y-121255533D01*
X151610839Y-121255533D02*
X151610839Y-121160295D01*
X151610839Y-121160295D02*
X151563220Y-121065057D01*
X151563220Y-121065057D02*
X151515601Y-121017438D01*
X151515601Y-121017438D02*
X151420363Y-120969819D01*
X151420363Y-120969819D02*
X151182268Y-120969819D01*
X151182268Y-120969819D02*
X151039411Y-121017438D01*
X150610839Y-120969819D02*
X150610839Y-121779342D01*
X150610839Y-121779342D02*
X150563220Y-121874580D01*
X150563220Y-121874580D02*
X150515601Y-121922200D01*
X150515601Y-121922200D02*
X150420363Y-121969819D01*
X150420363Y-121969819D02*
X150229887Y-121969819D01*
X150229887Y-121969819D02*
X150134649Y-121922200D01*
X150134649Y-121922200D02*
X150087030Y-121874580D01*
X150087030Y-121874580D02*
X150039411Y-121779342D01*
X150039411Y-121779342D02*
X150039411Y-120969819D01*
X126536779Y-112511133D02*
X127298684Y-112511133D01*
X126917731Y-112130180D02*
X126917731Y-112892085D01*
X128536779Y-112130180D02*
X128536779Y-113130180D01*
X128536779Y-113130180D02*
X128774874Y-113130180D01*
X128774874Y-113130180D02*
X128917731Y-113082561D01*
X128917731Y-113082561D02*
X129012969Y-112987323D01*
X129012969Y-112987323D02*
X129060588Y-112892085D01*
X129060588Y-112892085D02*
X129108207Y-112701609D01*
X129108207Y-112701609D02*
X129108207Y-112558752D01*
X129108207Y-112558752D02*
X129060588Y-112368276D01*
X129060588Y-112368276D02*
X129012969Y-112273038D01*
X129012969Y-112273038D02*
X128917731Y-112177800D01*
X128917731Y-112177800D02*
X128774874Y-112130180D01*
X128774874Y-112130180D02*
X128536779Y-112130180D01*
X129536779Y-112511133D02*
X130298684Y-112511133D01*
X129917731Y-112130180D02*
X129917731Y-112892085D01*
X130774874Y-112130180D02*
X130774874Y-113130180D01*
X130774874Y-113130180D02*
X131012969Y-113130180D01*
X131012969Y-113130180D02*
X131155826Y-113082561D01*
X131155826Y-113082561D02*
X131251064Y-112987323D01*
X131251064Y-112987323D02*
X131298683Y-112892085D01*
X131298683Y-112892085D02*
X131346302Y-112701609D01*
X131346302Y-112701609D02*
X131346302Y-112558752D01*
X131346302Y-112558752D02*
X131298683Y-112368276D01*
X131298683Y-112368276D02*
X131251064Y-112273038D01*
X131251064Y-112273038D02*
X131155826Y-112177800D01*
X131155826Y-112177800D02*
X131012969Y-112130180D01*
X131012969Y-112130180D02*
X130774874Y-112130180D01*
X131774874Y-112511133D02*
X132536779Y-112511133D01*
X133774874Y-112511133D02*
X134536779Y-112511133D01*
X123053696Y-127997970D02*
X123148935Y-127950351D01*
X123148935Y-127950351D02*
X123339411Y-127950351D01*
X123339411Y-127950351D02*
X123434649Y-127997970D01*
X123434649Y-127997970D02*
X123529887Y-128093208D01*
X123529887Y-128093208D02*
X123577506Y-128188446D01*
X123577506Y-128188446D02*
X123577506Y-128378922D01*
X123577506Y-128378922D02*
X123529887Y-128474160D01*
X123529887Y-128474160D02*
X123434649Y-128569398D01*
X123434649Y-128569398D02*
X123339411Y-128617017D01*
X123339411Y-128617017D02*
X123148935Y-128617017D01*
X123148935Y-128617017D02*
X123053696Y-128569398D01*
X123244173Y-127617017D02*
X123482268Y-127664636D01*
X123482268Y-127664636D02*
X123720363Y-127807494D01*
X123720363Y-127807494D02*
X123863220Y-128045589D01*
X123863220Y-128045589D02*
X123910839Y-128283684D01*
X123910839Y-128283684D02*
X123863220Y-128521779D01*
X123863220Y-128521779D02*
X123720363Y-128759875D01*
X123720363Y-128759875D02*
X123482268Y-128902732D01*
X123482268Y-128902732D02*
X123244173Y-128950351D01*
X123244173Y-128950351D02*
X123006077Y-128902732D01*
X123006077Y-128902732D02*
X122767982Y-128759875D01*
X122767982Y-128759875D02*
X122625125Y-128521779D01*
X122625125Y-128521779D02*
X122577506Y-128283684D01*
X122577506Y-128283684D02*
X122625125Y-128045589D01*
X122625125Y-128045589D02*
X122767982Y-127807494D01*
X122767982Y-127807494D02*
X123006077Y-127664636D01*
X123006077Y-127664636D02*
X123244173Y-127617017D01*
X122196553Y-127855113D02*
X122148934Y-127807494D01*
X122148934Y-127807494D02*
X122053696Y-127759875D01*
X122053696Y-127759875D02*
X121815601Y-127759875D01*
X121815601Y-127759875D02*
X121720363Y-127807494D01*
X121720363Y-127807494D02*
X121672744Y-127855113D01*
X121672744Y-127855113D02*
X121625125Y-127950351D01*
X121625125Y-127950351D02*
X121625125Y-128045589D01*
X121625125Y-128045589D02*
X121672744Y-128188446D01*
X121672744Y-128188446D02*
X122244172Y-128759875D01*
X122244172Y-128759875D02*
X121625125Y-128759875D01*
X121006077Y-127759875D02*
X120910839Y-127759875D01*
X120910839Y-127759875D02*
X120815601Y-127807494D01*
X120815601Y-127807494D02*
X120767982Y-127855113D01*
X120767982Y-127855113D02*
X120720363Y-127950351D01*
X120720363Y-127950351D02*
X120672744Y-128140827D01*
X120672744Y-128140827D02*
X120672744Y-128378922D01*
X120672744Y-128378922D02*
X120720363Y-128569398D01*
X120720363Y-128569398D02*
X120767982Y-128664636D01*
X120767982Y-128664636D02*
X120815601Y-128712256D01*
X120815601Y-128712256D02*
X120910839Y-128759875D01*
X120910839Y-128759875D02*
X121006077Y-128759875D01*
X121006077Y-128759875D02*
X121101315Y-128712256D01*
X121101315Y-128712256D02*
X121148934Y-128664636D01*
X121148934Y-128664636D02*
X121196553Y-128569398D01*
X121196553Y-128569398D02*
X121244172Y-128378922D01*
X121244172Y-128378922D02*
X121244172Y-128140827D01*
X121244172Y-128140827D02*
X121196553Y-127950351D01*
X121196553Y-127950351D02*
X121148934Y-127855113D01*
X121148934Y-127855113D02*
X121101315Y-127807494D01*
X121101315Y-127807494D02*
X121006077Y-127759875D01*
X120291791Y-127855113D02*
X120244172Y-127807494D01*
X120244172Y-127807494D02*
X120148934Y-127759875D01*
X120148934Y-127759875D02*
X119910839Y-127759875D01*
X119910839Y-127759875D02*
X119815601Y-127807494D01*
X119815601Y-127807494D02*
X119767982Y-127855113D01*
X119767982Y-127855113D02*
X119720363Y-127950351D01*
X119720363Y-127950351D02*
X119720363Y-128045589D01*
X119720363Y-128045589D02*
X119767982Y-128188446D01*
X119767982Y-128188446D02*
X120339410Y-128759875D01*
X120339410Y-128759875D02*
X119720363Y-128759875D01*
X118863220Y-128093208D02*
X118863220Y-128759875D01*
X119101315Y-127712256D02*
X119339410Y-128426541D01*
X119339410Y-128426541D02*
X118720363Y-128426541D01*
X123910839Y-130084104D02*
X123434649Y-130084104D01*
X124006077Y-130369819D02*
X123672744Y-129369819D01*
X123672744Y-129369819D02*
X123339411Y-130369819D01*
X123053696Y-130322200D02*
X122958458Y-130369819D01*
X122958458Y-130369819D02*
X122767982Y-130369819D01*
X122767982Y-130369819D02*
X122672744Y-130322200D01*
X122672744Y-130322200D02*
X122625125Y-130226961D01*
X122625125Y-130226961D02*
X122625125Y-130179342D01*
X122625125Y-130179342D02*
X122672744Y-130084104D01*
X122672744Y-130084104D02*
X122767982Y-130036485D01*
X122767982Y-130036485D02*
X122910839Y-130036485D01*
X122910839Y-130036485D02*
X123006077Y-129988866D01*
X123006077Y-129988866D02*
X123053696Y-129893628D01*
X123053696Y-129893628D02*
X123053696Y-129846009D01*
X123053696Y-129846009D02*
X123006077Y-129750771D01*
X123006077Y-129750771D02*
X122910839Y-129703152D01*
X122910839Y-129703152D02*
X122767982Y-129703152D01*
X122767982Y-129703152D02*
X122672744Y-129750771D01*
X122196553Y-130369819D02*
X122196553Y-129369819D01*
X121767982Y-130369819D02*
X121767982Y-129846009D01*
X121767982Y-129846009D02*
X121815601Y-129750771D01*
X121815601Y-129750771D02*
X121910839Y-129703152D01*
X121910839Y-129703152D02*
X122053696Y-129703152D01*
X122053696Y-129703152D02*
X122148934Y-129750771D01*
X122148934Y-129750771D02*
X122196553Y-129798390D01*
X120910839Y-130322200D02*
X121006077Y-130369819D01*
X121006077Y-130369819D02*
X121196553Y-130369819D01*
X121196553Y-130369819D02*
X121291791Y-130322200D01*
X121291791Y-130322200D02*
X121339410Y-130226961D01*
X121339410Y-130226961D02*
X121339410Y-129846009D01*
X121339410Y-129846009D02*
X121291791Y-129750771D01*
X121291791Y-129750771D02*
X121196553Y-129703152D01*
X121196553Y-129703152D02*
X121006077Y-129703152D01*
X121006077Y-129703152D02*
X120910839Y-129750771D01*
X120910839Y-129750771D02*
X120863220Y-129846009D01*
X120863220Y-129846009D02*
X120863220Y-129941247D01*
X120863220Y-129941247D02*
X121339410Y-130036485D01*
X120434648Y-130369819D02*
X120434648Y-129703152D01*
X120434648Y-129893628D02*
X120387029Y-129798390D01*
X120387029Y-129798390D02*
X120339410Y-129750771D01*
X120339410Y-129750771D02*
X120244172Y-129703152D01*
X120244172Y-129703152D02*
X120148934Y-129703152D01*
X119053695Y-129846009D02*
X118720362Y-129846009D01*
X118577505Y-130369819D02*
X119053695Y-130369819D01*
X119053695Y-130369819D02*
X119053695Y-129369819D01*
X119053695Y-129369819D02*
X118577505Y-129369819D01*
X117720362Y-130369819D02*
X117720362Y-129369819D01*
X117720362Y-130322200D02*
X117815600Y-130369819D01*
X117815600Y-130369819D02*
X118006076Y-130369819D01*
X118006076Y-130369819D02*
X118101314Y-130322200D01*
X118101314Y-130322200D02*
X118148933Y-130274580D01*
X118148933Y-130274580D02*
X118196552Y-130179342D01*
X118196552Y-130179342D02*
X118196552Y-129893628D01*
X118196552Y-129893628D02*
X118148933Y-129798390D01*
X118148933Y-129798390D02*
X118101314Y-129750771D01*
X118101314Y-129750771D02*
X118006076Y-129703152D01*
X118006076Y-129703152D02*
X117815600Y-129703152D01*
X117815600Y-129703152D02*
X117720362Y-129750771D01*
X117339409Y-129703152D02*
X117148933Y-130369819D01*
X117148933Y-130369819D02*
X116958457Y-129893628D01*
X116958457Y-129893628D02*
X116767981Y-130369819D01*
X116767981Y-130369819D02*
X116577505Y-129703152D01*
X115767981Y-130369819D02*
X115767981Y-129846009D01*
X115767981Y-129846009D02*
X115815600Y-129750771D01*
X115815600Y-129750771D02*
X115910838Y-129703152D01*
X115910838Y-129703152D02*
X116101314Y-129703152D01*
X116101314Y-129703152D02*
X116196552Y-129750771D01*
X115767981Y-130322200D02*
X115863219Y-130369819D01*
X115863219Y-130369819D02*
X116101314Y-130369819D01*
X116101314Y-130369819D02*
X116196552Y-130322200D01*
X116196552Y-130322200D02*
X116244171Y-130226961D01*
X116244171Y-130226961D02*
X116244171Y-130131723D01*
X116244171Y-130131723D02*
X116196552Y-130036485D01*
X116196552Y-130036485D02*
X116101314Y-129988866D01*
X116101314Y-129988866D02*
X115863219Y-129988866D01*
X115863219Y-129988866D02*
X115767981Y-129941247D01*
X115291790Y-130369819D02*
X115291790Y-129703152D01*
X115291790Y-129893628D02*
X115244171Y-129798390D01*
X115244171Y-129798390D02*
X115196552Y-129750771D01*
X115196552Y-129750771D02*
X115101314Y-129703152D01*
X115101314Y-129703152D02*
X115006076Y-129703152D01*
X114244171Y-130369819D02*
X114244171Y-129369819D01*
X114244171Y-130322200D02*
X114339409Y-130369819D01*
X114339409Y-130369819D02*
X114529885Y-130369819D01*
X114529885Y-130369819D02*
X114625123Y-130322200D01*
X114625123Y-130322200D02*
X114672742Y-130274580D01*
X114672742Y-130274580D02*
X114720361Y-130179342D01*
X114720361Y-130179342D02*
X114720361Y-129893628D01*
X114720361Y-129893628D02*
X114672742Y-129798390D01*
X114672742Y-129798390D02*
X114625123Y-129750771D01*
X114625123Y-129750771D02*
X114529885Y-129703152D01*
X114529885Y-129703152D02*
X114339409Y-129703152D01*
X114339409Y-129703152D02*
X114244171Y-129750771D01*
X113815599Y-130322200D02*
X113720361Y-130369819D01*
X113720361Y-130369819D02*
X113529885Y-130369819D01*
X113529885Y-130369819D02*
X113434647Y-130322200D01*
X113434647Y-130322200D02*
X113387028Y-130226961D01*
X113387028Y-130226961D02*
X113387028Y-130179342D01*
X113387028Y-130179342D02*
X113434647Y-130084104D01*
X113434647Y-130084104D02*
X113529885Y-130036485D01*
X113529885Y-130036485D02*
X113672742Y-130036485D01*
X113672742Y-130036485D02*
X113767980Y-129988866D01*
X113767980Y-129988866D02*
X113815599Y-129893628D01*
X113815599Y-129893628D02*
X113815599Y-129846009D01*
X113815599Y-129846009D02*
X113767980Y-129750771D01*
X113767980Y-129750771D02*
X113672742Y-129703152D01*
X113672742Y-129703152D02*
X113529885Y-129703152D01*
X113529885Y-129703152D02*
X113434647Y-129750771D01*
X108377800Y-127510839D02*
X108330180Y-127367982D01*
X108330180Y-127367982D02*
X108330180Y-127129887D01*
X108330180Y-127129887D02*
X108377800Y-127034649D01*
X108377800Y-127034649D02*
X108425419Y-126987030D01*
X108425419Y-126987030D02*
X108520657Y-126939411D01*
X108520657Y-126939411D02*
X108615895Y-126939411D01*
X108615895Y-126939411D02*
X108711133Y-126987030D01*
X108711133Y-126987030D02*
X108758752Y-127034649D01*
X108758752Y-127034649D02*
X108806371Y-127129887D01*
X108806371Y-127129887D02*
X108853990Y-127320363D01*
X108853990Y-127320363D02*
X108901609Y-127415601D01*
X108901609Y-127415601D02*
X108949228Y-127463220D01*
X108949228Y-127463220D02*
X109044466Y-127510839D01*
X109044466Y-127510839D02*
X109139704Y-127510839D01*
X109139704Y-127510839D02*
X109234942Y-127463220D01*
X109234942Y-127463220D02*
X109282561Y-127415601D01*
X109282561Y-127415601D02*
X109330180Y-127320363D01*
X109330180Y-127320363D02*
X109330180Y-127082268D01*
X109330180Y-127082268D02*
X109282561Y-126939411D01*
X109330180Y-126606077D02*
X108330180Y-126367982D01*
X108330180Y-126367982D02*
X109044466Y-126177506D01*
X109044466Y-126177506D02*
X108330180Y-125987030D01*
X108330180Y-125987030D02*
X109330180Y-125748935D01*
X108425419Y-124796554D02*
X108377800Y-124844173D01*
X108377800Y-124844173D02*
X108330180Y-124987030D01*
X108330180Y-124987030D02*
X108330180Y-125082268D01*
X108330180Y-125082268D02*
X108377800Y-125225125D01*
X108377800Y-125225125D02*
X108473038Y-125320363D01*
X108473038Y-125320363D02*
X108568276Y-125367982D01*
X108568276Y-125367982D02*
X108758752Y-125415601D01*
X108758752Y-125415601D02*
X108901609Y-125415601D01*
X108901609Y-125415601D02*
X109092085Y-125367982D01*
X109092085Y-125367982D02*
X109187323Y-125320363D01*
X109187323Y-125320363D02*
X109282561Y-125225125D01*
X109282561Y-125225125D02*
X109330180Y-125082268D01*
X109330180Y-125082268D02*
X109330180Y-124987030D01*
X109330180Y-124987030D02*
X109282561Y-124844173D01*
X109282561Y-124844173D02*
X109234942Y-124796554D01*
X108377800Y-123558458D02*
X108330180Y-123558458D01*
X108330180Y-123558458D02*
X108234942Y-123606077D01*
X108234942Y-123606077D02*
X108187323Y-123653696D01*
X108377800Y-122415601D02*
X108330180Y-122272744D01*
X108330180Y-122272744D02*
X108330180Y-122034649D01*
X108330180Y-122034649D02*
X108377800Y-121939411D01*
X108377800Y-121939411D02*
X108425419Y-121891792D01*
X108425419Y-121891792D02*
X108520657Y-121844173D01*
X108520657Y-121844173D02*
X108615895Y-121844173D01*
X108615895Y-121844173D02*
X108711133Y-121891792D01*
X108711133Y-121891792D02*
X108758752Y-121939411D01*
X108758752Y-121939411D02*
X108806371Y-122034649D01*
X108806371Y-122034649D02*
X108853990Y-122225125D01*
X108853990Y-122225125D02*
X108901609Y-122320363D01*
X108901609Y-122320363D02*
X108949228Y-122367982D01*
X108949228Y-122367982D02*
X109044466Y-122415601D01*
X109044466Y-122415601D02*
X109139704Y-122415601D01*
X109139704Y-122415601D02*
X109234942Y-122367982D01*
X109234942Y-122367982D02*
X109282561Y-122320363D01*
X109282561Y-122320363D02*
X109330180Y-122225125D01*
X109330180Y-122225125D02*
X109330180Y-121987030D01*
X109330180Y-121987030D02*
X109282561Y-121844173D01*
X109330180Y-121510839D02*
X108330180Y-121272744D01*
X108330180Y-121272744D02*
X109044466Y-121082268D01*
X109044466Y-121082268D02*
X108330180Y-120891792D01*
X108330180Y-120891792D02*
X109330180Y-120653697D01*
X108330180Y-120272744D02*
X109330180Y-120272744D01*
X109330180Y-120272744D02*
X109330180Y-120034649D01*
X109330180Y-120034649D02*
X109282561Y-119891792D01*
X109282561Y-119891792D02*
X109187323Y-119796554D01*
X109187323Y-119796554D02*
X109092085Y-119748935D01*
X109092085Y-119748935D02*
X108901609Y-119701316D01*
X108901609Y-119701316D02*
X108758752Y-119701316D01*
X108758752Y-119701316D02*
X108568276Y-119748935D01*
X108568276Y-119748935D02*
X108473038Y-119796554D01*
X108473038Y-119796554D02*
X108377800Y-119891792D01*
X108377800Y-119891792D02*
X108330180Y-120034649D01*
X108330180Y-120034649D02*
X108330180Y-120272744D01*
X147546009Y-124470112D02*
X147593628Y-124612969D01*
X147593628Y-124612969D02*
X147641247Y-124660588D01*
X147641247Y-124660588D02*
X147736485Y-124708207D01*
X147736485Y-124708207D02*
X147879342Y-124708207D01*
X147879342Y-124708207D02*
X147974580Y-124660588D01*
X147974580Y-124660588D02*
X148022200Y-124612969D01*
X148022200Y-124612969D02*
X148069819Y-124517731D01*
X148069819Y-124517731D02*
X148069819Y-124136779D01*
X148069819Y-124136779D02*
X147069819Y-124136779D01*
X147069819Y-124136779D02*
X147069819Y-124470112D01*
X147069819Y-124470112D02*
X147117438Y-124565350D01*
X147117438Y-124565350D02*
X147165057Y-124612969D01*
X147165057Y-124612969D02*
X147260295Y-124660588D01*
X147260295Y-124660588D02*
X147355533Y-124660588D01*
X147355533Y-124660588D02*
X147450771Y-124612969D01*
X147450771Y-124612969D02*
X147498390Y-124565350D01*
X147498390Y-124565350D02*
X147546009Y-124470112D01*
X147546009Y-124470112D02*
X147546009Y-124136779D01*
X147784104Y-125089160D02*
X147784104Y-125565350D01*
X148069819Y-124993922D02*
X147069819Y-125327255D01*
X147069819Y-125327255D02*
X148069819Y-125660588D01*
X147069819Y-125851065D02*
X147069819Y-126422493D01*
X148069819Y-126136779D02*
X147069819Y-126136779D01*
X147688866Y-126755827D02*
X147688866Y-127517732D01*
X117285713Y-126807200D02*
X117142856Y-126854819D01*
X117142856Y-126854819D02*
X116904761Y-126854819D01*
X116904761Y-126854819D02*
X116809523Y-126807200D01*
X116809523Y-126807200D02*
X116761904Y-126759580D01*
X116761904Y-126759580D02*
X116714285Y-126664342D01*
X116714285Y-126664342D02*
X116714285Y-126569104D01*
X116714285Y-126569104D02*
X116761904Y-126473866D01*
X116761904Y-126473866D02*
X116809523Y-126426247D01*
X116809523Y-126426247D02*
X116904761Y-126378628D01*
X116904761Y-126378628D02*
X117095237Y-126331009D01*
X117095237Y-126331009D02*
X117190475Y-126283390D01*
X117190475Y-126283390D02*
X117238094Y-126235771D01*
X117238094Y-126235771D02*
X117285713Y-126140533D01*
X117285713Y-126140533D02*
X117285713Y-126045295D01*
X117285713Y-126045295D02*
X117238094Y-125950057D01*
X117238094Y-125950057D02*
X117190475Y-125902438D01*
X117190475Y-125902438D02*
X117095237Y-125854819D01*
X117095237Y-125854819D02*
X116857142Y-125854819D01*
X116857142Y-125854819D02*
X116714285Y-125902438D01*
X115714285Y-126759580D02*
X115761904Y-126807200D01*
X115761904Y-126807200D02*
X115904761Y-126854819D01*
X115904761Y-126854819D02*
X115999999Y-126854819D01*
X115999999Y-126854819D02*
X116142856Y-126807200D01*
X116142856Y-126807200D02*
X116238094Y-126711961D01*
X116238094Y-126711961D02*
X116285713Y-126616723D01*
X116285713Y-126616723D02*
X116333332Y-126426247D01*
X116333332Y-126426247D02*
X116333332Y-126283390D01*
X116333332Y-126283390D02*
X116285713Y-126092914D01*
X116285713Y-126092914D02*
X116238094Y-125997676D01*
X116238094Y-125997676D02*
X116142856Y-125902438D01*
X116142856Y-125902438D02*
X115999999Y-125854819D01*
X115999999Y-125854819D02*
X115904761Y-125854819D01*
X115904761Y-125854819D02*
X115761904Y-125902438D01*
X115761904Y-125902438D02*
X115714285Y-125950057D01*
X115285713Y-126854819D02*
X115285713Y-125854819D01*
X114714285Y-126854819D02*
X115142856Y-126283390D01*
X114714285Y-125854819D02*
X115285713Y-126426247D01*
X116866666Y-123759580D02*
X116914285Y-123807200D01*
X116914285Y-123807200D02*
X117057142Y-123854819D01*
X117057142Y-123854819D02*
X117152380Y-123854819D01*
X117152380Y-123854819D02*
X117295237Y-123807200D01*
X117295237Y-123807200D02*
X117390475Y-123711961D01*
X117390475Y-123711961D02*
X117438094Y-123616723D01*
X117438094Y-123616723D02*
X117485713Y-123426247D01*
X117485713Y-123426247D02*
X117485713Y-123283390D01*
X117485713Y-123283390D02*
X117438094Y-123092914D01*
X117438094Y-123092914D02*
X117390475Y-122997676D01*
X117390475Y-122997676D02*
X117295237Y-122902438D01*
X117295237Y-122902438D02*
X117152380Y-122854819D01*
X117152380Y-122854819D02*
X117057142Y-122854819D01*
X117057142Y-122854819D02*
X116914285Y-122902438D01*
X116914285Y-122902438D02*
X116866666Y-122950057D01*
X116485713Y-123807200D02*
X116342856Y-123854819D01*
X116342856Y-123854819D02*
X116104761Y-123854819D01*
X116104761Y-123854819D02*
X116009523Y-123807200D01*
X116009523Y-123807200D02*
X115961904Y-123759580D01*
X115961904Y-123759580D02*
X115914285Y-123664342D01*
X115914285Y-123664342D02*
X115914285Y-123569104D01*
X115914285Y-123569104D02*
X115961904Y-123473866D01*
X115961904Y-123473866D02*
X116009523Y-123426247D01*
X116009523Y-123426247D02*
X116104761Y-123378628D01*
X116104761Y-123378628D02*
X116295237Y-123331009D01*
X116295237Y-123331009D02*
X116390475Y-123283390D01*
X116390475Y-123283390D02*
X116438094Y-123235771D01*
X116438094Y-123235771D02*
X116485713Y-123140533D01*
X116485713Y-123140533D02*
X116485713Y-123045295D01*
X116485713Y-123045295D02*
X116438094Y-122950057D01*
X116438094Y-122950057D02*
X116390475Y-122902438D01*
X116390475Y-122902438D02*
X116295237Y-122854819D01*
X116295237Y-122854819D02*
X116057142Y-122854819D01*
X116057142Y-122854819D02*
X115914285Y-122902438D01*
X113692800Y-128823808D02*
X113645180Y-128680951D01*
X113645180Y-128680951D02*
X113645180Y-128442856D01*
X113645180Y-128442856D02*
X113692800Y-128347618D01*
X113692800Y-128347618D02*
X113740419Y-128299999D01*
X113740419Y-128299999D02*
X113835657Y-128252380D01*
X113835657Y-128252380D02*
X113930895Y-128252380D01*
X113930895Y-128252380D02*
X114026133Y-128299999D01*
X114026133Y-128299999D02*
X114073752Y-128347618D01*
X114073752Y-128347618D02*
X114121371Y-128442856D01*
X114121371Y-128442856D02*
X114168990Y-128633332D01*
X114168990Y-128633332D02*
X114216609Y-128728570D01*
X114216609Y-128728570D02*
X114264228Y-128776189D01*
X114264228Y-128776189D02*
X114359466Y-128823808D01*
X114359466Y-128823808D02*
X114454704Y-128823808D01*
X114454704Y-128823808D02*
X114549942Y-128776189D01*
X114549942Y-128776189D02*
X114597561Y-128728570D01*
X114597561Y-128728570D02*
X114645180Y-128633332D01*
X114645180Y-128633332D02*
X114645180Y-128395237D01*
X114645180Y-128395237D02*
X114597561Y-128252380D01*
X113645180Y-127823808D02*
X114645180Y-127823808D01*
X114645180Y-127823808D02*
X114645180Y-127585713D01*
X114645180Y-127585713D02*
X114597561Y-127442856D01*
X114597561Y-127442856D02*
X114502323Y-127347618D01*
X114502323Y-127347618D02*
X114407085Y-127299999D01*
X114407085Y-127299999D02*
X114216609Y-127252380D01*
X114216609Y-127252380D02*
X114073752Y-127252380D01*
X114073752Y-127252380D02*
X113883276Y-127299999D01*
X113883276Y-127299999D02*
X113788038Y-127347618D01*
X113788038Y-127347618D02*
X113692800Y-127442856D01*
X113692800Y-127442856D02*
X113645180Y-127585713D01*
X113645180Y-127585713D02*
X113645180Y-127823808D01*
X113645180Y-126823808D02*
X114645180Y-126823808D01*
X112192800Y-129409523D02*
X112145180Y-129266666D01*
X112145180Y-129266666D02*
X112145180Y-129028571D01*
X112145180Y-129028571D02*
X112192800Y-128933333D01*
X112192800Y-128933333D02*
X112240419Y-128885714D01*
X112240419Y-128885714D02*
X112335657Y-128838095D01*
X112335657Y-128838095D02*
X112430895Y-128838095D01*
X112430895Y-128838095D02*
X112526133Y-128885714D01*
X112526133Y-128885714D02*
X112573752Y-128933333D01*
X112573752Y-128933333D02*
X112621371Y-129028571D01*
X112621371Y-129028571D02*
X112668990Y-129219047D01*
X112668990Y-129219047D02*
X112716609Y-129314285D01*
X112716609Y-129314285D02*
X112764228Y-129361904D01*
X112764228Y-129361904D02*
X112859466Y-129409523D01*
X112859466Y-129409523D02*
X112954704Y-129409523D01*
X112954704Y-129409523D02*
X113049942Y-129361904D01*
X113049942Y-129361904D02*
X113097561Y-129314285D01*
X113097561Y-129314285D02*
X113145180Y-129219047D01*
X113145180Y-129219047D02*
X113145180Y-128980952D01*
X113145180Y-128980952D02*
X113097561Y-128838095D01*
X112145180Y-128409523D02*
X113145180Y-128409523D01*
X113145180Y-128409523D02*
X113145180Y-128171428D01*
X113145180Y-128171428D02*
X113097561Y-128028571D01*
X113097561Y-128028571D02*
X113002323Y-127933333D01*
X113002323Y-127933333D02*
X112907085Y-127885714D01*
X112907085Y-127885714D02*
X112716609Y-127838095D01*
X112716609Y-127838095D02*
X112573752Y-127838095D01*
X112573752Y-127838095D02*
X112383276Y-127885714D01*
X112383276Y-127885714D02*
X112288038Y-127933333D01*
X112288038Y-127933333D02*
X112192800Y-128028571D01*
X112192800Y-128028571D02*
X112145180Y-128171428D01*
X112145180Y-128171428D02*
X112145180Y-128409523D01*
X113145180Y-127219047D02*
X113145180Y-127028571D01*
X113145180Y-127028571D02*
X113097561Y-126933333D01*
X113097561Y-126933333D02*
X113002323Y-126838095D01*
X113002323Y-126838095D02*
X112811847Y-126790476D01*
X112811847Y-126790476D02*
X112478514Y-126790476D01*
X112478514Y-126790476D02*
X112288038Y-126838095D01*
X112288038Y-126838095D02*
X112192800Y-126933333D01*
X112192800Y-126933333D02*
X112145180Y-127028571D01*
X112145180Y-127028571D02*
X112145180Y-127219047D01*
X112145180Y-127219047D02*
X112192800Y-127314285D01*
X112192800Y-127314285D02*
X112288038Y-127409523D01*
X112288038Y-127409523D02*
X112478514Y-127457142D01*
X112478514Y-127457142D02*
X112811847Y-127457142D01*
X112811847Y-127457142D02*
X113002323Y-127409523D01*
X113002323Y-127409523D02*
X113097561Y-127314285D01*
X113097561Y-127314285D02*
X113145180Y-127219047D01*
X142399999Y-119154819D02*
X142399999Y-119392914D01*
X142638094Y-119297676D02*
X142399999Y-119392914D01*
X142399999Y-119392914D02*
X142161904Y-119297676D01*
X142542856Y-119583390D02*
X142399999Y-119392914D01*
X142399999Y-119392914D02*
X142257142Y-119583390D01*
D10*
G04 #@! TO.C,C32*
X119240000Y-125207836D02*
X119240000Y-124992164D01*
X119960000Y-125207836D02*
X119960000Y-124992164D01*
G04 #@! TO.C,R30*
X113346359Y-131020000D02*
X113653641Y-131020000D01*
X113346359Y-131780000D02*
X113653641Y-131780000D01*
G04 #@! TO.C,U7*
X120387500Y-123240000D02*
X122387500Y-123240000D01*
X120387500Y-125460000D02*
X122387500Y-125460000D01*
X122907500Y-123340000D02*
X122627500Y-123340000D01*
X122627500Y-123060000D01*
X122907500Y-123340000D01*
G36*
X122907500Y-123340000D02*
G01*
X122627500Y-123340000D01*
X122627500Y-123060000D01*
X122907500Y-123340000D01*
G37*
G04 #@! TO.C,R26*
X121820000Y-119046359D02*
X121820000Y-119353641D01*
X122580000Y-119046359D02*
X122580000Y-119353641D01*
G04 #@! TO.C,C15*
X119707836Y-126240000D02*
X119492164Y-126240000D01*
X119707836Y-126960000D02*
X119492164Y-126960000D01*
G04 #@! TO.C,C28*
X141311252Y-117090000D02*
X139888748Y-117090000D01*
X141311252Y-118910000D02*
X139888748Y-118910000D01*
G04 #@! TO.C,R31*
X115346359Y-130820000D02*
X115653641Y-130820000D01*
X115346359Y-131580000D02*
X115653641Y-131580000D01*
G04 #@! TO.C,C31*
X117459420Y-124490000D02*
X117740580Y-124490000D01*
X117459420Y-125510000D02*
X117740580Y-125510000D01*
G04 #@! TO.C,C40*
X133559420Y-117990000D02*
X133840580Y-117990000D01*
X133559420Y-119010000D02*
X133840580Y-119010000D01*
G04 #@! TO.C,TP4*
X109500000Y-116800000D02*
G75*
G02*
X108100000Y-116800000I-700000J0D01*
G01*
X108100000Y-116800000D02*
G75*
G02*
X109500000Y-116800000I700000J0D01*
G01*
G04 #@! TO.C,TP3*
X114300000Y-124500000D02*
G75*
G02*
X112900000Y-124500000I-700000J0D01*
G01*
X112900000Y-124500000D02*
G75*
G02*
X114300000Y-124500000I700000J0D01*
G01*
G04 #@! TO.C,C24*
X122140580Y-126490000D02*
X121859420Y-126490000D01*
X122140580Y-127510000D02*
X121859420Y-127510000D01*
G04 #@! TO.C,R16*
X145946359Y-122020000D02*
X146253641Y-122020000D01*
X145946359Y-122780000D02*
X146253641Y-122780000D01*
G04 #@! TO.C,U5*
X119650000Y-119040000D02*
X120950000Y-119040000D01*
X119900000Y-121360000D02*
X120950000Y-121360000D01*
X118750000Y-121130000D02*
X118470000Y-120850000D01*
X118750000Y-120850000D01*
X118750000Y-121130000D01*
G36*
X118750000Y-121130000D02*
G01*
X118470000Y-120850000D01*
X118750000Y-120850000D01*
X118750000Y-121130000D01*
G37*
G04 #@! TO.C,C13*
X147140000Y-122792164D02*
X147140000Y-123007836D01*
X147860000Y-122792164D02*
X147860000Y-123007836D01*
G04 #@! TO.C,R17*
X146146359Y-118720000D02*
X146453641Y-118720000D01*
X146146359Y-119480000D02*
X146453641Y-119480000D01*
G04 #@! TO.C,TP2*
X115800000Y-124100000D02*
G75*
G02*
X114400000Y-124100000I-700000J0D01*
G01*
X114400000Y-124100000D02*
G75*
G02*
X115800000Y-124100000I700000J0D01*
G01*
G04 #@! TO.C,L3*
X129690000Y-121061252D02*
X129690000Y-120538748D01*
X131910000Y-121061252D02*
X131910000Y-120538748D01*
G04 #@! TO.C,R6*
X138320000Y-126103641D02*
X138320000Y-125796359D01*
X139080000Y-126103641D02*
X139080000Y-125796359D01*
G04 #@! TO.C,TP5*
X113300000Y-125500000D02*
G75*
G02*
X111900000Y-125500000I-700000J0D01*
G01*
X111900000Y-125500000D02*
G75*
G02*
X113300000Y-125500000I700000J0D01*
G01*
G04 #@! TO.C,TP6*
X111900000Y-125000000D02*
G75*
G02*
X110500000Y-125000000I-700000J0D01*
G01*
X110500000Y-125000000D02*
G75*
G02*
X111900000Y-125000000I700000J0D01*
G01*
G04 #@! TO.C,R5*
X139320000Y-125903641D02*
X139320000Y-125596359D01*
X140080000Y-125903641D02*
X140080000Y-125596359D01*
G04 #@! TO.C,R14*
X143477064Y-127090000D02*
X139122936Y-127090000D01*
X143477064Y-130510000D02*
X139122936Y-130510000D01*
G04 #@! TO.C,R27*
X122820000Y-120253641D02*
X122820000Y-119946359D01*
X123580000Y-120253641D02*
X123580000Y-119946359D01*
G04 #@! TO.C,C30*
X109392164Y-123940000D02*
X109607836Y-123940000D01*
X109392164Y-124660000D02*
X109607836Y-124660000D01*
G04 #@! TO.C,R33*
X115853641Y-119820000D02*
X115546359Y-119820000D01*
X115853641Y-120580000D02*
X115546359Y-120580000D01*
G04 #@! TO.C,R4*
X141620000Y-124953641D02*
X141620000Y-124646359D01*
X142380000Y-124953641D02*
X142380000Y-124646359D01*
G04 #@! TO.C,J8*
X149500000Y-115200000D02*
X149500000Y-116200000D01*
X149500000Y-116200000D02*
X150500000Y-116200000D01*
X152400000Y-113000000D02*
X151400000Y-113000000D01*
X152400000Y-114000000D02*
X152400000Y-113000000D01*
G04 #@! TO.C,C25*
X114840000Y-118607836D02*
X114840000Y-118392164D01*
X115560000Y-118607836D02*
X115560000Y-118392164D01*
G04 #@! TO.C,C19*
X146192164Y-119740000D02*
X146407836Y-119740000D01*
X146192164Y-120460000D02*
X146407836Y-120460000D01*
G04 #@! TO.C,Q6*
X129225000Y-126450000D02*
X129225000Y-131950000D01*
X129225000Y-131950000D02*
X136025000Y-131950000D01*
X135155000Y-126450000D02*
X129225000Y-126450000D01*
X135665000Y-126680000D02*
X135425000Y-126350000D01*
X135905000Y-126350000D01*
X135665000Y-126680000D01*
G36*
X135665000Y-126680000D02*
G01*
X135425000Y-126350000D01*
X135905000Y-126350000D01*
X135665000Y-126680000D01*
G37*
G04 #@! TO.C,C33*
X122840000Y-123907836D02*
X122840000Y-123692164D01*
X123560000Y-123907836D02*
X123560000Y-123692164D01*
G04 #@! TO.C,C18*
X145872164Y-121040000D02*
X146087836Y-121040000D01*
X145872164Y-121760000D02*
X146087836Y-121760000D01*
D12*
G04 #@! TO.C,J7*
X108700000Y-112100000D02*
X111800000Y-112100000D01*
X108700000Y-112450000D02*
X108700000Y-112100000D01*
X108700000Y-115200000D02*
X108700000Y-114850000D01*
X111800000Y-112100000D02*
X111800000Y-112450000D01*
X111800000Y-114850000D02*
X111800000Y-115200000D01*
X111800000Y-115200000D02*
X108700000Y-115200000D01*
D13*
G04 #@! TO.C,U1*
X138144200Y-119644200D02*
X138144200Y-120140008D01*
X138144200Y-123059992D02*
X138144200Y-123555800D01*
X138144200Y-123555800D02*
X138640008Y-123555800D01*
X138640008Y-119644200D02*
X138144200Y-119644200D01*
X141559992Y-123555800D02*
X142055800Y-123555800D01*
X142055800Y-119644200D02*
X141559992Y-119644200D01*
X142055800Y-120140008D02*
X142055800Y-119644200D01*
X142055800Y-123555800D02*
X142055800Y-123059992D01*
D14*
G36*
X139290248Y-124241600D02*
G01*
X138909248Y-124241600D01*
X138909248Y-123987600D01*
X139290248Y-123987600D01*
X139290248Y-124241600D01*
G37*
G36*
X141290752Y-119212400D02*
G01*
X140909752Y-119212400D01*
X140909752Y-118958400D01*
X141290752Y-118958400D01*
X141290752Y-119212400D01*
G37*
D10*
G04 #@! TO.C,C4*
X135092164Y-125440000D02*
X135307836Y-125440000D01*
X135092164Y-126160000D02*
X135307836Y-126160000D01*
G04 #@! TO.C,C27*
X132711252Y-122990000D02*
X131288748Y-122990000D01*
X132711252Y-124810000D02*
X131288748Y-124810000D01*
G04 #@! TO.C,U6*
X109790000Y-118890000D02*
X110340000Y-118890000D01*
X109790000Y-119440000D02*
X109790000Y-118890000D01*
X109790000Y-122560000D02*
X109790000Y-123110000D01*
X109790000Y-123110000D02*
X110340000Y-123110000D01*
X113710000Y-118890000D02*
X113460000Y-118890000D01*
X114010000Y-119130000D02*
X114010000Y-119440000D01*
X114010000Y-122560000D02*
X114010000Y-123110000D01*
X114010000Y-123110000D02*
X113460000Y-123110000D01*
X114010000Y-118890000D02*
X113770000Y-118560000D01*
X114250000Y-118560000D01*
X114010000Y-118890000D01*
G36*
X114010000Y-118890000D02*
G01*
X113770000Y-118560000D01*
X114250000Y-118560000D01*
X114010000Y-118890000D01*
G37*
G04 #@! TO.C,R9*
X108565000Y-129172936D02*
X108565000Y-129627064D01*
X110035000Y-129172936D02*
X110035000Y-129627064D01*
G04 #@! TO.C,TP1*
X109500000Y-118800000D02*
G75*
G02*
X108100000Y-118800000I-700000J0D01*
G01*
X108100000Y-118800000D02*
G75*
G02*
X109500000Y-118800000I700000J0D01*
G01*
G04 #@! TO.C,R15*
X145946359Y-123420000D02*
X146253641Y-123420000D01*
X145946359Y-124180000D02*
X146253641Y-124180000D01*
G04 #@! TO.C,R28*
X121820000Y-120946359D02*
X121820000Y-121253641D01*
X122580000Y-120946359D02*
X122580000Y-121253641D01*
G04 #@! TO.C,U2*
X133500000Y-119440000D02*
X134300000Y-119440000D01*
X133500000Y-122560000D02*
X134300000Y-122560000D01*
X135100000Y-119440000D02*
X134300000Y-119440000D01*
X135100000Y-122560000D02*
X134300000Y-122560000D01*
X135600000Y-119490000D02*
X135360000Y-119160000D01*
X135840000Y-119160000D01*
X135600000Y-119490000D01*
G36*
X135600000Y-119490000D02*
G01*
X135360000Y-119160000D01*
X135840000Y-119160000D01*
X135600000Y-119490000D01*
G37*
D15*
G04 #@! TO.C,D2*
X111450000Y-128410000D02*
G75*
G02*
X111350000Y-128410000I-50000J0D01*
G01*
X111350000Y-128410000D02*
G75*
G02*
X111450000Y-128410000I50000J0D01*
G01*
D10*
G04 #@! TO.C,J9*
X112500000Y-115200000D02*
X112500000Y-116200000D01*
X112500000Y-116200000D02*
X113500000Y-116200000D01*
X115400000Y-113000000D02*
X114400000Y-113000000D01*
X115400000Y-114000000D02*
X115400000Y-113000000D01*
G04 #@! TO.C,C26*
X115890000Y-118340580D02*
X115890000Y-118059420D01*
X116910000Y-118340580D02*
X116910000Y-118059420D01*
G04 #@! TO.C,C29*
X117240000Y-119392164D02*
X117240000Y-119607836D01*
X117960000Y-119392164D02*
X117960000Y-119607836D01*
D12*
G04 #@! TO.C,J6*
X145650001Y-112100000D02*
X148750001Y-112100000D01*
X145650001Y-112450000D02*
X145650001Y-112100000D01*
X145650001Y-115200000D02*
X145650001Y-114850000D01*
X148750001Y-112100000D02*
X148750001Y-112450000D01*
X148750001Y-114850000D02*
X148750001Y-115200000D01*
X148750001Y-115200000D02*
X145650001Y-115200000D01*
D10*
G04 #@! TO.C,C3*
X140992164Y-125840000D02*
X141207836Y-125840000D01*
X140992164Y-126560000D02*
X141207836Y-126560000D01*
G04 #@! TD*
%LPC*%
D16*
G04 #@! TO.C,J10*
X113590000Y-117105000D03*
D17*
X110610000Y-117105000D03*
D16*
X113590000Y-126295000D03*
D17*
X110610000Y-126295000D03*
G04 #@! TD*
D18*
G04 #@! TO.C,J2*
X143900000Y-125000000D03*
D19*
X143900000Y-122500000D03*
X143900000Y-120000000D03*
G04 #@! TD*
D20*
G04 #@! TO.C,J11*
X128690000Y-114900000D03*
D21*
X129960000Y-114900000D03*
X131230000Y-114900000D03*
X132500000Y-114900000D03*
G04 #@! TD*
D22*
G04 #@! TO.C,J12*
X119100000Y-121900000D03*
D21*
X119100000Y-123170000D03*
G04 #@! TD*
D23*
G04 #@! TO.C,H1*
X149050000Y-129600000D03*
X149533274Y-128433274D03*
X149533274Y-130766726D03*
X150700000Y-127950000D03*
D24*
X150700000Y-129600000D03*
D23*
X150700000Y-131250000D03*
X151866726Y-128433274D03*
X151866726Y-130766726D03*
X152350000Y-129600000D03*
G04 #@! TD*
D25*
G04 #@! TO.C,U3*
X116400000Y-127550000D03*
X117450000Y-128600000D03*
X116400000Y-128600000D03*
X115350000Y-128600000D03*
X116400000Y-129650000D03*
G04 #@! TD*
D26*
G04 #@! TO.C,C32*
X119600000Y-124620000D03*
X119600000Y-125580000D03*
G04 #@! TD*
D27*
G04 #@! TO.C,R30*
X114010000Y-131400000D03*
X112990000Y-131400000D03*
G04 #@! TD*
D28*
G04 #@! TO.C,U7*
X122275000Y-123700000D03*
X122275000Y-124350000D03*
X122275000Y-125000000D03*
X120500000Y-125000000D03*
X120500000Y-124350000D03*
X120500000Y-123700000D03*
D29*
X121387500Y-124350000D03*
G04 #@! TD*
D30*
G04 #@! TO.C,R26*
X122200000Y-119710000D03*
X122200000Y-118690000D03*
G04 #@! TD*
D31*
G04 #@! TO.C,C15*
X119120000Y-126600000D03*
X120080000Y-126600000D03*
G04 #@! TD*
D32*
G04 #@! TO.C,C28*
X139124999Y-118000000D03*
X142075001Y-118000000D03*
G04 #@! TD*
D27*
G04 #@! TO.C,R31*
X116010000Y-131200000D03*
X114990000Y-131200000D03*
G04 #@! TD*
D33*
G04 #@! TO.C,C31*
X118375000Y-125000000D03*
X116825000Y-125000000D03*
G04 #@! TD*
G04 #@! TO.C,C40*
X134475000Y-118500000D03*
X132925000Y-118500000D03*
G04 #@! TD*
D34*
G04 #@! TO.C,TP4*
X108800000Y-116800000D03*
G04 #@! TD*
G04 #@! TO.C,TP3*
X113600000Y-124500000D03*
G04 #@! TD*
D35*
G04 #@! TO.C,C24*
X121225000Y-127000000D03*
X122775000Y-127000000D03*
G04 #@! TD*
D27*
G04 #@! TO.C,R16*
X146610000Y-122400000D03*
X145590000Y-122400000D03*
G04 #@! TD*
D36*
G04 #@! TO.C,U5*
X119560000Y-120950000D03*
X119560000Y-120450000D03*
X119560000Y-119950000D03*
X119560000Y-119450000D03*
X121040000Y-119450000D03*
X121040000Y-119950000D03*
X121040000Y-120450000D03*
X121040000Y-120950000D03*
G04 #@! TD*
D37*
G04 #@! TO.C,C13*
X147500000Y-123380000D03*
X147500000Y-122420000D03*
G04 #@! TD*
D27*
G04 #@! TO.C,R17*
X146810000Y-119100000D03*
X145790000Y-119100000D03*
G04 #@! TD*
D34*
G04 #@! TO.C,TP2*
X115100000Y-124100000D03*
G04 #@! TD*
D38*
G04 #@! TO.C,L3*
X130800000Y-119725000D03*
X130800000Y-121875000D03*
G04 #@! TD*
D39*
G04 #@! TO.C,R6*
X138700000Y-125440000D03*
X138700000Y-126460000D03*
G04 #@! TD*
D34*
G04 #@! TO.C,TP5*
X112600000Y-125500000D03*
G04 #@! TD*
G04 #@! TO.C,TP6*
X111200000Y-125000000D03*
G04 #@! TD*
D39*
G04 #@! TO.C,R5*
X139700000Y-125240000D03*
X139700000Y-126260000D03*
G04 #@! TD*
D40*
G04 #@! TO.C,R14*
X138687500Y-128800000D03*
X143912500Y-128800000D03*
G04 #@! TD*
D39*
G04 #@! TO.C,R27*
X123200000Y-119590000D03*
X123200000Y-120610000D03*
G04 #@! TD*
D41*
G04 #@! TO.C,C30*
X109980000Y-124300000D03*
X109020000Y-124300000D03*
G04 #@! TD*
D42*
G04 #@! TO.C,R33*
X115190000Y-120200000D03*
X116210000Y-120200000D03*
G04 #@! TD*
D39*
G04 #@! TO.C,R4*
X142000000Y-124290000D03*
X142000000Y-125310000D03*
G04 #@! TD*
D43*
G04 #@! TO.C,J8*
X150950000Y-114600000D03*
G04 #@! TD*
D26*
G04 #@! TO.C,C25*
X115200000Y-118020000D03*
X115200000Y-118980000D03*
G04 #@! TD*
D41*
G04 #@! TO.C,C19*
X146780000Y-120100000D03*
X145820000Y-120100000D03*
G04 #@! TD*
D44*
G04 #@! TO.C,Q6*
X135650000Y-127295000D03*
X135650000Y-128565000D03*
X135650000Y-129835000D03*
X135650000Y-131105000D03*
D45*
X132925000Y-129200000D03*
G04 #@! TD*
D26*
G04 #@! TO.C,C33*
X123200000Y-123320000D03*
X123200000Y-124280000D03*
G04 #@! TD*
D41*
G04 #@! TO.C,C18*
X146460000Y-121400000D03*
X145500000Y-121400000D03*
G04 #@! TD*
D46*
G04 #@! TO.C,J7*
X110250000Y-113650000D03*
G04 #@! TD*
D47*
G04 #@! TO.C,U1*
X141827200Y-120599748D03*
X141827200Y-121099874D03*
X141827200Y-121600000D03*
X141827200Y-122100126D03*
X141827200Y-122600252D03*
D48*
X141100252Y-123327200D03*
X140600126Y-123327200D03*
X140100000Y-123327200D03*
X139599874Y-123327200D03*
X139099748Y-123327200D03*
D47*
X138372800Y-122600252D03*
X138372800Y-122100126D03*
X138372800Y-121600000D03*
X138372800Y-121099874D03*
X138372800Y-120599748D03*
D48*
X139099748Y-119872800D03*
X139599874Y-119872800D03*
X140100000Y-119872800D03*
X140600126Y-119872800D03*
X141100252Y-119872800D03*
D49*
X140100000Y-121600000D03*
G04 #@! TD*
D41*
G04 #@! TO.C,C4*
X135680000Y-125800000D03*
X134720000Y-125800000D03*
G04 #@! TD*
D32*
G04 #@! TO.C,C27*
X130525000Y-123900000D03*
X133475000Y-123900000D03*
G04 #@! TD*
D50*
G04 #@! TO.C,U6*
X113887500Y-119800000D03*
X113887500Y-120200000D03*
X113887500Y-120600000D03*
X113887500Y-121000000D03*
X113887500Y-121400000D03*
X113887500Y-121800000D03*
X113887500Y-122200000D03*
D51*
X113100000Y-122987500D03*
X112700000Y-122987500D03*
X112300000Y-122987500D03*
X111900000Y-122987500D03*
X111500000Y-122987500D03*
X111100000Y-122987500D03*
X110700000Y-122987500D03*
D50*
X109912500Y-122200000D03*
X109912500Y-121800000D03*
X109912500Y-121400000D03*
X109912500Y-121000000D03*
X109912500Y-120600000D03*
X109912500Y-120200000D03*
X109912500Y-119800000D03*
D51*
X110700000Y-119012500D03*
X111100000Y-119012500D03*
X111500000Y-119012500D03*
X111900000Y-119012500D03*
X112300000Y-119012500D03*
X112700000Y-119012500D03*
X113100000Y-119012500D03*
D52*
X111900000Y-121000000D03*
G04 #@! TD*
D53*
G04 #@! TO.C,R9*
X109300000Y-130312500D03*
X109300000Y-128487500D03*
G04 #@! TD*
D34*
G04 #@! TO.C,TP1*
X108800000Y-118800000D03*
G04 #@! TD*
D27*
G04 #@! TO.C,R15*
X146610000Y-123800000D03*
X145590000Y-123800000D03*
G04 #@! TD*
D30*
G04 #@! TO.C,R28*
X122200000Y-121610000D03*
X122200000Y-120590000D03*
G04 #@! TD*
D54*
G04 #@! TO.C,U2*
X135437500Y-120050000D03*
X135437500Y-121000000D03*
X135437500Y-121950000D03*
X133162500Y-121950000D03*
X133162500Y-121000000D03*
X133162500Y-120050000D03*
G04 #@! TD*
D55*
G04 #@! TO.C,D2*
X111400000Y-129015000D03*
X111400000Y-129985000D03*
G04 #@! TD*
D43*
G04 #@! TO.C,J9*
X113950000Y-114600000D03*
G04 #@! TD*
D56*
G04 #@! TO.C,C26*
X116400000Y-117425000D03*
X116400000Y-118975000D03*
G04 #@! TD*
D37*
G04 #@! TO.C,C29*
X117600000Y-119980000D03*
X117600000Y-119020000D03*
G04 #@! TD*
D46*
G04 #@! TO.C,J6*
X147200001Y-113650000D03*
G04 #@! TD*
D41*
G04 #@! TO.C,C3*
X141580000Y-126200000D03*
X140620000Y-126200000D03*
G04 #@! TD*
D23*
G04 #@! TO.C,H2*
X149533274Y-123833274D03*
X150700000Y-123350000D03*
X149050000Y-125000000D03*
X151866726Y-123833274D03*
D24*
X150700000Y-125000000D03*
D23*
X149533274Y-126166726D03*
X152350000Y-125000000D03*
X150700000Y-126650000D03*
X151866726Y-126166726D03*
G04 #@! TD*
G36*
X127509641Y-113201527D02*
G01*
X127604206Y-113216504D01*
X127641104Y-113228492D01*
X127717616Y-113267477D01*
X127749002Y-113290281D01*
X127809718Y-113350997D01*
X127832522Y-113382383D01*
X127871507Y-113458895D01*
X127883495Y-113495792D01*
X127898473Y-113590357D01*
X127900000Y-113609755D01*
X127900000Y-115200005D01*
X127919575Y-115323604D01*
X127976394Y-115435114D01*
X127976397Y-115435119D01*
X128064880Y-115523602D01*
X128064885Y-115523605D01*
X128176396Y-115580424D01*
X128176395Y-115580424D01*
X128299995Y-115600000D01*
X132800005Y-115600000D01*
X132923604Y-115580424D01*
X133035114Y-115523605D01*
X133035119Y-115523602D01*
X133123602Y-115435119D01*
X133123605Y-115435114D01*
X133180424Y-115323604D01*
X133200000Y-115200005D01*
X133200000Y-113609755D01*
X133201527Y-113590358D01*
X133216504Y-113495793D01*
X133228492Y-113458895D01*
X133267477Y-113382383D01*
X133290281Y-113350997D01*
X133350997Y-113290281D01*
X133382383Y-113267477D01*
X133458895Y-113228492D01*
X133495793Y-113216503D01*
X133590359Y-113201526D01*
X133609756Y-113200000D01*
X145090244Y-113200000D01*
X145109641Y-113201527D01*
X145204206Y-113216504D01*
X145241104Y-113228492D01*
X145317616Y-113267477D01*
X145349002Y-113290281D01*
X145409718Y-113350997D01*
X145432522Y-113382383D01*
X145471507Y-113458895D01*
X145483495Y-113495792D01*
X145498473Y-113590357D01*
X145500000Y-113609755D01*
X145500000Y-115000005D01*
X145519575Y-115123604D01*
X145576394Y-115235114D01*
X145576397Y-115235119D01*
X145664880Y-115323602D01*
X145664885Y-115323605D01*
X145776396Y-115380424D01*
X145776395Y-115380424D01*
X145899995Y-115400000D01*
X148890244Y-115400000D01*
X148909641Y-115401527D01*
X149004206Y-115416504D01*
X149041104Y-115428492D01*
X149117616Y-115467477D01*
X149149002Y-115490281D01*
X149209718Y-115550997D01*
X149232522Y-115582383D01*
X149271507Y-115658895D01*
X149283495Y-115695792D01*
X149298473Y-115790357D01*
X149300000Y-115809755D01*
X149300000Y-115890244D01*
X149298473Y-115909642D01*
X149283495Y-116004207D01*
X149271507Y-116041104D01*
X149232522Y-116117616D01*
X149209718Y-116149002D01*
X149149002Y-116209718D01*
X149117616Y-116232522D01*
X149041104Y-116271507D01*
X149004207Y-116283495D01*
X148909642Y-116298473D01*
X148890244Y-116300000D01*
X137757074Y-116300000D01*
X137610872Y-116327677D01*
X137610867Y-116327679D01*
X137484893Y-116406884D01*
X137484890Y-116406887D01*
X136323630Y-117485199D01*
X136305257Y-117499308D01*
X136209004Y-117559827D01*
X136166066Y-117576688D01*
X136054356Y-117597836D01*
X136031291Y-117600000D01*
X130974766Y-117600000D01*
X130866298Y-117614987D01*
X130765956Y-117658828D01*
X130765950Y-117658832D01*
X130681262Y-117728236D01*
X128406494Y-120184986D01*
X128406493Y-120184987D01*
X128327573Y-120310807D01*
X128327572Y-120310809D01*
X128300000Y-120456744D01*
X128300000Y-124846427D01*
X128300001Y-124846458D01*
X128303537Y-124899516D01*
X128303539Y-124899530D01*
X128314092Y-124951674D01*
X128579910Y-125926337D01*
X128606487Y-125996826D01*
X128606491Y-125996833D01*
X128645811Y-126061080D01*
X128645812Y-126061082D01*
X129114001Y-126685335D01*
X129124638Y-126702186D01*
X129170134Y-126789018D01*
X129182696Y-126826704D01*
X129198399Y-126923467D01*
X129200000Y-126943330D01*
X129200000Y-131190244D01*
X129198473Y-131209642D01*
X129183495Y-131304207D01*
X129171507Y-131341104D01*
X129132522Y-131417616D01*
X129109718Y-131449002D01*
X129049002Y-131509718D01*
X129017616Y-131532522D01*
X128941104Y-131571507D01*
X128904207Y-131583495D01*
X128809642Y-131598473D01*
X128790244Y-131600000D01*
X125209756Y-131600000D01*
X125190358Y-131598473D01*
X125095792Y-131583495D01*
X125058895Y-131571507D01*
X124982383Y-131532522D01*
X124950997Y-131509718D01*
X124890281Y-131449002D01*
X124867477Y-131417616D01*
X124828492Y-131341104D01*
X124816504Y-131304206D01*
X124801527Y-131209641D01*
X124800000Y-131190244D01*
X124800000Y-116399994D01*
X124780424Y-116276395D01*
X124723605Y-116164885D01*
X124723602Y-116164880D01*
X124635119Y-116076397D01*
X124635114Y-116076394D01*
X124523603Y-116019575D01*
X124523604Y-116019575D01*
X124400005Y-116000000D01*
X115909756Y-116000000D01*
X115890358Y-115998473D01*
X115795792Y-115983495D01*
X115758895Y-115971507D01*
X115682383Y-115932522D01*
X115650997Y-115909718D01*
X115590281Y-115849002D01*
X115567477Y-115817616D01*
X115528492Y-115741104D01*
X115516504Y-115704206D01*
X115501527Y-115609641D01*
X115500000Y-115590244D01*
X115500000Y-113609755D01*
X115501527Y-113590358D01*
X115516504Y-113495793D01*
X115528492Y-113458895D01*
X115567477Y-113382383D01*
X115590281Y-113350997D01*
X115650997Y-113290281D01*
X115682383Y-113267477D01*
X115758895Y-113228492D01*
X115795793Y-113216503D01*
X115890359Y-113201526D01*
X115909756Y-113200000D01*
X127490244Y-113200000D01*
X127509641Y-113201527D01*
G37*
%LPD*%
M02*
