G04 #@! TF.GenerationSoftware,KiCad,Pcbnew,8.0.7-8.0.7-0~ubuntu24.04.1*
G04 #@! TF.CreationDate,2025-01-09T22:08:51-07:00*
G04 #@! TF.ProjectId,2s 40A PSU and charger,32732034-3041-4205-9053-5520616e6420,V1*
G04 #@! TF.SameCoordinates,Original*
G04 #@! TF.FileFunction,Copper,L4,Bot*
G04 #@! TF.FilePolarity,Positive*
%FSLAX46Y46*%
G04 Gerber Fmt 4.6, Leading zero omitted, Abs format (unit mm)*
G04 Created by KiCad (PCBNEW 8.0.7-8.0.7-0~ubuntu24.04.1) date 2025-01-09 22:08:51*
%MOMM*%
%LPD*%
G01*
G04 APERTURE LIST*
G04 Aperture macros list*
%AMRoundRect*
0 Rectangle with rounded corners*
0 $1 Rounding radius*
0 $2 $3 $4 $5 $6 $7 $8 $9 X,Y pos of 4 corners*
0 Add a 4 corners polygon primitive as box body*
4,1,4,$2,$3,$4,$5,$6,$7,$8,$9,$2,$3,0*
0 Add four circle primitives for the rounded corners*
1,1,$1+$1,$2,$3*
1,1,$1+$1,$4,$5*
1,1,$1+$1,$6,$7*
1,1,$1+$1,$8,$9*
0 Add four rect primitives between the rounded corners*
20,1,$1+$1,$2,$3,$4,$5,0*
20,1,$1+$1,$4,$5,$6,$7,0*
20,1,$1+$1,$6,$7,$8,$9,0*
20,1,$1+$1,$8,$9,$2,$3,0*%
%AMFreePoly0*
4,1,9,2.350000,2.000000,2.100000,2.000000,2.100000,-1.100000,-2.100000,-1.100000,-2.100000,2.000000,-2.350000,2.000000,-2.350000,3.500000,2.350000,3.500000,2.350000,2.000000,2.350000,2.000000,$1*%
G04 Aperture macros list end*
G04 #@! TA.AperFunction,EtchedComponent*
%ADD10C,0.000000*%
G04 #@! TD*
G04 #@! TA.AperFunction,ComponentPad*
%ADD11C,0.850000*%
G04 #@! TD*
G04 #@! TA.AperFunction,ComponentPad*
%ADD12O,2.050000X0.800000*%
G04 #@! TD*
G04 #@! TA.AperFunction,ComponentPad*
%ADD13RoundRect,0.250000X0.725000X-0.600000X0.725000X0.600000X-0.725000X0.600000X-0.725000X-0.600000X0*%
G04 #@! TD*
G04 #@! TA.AperFunction,ComponentPad*
%ADD14O,1.950000X1.700000*%
G04 #@! TD*
G04 #@! TA.AperFunction,ComponentPad*
%ADD15R,1.000000X1.000000*%
G04 #@! TD*
G04 #@! TA.AperFunction,ComponentPad*
%ADD16O,1.000000X1.000000*%
G04 #@! TD*
G04 #@! TA.AperFunction,ComponentPad*
%ADD17C,0.700000*%
G04 #@! TD*
G04 #@! TA.AperFunction,ComponentPad*
%ADD18C,4.400000*%
G04 #@! TD*
G04 #@! TA.AperFunction,ComponentPad*
%ADD19C,0.600000*%
G04 #@! TD*
G04 #@! TA.AperFunction,SMDPad,CuDef*
%ADD20RoundRect,0.140000X-0.170000X0.140000X-0.170000X-0.140000X0.170000X-0.140000X0.170000X0.140000X0*%
G04 #@! TD*
G04 #@! TA.AperFunction,SMDPad,CuDef*
%ADD21RoundRect,0.135000X0.135000X0.185000X-0.135000X0.185000X-0.135000X-0.185000X0.135000X-0.185000X0*%
G04 #@! TD*
G04 #@! TA.AperFunction,SMDPad,CuDef*
%ADD22RoundRect,0.093750X0.093750X0.106250X-0.093750X0.106250X-0.093750X-0.106250X0.093750X-0.106250X0*%
G04 #@! TD*
G04 #@! TA.AperFunction,HeatsinkPad*
%ADD23R,1.000000X1.600000*%
G04 #@! TD*
G04 #@! TA.AperFunction,SMDPad,CuDef*
%ADD24C,0.280000*%
G04 #@! TD*
G04 #@! TA.AperFunction,SMDPad,CuDef*
%ADD25RoundRect,0.135000X0.185000X-0.135000X0.185000X0.135000X-0.185000X0.135000X-0.185000X-0.135000X0*%
G04 #@! TD*
G04 #@! TA.AperFunction,SMDPad,CuDef*
%ADD26RoundRect,0.140000X-0.140000X-0.170000X0.140000X-0.170000X0.140000X0.170000X-0.140000X0.170000X0*%
G04 #@! TD*
G04 #@! TA.AperFunction,SMDPad,CuDef*
%ADD27RoundRect,0.250000X-0.325000X-0.650000X0.325000X-0.650000X0.325000X0.650000X-0.325000X0.650000X0*%
G04 #@! TD*
G04 #@! TA.AperFunction,SMDPad,CuDef*
%ADD28RoundRect,0.225000X0.225000X0.250000X-0.225000X0.250000X-0.225000X-0.250000X0.225000X-0.250000X0*%
G04 #@! TD*
G04 #@! TA.AperFunction,SMDPad,CuDef*
%ADD29C,1.000000*%
G04 #@! TD*
G04 #@! TA.AperFunction,SMDPad,CuDef*
%ADD30RoundRect,0.225000X-0.225000X-0.250000X0.225000X-0.250000X0.225000X0.250000X-0.225000X0.250000X0*%
G04 #@! TD*
G04 #@! TA.AperFunction,SMDPad,CuDef*
%ADD31RoundRect,0.050000X-0.285000X-0.100000X0.285000X-0.100000X0.285000X0.100000X-0.285000X0.100000X0*%
G04 #@! TD*
G04 #@! TA.AperFunction,SMDPad,CuDef*
%ADD32RoundRect,0.140000X0.170000X-0.140000X0.170000X0.140000X-0.170000X0.140000X-0.170000X-0.140000X0*%
G04 #@! TD*
G04 #@! TA.AperFunction,SMDPad,CuDef*
%ADD33RoundRect,0.250000X-0.850000X0.375000X-0.850000X-0.375000X0.850000X-0.375000X0.850000X0.375000X0*%
G04 #@! TD*
G04 #@! TA.AperFunction,SMDPad,CuDef*
%ADD34RoundRect,0.135000X-0.185000X0.135000X-0.185000X-0.135000X0.185000X-0.135000X0.185000X0.135000X0*%
G04 #@! TD*
G04 #@! TA.AperFunction,SMDPad,CuDef*
%ADD35C,0.200000*%
G04 #@! TD*
G04 #@! TA.AperFunction,SMDPad,CuDef*
%ADD36RoundRect,0.367348X-0.532652X-1.332652X0.532652X-1.332652X0.532652X1.332652X-0.532652X1.332652X0*%
G04 #@! TD*
G04 #@! TA.AperFunction,SMDPad,CuDef*
%ADD37RoundRect,0.140000X0.140000X0.170000X-0.140000X0.170000X-0.140000X-0.170000X0.140000X-0.170000X0*%
G04 #@! TD*
G04 #@! TA.AperFunction,SMDPad,CuDef*
%ADD38RoundRect,0.135000X-0.135000X-0.185000X0.135000X-0.185000X0.135000X0.185000X-0.135000X0.185000X0*%
G04 #@! TD*
G04 #@! TA.AperFunction,SMDPad,CuDef*
%ADD39R,2.500000X2.800000*%
G04 #@! TD*
G04 #@! TA.AperFunction,SMDPad,CuDef*
%ADD40RoundRect,0.175000X0.400000X-0.175000X0.400000X0.175000X-0.400000X0.175000X-0.400000X-0.175000X0*%
G04 #@! TD*
G04 #@! TA.AperFunction,SMDPad,CuDef*
%ADD41FreePoly0,90.000000*%
G04 #@! TD*
G04 #@! TA.AperFunction,SMDPad,CuDef*
%ADD42R,2.800000X2.800000*%
G04 #@! TD*
G04 #@! TA.AperFunction,SMDPad,CuDef*
%ADD43R,0.812800X0.254000*%
G04 #@! TD*
G04 #@! TA.AperFunction,SMDPad,CuDef*
%ADD44R,0.254000X0.812800*%
G04 #@! TD*
G04 #@! TA.AperFunction,SMDPad,CuDef*
%ADD45R,2.159000X2.159000*%
G04 #@! TD*
G04 #@! TA.AperFunction,SMDPad,CuDef*
%ADD46RoundRect,0.050000X0.337500X0.050000X-0.337500X0.050000X-0.337500X-0.050000X0.337500X-0.050000X0*%
G04 #@! TD*
G04 #@! TA.AperFunction,SMDPad,CuDef*
%ADD47RoundRect,0.050000X0.050000X0.337500X-0.050000X0.337500X-0.050000X-0.337500X0.050000X-0.337500X0*%
G04 #@! TD*
G04 #@! TA.AperFunction,HeatsinkPad*
%ADD48R,2.800000X2.800000*%
G04 #@! TD*
G04 #@! TA.AperFunction,SMDPad,CuDef*
%ADD49RoundRect,0.250000X0.450000X-0.262500X0.450000X0.262500X-0.450000X0.262500X-0.450000X-0.262500X0*%
G04 #@! TD*
G04 #@! TA.AperFunction,SMDPad,CuDef*
%ADD50RoundRect,0.150000X0.512500X0.150000X-0.512500X0.150000X-0.512500X-0.150000X0.512500X-0.150000X0*%
G04 #@! TD*
G04 #@! TA.AperFunction,SMDPad,CuDef*
%ADD51RoundRect,0.147500X-0.172500X0.147500X-0.172500X-0.147500X0.172500X-0.147500X0.172500X0.147500X0*%
G04 #@! TD*
G04 #@! TA.AperFunction,SMDPad,CuDef*
%ADD52RoundRect,0.225000X-0.250000X0.225000X-0.250000X-0.225000X0.250000X-0.225000X0.250000X0.225000X0*%
G04 #@! TD*
G04 #@! TA.AperFunction,ViaPad*
%ADD53C,0.600000*%
G04 #@! TD*
G04 #@! TA.AperFunction,ViaPad*
%ADD54C,0.800000*%
G04 #@! TD*
G04 #@! TA.AperFunction,ViaPad*
%ADD55C,1.000000*%
G04 #@! TD*
G04 #@! TA.AperFunction,Conductor*
%ADD56C,0.160000*%
G04 #@! TD*
G04 #@! TA.AperFunction,Conductor*
%ADD57C,0.800000*%
G04 #@! TD*
G04 #@! TA.AperFunction,Conductor*
%ADD58C,0.280000*%
G04 #@! TD*
G04 #@! TA.AperFunction,Conductor*
%ADD59C,0.600000*%
G04 #@! TD*
G04 #@! TA.AperFunction,Conductor*
%ADD60C,0.200000*%
G04 #@! TD*
G04 APERTURE END LIST*
D10*
G04 #@! TA.AperFunction,EtchedComponent*
G04 #@! TO.C,NT7*
G36*
X145435000Y-120140000D02*
G01*
X144875000Y-120140000D01*
X144875000Y-119860000D01*
X145435000Y-119860000D01*
X145435000Y-120140000D01*
G37*
G04 #@! TD.AperFunction*
G04 #@! TA.AperFunction,EtchedComponent*
G04 #@! TO.C,NT8*
G36*
X145280000Y-124440000D02*
G01*
X144720000Y-124440000D01*
X144720000Y-124160000D01*
X145280000Y-124160000D01*
X145280000Y-124440000D01*
G37*
G04 #@! TD.AperFunction*
G04 #@! TA.AperFunction,EtchedComponent*
G04 #@! TO.C,NT1*
G36*
X143000000Y-128900000D02*
G01*
X142600000Y-128900000D01*
X142600000Y-128700000D01*
X143000000Y-128700000D01*
X143000000Y-128900000D01*
G37*
G04 #@! TD.AperFunction*
G04 #@! TA.AperFunction,EtchedComponent*
G04 #@! TO.C,NT10*
G36*
X112696985Y-130598995D02*
G01*
X112498995Y-130796985D01*
X112103015Y-130401005D01*
X112301005Y-130203015D01*
X112696985Y-130598995D01*
G37*
G04 #@! TD.AperFunction*
G04 #@! TA.AperFunction,EtchedComponent*
G04 #@! TO.C,NT11*
G36*
X140000000Y-128900000D02*
G01*
X139600000Y-128900000D01*
X139600000Y-128700000D01*
X140000000Y-128700000D01*
X140000000Y-128900000D01*
G37*
G04 #@! TD.AperFunction*
G04 #@! TD*
D11*
G04 #@! TO.P,J10,S1,SHIELD*
G04 #@! TO.N,GND*
X113590000Y-117105000D03*
D12*
X110610000Y-117105000D03*
D11*
X113590000Y-126295000D03*
D12*
X110610000Y-126295000D03*
G04 #@! TD*
D13*
G04 #@! TO.P,J2,1,Pin_1*
G04 #@! TO.N,/Battery Balancer/+BAT*
X143900000Y-125000000D03*
D14*
G04 #@! TO.P,J2,2,Pin_2*
G04 #@! TO.N,/Battery Balancer/Bat Cell 1*
X143900000Y-122500000D03*
G04 #@! TO.P,J2,3,Pin_3*
G04 #@! TO.N,/Battery Balancer/-BAT*
X143900000Y-120000000D03*
G04 #@! TD*
D15*
G04 #@! TO.P,J11,1,Pin_1*
G04 #@! TO.N,/Connectors/3.3v*
X128690000Y-114900000D03*
D16*
G04 #@! TO.P,J11,2,Pin_2*
G04 #@! TO.N,/Connectors/RS485+*
X129960000Y-114900000D03*
G04 #@! TO.P,J11,3,Pin_3*
G04 #@! TO.N,/Connectors/RS485-*
X131230000Y-114900000D03*
G04 #@! TO.P,J11,4,Pin_4*
G04 #@! TO.N,GND*
X132500000Y-114900000D03*
G04 #@! TD*
D15*
G04 #@! TO.P,J12,1,Pin_1*
G04 #@! TO.N,/Connectors/D+*
X119100000Y-121900000D03*
D16*
G04 #@! TO.P,J12,2,Pin_2*
G04 #@! TO.N,/Connectors/D-*
X119100000Y-123170000D03*
G04 #@! TD*
D17*
G04 #@! TO.P,H1,1,1*
G04 #@! TO.N,/Battery Balancer/+BAT*
X149050000Y-129600000D03*
X149533274Y-128433274D03*
X149533274Y-130766726D03*
X150700000Y-127950000D03*
D18*
X150700000Y-129600000D03*
D17*
X150700000Y-131250000D03*
X151866726Y-128433274D03*
X151866726Y-130766726D03*
X152350000Y-129600000D03*
G04 #@! TD*
D19*
G04 #@! TO.P,U3,29,PAD*
G04 #@! TO.N,GND*
X116400000Y-127550000D03*
X117450000Y-128600000D03*
X116400000Y-128600000D03*
X115350000Y-128600000D03*
X116400000Y-129650000D03*
G04 #@! TD*
D20*
G04 #@! TO.P,C32,1*
G04 #@! TO.N,/Battery Charger/Always On PWR*
X119600000Y-124620000D03*
G04 #@! TO.P,C32,2*
G04 #@! TO.N,GND*
X119600000Y-125580000D03*
G04 #@! TD*
D21*
G04 #@! TO.P,R30,1*
G04 #@! TO.N,Net-(U3-CMPIN)*
X114010000Y-131400000D03*
G04 #@! TO.P,R30,2*
G04 #@! TO.N,/Battery Balancer/+BAT*
X112990000Y-131400000D03*
G04 #@! TD*
D22*
G04 #@! TO.P,U7,1,OUT*
G04 #@! TO.N,/Battery Charger/MCU3.3v*
X122275000Y-123700000D03*
G04 #@! TO.P,U7,2,NC*
G04 #@! TO.N,GND*
X122275000Y-124350000D03*
G04 #@! TO.P,U7,3,PG*
G04 #@! TO.N,unconnected-(U7-PG-Pad3)*
X122275000Y-125000000D03*
G04 #@! TO.P,U7,4,EN*
G04 #@! TO.N,/Battery Charger/Always On PWR*
X120500000Y-125000000D03*
G04 #@! TO.P,U7,5,GND*
G04 #@! TO.N,GND*
X120500000Y-124350000D03*
G04 #@! TO.P,U7,6,IN*
G04 #@! TO.N,/Battery Charger/Always On PWR*
X120500000Y-123700000D03*
D23*
G04 #@! TO.P,U7,7,EP*
G04 #@! TO.N,GND*
X121387500Y-124350000D03*
G04 #@! TD*
D24*
G04 #@! TO.P,NT7,1,1*
G04 #@! TO.N,Net-(C18-Pad2)*
X145435000Y-120000000D03*
G04 #@! TO.P,NT7,2,2*
G04 #@! TO.N,/Battery Balancer/-BAT*
X144875000Y-120000000D03*
G04 #@! TD*
D25*
G04 #@! TO.P,R26,1*
G04 #@! TO.N,/Connectors/RS485-*
X122200000Y-119710000D03*
G04 #@! TO.P,R26,2*
G04 #@! TO.N,GND*
X122200000Y-118690000D03*
G04 #@! TD*
D26*
G04 #@! TO.P,C15,1*
G04 #@! TO.N,/Battery Charger/Always On PWR*
X119120000Y-126600000D03*
G04 #@! TO.P,C15,2*
G04 #@! TO.N,GND*
X120080000Y-126600000D03*
G04 #@! TD*
D27*
G04 #@! TO.P,C28,1*
G04 #@! TO.N,/Battery Charger/MOTORPWR*
X139124999Y-118000000D03*
G04 #@! TO.P,C28,2*
G04 #@! TO.N,GND*
X142075001Y-118000000D03*
G04 #@! TD*
D21*
G04 #@! TO.P,R31,1*
G04 #@! TO.N,GND*
X116010000Y-131200000D03*
G04 #@! TO.P,R31,2*
G04 #@! TO.N,Net-(U3-CMPIN)*
X114990000Y-131200000D03*
G04 #@! TD*
D28*
G04 #@! TO.P,C31,1*
G04 #@! TO.N,/Battery Charger/Always On PWR*
X118375000Y-125000000D03*
G04 #@! TO.P,C31,2*
G04 #@! TO.N,GND*
X116825000Y-125000000D03*
G04 #@! TD*
G04 #@! TO.P,C40,1*
G04 #@! TO.N,Net-(U2-BST)*
X134475000Y-118500000D03*
G04 #@! TO.P,C40,2*
G04 #@! TO.N,Net-(U2-SW)*
X132925000Y-118500000D03*
G04 #@! TD*
D24*
G04 #@! TO.P,NT8,1,1*
G04 #@! TO.N,Net-(NT8-Pad1)*
X145280000Y-124300000D03*
G04 #@! TO.P,NT8,2,2*
G04 #@! TO.N,/Battery Balancer/+BAT*
X144720000Y-124300000D03*
G04 #@! TD*
D29*
G04 #@! TO.P,TP4,1,1*
G04 #@! TO.N,/SDA*
X108800000Y-116800000D03*
G04 #@! TD*
G04 #@! TO.P,TP3,1,1*
G04 #@! TO.N,/MCU/SCLK*
X113600000Y-124500000D03*
G04 #@! TD*
D30*
G04 #@! TO.P,C24,1*
G04 #@! TO.N,/Battery Charger/REGN*
X121225000Y-127000000D03*
G04 #@! TO.P,C24,2*
G04 #@! TO.N,GND*
X122775000Y-127000000D03*
G04 #@! TD*
D21*
G04 #@! TO.P,R16,1*
G04 #@! TO.N,/Battery Balancer/Mid*
X146610000Y-122400000D03*
G04 #@! TO.P,R16,2*
G04 #@! TO.N,/Battery Balancer/Bat Cell 1*
X145590000Y-122400000D03*
G04 #@! TD*
D31*
G04 #@! TO.P,U5,1,RO*
G04 #@! TO.N,/MCU/UART1_RX*
X119560000Y-120950000D03*
G04 #@! TO.P,U5,2,~{RE}*
G04 #@! TO.N,GND*
X119560000Y-120450000D03*
G04 #@! TO.P,U5,3,DE*
G04 #@! TO.N,/MCU/UART1-RTS*
X119560000Y-119950000D03*
G04 #@! TO.P,U5,4,DI*
G04 #@! TO.N,/MCU/UART1_TX*
X119560000Y-119450000D03*
G04 #@! TO.P,U5,5,GND*
G04 #@! TO.N,GND*
X121040000Y-119450000D03*
G04 #@! TO.P,U5,6,A*
G04 #@! TO.N,/Connectors/RS485-*
X121040000Y-119950000D03*
G04 #@! TO.P,U5,7,B*
G04 #@! TO.N,/Connectors/RS485+*
X121040000Y-120450000D03*
G04 #@! TO.P,U5,8,VCC*
G04 #@! TO.N,/Battery Charger/MCU3.3v*
X121040000Y-120950000D03*
G04 #@! TD*
D32*
G04 #@! TO.P,C13,1*
G04 #@! TO.N,/Battery Balancer/Up*
X147500000Y-123380000D03*
G04 #@! TO.P,C13,2*
G04 #@! TO.N,/Battery Balancer/Mid*
X147500000Y-122420000D03*
G04 #@! TD*
D21*
G04 #@! TO.P,R17,1*
G04 #@! TO.N,/Battery Balancer/Low*
X146810000Y-119100000D03*
G04 #@! TO.P,R17,2*
G04 #@! TO.N,Net-(C18-Pad2)*
X145790000Y-119100000D03*
G04 #@! TD*
D29*
G04 #@! TO.P,TP2,1,1*
G04 #@! TO.N,/MCU/CS*
X115100000Y-124100000D03*
G04 #@! TD*
D33*
G04 #@! TO.P,L3,1,1*
G04 #@! TO.N,Net-(U2-SW)*
X130800000Y-119725000D03*
G04 #@! TO.P,L3,2,2*
G04 #@! TO.N,/Connectors/3.3v*
X130800000Y-121875000D03*
G04 #@! TD*
D34*
G04 #@! TO.P,R6,1*
G04 #@! TO.N,Net-(U1-DSG)*
X138700000Y-125440000D03*
G04 #@! TO.P,R6,2*
G04 #@! TO.N,Net-(Q6-G)*
X138700000Y-126460000D03*
G04 #@! TD*
D35*
G04 #@! TO.P,NT1,1,1*
G04 #@! TO.N,/Battery Balancer/-BAT*
X143000000Y-128800000D03*
G04 #@! TO.P,NT1,2,2*
G04 #@! TO.N,Net-(C3-Pad1)*
X142600000Y-128800000D03*
G04 #@! TD*
D29*
G04 #@! TO.P,TP5,1,1*
G04 #@! TO.N,/MCU/MISO*
X112600000Y-125500000D03*
G04 #@! TD*
G04 #@! TO.P,TP6,1,1*
G04 #@! TO.N,/MCU/MOSI*
X111200000Y-125000000D03*
G04 #@! TD*
D34*
G04 #@! TO.P,R5,1*
G04 #@! TO.N,Net-(U1-SRN)*
X139700000Y-125240000D03*
G04 #@! TO.P,R5,2*
G04 #@! TO.N,Net-(C3-Pad2)*
X139700000Y-126260000D03*
G04 #@! TD*
D36*
G04 #@! TO.P,R14,1*
G04 #@! TO.N,Net-(C4-Pad1)*
X138687500Y-128800000D03*
G04 #@! TO.P,R14,2*
G04 #@! TO.N,/Battery Balancer/-BAT*
X143912500Y-128800000D03*
G04 #@! TD*
D34*
G04 #@! TO.P,R27,1*
G04 #@! TO.N,/Connectors/RS485-*
X123200000Y-119590000D03*
G04 #@! TO.P,R27,2*
G04 #@! TO.N,/Connectors/RS485+*
X123200000Y-120610000D03*
G04 #@! TD*
D24*
G04 #@! TO.P,NT10,1,1*
G04 #@! TO.N,Net-(D2-A)*
X112202010Y-130302010D03*
G04 #@! TO.P,NT10,2,2*
G04 #@! TO.N,/Battery Balancer/+BAT*
X112597990Y-130697990D03*
G04 #@! TD*
D37*
G04 #@! TO.P,C30,1*
G04 #@! TO.N,/Battery Charger/Charger IDCHG*
X109980000Y-124300000D03*
G04 #@! TO.P,C30,2*
G04 #@! TO.N,GND*
X109020000Y-124300000D03*
G04 #@! TD*
D38*
G04 #@! TO.P,R33,1*
G04 #@! TO.N,GND*
X115190000Y-120200000D03*
G04 #@! TO.P,R33,2*
G04 #@! TO.N,/Connectors/CC1*
X116210000Y-120200000D03*
G04 #@! TD*
D34*
G04 #@! TO.P,R4,1*
G04 #@! TO.N,Net-(U1-SRP)*
X142000000Y-124290000D03*
G04 #@! TO.P,R4,2*
G04 #@! TO.N,Net-(C3-Pad1)*
X142000000Y-125310000D03*
G04 #@! TD*
D39*
G04 #@! TO.P,J8,1,Pin_1*
G04 #@! TO.N,GND*
X150950000Y-114600000D03*
G04 #@! TD*
D20*
G04 #@! TO.P,C25,1*
G04 #@! TO.N,/Battery Charger/MCU3.3v*
X115200000Y-118020000D03*
G04 #@! TO.P,C25,2*
G04 #@! TO.N,GND*
X115200000Y-118980000D03*
G04 #@! TD*
D37*
G04 #@! TO.P,C19,1*
G04 #@! TO.N,/Battery Balancer/Low*
X146780000Y-120100000D03*
G04 #@! TO.P,C19,2*
G04 #@! TO.N,Net-(C18-Pad2)*
X145820000Y-120100000D03*
G04 #@! TD*
D40*
G04 #@! TO.P,Q6,1,S*
G04 #@! TO.N,Net-(C4-Pad1)*
X135650000Y-127295000D03*
G04 #@! TO.P,Q6,2,S*
X135650000Y-128565000D03*
G04 #@! TO.P,Q6,3,S*
X135650000Y-129835000D03*
G04 #@! TO.P,Q6,4,G*
G04 #@! TO.N,Net-(Q6-G)*
X135650000Y-131105000D03*
D41*
G04 #@! TO.P,Q6,5,D*
G04 #@! TO.N,GND*
X132925000Y-129200000D03*
G04 #@! TD*
D20*
G04 #@! TO.P,C33,1*
G04 #@! TO.N,/Battery Charger/MCU3.3v*
X123200000Y-123320000D03*
G04 #@! TO.P,C33,2*
G04 #@! TO.N,GND*
X123200000Y-124280000D03*
G04 #@! TD*
D37*
G04 #@! TO.P,C18,1*
G04 #@! TO.N,/Battery Balancer/Mid*
X146460000Y-121400000D03*
G04 #@! TO.P,C18,2*
G04 #@! TO.N,Net-(C18-Pad2)*
X145500000Y-121400000D03*
G04 #@! TD*
D42*
G04 #@! TO.P,J7,1,Pin_1*
G04 #@! TO.N,GND*
X110250000Y-113650000D03*
G04 #@! TD*
D43*
G04 #@! TO.P,U1,1,VC3A*
G04 #@! TO.N,/Battery Balancer/Mid*
X141827200Y-120599748D03*
G04 #@! TO.P,U1,2,VC3B*
X141827200Y-121099874D03*
G04 #@! TO.P,U1,3,VC2*
X141827200Y-121600000D03*
G04 #@! TO.P,U1,4,VC1*
X141827200Y-122100126D03*
G04 #@! TO.P,U1,5,VC0*
G04 #@! TO.N,/Battery Balancer/Low*
X141827200Y-122600252D03*
D44*
G04 #@! TO.P,U1,6,SRP*
G04 #@! TO.N,Net-(U1-SRP)*
X141100252Y-123327200D03*
G04 #@! TO.P,U1,7,SRN*
G04 #@! TO.N,Net-(U1-SRN)*
X140600126Y-123327200D03*
G04 #@! TO.P,U1,8,TS*
G04 #@! TO.N,/Battery Balancer/-BAT*
X140100000Y-123327200D03*
G04 #@! TO.P,U1,9,DSG*
G04 #@! TO.N,Net-(U1-DSG)*
X139599874Y-123327200D03*
G04 #@! TO.P,U1,10,CHG*
G04 #@! TO.N,unconnected-(U1-CHG-Pad10)*
X139099748Y-123327200D03*
D43*
G04 #@! TO.P,U1,11,VSS*
G04 #@! TO.N,/Battery Balancer/-BAT*
X138372800Y-122600252D03*
G04 #@! TO.P,U1,12,SCL*
G04 #@! TO.N,/SCL*
X138372800Y-122100126D03*
G04 #@! TO.P,U1,13,SDA*
G04 #@! TO.N,/SDA*
X138372800Y-121600000D03*
G04 #@! TO.P,U1,14,ALERT*
G04 #@! TO.N,/Battery Balancer/Balancer Alert*
X138372800Y-121099874D03*
G04 #@! TO.P,U1,15,REGOUT*
G04 #@! TO.N,unconnected-(U1-REGOUT-Pad15)*
X138372800Y-120599748D03*
D44*
G04 #@! TO.P,U1,16,REGSRC*
G04 #@! TO.N,Net-(U1-BAT)*
X139099748Y-119872800D03*
G04 #@! TO.P,U1,17,BAT*
X139599874Y-119872800D03*
G04 #@! TO.P,U1,18,V5*
G04 #@! TO.N,/Battery Balancer/Up*
X140100000Y-119872800D03*
G04 #@! TO.P,U1,19,VC4A*
G04 #@! TO.N,/Battery Balancer/Mid*
X140600126Y-119872800D03*
G04 #@! TO.P,U1,20,VC4B*
X141100252Y-119872800D03*
D45*
G04 #@! TO.P,U1,21,GND*
G04 #@! TO.N,/Battery Balancer/-BAT*
X140100000Y-121600000D03*
G04 #@! TD*
D37*
G04 #@! TO.P,C4,1*
G04 #@! TO.N,Net-(C4-Pad1)*
X135680000Y-125800000D03*
G04 #@! TO.P,C4,2*
G04 #@! TO.N,GND*
X134720000Y-125800000D03*
G04 #@! TD*
D27*
G04 #@! TO.P,C27,1*
G04 #@! TO.N,/Connectors/3.3v*
X130525000Y-123900000D03*
G04 #@! TO.P,C27,2*
G04 #@! TO.N,GND*
X133475000Y-123900000D03*
G04 #@! TD*
D46*
G04 #@! TO.P,U6,1,CC2/PC15*
G04 #@! TO.N,/Connectors/CC2*
X113887500Y-119800000D03*
G04 #@! TO.P,U6,2,VDD*
G04 #@! TO.N,/Battery Charger/MCU3.3v*
X113887500Y-120200000D03*
G04 #@! TO.P,U6,3,PC0*
G04 #@! TO.N,unconnected-(U6-PC0-Pad3)*
X113887500Y-120600000D03*
G04 #@! TO.P,U6,4,PC3*
G04 #@! TO.N,unconnected-(U6-PC3-Pad4)*
X113887500Y-121000000D03*
G04 #@! TO.P,U6,5,ADC0/PA0*
G04 #@! TO.N,/Battery Charger/Charger IADP*
X113887500Y-121400000D03*
G04 #@! TO.P,U6,6,ADC1/PA1*
G04 #@! TO.N,/MCU/UART1-RTS*
X113887500Y-121800000D03*
G04 #@! TO.P,U6,7,ADC2/PA2*
G04 #@! TO.N,/MCU/UART1_TX*
X113887500Y-122200000D03*
D47*
G04 #@! TO.P,U6,8,ADC3/PA3*
G04 #@! TO.N,/MCU/UART1_RX*
X113100000Y-122987500D03*
G04 #@! TO.P,U6,9,ADC4/PA4*
G04 #@! TO.N,/MCU/CS*
X112700000Y-122987500D03*
G04 #@! TO.P,U6,10,ADC5/PA5*
G04 #@! TO.N,/MCU/SCLK*
X112300000Y-122987500D03*
G04 #@! TO.P,U6,11,ADC6/PA6*
G04 #@! TO.N,/MCU/MISO*
X111900000Y-122987500D03*
G04 #@! TO.P,U6,12,ADC7/PA7*
G04 #@! TO.N,/MCU/MOSI*
X111500000Y-122987500D03*
G04 #@! TO.P,U6,13,PB0/ADC8*
G04 #@! TO.N,/Battery Charger/Charger IDCHG*
X111100000Y-122987500D03*
G04 #@! TO.P,U6,14,PB3*
G04 #@! TO.N,/Battery Balancer/Balancer Alert*
X110700000Y-122987500D03*
D46*
G04 #@! TO.P,U6,15,PB4*
G04 #@! TO.N,/Battery Charger/Charger PROCHOT*
X109912500Y-122200000D03*
G04 #@! TO.P,U6,16,PB1/PB5/ADC9*
G04 #@! TO.N,/MCU/LED*
X109912500Y-121800000D03*
G04 #@! TO.P,U6,17,PB6*
G04 #@! TO.N,/Battery Charger/PWRON*
X109912500Y-121400000D03*
G04 #@! TO.P,U6,18,PB7*
G04 #@! TO.N,unconnected-(U6-PB7-Pad18)*
X109912500Y-121000000D03*
G04 #@! TO.P,U6,19,PB8*
G04 #@! TO.N,unconnected-(U6-PB8-Pad19)*
X109912500Y-120600000D03*
G04 #@! TO.P,U6,20,PB9*
G04 #@! TO.N,unconnected-(U6-PB9-Pad20)*
X109912500Y-120200000D03*
G04 #@! TO.P,U6,21,PB10*
G04 #@! TO.N,unconnected-(U6-PB10-Pad21)*
X109912500Y-119800000D03*
D47*
G04 #@! TO.P,U6,22,PB11*
G04 #@! TO.N,unconnected-(U6-PB11-Pad22)*
X110700000Y-119012500D03*
G04 #@! TO.P,U6,23,PB12*
G04 #@! TO.N,unconnected-(U6-PB12-Pad23)*
X111100000Y-119012500D03*
G04 #@! TO.P,U6,24,SWCLK/PC19*
G04 #@! TO.N,/SCL*
X111500000Y-119012500D03*
G04 #@! TO.P,U6,25,SWDIO/PC18*
G04 #@! TO.N,/SDA*
X111900000Y-119012500D03*
G04 #@! TO.P,U6,26,USB1_DM/PC16*
G04 #@! TO.N,/Connectors/D-*
X112300000Y-119012500D03*
G04 #@! TO.P,U6,27,USB1_DP/PC17*
G04 #@! TO.N,/Connectors/D+*
X112700000Y-119012500D03*
G04 #@! TO.P,U6,28,CC1/PC14*
G04 #@! TO.N,/Connectors/CC1*
X113100000Y-119012500D03*
D48*
G04 #@! TO.P,U6,29,GND*
G04 #@! TO.N,GND*
X111900000Y-121000000D03*
G04 #@! TD*
D49*
G04 #@! TO.P,R9,1*
G04 #@! TO.N,/Battery Charger/Always On PWR*
X109300000Y-130312500D03*
G04 #@! TO.P,R9,2*
G04 #@! TO.N,Net-(D2-K)*
X109300000Y-128487500D03*
G04 #@! TD*
D29*
G04 #@! TO.P,TP1,1,1*
G04 #@! TO.N,/SCL*
X108800000Y-118800000D03*
G04 #@! TD*
D21*
G04 #@! TO.P,R15,1*
G04 #@! TO.N,/Battery Balancer/Up*
X146610000Y-123800000D03*
G04 #@! TO.P,R15,2*
G04 #@! TO.N,Net-(NT8-Pad1)*
X145590000Y-123800000D03*
G04 #@! TD*
D25*
G04 #@! TO.P,R28,1*
G04 #@! TO.N,/Battery Charger/MCU3.3v*
X122200000Y-121610000D03*
G04 #@! TO.P,R28,2*
G04 #@! TO.N,/Connectors/RS485+*
X122200000Y-120590000D03*
G04 #@! TD*
D35*
G04 #@! TO.P,NT11,1,1*
G04 #@! TO.N,Net-(C4-Pad1)*
X139600000Y-128800000D03*
G04 #@! TO.P,NT11,2,2*
G04 #@! TO.N,Net-(C3-Pad2)*
X140000000Y-128800000D03*
G04 #@! TD*
D50*
G04 #@! TO.P,U2,1,FB*
G04 #@! TO.N,/Connectors/3.3v*
X135437500Y-120050000D03*
G04 #@! TO.P,U2,2,EN*
G04 #@! TO.N,/Battery Charger/MOTORPWR*
X135437500Y-121000000D03*
G04 #@! TO.P,U2,3,IN*
X135437500Y-121950000D03*
G04 #@! TO.P,U2,4,GND*
G04 #@! TO.N,GND*
X133162500Y-121950000D03*
G04 #@! TO.P,U2,5,SW*
G04 #@! TO.N,Net-(U2-SW)*
X133162500Y-121000000D03*
G04 #@! TO.P,U2,6,BST*
G04 #@! TO.N,Net-(U2-BST)*
X133162500Y-120050000D03*
G04 #@! TD*
D51*
G04 #@! TO.P,D2,1,K*
G04 #@! TO.N,Net-(D2-K)*
X111400000Y-129015000D03*
G04 #@! TO.P,D2,2,A*
G04 #@! TO.N,Net-(D2-A)*
X111400000Y-129985000D03*
G04 #@! TD*
D39*
G04 #@! TO.P,J9,1,Pin_1*
G04 #@! TO.N,GND*
X113950000Y-114600000D03*
G04 #@! TD*
D52*
G04 #@! TO.P,C26,1*
G04 #@! TO.N,/Battery Charger/MCU3.3v*
X116400000Y-117425000D03*
G04 #@! TO.P,C26,2*
G04 #@! TO.N,GND*
X116400000Y-118975000D03*
G04 #@! TD*
D32*
G04 #@! TO.P,C29,1*
G04 #@! TO.N,/Battery Charger/Charger IADP*
X117600000Y-119980000D03*
G04 #@! TO.P,C29,2*
G04 #@! TO.N,GND*
X117600000Y-119020000D03*
G04 #@! TD*
D42*
G04 #@! TO.P,J6,1,Pin_1*
G04 #@! TO.N,GND*
X147200001Y-113650000D03*
G04 #@! TD*
D37*
G04 #@! TO.P,C3,1*
G04 #@! TO.N,Net-(C3-Pad1)*
X141580000Y-126200000D03*
G04 #@! TO.P,C3,2*
G04 #@! TO.N,Net-(C3-Pad2)*
X140620000Y-126200000D03*
G04 #@! TD*
D17*
G04 #@! TO.P,H2,1,1*
G04 #@! TO.N,/Battery Balancer/-BAT*
X149533274Y-123833274D03*
X150700000Y-123350000D03*
X149050000Y-125000000D03*
X151866726Y-123833274D03*
D18*
X150700000Y-125000000D03*
D17*
X149533274Y-126166726D03*
X152350000Y-125000000D03*
X150700000Y-126650000D03*
X151866726Y-126166726D03*
G04 #@! TD*
D53*
G04 #@! TO.N,GND*
X129200000Y-129700000D03*
X130000000Y-129400000D03*
D54*
G04 #@! TO.N,/Connectors/3.3v*
X129600000Y-123200000D03*
X129600000Y-124260000D03*
X137949999Y-117972800D03*
D53*
G04 #@! TO.N,GND*
X130000000Y-128400000D03*
X150000000Y-121700000D03*
X129200000Y-127900000D03*
X152000000Y-120700000D03*
X119700000Y-112550000D03*
X124900000Y-130600000D03*
X109412841Y-124967080D03*
X141900000Y-113400000D03*
X131845000Y-123900000D03*
X124000000Y-130600000D03*
X118800000Y-117200000D03*
X130000000Y-127600000D03*
X151000000Y-120700000D03*
X151000000Y-121700000D03*
X152000000Y-119700000D03*
X115365000Y-122744994D03*
X137350595Y-123440000D03*
X123000000Y-125740000D03*
X130000000Y-126780000D03*
X141500000Y-130400000D03*
X150000000Y-120700000D03*
X141500000Y-131400000D03*
X135607048Y-123056411D03*
X134600000Y-123100000D03*
X123500000Y-129700000D03*
X152000000Y-121700000D03*
X124500000Y-129900000D03*
X129200000Y-130700000D03*
X129200000Y-127100000D03*
X131584856Y-124700000D03*
X125700000Y-130700000D03*
X132700000Y-123005000D03*
X139000000Y-112700000D03*
X151000000Y-119700000D03*
X130000000Y-130200000D03*
X122200000Y-129311716D03*
X129200000Y-128700000D03*
X140000000Y-131350000D03*
X121344634Y-118762843D03*
X117539569Y-124084202D03*
X141900000Y-112600000D03*
X150000000Y-119700000D03*
X119700000Y-117200000D03*
X111900000Y-121000000D03*
X119750000Y-113450000D03*
G04 #@! TO.N,Net-(Q4-G)*
X124400000Y-125600000D03*
X119499999Y-127370000D03*
G04 #@! TO.N,Net-(D2-K)*
X110100000Y-129000000D03*
G04 #@! TO.N,Net-(U1-BAT)*
X138500000Y-119872800D03*
D55*
G04 #@! TO.N,/Battery Charger/MOTORPWR*
X140300000Y-118000000D03*
D53*
G04 #@! TO.N,/Battery Balancer/Up*
X140095298Y-119095681D03*
X146204970Y-124404180D03*
G04 #@! TO.N,/Battery Charger/Always On PWR*
X108980342Y-129579999D03*
X118340000Y-126740000D03*
G04 #@! TO.N,/Battery Balancer/Low*
X148200000Y-118600000D03*
X141687254Y-123262868D03*
G04 #@! TO.N,/Battery Charger/REGN*
X121351203Y-128231716D03*
G04 #@! TO.N,/Connectors/RS485+*
X123692815Y-118504085D03*
G04 #@! TO.N,/Connectors/RS485-*
X123084774Y-117584774D03*
G04 #@! TO.N,Net-(U3-CMPIN)*
X113743225Y-129740000D03*
G04 #@! TO.N,Net-(Q5-G)*
X124071716Y-128771716D03*
X119704062Y-129878857D03*
G04 #@! TO.N,Net-(Q6-G)*
X138519740Y-124705000D03*
X137550000Y-131500000D03*
G04 #@! TO.N,Net-(U3-BATDRV)*
X137584017Y-124720000D03*
X110500000Y-131500000D03*
G04 #@! TO.N,Net-(U3-BATSRC)*
X111500000Y-131100000D03*
X129792500Y-125700000D03*
G04 #@! TO.N,Net-(U3-ACOK)*
X112700000Y-127700000D03*
X115500000Y-125380000D03*
G04 #@! TO.N,/Battery Charger/Charger IADP*
X115712500Y-120960000D03*
X112499818Y-126454760D03*
G04 #@! TO.N,/SCL*
X113100000Y-129200000D03*
X137313454Y-122157836D03*
X110700000Y-118165000D03*
G04 #@! TO.N,/Battery Charger/Charger IDCHG*
X111800000Y-127064873D03*
G04 #@! TO.N,/SDA*
X113100000Y-128400000D03*
X111775092Y-118124908D03*
X137328488Y-121331805D03*
G04 #@! TO.N,/MCU/LED*
X109011888Y-121871888D03*
X132200000Y-112600000D03*
G04 #@! TO.N,/Battery Charger/Charger PROCHOT*
X109400000Y-123500000D03*
X113745629Y-127900000D03*
G04 #@! TO.N,/Connectors/CC2*
X116279899Y-124084999D03*
X115200000Y-117200000D03*
G04 #@! TO.N,/Battery Balancer/Balancer Alert*
X137698929Y-120098501D03*
X110200000Y-123400000D03*
G04 #@! TO.N,/Connectors/CC1*
X118100000Y-123500000D03*
X116833024Y-120686438D03*
X113482725Y-118955628D03*
G04 #@! TO.N,/Connectors/D-*
X112700000Y-117500000D03*
G04 #@! TO.N,/Battery Charger/PWRON*
X114844338Y-125944338D03*
G04 #@! TO.N,/Battery Charger/MCU3.3v*
X117745496Y-117225000D03*
X110450206Y-129723090D03*
X120741937Y-122269999D03*
G04 #@! TO.N,/Battery Balancer/-BAT*
X140517019Y-121662631D03*
X139400000Y-122300000D03*
G04 #@! TO.N,/Battery Balancer/+BAT*
X112989139Y-130012669D03*
G04 #@! TO.N,/Connectors/D+*
X113205382Y-118167775D03*
G04 #@! TD*
D56*
G04 #@! TO.N,/Connectors/CC1*
X113482725Y-118955628D02*
X113425853Y-119012500D01*
X113425853Y-119012500D02*
X113100000Y-119012500D01*
G04 #@! TO.N,Net-(U3-ACOK)*
X114192352Y-127360000D02*
X115500000Y-126052352D01*
X112700000Y-127700000D02*
X113040000Y-127360000D01*
X113040000Y-127360000D02*
X114192352Y-127360000D01*
X115500000Y-126052352D02*
X115500000Y-125380000D01*
D57*
G04 #@! TO.N,/Connectors/3.3v*
X130800000Y-121875000D02*
X130525000Y-122150000D01*
D58*
X135437500Y-119562500D02*
X135437500Y-120050000D01*
D57*
X129600000Y-124260000D02*
X129874966Y-123985034D01*
D59*
X130525000Y-123900000D02*
X130439966Y-123985034D01*
D58*
X137027200Y-117972800D02*
X135437500Y-119562500D01*
D57*
X130385034Y-123985034D02*
X130439966Y-123985034D01*
X130525000Y-122150000D02*
X130525000Y-123900000D01*
D58*
X137949999Y-117972800D02*
X137027200Y-117972800D01*
D57*
X129600000Y-123200000D02*
X130385034Y-123985034D01*
X129874966Y-123985034D02*
X130439966Y-123985034D01*
D56*
G04 #@! TO.N,GND*
X120705000Y-119450000D02*
X121040000Y-119450000D01*
X120465000Y-119917402D02*
X119932402Y-120450000D01*
D58*
X134720000Y-125800000D02*
X134720000Y-127405000D01*
D56*
X115190000Y-120200000D02*
X115190000Y-118990000D01*
X120465000Y-119690000D02*
X120705000Y-119450000D01*
X116445000Y-119020000D02*
X116400000Y-118975000D01*
X115200000Y-118980000D02*
X116395000Y-118980000D01*
X119530000Y-120420000D02*
X119560000Y-120450000D01*
X121440000Y-119450000D02*
X122200000Y-118690000D01*
X109412841Y-124967080D02*
X109412841Y-124692841D01*
X121344634Y-118762843D02*
X121417477Y-118690000D01*
X115190000Y-118990000D02*
X115200000Y-118980000D01*
X120465000Y-119917402D02*
X120465000Y-119690000D01*
X122275000Y-124350000D02*
X123130000Y-124350000D01*
X123130000Y-124350000D02*
X123200000Y-124280000D01*
X121417477Y-118690000D02*
X122200000Y-118690000D01*
X109412841Y-124692841D02*
X109020000Y-124300000D01*
D58*
X134720000Y-127405000D02*
X132925000Y-129200000D01*
D56*
X117600000Y-119020000D02*
X116445000Y-119020000D01*
X121040000Y-119450000D02*
X121440000Y-119450000D01*
X119932402Y-120450000D02*
X119560000Y-120450000D01*
X117539569Y-124084202D02*
X117539569Y-124285431D01*
X116395000Y-118980000D02*
X116400000Y-118975000D01*
D58*
G04 #@! TO.N,Net-(C4-Pad1)*
X135680000Y-125800000D02*
X135650000Y-125830000D01*
X135650000Y-125830000D02*
X135650000Y-127295000D01*
D57*
G04 #@! TO.N,Net-(U2-SW)*
X132925000Y-118500000D02*
X132025000Y-118500000D01*
X133162500Y-121000000D02*
X132385184Y-121000000D01*
X131110184Y-119725000D02*
X130800000Y-119725000D01*
X132385184Y-121000000D02*
X131110184Y-119725000D01*
X132025000Y-118500000D02*
X130800000Y-119725000D01*
D58*
G04 #@! TO.N,Net-(U2-BST)*
X134475000Y-118500000D02*
X134475000Y-118737500D01*
X134475000Y-118737500D02*
X133162500Y-120050000D01*
G04 #@! TO.N,Net-(D2-K)*
X110100000Y-129000000D02*
X111385000Y-129000000D01*
X111385000Y-129000000D02*
X111400000Y-129015000D01*
G04 #@! TO.N,Net-(U1-BAT)*
X139599874Y-119872800D02*
X139099748Y-119872800D01*
X138500000Y-119872800D02*
X139099748Y-119872800D01*
D57*
G04 #@! TO.N,/Battery Charger/MOTORPWR*
X136700000Y-119800000D02*
X136700000Y-120687500D01*
X140300000Y-118000000D02*
X139124999Y-118000000D01*
X136150000Y-121950000D02*
X135437500Y-121950000D01*
D58*
X135437500Y-121000000D02*
X135437500Y-121950000D01*
D57*
X136700000Y-120687500D02*
X136428488Y-120959012D01*
X138400000Y-118972800D02*
X137527200Y-118972800D01*
X136428488Y-121671512D02*
X136150000Y-121950000D01*
X139124999Y-118000000D02*
X139124999Y-118247801D01*
X139124999Y-118247801D02*
X138400000Y-118972800D01*
X137527200Y-118972800D02*
X136700000Y-119800000D01*
X136428488Y-120959012D02*
X136428488Y-121671512D01*
D58*
G04 #@! TO.N,/Battery Balancer/Mid*
X147480000Y-122400000D02*
X147500000Y-122420000D01*
X144600000Y-123700000D02*
X142900000Y-123700000D01*
D60*
X141100252Y-119872800D02*
X141827200Y-120599748D01*
D58*
X142300000Y-121600000D02*
X141827200Y-121600000D01*
X146460000Y-122250000D02*
X146610000Y-122400000D01*
X142573600Y-123373600D02*
X142573600Y-121873600D01*
D60*
X140600126Y-119872800D02*
X141100252Y-119872800D01*
X141827200Y-120599748D02*
X141827200Y-122100126D01*
D58*
X146610000Y-122400000D02*
X145950000Y-123060000D01*
X146460000Y-121400000D02*
X146460000Y-122250000D01*
X142573600Y-121873600D02*
X142300000Y-121600000D01*
X145240000Y-123060000D02*
X144600000Y-123700000D01*
X142900000Y-123700000D02*
X142573600Y-123373600D01*
X146610000Y-122400000D02*
X147480000Y-122400000D01*
X145950000Y-123060000D02*
X145240000Y-123060000D01*
G04 #@! TO.N,/Battery Balancer/Up*
X147030000Y-123380000D02*
X146610000Y-123800000D01*
X140100000Y-119100383D02*
X140100000Y-119872800D01*
X140095298Y-119095681D02*
X140100000Y-119100383D01*
X146204970Y-124404180D02*
X146610000Y-123999150D01*
X146610000Y-123999150D02*
X146610000Y-123800000D01*
X147500000Y-123380000D02*
X147030000Y-123380000D01*
G04 #@! TO.N,/Battery Charger/Always On PWR*
X120500000Y-125000000D02*
X119980000Y-125000000D01*
X108980342Y-129992842D02*
X109300000Y-130312500D01*
X118340000Y-126740000D02*
X118375000Y-126705000D01*
X120500000Y-123700000D02*
X120200000Y-123700000D01*
X108980342Y-129579999D02*
X108980342Y-129992842D01*
X118375000Y-125000000D02*
X119220000Y-125000000D01*
X118340000Y-126740000D02*
X118480000Y-126600000D01*
X119940000Y-124280000D02*
X119600000Y-124620000D01*
X118375000Y-126705000D02*
X118375000Y-125000000D01*
X118480000Y-126600000D02*
X119120000Y-126600000D01*
X119220000Y-125000000D02*
X119600000Y-124620000D01*
X119940000Y-123960000D02*
X119940000Y-124280000D01*
X120200000Y-123700000D02*
X119940000Y-123960000D01*
X119980000Y-125000000D02*
X119600000Y-124620000D01*
G04 #@! TO.N,/Battery Balancer/Low*
X146810000Y-120070000D02*
X146780000Y-120100000D01*
X141827200Y-123122922D02*
X141827200Y-122600252D01*
X147310000Y-118600000D02*
X146810000Y-119100000D01*
X141687254Y-123262868D02*
X141827200Y-123122922D01*
X146810000Y-119100000D02*
X146810000Y-120070000D01*
X148200000Y-118600000D02*
X147310000Y-118600000D01*
G04 #@! TO.N,/Battery Charger/REGN*
X121351203Y-128231716D02*
X121351203Y-127126203D01*
X121351203Y-127126203D02*
X121225000Y-127000000D01*
D60*
G04 #@! TO.N,/Connectors/RS485+*
X122060000Y-120450000D02*
X122200000Y-120590000D01*
X123180000Y-120590000D02*
X123200000Y-120610000D01*
X121040000Y-120450000D02*
X122060000Y-120450000D01*
X122200000Y-120590000D02*
X123180000Y-120590000D01*
D56*
X123760000Y-118571270D02*
X123760000Y-120050000D01*
X123692815Y-118504085D02*
X123760000Y-118571270D01*
X123760000Y-120050000D02*
X123200000Y-120610000D01*
D58*
G04 #@! TO.N,/Battery Balancer/Bat Cell 1*
X144000000Y-122400000D02*
X143900000Y-122500000D01*
X145590000Y-122400000D02*
X144000000Y-122400000D01*
D60*
G04 #@! TO.N,/Connectors/RS485-*
X122200000Y-119710000D02*
X123080000Y-119710000D01*
X123080000Y-119710000D02*
X123200000Y-119590000D01*
X121960000Y-119950000D02*
X122200000Y-119710000D01*
D56*
X123200000Y-118835928D02*
X123200000Y-119590000D01*
D60*
X121040000Y-119950000D02*
X121960000Y-119950000D01*
D56*
X123084774Y-117584774D02*
X123084774Y-118720702D01*
X123084774Y-118720702D02*
X123200000Y-118835928D01*
G04 #@! TO.N,Net-(U3-CMPIN)*
X113883225Y-129880000D02*
X113883225Y-130383225D01*
X114790000Y-131400000D02*
X114990000Y-131200000D01*
X114010000Y-131400000D02*
X114790000Y-131400000D01*
X114700000Y-131200000D02*
X114990000Y-131200000D01*
X113743225Y-129740000D02*
X113883225Y-129880000D01*
X113883225Y-130383225D02*
X114700000Y-131200000D01*
G04 #@! TO.N,Net-(Q6-G)*
X136045000Y-131500000D02*
X135650000Y-131105000D01*
X138519740Y-124705000D02*
X138140000Y-125084740D01*
X137550000Y-131500000D02*
X136045000Y-131500000D01*
X138140000Y-125900000D02*
X138700000Y-126460000D01*
X138140000Y-125084740D02*
X138140000Y-125900000D01*
G04 #@! TO.N,Net-(U1-SRP)*
X141490000Y-124290000D02*
X141220000Y-124020000D01*
X141220000Y-124020000D02*
X141220000Y-124007800D01*
X141220000Y-124007800D02*
X141100252Y-123888052D01*
X141100252Y-123888052D02*
X141100252Y-123327200D01*
X142000000Y-124290000D02*
X141490000Y-124290000D01*
G04 #@! TO.N,Net-(U1-SRN)*
X140600126Y-123327200D02*
X140600126Y-124999874D01*
X140600126Y-124999874D02*
X140360000Y-125240000D01*
X140360000Y-125240000D02*
X139700000Y-125240000D01*
G04 #@! TO.N,Net-(U1-DSG)*
X139599874Y-123700126D02*
X139599874Y-123327200D01*
X139100000Y-124200000D02*
X139599874Y-123700126D01*
X139100000Y-125040000D02*
X139100000Y-124200000D01*
X138700000Y-125440000D02*
X139100000Y-125040000D01*
G04 #@! TO.N,/Battery Charger/Charger IADP*
X115978938Y-121226438D02*
X117056700Y-121226438D01*
X115712500Y-120960000D02*
X115272500Y-121400000D01*
X115272500Y-121400000D02*
X113887500Y-121400000D01*
X117600000Y-120683138D02*
X117600000Y-119980000D01*
X115712500Y-120960000D02*
X115978938Y-121226438D01*
X117056700Y-121226438D02*
X117600000Y-120683138D01*
G04 #@! TO.N,/SCL*
X137371164Y-122100126D02*
X138372800Y-122100126D01*
X109700000Y-118800000D02*
X108800000Y-118800000D01*
X110700000Y-118165000D02*
X110335000Y-118165000D01*
X110700000Y-118165000D02*
X111051508Y-118165000D01*
X111051508Y-118165000D02*
X111500000Y-118613492D01*
X111500000Y-118613492D02*
X111500000Y-119012500D01*
X137313454Y-122157836D02*
X137371164Y-122100126D01*
X110335000Y-118165000D02*
X109700000Y-118800000D01*
G04 #@! TO.N,/Battery Charger/Charger IDCHG*
X109980000Y-125163597D02*
X109980000Y-124300000D01*
X109300000Y-126600000D02*
X109300000Y-125843597D01*
X111100000Y-123400000D02*
X110200000Y-124300000D01*
X111100000Y-122987500D02*
X111100000Y-123400000D01*
X111800000Y-127064873D02*
X109764873Y-127064873D01*
X109300000Y-125843597D02*
X109980000Y-125163597D01*
X109764873Y-127064873D02*
X109300000Y-126600000D01*
X110200000Y-124300000D02*
X109980000Y-124300000D01*
G04 #@! TO.N,/SDA*
X112100000Y-117500000D02*
X111775092Y-117824908D01*
X137328488Y-121331805D02*
X137596683Y-121600000D01*
X111775092Y-117824908D02*
X111775092Y-118124908D01*
X137596683Y-121600000D02*
X138372800Y-121600000D01*
X111775092Y-118124908D02*
X111900000Y-118249816D01*
X108800000Y-116800000D02*
X109200000Y-116400000D01*
X111800000Y-116400000D02*
X112100000Y-116700000D01*
X112100000Y-116700000D02*
X112100000Y-117500000D01*
X109200000Y-116400000D02*
X111800000Y-116400000D01*
X111900000Y-118249816D02*
X111900000Y-119012500D01*
G04 #@! TO.N,/MCU/LED*
X109011888Y-121871888D02*
X109083776Y-121800000D01*
X109083776Y-121800000D02*
X109912500Y-121800000D01*
G04 #@! TO.N,/Battery Charger/Charger PROCHOT*
X109400000Y-122712500D02*
X109912500Y-122200000D01*
X109400000Y-123500000D02*
X109400000Y-122712500D01*
G04 #@! TO.N,/MCU/MISO*
X111940000Y-123027500D02*
X111940000Y-124840000D01*
X111900000Y-122987500D02*
X111940000Y-123027500D01*
X111940000Y-124840000D02*
X112600000Y-125500000D01*
G04 #@! TO.N,/Connectors/CC2*
X114129321Y-117870679D02*
X114129321Y-119558179D01*
X115200000Y-117200000D02*
X114800000Y-117200000D01*
X114800000Y-117200000D02*
X114129321Y-117870679D01*
X114129321Y-119558179D02*
X113887500Y-119800000D01*
G04 #@! TO.N,/MCU/UART1_RX*
X119560000Y-120950000D02*
X119510000Y-120900000D01*
X118740782Y-120900000D02*
X116355788Y-123284994D01*
X116355788Y-123284994D02*
X115141324Y-123284994D01*
X113287500Y-122800000D02*
X113100000Y-122987500D01*
X115141324Y-123284994D02*
X114656330Y-122800000D01*
X114656330Y-122800000D02*
X113287500Y-122800000D01*
X119510000Y-120900000D02*
X118740782Y-120900000D01*
G04 #@! TO.N,/MCU/MOSI*
X111500000Y-122987500D02*
X111500000Y-124700000D01*
X111500000Y-124700000D02*
X111200000Y-125000000D01*
X111400000Y-125000000D02*
X111500000Y-124900000D01*
G04 #@! TO.N,/MCU/UART1_TX*
X119250000Y-119450000D02*
X119560000Y-119450000D01*
X118945000Y-119755000D02*
X119250000Y-119450000D01*
X113887500Y-122200000D02*
X116988234Y-122200000D01*
X118945000Y-120243234D02*
X118945000Y-119755000D01*
X116988234Y-122200000D02*
X118945000Y-120243234D01*
G04 #@! TO.N,/MCU/SCLK*
X112300000Y-122987500D02*
X112300000Y-124000000D01*
X112300000Y-124000000D02*
X112800000Y-124500000D01*
X112800000Y-124500000D02*
X113600000Y-124500000D01*
G04 #@! TO.N,/Battery Balancer/Balancer Alert*
X137859526Y-121099874D02*
X138372800Y-121099874D01*
X137726400Y-120125972D02*
X137726400Y-120966748D01*
X137726400Y-120966748D02*
X137859526Y-121099874D01*
X110612500Y-122987500D02*
X110200000Y-123400000D01*
X110700000Y-122987500D02*
X110612500Y-122987500D01*
X137698929Y-120098501D02*
X137726400Y-120125972D01*
G04 #@! TO.N,/Connectors/CC1*
X116833024Y-120686438D02*
X116696438Y-120686438D01*
X116696438Y-120686438D02*
X116210000Y-120200000D01*
D60*
G04 #@! TO.N,/Connectors/D-*
X112700000Y-117500000D02*
X112700000Y-117600000D01*
X112335092Y-117964908D02*
X112335092Y-118356868D01*
X112335092Y-118356868D02*
X112300000Y-118391960D01*
X112700000Y-117600000D02*
X112335092Y-117964908D01*
X112300000Y-118391960D02*
X112300000Y-119012500D01*
D56*
G04 #@! TO.N,/Battery Charger/PWRON*
X109413492Y-121300000D02*
X108800000Y-121300000D01*
X108800000Y-121300000D02*
X108471888Y-121628112D01*
X114844338Y-126255466D02*
X114844338Y-125944338D01*
X108471888Y-126571888D02*
X109504873Y-127604873D01*
X109912500Y-121400000D02*
X109513492Y-121400000D01*
X109504873Y-127604873D02*
X112023676Y-127604873D01*
X108471888Y-121628112D02*
X108471888Y-126571888D01*
X112588549Y-127040000D02*
X114059804Y-127040000D01*
X114059804Y-127040000D02*
X114844338Y-126255466D01*
X109513492Y-121400000D02*
X109413492Y-121300000D01*
X112023676Y-127604873D02*
X112588549Y-127040000D01*
G04 #@! TO.N,/MCU/UART1-RTS*
X119806508Y-118900000D02*
X120135000Y-119228492D01*
X113887500Y-121800000D02*
X116935686Y-121800000D01*
X116935686Y-121800000D02*
X118150000Y-120585686D01*
X118150000Y-120585686D02*
X118150000Y-119950000D01*
X119895000Y-119950000D02*
X119560000Y-119950000D01*
X119200000Y-118900000D02*
X119806508Y-118900000D01*
X118150000Y-119950000D02*
X119200000Y-118900000D01*
X120135000Y-119710000D02*
X119895000Y-119950000D01*
X120135000Y-119228492D02*
X120135000Y-119710000D01*
G04 #@! TO.N,/MCU/CS*
X112700000Y-123400000D02*
X112960000Y-123660000D01*
X112700000Y-122987500D02*
X112700000Y-123400000D01*
X112960000Y-123660000D02*
X114660000Y-123660000D01*
X114660000Y-123660000D02*
X115100000Y-124100000D01*
D58*
G04 #@! TO.N,/Battery Charger/MCU3.3v*
X122820000Y-123700000D02*
X123200000Y-123320000D01*
X115985000Y-117840000D02*
X115360000Y-117840000D01*
X121700000Y-121610000D02*
X121040000Y-120950000D01*
X122275000Y-123700000D02*
X122820000Y-123700000D01*
X117745496Y-117225000D02*
X117545496Y-117425000D01*
X117545496Y-117425000D02*
X116400000Y-117425000D01*
X123200000Y-123320000D02*
X123200000Y-122610000D01*
X115360000Y-117840000D02*
X115200000Y-118000000D01*
D56*
X113887500Y-120200000D02*
X114343078Y-120200000D01*
D58*
X115200000Y-118000000D02*
X115200000Y-118020000D01*
X123200000Y-122610000D02*
X122200000Y-121610000D01*
X116400000Y-117425000D02*
X115985000Y-117840000D01*
D56*
X114555000Y-118665000D02*
X115200000Y-118020000D01*
D58*
X121401936Y-121610000D02*
X122200000Y-121610000D01*
X122200000Y-121610000D02*
X121700000Y-121610000D01*
D56*
X114555000Y-119988078D02*
X114555000Y-118665000D01*
X114343078Y-120200000D02*
X114555000Y-119988078D01*
D58*
X120741937Y-122269999D02*
X121401936Y-121610000D01*
G04 #@! TO.N,Net-(C18-Pad2)*
X145790000Y-119100000D02*
X145820000Y-119130000D01*
X145820000Y-120100000D02*
X145820000Y-120580000D01*
X145820000Y-119130000D02*
X145820000Y-120100000D01*
X145720000Y-120000000D02*
X145820000Y-120100000D01*
X145820000Y-120580000D02*
X145500000Y-120900000D01*
X145500000Y-120900000D02*
X145500000Y-121400000D01*
X145435000Y-120000000D02*
X145720000Y-120000000D01*
G04 #@! TO.N,Net-(D2-A)*
X112202010Y-130302010D02*
X112000000Y-130100000D01*
X111515000Y-130100000D02*
X111400000Y-129985000D01*
X112000000Y-130100000D02*
X111515000Y-130100000D01*
G04 #@! TO.N,Net-(NT8-Pad1)*
X145590000Y-123800000D02*
X145280000Y-124110000D01*
X145280000Y-124110000D02*
X145280000Y-124300000D01*
G04 #@! TO.N,/Battery Balancer/-BAT*
X138392252Y-122580800D02*
X138372800Y-122600252D01*
X140517019Y-121662631D02*
X139598850Y-122580800D01*
D60*
X140517019Y-121662631D02*
X140100000Y-122079650D01*
D58*
X139598850Y-122580800D02*
X138392252Y-122580800D01*
D60*
X140100000Y-122079650D02*
X140100000Y-123327200D01*
D58*
G04 #@! TO.N,/Battery Balancer/+BAT*
X112990000Y-130013530D02*
X112990000Y-131400000D01*
X112990000Y-131090000D02*
X112990000Y-131400000D01*
X112597990Y-130697990D02*
X112990000Y-131090000D01*
X112989139Y-130012669D02*
X112990000Y-130013530D01*
D60*
G04 #@! TO.N,/Connectors/D+*
X112700000Y-118585208D02*
X112700000Y-119012500D01*
X113205382Y-118167775D02*
X113117433Y-118167775D01*
X113117433Y-118167775D02*
X112700000Y-118585208D01*
D56*
G04 #@! TO.N,Net-(C3-Pad1)*
X141580000Y-126200000D02*
X142000000Y-125780000D01*
X142600000Y-128800000D02*
X141700000Y-128800000D01*
X141700000Y-128800000D02*
X141500000Y-128600000D01*
X141500000Y-128600000D02*
X141500000Y-126280000D01*
X141500000Y-126280000D02*
X141580000Y-126200000D01*
X142000000Y-125780000D02*
X142000000Y-125310000D01*
G04 #@! TO.N,Net-(C3-Pad2)*
X140560000Y-126260000D02*
X140620000Y-126200000D01*
X141100000Y-128600000D02*
X141100000Y-126680000D01*
X141100000Y-126680000D02*
X140620000Y-126200000D01*
X139700000Y-126260000D02*
X140560000Y-126260000D01*
X140900000Y-128800000D02*
X141100000Y-128600000D01*
X140000000Y-128800000D02*
X140900000Y-128800000D01*
G04 #@! TD*
G04 #@! TA.AperFunction,Conductor*
G04 #@! TO.N,GND*
G36*
X131596961Y-112220185D02*
G01*
X131642716Y-112272989D01*
X131652660Y-112342147D01*
X131644483Y-112371952D01*
X131614957Y-112443234D01*
X131614955Y-112443239D01*
X131594318Y-112599998D01*
X131594318Y-112600001D01*
X131614955Y-112756760D01*
X131614956Y-112756762D01*
X131675464Y-112902841D01*
X131771718Y-113028282D01*
X131897159Y-113124536D01*
X132043238Y-113185044D01*
X132121619Y-113195363D01*
X132199999Y-113205682D01*
X132200000Y-113205682D01*
X132200001Y-113205682D01*
X132252254Y-113198802D01*
X132356762Y-113185044D01*
X132502841Y-113124536D01*
X132628282Y-113028282D01*
X132724536Y-112902841D01*
X132785044Y-112756762D01*
X132805682Y-112600000D01*
X132785044Y-112443238D01*
X132775094Y-112419218D01*
X132755517Y-112371952D01*
X132748048Y-112302483D01*
X132779324Y-112240004D01*
X132839413Y-112204352D01*
X132870078Y-112200500D01*
X152775500Y-112200500D01*
X152842539Y-112220185D01*
X152888294Y-112272989D01*
X152899500Y-112324500D01*
X152899500Y-123391494D01*
X152879815Y-123458533D01*
X152827011Y-123504288D01*
X152757853Y-123514232D01*
X152694297Y-123485207D01*
X152679957Y-123470535D01*
X152526393Y-123284909D01*
X152526391Y-123284907D01*
X152435975Y-123200000D01*
X152297030Y-123069522D01*
X152297027Y-123069520D01*
X152297021Y-123069515D01*
X152042495Y-122884591D01*
X152042488Y-122884586D01*
X152042484Y-122884584D01*
X151766766Y-122733006D01*
X151766763Y-122733004D01*
X151766758Y-122733002D01*
X151766757Y-122733001D01*
X151474228Y-122617181D01*
X151474225Y-122617180D01*
X151169476Y-122538934D01*
X151169463Y-122538932D01*
X150857329Y-122499500D01*
X150857318Y-122499500D01*
X150566132Y-122499500D01*
X150549965Y-122498441D01*
X150547925Y-122498173D01*
X150535781Y-122496977D01*
X150528047Y-122496215D01*
X150515095Y-122495366D01*
X150511859Y-122495154D01*
X150491874Y-122494500D01*
X150403498Y-122494500D01*
X150402822Y-122494516D01*
X150388783Y-122494854D01*
X150376871Y-122495429D01*
X150362176Y-122496492D01*
X150360138Y-122496689D01*
X150360136Y-122496690D01*
X150284361Y-122504010D01*
X150255254Y-122508244D01*
X150255212Y-122508251D01*
X150231851Y-122512808D01*
X150231819Y-122512815D01*
X150203258Y-122519829D01*
X150128319Y-122542107D01*
X150128305Y-122542111D01*
X150128300Y-122542113D01*
X150114342Y-122546629D01*
X150114331Y-122546633D01*
X150103094Y-122550569D01*
X150089266Y-122555792D01*
X149966492Y-122605579D01*
X149950739Y-122610770D01*
X149925775Y-122617181D01*
X149925771Y-122617182D01*
X149925769Y-122617183D01*
X149925760Y-122617186D01*
X149633230Y-122733007D01*
X149633228Y-122733008D01*
X149586082Y-122758926D01*
X149572947Y-122765174D01*
X148280468Y-123289313D01*
X148210945Y-123296265D01*
X148148700Y-123264526D01*
X148113495Y-123204174D01*
X148110411Y-123185991D01*
X148107710Y-123157181D01*
X148107709Y-123157178D01*
X148107708Y-123157173D01*
X148064975Y-123035053D01*
X148063852Y-123031843D01*
X148020890Y-122973631D01*
X147996920Y-122908005D01*
X148012235Y-122839835D01*
X148020885Y-122826374D01*
X148063852Y-122768157D01*
X148100856Y-122662406D01*
X148107708Y-122642826D01*
X148107708Y-122642823D01*
X148107710Y-122642819D01*
X148110114Y-122617180D01*
X148110500Y-122613070D01*
X148110500Y-122226929D01*
X148107710Y-122197185D01*
X148107710Y-122197181D01*
X148107708Y-122197177D01*
X148107708Y-122197173D01*
X148063852Y-122071844D01*
X148063852Y-122071843D01*
X147984999Y-121965001D01*
X147878157Y-121886148D01*
X147878155Y-121886147D01*
X147752826Y-121842291D01*
X147752814Y-121842289D01*
X147723070Y-121839500D01*
X147723066Y-121839500D01*
X147276934Y-121839500D01*
X147276930Y-121839500D01*
X147247185Y-121842289D01*
X147247173Y-121842291D01*
X147175974Y-121867206D01*
X147106195Y-121870768D01*
X147045568Y-121836040D01*
X147013340Y-121774047D01*
X147017978Y-121709209D01*
X147037710Y-121652819D01*
X147040500Y-121623066D01*
X147040500Y-121176934D01*
X147039247Y-121163577D01*
X147038456Y-121155137D01*
X147037710Y-121147181D01*
X147037708Y-121147177D01*
X147037708Y-121147173D01*
X146993852Y-121021844D01*
X146993852Y-121021843D01*
X146914999Y-120915001D01*
X146914997Y-120915000D01*
X146909481Y-120907525D01*
X146911967Y-120905689D01*
X146886036Y-120858200D01*
X146891020Y-120788508D01*
X146932892Y-120732575D01*
X146995630Y-120708384D01*
X147002819Y-120707710D01*
X147002823Y-120707708D01*
X147002826Y-120707708D01*
X147051836Y-120690557D01*
X147128157Y-120663852D01*
X147234999Y-120584999D01*
X147313852Y-120478157D01*
X147354669Y-120361511D01*
X147357708Y-120352826D01*
X147357708Y-120352823D01*
X147357710Y-120352819D01*
X147360500Y-120323066D01*
X147360500Y-119876934D01*
X147357710Y-119847181D01*
X147357708Y-119847177D01*
X147357708Y-119847173D01*
X147321305Y-119743143D01*
X147313852Y-119721843D01*
X147293198Y-119693858D01*
X147269228Y-119628232D01*
X147284543Y-119560061D01*
X147293194Y-119546599D01*
X147334381Y-119490794D01*
X147365350Y-119402290D01*
X147377741Y-119366881D01*
X147377741Y-119366879D01*
X147380023Y-119342539D01*
X147380500Y-119337457D01*
X147380499Y-119203824D01*
X147400183Y-119136785D01*
X147416819Y-119116142D01*
X147456144Y-119076818D01*
X147517467Y-119043333D01*
X147543824Y-119040500D01*
X147745549Y-119040500D01*
X147812588Y-119060185D01*
X147821033Y-119066123D01*
X147897159Y-119124536D01*
X147897162Y-119124537D01*
X147897163Y-119124538D01*
X147943128Y-119143577D01*
X148043238Y-119185044D01*
X148097958Y-119192248D01*
X148199999Y-119205682D01*
X148200000Y-119205682D01*
X148200001Y-119205682D01*
X148252254Y-119198802D01*
X148356762Y-119185044D01*
X148502841Y-119124536D01*
X148628282Y-119028282D01*
X148724536Y-118902841D01*
X148785044Y-118756762D01*
X148805682Y-118600000D01*
X148805380Y-118597708D01*
X148785044Y-118443239D01*
X148785044Y-118443238D01*
X148724536Y-118297159D01*
X148628282Y-118171718D01*
X148502841Y-118075464D01*
X148502836Y-118075462D01*
X148356762Y-118014956D01*
X148356760Y-118014955D01*
X148200001Y-117994318D01*
X148199999Y-117994318D01*
X148043239Y-118014955D01*
X148043234Y-118014957D01*
X147897163Y-118075461D01*
X147897162Y-118075462D01*
X147897159Y-118075463D01*
X147897159Y-118075464D01*
X147851017Y-118110870D01*
X147821035Y-118133876D01*
X147755866Y-118159070D01*
X147745549Y-118159500D01*
X147252007Y-118159500D01*
X147139973Y-118189519D01*
X147139972Y-118189519D01*
X147139970Y-118189520D01*
X147139969Y-118189520D01*
X147046871Y-118243270D01*
X147046872Y-118243271D01*
X147039530Y-118247510D01*
X147039528Y-118247511D01*
X146843856Y-118443182D01*
X146782532Y-118476666D01*
X146756176Y-118479500D01*
X146622546Y-118479500D01*
X146593125Y-118482258D01*
X146593115Y-118482260D01*
X146469205Y-118525619D01*
X146469204Y-118525619D01*
X146373633Y-118596154D01*
X146308004Y-118620125D01*
X146239834Y-118604809D01*
X146226367Y-118596154D01*
X146130794Y-118525619D01*
X146006880Y-118482258D01*
X145977461Y-118479500D01*
X145602546Y-118479500D01*
X145573125Y-118482258D01*
X145573115Y-118482260D01*
X145449207Y-118525618D01*
X145343576Y-118603576D01*
X145265618Y-118709207D01*
X145222258Y-118833118D01*
X145222258Y-118833120D01*
X145219500Y-118862538D01*
X145219500Y-119305107D01*
X145199815Y-119372146D01*
X145147011Y-119417901D01*
X145077853Y-119427845D01*
X145014297Y-119398820D01*
X144995183Y-119377995D01*
X144902553Y-119250499D01*
X144774501Y-119122447D01*
X144774499Y-119122445D01*
X144774494Y-119122441D01*
X144627997Y-119016006D01*
X144627996Y-119016005D01*
X144627994Y-119016004D01*
X144558626Y-118980659D01*
X144466639Y-118933788D01*
X144466636Y-118933787D01*
X144294410Y-118877829D01*
X144115551Y-118849500D01*
X144115546Y-118849500D01*
X143684454Y-118849500D01*
X143684449Y-118849500D01*
X143505589Y-118877829D01*
X143333363Y-118933787D01*
X143333360Y-118933788D01*
X143172002Y-119016006D01*
X143025505Y-119122441D01*
X143025500Y-119122445D01*
X142897445Y-119250500D01*
X142897441Y-119250505D01*
X142791006Y-119397002D01*
X142708788Y-119558360D01*
X142708787Y-119558363D01*
X142652829Y-119730589D01*
X142624500Y-119909448D01*
X142624500Y-120090547D01*
X142630314Y-120127259D01*
X142621358Y-120196552D01*
X142576361Y-120250003D01*
X142509609Y-120270642D01*
X142442295Y-120251916D01*
X142420159Y-120234336D01*
X142406365Y-120220542D01*
X142303592Y-120175163D01*
X142278468Y-120172248D01*
X142278465Y-120172248D01*
X142017454Y-120172248D01*
X141950415Y-120152563D01*
X141929773Y-120135929D01*
X141564070Y-119770225D01*
X141530585Y-119708902D01*
X141527751Y-119682544D01*
X141527751Y-119421543D01*
X141527751Y-119421536D01*
X141527749Y-119421517D01*
X141524838Y-119396412D01*
X141524837Y-119396410D01*
X141524837Y-119396409D01*
X141479458Y-119293635D01*
X141400017Y-119214194D01*
X141380739Y-119205682D01*
X141297244Y-119168815D01*
X141272117Y-119165900D01*
X140928395Y-119165900D01*
X140928371Y-119165902D01*
X140903262Y-119168814D01*
X140903256Y-119168816D01*
X140900266Y-119170136D01*
X140896677Y-119170605D01*
X140894257Y-119171264D01*
X140894167Y-119170934D01*
X140830987Y-119179202D01*
X140800108Y-119170135D01*
X140797121Y-119168816D01*
X140788118Y-119166367D01*
X140789065Y-119162882D01*
X140740961Y-119142476D01*
X140701603Y-119084746D01*
X140696649Y-119062784D01*
X140680342Y-118938919D01*
X140643996Y-118851174D01*
X140636528Y-118781707D01*
X140667803Y-118719227D01*
X140692580Y-118698733D01*
X140802262Y-118629816D01*
X140929816Y-118502262D01*
X141025789Y-118349522D01*
X141085368Y-118179255D01*
X141085791Y-118175500D01*
X141105565Y-118000003D01*
X141105565Y-117999996D01*
X141085369Y-117820750D01*
X141085368Y-117820745D01*
X141058692Y-117744510D01*
X141025789Y-117650478D01*
X141006834Y-117620312D01*
X140984503Y-117584772D01*
X140929816Y-117497738D01*
X140802262Y-117370184D01*
X140752428Y-117338871D01*
X140649523Y-117274211D01*
X140479254Y-117214631D01*
X140479249Y-117214630D01*
X140300004Y-117194435D01*
X140300001Y-117194435D01*
X140300000Y-117194435D01*
X140293854Y-117195127D01*
X140279095Y-117196790D01*
X140262492Y-117197015D01*
X140262494Y-117197258D01*
X140256763Y-117197299D01*
X140085278Y-117214447D01*
X140016612Y-117201530D01*
X139965831Y-117153541D01*
X139957586Y-117136553D01*
X139934360Y-117077658D01*
X139842921Y-116957077D01*
X139722342Y-116865639D01*
X139581560Y-116810122D01*
X139535925Y-116804642D01*
X139493101Y-116799500D01*
X138756897Y-116799500D01*
X138717852Y-116804188D01*
X138668437Y-116810122D01*
X138527655Y-116865639D01*
X138407076Y-116957077D01*
X138315637Y-117077658D01*
X138315636Y-117077660D01*
X138260594Y-117217236D01*
X138217688Y-117272380D01*
X138151780Y-117295573D01*
X138115566Y-117292143D01*
X138035056Y-117272300D01*
X138035055Y-117272300D01*
X137864943Y-117272300D01*
X137699772Y-117313010D01*
X137549149Y-117392063D01*
X137426055Y-117501116D01*
X137362822Y-117530837D01*
X137343828Y-117532300D01*
X136969206Y-117532300D01*
X136857173Y-117562319D01*
X136857170Y-117562320D01*
X136756724Y-117620313D01*
X135429864Y-118947174D01*
X135368541Y-118980659D01*
X135298849Y-118975675D01*
X135242916Y-118933803D01*
X135218499Y-118868339D01*
X135219067Y-118844709D01*
X135220459Y-118833118D01*
X135225500Y-118791144D01*
X135225500Y-118208856D01*
X135215359Y-118124410D01*
X135162364Y-117990025D01*
X135162363Y-117990024D01*
X135162363Y-117990023D01*
X135075078Y-117874921D01*
X134959976Y-117787636D01*
X134825588Y-117734640D01*
X134782242Y-117729435D01*
X134741144Y-117724500D01*
X134208856Y-117724500D01*
X134170841Y-117729065D01*
X134124411Y-117734640D01*
X133990023Y-117787636D01*
X133874923Y-117874920D01*
X133798804Y-117975298D01*
X133742611Y-118016821D01*
X133672890Y-118021372D01*
X133611776Y-117987507D01*
X133601196Y-117975298D01*
X133586475Y-117955886D01*
X133525078Y-117874922D01*
X133525076Y-117874921D01*
X133525076Y-117874920D01*
X133409976Y-117787636D01*
X133275588Y-117734640D01*
X133232242Y-117729435D01*
X133191144Y-117724500D01*
X132658856Y-117724500D01*
X132620841Y-117729065D01*
X132574411Y-117734640D01*
X132432134Y-117790748D01*
X132430980Y-117787824D01*
X132386454Y-117799500D01*
X131956004Y-117799500D01*
X131820677Y-117826418D01*
X131820667Y-117826421D01*
X131693192Y-117879222D01*
X131578454Y-117955887D01*
X131578453Y-117955888D01*
X130771162Y-118763181D01*
X130709839Y-118796666D01*
X130683481Y-118799500D01*
X129906898Y-118799500D01*
X129867853Y-118804188D01*
X129818438Y-118810122D01*
X129677656Y-118865639D01*
X129557077Y-118957077D01*
X129465639Y-119077656D01*
X129410122Y-119218438D01*
X129404702Y-119263576D01*
X129399500Y-119306898D01*
X129399500Y-120143102D01*
X129403000Y-120172248D01*
X129410122Y-120231561D01*
X129410122Y-120231563D01*
X129410123Y-120231564D01*
X129419950Y-120256483D01*
X129465639Y-120372343D01*
X129557077Y-120492922D01*
X129677656Y-120584360D01*
X129677657Y-120584360D01*
X129677658Y-120584361D01*
X129818436Y-120639877D01*
X129906898Y-120650500D01*
X130993665Y-120650500D01*
X131060704Y-120670185D01*
X131081346Y-120686819D01*
X131132346Y-120737819D01*
X131165831Y-120799142D01*
X131160847Y-120868834D01*
X131118975Y-120924767D01*
X131053511Y-120949184D01*
X131044665Y-120949500D01*
X129906898Y-120949500D01*
X129867853Y-120954188D01*
X129818438Y-120960122D01*
X129677656Y-121015639D01*
X129557077Y-121107077D01*
X129465639Y-121227656D01*
X129410122Y-121368438D01*
X129407158Y-121393125D01*
X129399500Y-121456898D01*
X129399500Y-122293102D01*
X129410123Y-122381561D01*
X129410123Y-122381564D01*
X129410775Y-122383218D01*
X129410904Y-122384659D01*
X129412070Y-122389268D01*
X129411337Y-122389453D01*
X129417050Y-122452805D01*
X129384708Y-122514739D01*
X129353042Y-122538494D01*
X129307562Y-122562364D01*
X129297393Y-122567127D01*
X129268192Y-122579223D01*
X129268186Y-122579226D01*
X129247090Y-122593321D01*
X129235834Y-122600010D01*
X129199149Y-122619264D01*
X129177493Y-122638450D01*
X129164165Y-122648730D01*
X129153462Y-122655882D01*
X129153456Y-122655887D01*
X129122279Y-122687062D01*
X129116830Y-122692190D01*
X129071820Y-122732067D01*
X129071815Y-122732072D01*
X129066054Y-122740418D01*
X129059386Y-122748452D01*
X129059748Y-122748749D01*
X129055890Y-122753450D01*
X129020982Y-122805692D01*
X129019931Y-122807239D01*
X128975183Y-122872068D01*
X128975181Y-122872071D01*
X128949436Y-122939953D01*
X128948058Y-122943428D01*
X128926419Y-122995673D01*
X128926418Y-122995678D01*
X128926353Y-122996006D01*
X128920680Y-123015781D01*
X128914859Y-123031129D01*
X128908361Y-123084643D01*
X128906883Y-123093882D01*
X128899500Y-123131004D01*
X128899500Y-123150125D01*
X128898596Y-123165071D01*
X128894355Y-123199999D01*
X128898596Y-123234926D01*
X128899500Y-123249873D01*
X128899500Y-123268998D01*
X128906883Y-123306120D01*
X128908361Y-123315358D01*
X128914859Y-123368870D01*
X128914860Y-123368871D01*
X128920678Y-123384212D01*
X128926354Y-123403995D01*
X128926420Y-123404327D01*
X128926420Y-123404329D01*
X128948046Y-123456538D01*
X128949427Y-123460019D01*
X128975182Y-123527930D01*
X128975183Y-123527931D01*
X129019972Y-123592820D01*
X129021024Y-123594369D01*
X129055885Y-123646542D01*
X129059751Y-123651253D01*
X129057533Y-123653073D01*
X129085146Y-123703642D01*
X129080162Y-123773334D01*
X129058298Y-123807559D01*
X129059748Y-123808749D01*
X129055890Y-123813450D01*
X129020982Y-123865692D01*
X129019931Y-123867239D01*
X128975183Y-123932068D01*
X128975181Y-123932071D01*
X128949436Y-123999953D01*
X128948058Y-124003428D01*
X128926419Y-124055673D01*
X128926418Y-124055678D01*
X128926353Y-124056006D01*
X128920680Y-124075781D01*
X128914859Y-124091129D01*
X128908361Y-124144643D01*
X128906883Y-124153882D01*
X128899500Y-124191004D01*
X128899500Y-124210125D01*
X128898596Y-124225071D01*
X128894355Y-124259999D01*
X128898596Y-124294926D01*
X128899500Y-124309873D01*
X128899500Y-124328998D01*
X128906883Y-124366120D01*
X128908361Y-124375358D01*
X128914859Y-124428870D01*
X128914860Y-124428871D01*
X128920678Y-124444212D01*
X128926354Y-124463995D01*
X128926420Y-124464327D01*
X128926420Y-124464329D01*
X128948046Y-124516538D01*
X128949424Y-124520012D01*
X128975182Y-124587930D01*
X128981450Y-124597011D01*
X129019972Y-124652820D01*
X129021024Y-124654369D01*
X129055885Y-124706542D01*
X129059751Y-124711253D01*
X129059371Y-124711564D01*
X129066061Y-124719591D01*
X129071812Y-124727923D01*
X129071821Y-124727933D01*
X129116827Y-124767804D01*
X129122283Y-124772940D01*
X129153452Y-124804110D01*
X129153456Y-124804113D01*
X129164160Y-124811266D01*
X129177491Y-124821549D01*
X129199143Y-124840730D01*
X129199151Y-124840736D01*
X129235835Y-124859990D01*
X129247096Y-124866682D01*
X129257500Y-124873633D01*
X129268189Y-124880775D01*
X129268195Y-124880777D01*
X129268196Y-124880778D01*
X129297389Y-124892870D01*
X129307559Y-124897633D01*
X129322093Y-124905261D01*
X129349772Y-124919789D01*
X129349774Y-124919789D01*
X129349775Y-124919790D01*
X129357497Y-124921693D01*
X129371791Y-124925216D01*
X129389571Y-124931052D01*
X129395672Y-124933580D01*
X129445037Y-124943399D01*
X129450467Y-124944608D01*
X129459012Y-124946714D01*
X129519391Y-124981872D01*
X129551178Y-125044093D01*
X129544280Y-125113621D01*
X129500887Y-125168382D01*
X129491334Y-125174496D01*
X129489666Y-125175458D01*
X129364218Y-125271718D01*
X129267963Y-125397160D01*
X129207456Y-125543237D01*
X129207455Y-125543239D01*
X129186818Y-125699998D01*
X129186818Y-125700001D01*
X129207455Y-125856760D01*
X129207456Y-125856762D01*
X129263593Y-125992290D01*
X129267964Y-126002841D01*
X129364218Y-126128282D01*
X129489659Y-126224536D01*
X129635738Y-126285044D01*
X129685316Y-126291571D01*
X129792499Y-126305682D01*
X129792500Y-126305682D01*
X129792501Y-126305682D01*
X129844754Y-126298802D01*
X129949262Y-126285044D01*
X130095341Y-126224536D01*
X130220782Y-126128282D01*
X130317036Y-126002841D01*
X130377544Y-125856762D01*
X130398182Y-125700000D01*
X130377544Y-125543238D01*
X130317036Y-125397159D01*
X130317035Y-125397158D01*
X130317035Y-125397157D01*
X130242473Y-125299986D01*
X130217279Y-125234817D01*
X130231317Y-125166372D01*
X130280131Y-125116383D01*
X130340849Y-125100500D01*
X130893097Y-125100500D01*
X130893102Y-125100500D01*
X130981564Y-125089877D01*
X131122342Y-125034361D01*
X131242922Y-124942922D01*
X131334361Y-124822342D01*
X131389877Y-124681564D01*
X131400500Y-124593102D01*
X131400500Y-123206898D01*
X131389877Y-123118436D01*
X131334361Y-122977658D01*
X131334360Y-122977657D01*
X131331337Y-122969990D01*
X131325056Y-122900403D01*
X131357393Y-122838467D01*
X131418082Y-122803846D01*
X131446692Y-122800500D01*
X131693097Y-122800500D01*
X131693102Y-122800500D01*
X131781564Y-122789877D01*
X131922342Y-122734361D01*
X132042922Y-122642922D01*
X132134361Y-122522342D01*
X132189877Y-122381564D01*
X132200500Y-122293102D01*
X132200500Y-121824500D01*
X132220185Y-121757461D01*
X132272989Y-121711706D01*
X132324500Y-121700500D01*
X133231495Y-121700500D01*
X133342601Y-121678399D01*
X133366828Y-121673580D01*
X133451816Y-121638376D01*
X133494309Y-121620776D01*
X133499681Y-121617905D01*
X133500376Y-121619205D01*
X133560062Y-121600520D01*
X133562270Y-121600500D01*
X133729270Y-121600500D01*
X133759699Y-121597646D01*
X133759701Y-121597646D01*
X133823790Y-121575219D01*
X133887882Y-121552793D01*
X133997150Y-121472150D01*
X134077793Y-121362882D01*
X134110572Y-121269206D01*
X134122646Y-121234701D01*
X134122646Y-121234699D01*
X134125500Y-121204269D01*
X134125500Y-120795730D01*
X134122646Y-120765300D01*
X134122646Y-120765298D01*
X134084806Y-120657160D01*
X134077793Y-120637118D01*
X134049389Y-120598632D01*
X134025419Y-120533005D01*
X134040734Y-120464835D01*
X134049385Y-120451373D01*
X134077793Y-120412882D01*
X134103576Y-120339198D01*
X134122646Y-120284701D01*
X134122646Y-120284699D01*
X134125500Y-120254269D01*
X134125500Y-119845730D01*
X134122646Y-119815301D01*
X134121814Y-119812922D01*
X134121718Y-119811051D01*
X134121036Y-119807927D01*
X134121553Y-119807814D01*
X134118251Y-119743143D01*
X134151172Y-119684287D01*
X134405465Y-119429995D01*
X134466786Y-119396512D01*
X134536478Y-119401496D01*
X134592411Y-119443368D01*
X134616828Y-119508832D01*
X134601976Y-119577105D01*
X134592915Y-119591311D01*
X134522207Y-119687118D01*
X134522206Y-119687119D01*
X134477353Y-119815298D01*
X134477353Y-119815300D01*
X134474500Y-119845730D01*
X134474500Y-120254269D01*
X134477353Y-120284699D01*
X134477353Y-120284701D01*
X134517699Y-120400000D01*
X134522207Y-120412882D01*
X134541781Y-120439404D01*
X134550610Y-120451367D01*
X134574580Y-120516997D01*
X134559264Y-120585167D01*
X134550610Y-120598633D01*
X134522207Y-120637118D01*
X134522206Y-120637119D01*
X134477353Y-120765298D01*
X134477353Y-120765300D01*
X134474500Y-120795730D01*
X134474500Y-121204269D01*
X134477353Y-121234699D01*
X134477353Y-121234701D01*
X134517524Y-121349500D01*
X134522207Y-121362882D01*
X134541263Y-121388702D01*
X134550610Y-121401367D01*
X134574580Y-121466997D01*
X134559264Y-121535167D01*
X134550610Y-121548633D01*
X134522207Y-121587118D01*
X134522206Y-121587119D01*
X134477353Y-121715298D01*
X134477353Y-121715300D01*
X134474500Y-121745730D01*
X134474500Y-122154269D01*
X134477353Y-122184699D01*
X134477353Y-122184701D01*
X134520997Y-122309425D01*
X134522207Y-122312882D01*
X134602850Y-122422150D01*
X134712118Y-122502793D01*
X134754845Y-122517744D01*
X134840299Y-122547646D01*
X134870730Y-122550500D01*
X134870734Y-122550500D01*
X135037730Y-122550500D01*
X135099869Y-122568746D01*
X135100319Y-122567905D01*
X135104359Y-122570064D01*
X135104769Y-122570185D01*
X135105587Y-122570721D01*
X135105690Y-122570776D01*
X135217721Y-122617180D01*
X135233172Y-122623580D01*
X135233176Y-122623580D01*
X135233177Y-122623581D01*
X135368504Y-122650500D01*
X135368507Y-122650500D01*
X136218996Y-122650500D01*
X136310040Y-122632389D01*
X136354328Y-122623580D01*
X136458333Y-122580500D01*
X136481807Y-122570777D01*
X136481808Y-122570776D01*
X136481811Y-122570775D01*
X136596543Y-122494114D01*
X136619929Y-122470726D01*
X136681251Y-122437242D01*
X136750942Y-122442225D01*
X136805985Y-122482919D01*
X136885172Y-122586118D01*
X137010613Y-122682372D01*
X137156692Y-122742880D01*
X137199016Y-122748452D01*
X137313453Y-122763518D01*
X137313454Y-122763518D01*
X137313455Y-122763518D01*
X137389928Y-122753450D01*
X137470216Y-122742880D01*
X137505872Y-122728110D01*
X137575338Y-122720641D01*
X137637818Y-122751915D01*
X137666758Y-122792585D01*
X137714193Y-122900016D01*
X137714194Y-122900017D01*
X137793635Y-122979458D01*
X137896409Y-123024837D01*
X137921535Y-123027752D01*
X138249962Y-123027751D01*
X138282054Y-123031975D01*
X138314807Y-123040752D01*
X138314808Y-123040752D01*
X138430791Y-123040752D01*
X138430793Y-123040752D01*
X138463545Y-123031975D01*
X138495638Y-123027751D01*
X138548248Y-123027751D01*
X138615287Y-123047436D01*
X138661042Y-123100240D01*
X138672248Y-123151751D01*
X138672248Y-123778456D01*
X138672250Y-123778482D01*
X138675161Y-123803587D01*
X138675163Y-123803591D01*
X138720541Y-123906364D01*
X138727036Y-123915845D01*
X138724210Y-123917780D01*
X138748378Y-123962039D01*
X138743394Y-124031731D01*
X138701522Y-124087664D01*
X138636058Y-124112081D01*
X138611027Y-124111336D01*
X138519741Y-124099318D01*
X138519739Y-124099318D01*
X138362979Y-124119955D01*
X138362977Y-124119956D01*
X138216897Y-124180464D01*
X138117590Y-124256666D01*
X138052421Y-124281860D01*
X137983976Y-124267822D01*
X137966624Y-124256670D01*
X137886858Y-124195464D01*
X137876095Y-124191006D01*
X137740779Y-124134956D01*
X137740777Y-124134955D01*
X137584018Y-124114318D01*
X137584016Y-124114318D01*
X137427256Y-124134955D01*
X137427254Y-124134956D01*
X137281177Y-124195463D01*
X137155735Y-124291718D01*
X137059480Y-124417160D01*
X136998973Y-124563237D01*
X136998972Y-124563239D01*
X136978335Y-124719998D01*
X136978335Y-124720001D01*
X136998972Y-124876760D01*
X136998973Y-124876762D01*
X137056214Y-125014955D01*
X137059481Y-125022841D01*
X137155735Y-125148282D01*
X137281176Y-125244536D01*
X137427255Y-125305044D01*
X137502886Y-125315001D01*
X137584016Y-125325682D01*
X137584017Y-125325682D01*
X137584018Y-125325682D01*
X137619315Y-125321035D01*
X137688350Y-125331801D01*
X137740606Y-125378180D01*
X137759500Y-125443974D01*
X137759500Y-125849906D01*
X137759500Y-125950094D01*
X137785431Y-126046867D01*
X137807077Y-126084360D01*
X137835523Y-126133631D01*
X138043181Y-126341289D01*
X138076666Y-126402612D01*
X138079500Y-126428969D01*
X138079500Y-126647447D01*
X138079501Y-126647456D01*
X138080576Y-126658928D01*
X138067236Y-126727510D01*
X138018933Y-126777994D01*
X137957118Y-126794500D01*
X137808749Y-126794500D01*
X137796508Y-126793894D01*
X136493813Y-126664666D01*
X136267655Y-126642229D01*
X136263225Y-126641822D01*
X136263065Y-126641808D01*
X136262984Y-126641802D01*
X136262216Y-126641740D01*
X136259825Y-126641550D01*
X136247782Y-126640656D01*
X136241210Y-126640241D01*
X136240771Y-126640218D01*
X136240685Y-126640214D01*
X136240679Y-126640213D01*
X136240664Y-126640213D01*
X136232271Y-126639891D01*
X136220301Y-126639595D01*
X136215598Y-126639515D01*
X136215466Y-126639513D01*
X136215376Y-126639513D01*
X136215362Y-126639512D01*
X136215255Y-126639512D01*
X136213858Y-126639505D01*
X136146922Y-126619474D01*
X136101441Y-126566434D01*
X136090500Y-126515507D01*
X136090500Y-126380439D01*
X136110185Y-126313400D01*
X136129575Y-126292718D01*
X136128428Y-126291571D01*
X136134999Y-126284999D01*
X136180764Y-126222989D01*
X136213852Y-126178157D01*
X136216642Y-126170185D01*
X136257708Y-126052826D01*
X136257708Y-126052823D01*
X136257710Y-126052819D01*
X136260500Y-126023066D01*
X136260500Y-125576934D01*
X136257710Y-125547181D01*
X136257708Y-125547177D01*
X136257708Y-125547173D01*
X136220380Y-125440499D01*
X136213852Y-125421843D01*
X136134999Y-125315001D01*
X136028157Y-125236148D01*
X136028155Y-125236147D01*
X135902826Y-125192291D01*
X135902814Y-125192289D01*
X135873070Y-125189500D01*
X135873066Y-125189500D01*
X135486934Y-125189500D01*
X135486930Y-125189500D01*
X135457185Y-125192289D01*
X135457173Y-125192291D01*
X135331844Y-125236147D01*
X135225001Y-125315001D01*
X135146147Y-125421844D01*
X135102291Y-125547173D01*
X135102289Y-125547185D01*
X135099500Y-125576929D01*
X135099500Y-126023070D01*
X135102289Y-126052814D01*
X135102291Y-126052826D01*
X135146146Y-126178153D01*
X135146147Y-126178154D01*
X135146148Y-126178157D01*
X135185271Y-126231166D01*
X135209241Y-126296792D01*
X135209500Y-126304798D01*
X135209500Y-126541512D01*
X135189815Y-126608551D01*
X135137011Y-126654306D01*
X135128835Y-126657693D01*
X135019773Y-126698372D01*
X134910313Y-126780313D01*
X134828373Y-126889771D01*
X134780587Y-127017889D01*
X134774500Y-127074498D01*
X134774500Y-127515481D01*
X134774501Y-127515495D01*
X134780059Y-127567203D01*
X134779709Y-127596632D01*
X134773636Y-127642777D01*
X134769680Y-127672841D01*
X134769500Y-127674205D01*
X134769500Y-130028817D01*
X134770801Y-130056996D01*
X134770996Y-130059097D01*
X134774913Y-130087152D01*
X134791257Y-130174440D01*
X134791263Y-130174466D01*
X134806728Y-130228733D01*
X134808263Y-130232690D01*
X134833476Y-130283231D01*
X134879724Y-130357772D01*
X134879729Y-130357779D01*
X134909699Y-130397376D01*
X134913807Y-130402804D01*
X134916662Y-130405928D01*
X134916668Y-130405934D01*
X134916675Y-130405941D01*
X134918090Y-130407353D01*
X134918277Y-130407695D01*
X134918599Y-130408047D01*
X134918513Y-130408125D01*
X134951655Y-130468632D01*
X134946761Y-130538330D01*
X134914322Y-130581780D01*
X134916584Y-130584042D01*
X134910315Y-130590310D01*
X134828373Y-130699771D01*
X134825840Y-130706563D01*
X134781596Y-130825185D01*
X134780587Y-130827889D01*
X134774500Y-130884498D01*
X134774500Y-131325481D01*
X134774501Y-131325490D01*
X134780587Y-131382114D01*
X134828373Y-131510228D01*
X134896466Y-131601190D01*
X134920883Y-131666654D01*
X134906031Y-131734927D01*
X134856626Y-131784332D01*
X134797199Y-131799500D01*
X122974000Y-131799500D01*
X122906961Y-131779815D01*
X122861206Y-131727011D01*
X122850000Y-131675500D01*
X122850000Y-128771714D01*
X123466034Y-128771714D01*
X123466034Y-128771717D01*
X123486671Y-128928476D01*
X123486672Y-128928478D01*
X123526979Y-129025789D01*
X123547180Y-129074557D01*
X123643434Y-129199998D01*
X123768875Y-129296252D01*
X123914954Y-129356760D01*
X123993335Y-129367079D01*
X124071715Y-129377398D01*
X124071716Y-129377398D01*
X124071717Y-129377398D01*
X124123970Y-129370518D01*
X124228478Y-129356760D01*
X124374557Y-129296252D01*
X124499998Y-129199998D01*
X124596252Y-129074557D01*
X124656760Y-128928478D01*
X124675877Y-128783271D01*
X124677398Y-128771717D01*
X124677398Y-128771714D01*
X124656760Y-128614955D01*
X124656760Y-128614954D01*
X124596252Y-128468875D01*
X124499998Y-128343434D01*
X124374557Y-128247180D01*
X124346023Y-128235361D01*
X124228478Y-128186672D01*
X124228476Y-128186671D01*
X124071717Y-128166034D01*
X124071715Y-128166034D01*
X123914955Y-128186671D01*
X123914953Y-128186672D01*
X123768876Y-128247179D01*
X123643434Y-128343434D01*
X123547179Y-128468876D01*
X123486672Y-128614953D01*
X123486671Y-128614955D01*
X123466034Y-128771714D01*
X122850000Y-128771714D01*
X122850000Y-128700000D01*
X121992789Y-128700000D01*
X121925750Y-128680315D01*
X121879995Y-128627511D01*
X121870051Y-128558353D01*
X121878228Y-128528547D01*
X121889296Y-128501827D01*
X121936247Y-128388478D01*
X121956885Y-128231716D01*
X121950326Y-128181898D01*
X121936247Y-128074955D01*
X121936247Y-128074954D01*
X121875739Y-127928875D01*
X121875738Y-127928874D01*
X121875738Y-127928873D01*
X121817327Y-127852750D01*
X121792133Y-127787581D01*
X121791703Y-127777264D01*
X121791703Y-127709816D01*
X121811388Y-127642777D01*
X121820108Y-127631955D01*
X121819953Y-127631837D01*
X121908186Y-127515484D01*
X121912364Y-127509975D01*
X121965359Y-127375590D01*
X121975500Y-127291144D01*
X121975500Y-126708856D01*
X121965359Y-126624410D01*
X121912364Y-126490025D01*
X121912363Y-126490024D01*
X121912363Y-126490023D01*
X121825078Y-126374921D01*
X121709976Y-126287636D01*
X121575588Y-126234640D01*
X121532242Y-126229435D01*
X121491144Y-126224500D01*
X120958856Y-126224500D01*
X120920841Y-126229065D01*
X120874411Y-126234640D01*
X120740023Y-126287636D01*
X120624921Y-126374921D01*
X120537636Y-126490023D01*
X120484640Y-126624411D01*
X120481873Y-126647456D01*
X120474500Y-126708856D01*
X120474500Y-127291144D01*
X120478104Y-127321155D01*
X120484640Y-127375588D01*
X120537636Y-127509976D01*
X120624921Y-127625078D01*
X120740026Y-127712365D01*
X120781060Y-127728547D01*
X120836204Y-127771452D01*
X120859397Y-127837360D01*
X120843276Y-127905345D01*
X120833949Y-127919383D01*
X120826668Y-127928872D01*
X120766159Y-128074953D01*
X120766158Y-128074955D01*
X120745521Y-128231714D01*
X120745521Y-128231717D01*
X120766158Y-128388476D01*
X120766159Y-128388478D01*
X120824177Y-128528547D01*
X120826667Y-128534557D01*
X120922921Y-128659998D01*
X121048362Y-128756252D01*
X121194441Y-128816760D01*
X121351203Y-128837398D01*
X121409816Y-128829681D01*
X121478849Y-128840446D01*
X121531105Y-128886825D01*
X121550000Y-128952620D01*
X121550000Y-131000000D01*
X121900000Y-131000000D01*
X121900000Y-129124000D01*
X121919685Y-129056961D01*
X121972489Y-129011206D01*
X122024000Y-129000000D01*
X122376000Y-129000000D01*
X122443039Y-129019685D01*
X122488794Y-129072489D01*
X122500000Y-129124000D01*
X122500000Y-131675500D01*
X122480315Y-131742539D01*
X122427511Y-131788294D01*
X122376000Y-131799500D01*
X115605979Y-131799500D01*
X115538940Y-131779815D01*
X115493185Y-131727011D01*
X115483241Y-131657853D01*
X115506209Y-131601866D01*
X115506708Y-131601190D01*
X115514381Y-131590794D01*
X115536255Y-131528281D01*
X115557741Y-131466881D01*
X115557741Y-131466879D01*
X115560500Y-131437457D01*
X115560499Y-130962544D01*
X115557741Y-130933121D01*
X115514381Y-130809206D01*
X115466320Y-130744086D01*
X115436423Y-130703576D01*
X115351492Y-130640895D01*
X115330794Y-130625619D01*
X115330792Y-130625618D01*
X115206880Y-130582258D01*
X115177461Y-130579500D01*
X114802546Y-130579500D01*
X114773120Y-130582258D01*
X114733502Y-130596121D01*
X114663723Y-130599682D01*
X114604869Y-130566760D01*
X114300044Y-130261935D01*
X114266559Y-130200612D01*
X114263725Y-130174254D01*
X114263725Y-130077250D01*
X114273164Y-130029797D01*
X114285506Y-130000000D01*
X114328269Y-129896762D01*
X114330627Y-129878855D01*
X119098380Y-129878855D01*
X119098380Y-129878858D01*
X119119017Y-130035617D01*
X119119018Y-130035619D01*
X119176527Y-130174459D01*
X119179526Y-130181698D01*
X119275780Y-130307139D01*
X119401221Y-130403393D01*
X119547300Y-130463901D01*
X119583236Y-130468632D01*
X119704061Y-130484539D01*
X119704062Y-130484539D01*
X119704063Y-130484539D01*
X119756316Y-130477659D01*
X119860824Y-130463901D01*
X120006903Y-130403393D01*
X120132344Y-130307139D01*
X120228598Y-130181698D01*
X120289106Y-130035619D01*
X120309744Y-129878857D01*
X120309657Y-129878199D01*
X120289106Y-129722096D01*
X120289106Y-129722095D01*
X120228598Y-129576016D01*
X120132344Y-129450575D01*
X120006903Y-129354321D01*
X119944447Y-129328451D01*
X119860824Y-129293813D01*
X119860822Y-129293812D01*
X119704063Y-129273175D01*
X119704061Y-129273175D01*
X119547301Y-129293812D01*
X119547299Y-129293813D01*
X119401222Y-129354320D01*
X119275780Y-129450575D01*
X119179525Y-129576017D01*
X119119018Y-129722094D01*
X119119017Y-129722096D01*
X119098380Y-129878855D01*
X114330627Y-129878855D01*
X114347287Y-129752308D01*
X114348907Y-129740001D01*
X114348907Y-129739998D01*
X114328269Y-129583239D01*
X114328269Y-129583238D01*
X114267761Y-129437159D01*
X114171507Y-129311718D01*
X114046066Y-129215464D01*
X114031001Y-129209224D01*
X113899987Y-129154956D01*
X113899985Y-129154955D01*
X113790358Y-129140523D01*
X113726461Y-129112256D01*
X113687990Y-129053932D01*
X113686766Y-129049670D01*
X113685045Y-129043251D01*
X113685044Y-129043238D01*
X113624536Y-128897159D01*
X113607904Y-128875484D01*
X113582711Y-128810319D01*
X113596748Y-128741874D01*
X113607899Y-128724521D01*
X113624536Y-128702841D01*
X113676531Y-128577313D01*
X113720372Y-128522910D01*
X113774905Y-128501827D01*
X113902391Y-128485044D01*
X114048470Y-128424536D01*
X114173911Y-128328282D01*
X114270165Y-128202841D01*
X114330673Y-128056762D01*
X114351311Y-127900000D01*
X114338583Y-127803323D01*
X114349348Y-127734291D01*
X114395728Y-127682035D01*
X114399489Y-127679772D01*
X114425984Y-127664476D01*
X115804476Y-126285984D01*
X115854569Y-126199219D01*
X115880500Y-126102446D01*
X115880500Y-126002257D01*
X115880500Y-125906096D01*
X115900185Y-125839057D01*
X115922886Y-125814380D01*
X115922535Y-125814029D01*
X115928277Y-125808286D01*
X115928277Y-125808285D01*
X115928282Y-125808282D01*
X116024536Y-125682841D01*
X116085044Y-125536762D01*
X116105682Y-125380000D01*
X116105442Y-125378180D01*
X116087848Y-125244536D01*
X116085044Y-125223238D01*
X116024536Y-125077159D01*
X115928282Y-124951718D01*
X115802841Y-124855464D01*
X115743614Y-124830931D01*
X115689212Y-124787091D01*
X115667147Y-124720797D01*
X115684426Y-124653098D01*
X115703381Y-124628696D01*
X115729816Y-124602262D01*
X115734712Y-124594470D01*
X115787044Y-124548179D01*
X115856097Y-124537528D01*
X115915193Y-124562064D01*
X115926609Y-124570824D01*
X115977056Y-124609534D01*
X115977057Y-124609534D01*
X115977058Y-124609535D01*
X116123137Y-124670043D01*
X116201518Y-124680362D01*
X116279898Y-124690681D01*
X116279899Y-124690681D01*
X116279900Y-124690681D01*
X116349150Y-124681564D01*
X116436661Y-124670043D01*
X116582740Y-124609535D01*
X116692096Y-124525623D01*
X116757264Y-124500430D01*
X116767581Y-124500000D01*
X117509799Y-124500000D01*
X117576838Y-124519685D01*
X117622593Y-124572489D01*
X117632914Y-124638783D01*
X117624500Y-124708856D01*
X117624500Y-125291144D01*
X117629825Y-125335494D01*
X117634640Y-125375588D01*
X117687636Y-125509976D01*
X117774921Y-125625078D01*
X117808833Y-125650794D01*
X117885426Y-125708876D01*
X117926948Y-125765067D01*
X117934500Y-125807679D01*
X117934500Y-126239934D01*
X117914815Y-126306973D01*
X117908876Y-126315420D01*
X117815464Y-126437157D01*
X117754956Y-126583237D01*
X117754955Y-126583239D01*
X117734318Y-126739998D01*
X117734318Y-126740001D01*
X117754955Y-126896760D01*
X117754956Y-126896762D01*
X117805128Y-127017889D01*
X117815464Y-127042841D01*
X117911718Y-127168282D01*
X118037159Y-127264536D01*
X118183238Y-127325044D01*
X118257608Y-127334835D01*
X118339999Y-127345682D01*
X118340000Y-127345682D01*
X118340001Y-127345682D01*
X118392254Y-127338802D01*
X118496762Y-127325044D01*
X118642841Y-127264536D01*
X118700519Y-127220277D01*
X118765688Y-127195083D01*
X118834133Y-127209121D01*
X118884123Y-127257935D01*
X118899787Y-127326026D01*
X118898946Y-127334835D01*
X118894317Y-127370001D01*
X118914954Y-127526760D01*
X118914955Y-127526762D01*
X118968678Y-127656462D01*
X118975463Y-127672841D01*
X119071717Y-127798282D01*
X119197158Y-127894536D01*
X119343237Y-127955044D01*
X119400555Y-127962590D01*
X119499998Y-127975682D01*
X119499999Y-127975682D01*
X119500000Y-127975682D01*
X119552253Y-127968802D01*
X119656761Y-127955044D01*
X119802840Y-127894536D01*
X119928281Y-127798282D01*
X120024535Y-127672841D01*
X120085043Y-127526762D01*
X120105681Y-127370000D01*
X120103198Y-127351143D01*
X120085043Y-127213239D01*
X120085043Y-127213238D01*
X120024535Y-127067159D01*
X119928281Y-126941718D01*
X119928279Y-126941717D01*
X119928279Y-126941716D01*
X119802840Y-126845464D01*
X119802835Y-126845461D01*
X119777045Y-126834778D01*
X119722642Y-126790936D01*
X119700579Y-126724641D01*
X119700500Y-126720218D01*
X119700500Y-126376929D01*
X119697710Y-126347185D01*
X119697710Y-126347181D01*
X119697708Y-126347177D01*
X119697708Y-126347173D01*
X119654794Y-126224536D01*
X119653852Y-126221843D01*
X119574999Y-126115001D01*
X119468157Y-126036148D01*
X119468155Y-126036147D01*
X119342826Y-125992291D01*
X119342814Y-125992289D01*
X119313070Y-125989500D01*
X119313066Y-125989500D01*
X118939500Y-125989500D01*
X118872461Y-125969815D01*
X118826706Y-125917011D01*
X118815500Y-125865500D01*
X118815500Y-125807679D01*
X118835185Y-125740640D01*
X118864572Y-125708877D01*
X118975078Y-125625078D01*
X118994097Y-125599998D01*
X123794318Y-125599998D01*
X123794318Y-125600001D01*
X123814955Y-125756760D01*
X123814956Y-125756762D01*
X123856376Y-125856760D01*
X123875464Y-125902841D01*
X123971718Y-126028282D01*
X124097159Y-126124536D01*
X124243238Y-126185044D01*
X124321619Y-126195363D01*
X124399999Y-126205682D01*
X124400000Y-126205682D01*
X124400001Y-126205682D01*
X124452254Y-126198802D01*
X124556762Y-126185044D01*
X124702841Y-126124536D01*
X124828282Y-126028282D01*
X124924536Y-125902841D01*
X124985044Y-125756762D01*
X125000923Y-125636147D01*
X125005682Y-125600001D01*
X125005682Y-125599998D01*
X124990658Y-125485878D01*
X124985044Y-125443238D01*
X124924536Y-125297159D01*
X124828282Y-125171718D01*
X124702841Y-125075464D01*
X124647502Y-125052542D01*
X124556762Y-125014956D01*
X124556760Y-125014955D01*
X124400001Y-124994318D01*
X124399999Y-124994318D01*
X124243239Y-125014955D01*
X124243237Y-125014956D01*
X124097160Y-125075463D01*
X123971718Y-125171718D01*
X123875463Y-125297160D01*
X123814956Y-125443237D01*
X123814955Y-125443239D01*
X123794318Y-125599998D01*
X118994097Y-125599998D01*
X119062364Y-125509975D01*
X119062365Y-125509973D01*
X119065880Y-125503723D01*
X119115896Y-125454937D01*
X119173964Y-125440500D01*
X119277991Y-125440500D01*
X119277993Y-125440500D01*
X119390027Y-125410481D01*
X119490473Y-125352488D01*
X119512319Y-125330642D01*
X119573642Y-125297157D01*
X119643334Y-125302141D01*
X119687681Y-125330642D01*
X119709527Y-125352488D01*
X119809973Y-125410481D01*
X119922007Y-125440500D01*
X120037993Y-125440500D01*
X120164075Y-125440500D01*
X120220369Y-125454015D01*
X120282900Y-125485877D01*
X120282902Y-125485878D01*
X120282904Y-125485879D01*
X120375219Y-125500500D01*
X120375224Y-125500500D01*
X120624781Y-125500500D01*
X120717095Y-125485879D01*
X120717097Y-125485878D01*
X120717098Y-125485878D01*
X120828373Y-125429180D01*
X120916680Y-125340873D01*
X120973378Y-125229598D01*
X120973378Y-125229597D01*
X120973379Y-125229595D01*
X120988000Y-125137281D01*
X120988000Y-124862718D01*
X121787000Y-124862718D01*
X121787000Y-125137281D01*
X121801620Y-125229595D01*
X121801622Y-125229600D01*
X121858317Y-125340869D01*
X121858324Y-125340878D01*
X121946621Y-125429175D01*
X121946630Y-125429182D01*
X122057899Y-125485877D01*
X122057904Y-125485879D01*
X122150219Y-125500500D01*
X122150224Y-125500500D01*
X122399781Y-125500500D01*
X122492095Y-125485879D01*
X122492097Y-125485878D01*
X122492098Y-125485878D01*
X122603373Y-125429180D01*
X122691680Y-125340873D01*
X122748378Y-125229598D01*
X122748378Y-125229597D01*
X122748379Y-125229595D01*
X122763000Y-125137281D01*
X122763000Y-124862718D01*
X122748379Y-124770404D01*
X122748377Y-124770399D01*
X122691682Y-124659130D01*
X122691675Y-124659121D01*
X122603378Y-124570824D01*
X122603369Y-124570817D01*
X122492100Y-124514122D01*
X122492095Y-124514120D01*
X122399781Y-124499500D01*
X122399776Y-124499500D01*
X122150224Y-124499500D01*
X122150219Y-124499500D01*
X122057904Y-124514120D01*
X122057899Y-124514122D01*
X121946630Y-124570817D01*
X121946621Y-124570824D01*
X121858324Y-124659121D01*
X121858317Y-124659130D01*
X121801622Y-124770399D01*
X121801620Y-124770404D01*
X121787000Y-124862718D01*
X120988000Y-124862718D01*
X120973379Y-124770404D01*
X120973377Y-124770399D01*
X120916682Y-124659130D01*
X120916675Y-124659121D01*
X120828378Y-124570824D01*
X120828369Y-124570817D01*
X120717100Y-124514122D01*
X120717095Y-124514120D01*
X120624781Y-124499500D01*
X120624776Y-124499500D01*
X120498824Y-124499500D01*
X120431785Y-124479815D01*
X120386030Y-124427011D01*
X120376086Y-124357853D01*
X120379049Y-124343407D01*
X120379445Y-124341930D01*
X120380500Y-124337993D01*
X120380500Y-124324500D01*
X120400185Y-124257461D01*
X120452989Y-124211706D01*
X120504500Y-124200500D01*
X120624781Y-124200500D01*
X120717095Y-124185879D01*
X120717097Y-124185878D01*
X120717098Y-124185878D01*
X120828373Y-124129180D01*
X120916680Y-124040873D01*
X120973378Y-123929598D01*
X120973378Y-123929597D01*
X120973379Y-123929595D01*
X120988000Y-123837281D01*
X120988000Y-123708637D01*
X121007685Y-123641598D01*
X121060489Y-123595843D01*
X121113197Y-123584643D01*
X121664202Y-123589975D01*
X121731046Y-123610307D01*
X121776288Y-123663551D01*
X121787000Y-123713969D01*
X121787000Y-123837281D01*
X121801620Y-123929595D01*
X121801622Y-123929600D01*
X121858317Y-124040869D01*
X121858324Y-124040878D01*
X121946621Y-124129175D01*
X121946630Y-124129182D01*
X122057899Y-124185877D01*
X122057904Y-124185879D01*
X122150219Y-124200500D01*
X122150224Y-124200500D01*
X122399781Y-124200500D01*
X122492095Y-124185879D01*
X122492096Y-124185878D01*
X122492098Y-124185878D01*
X122554630Y-124154015D01*
X122610925Y-124140500D01*
X122877991Y-124140500D01*
X122877993Y-124140500D01*
X122990027Y-124110481D01*
X123090473Y-124052488D01*
X123206142Y-123936819D01*
X123267465Y-123903334D01*
X123293823Y-123900500D01*
X123423070Y-123900500D01*
X123436289Y-123899260D01*
X123452819Y-123897710D01*
X123452823Y-123897708D01*
X123452826Y-123897708D01*
X123501836Y-123880557D01*
X123578157Y-123853852D01*
X123684999Y-123774999D01*
X123763852Y-123668157D01*
X123807710Y-123542819D01*
X123810500Y-123513066D01*
X123810500Y-123126934D01*
X123809703Y-123118438D01*
X123807710Y-123097185D01*
X123807710Y-123097181D01*
X123807708Y-123097177D01*
X123807708Y-123097173D01*
X123772192Y-122995678D01*
X123763852Y-122971843D01*
X123684999Y-122865001D01*
X123684995Y-122864998D01*
X123678425Y-122858427D01*
X123680787Y-122856064D01*
X123648602Y-122813647D01*
X123640500Y-122769560D01*
X123640500Y-122552009D01*
X123640500Y-122552007D01*
X123610481Y-122439973D01*
X123552488Y-122339527D01*
X123470473Y-122257512D01*
X122856818Y-121643857D01*
X122823333Y-121582534D01*
X122820499Y-121556176D01*
X122820499Y-121422545D01*
X122817741Y-121393125D01*
X122817741Y-121393121D01*
X122807159Y-121362880D01*
X122799751Y-121341708D01*
X122796189Y-121271929D01*
X122830917Y-121211302D01*
X122892910Y-121179074D01*
X122928372Y-121177295D01*
X122933118Y-121177740D01*
X122933121Y-121177741D01*
X122962543Y-121180500D01*
X123437456Y-121180499D01*
X123466879Y-121177741D01*
X123590794Y-121134381D01*
X123696423Y-121056423D01*
X123774381Y-120950794D01*
X123800009Y-120877553D01*
X123817741Y-120826881D01*
X123817741Y-120826879D01*
X123818909Y-120814425D01*
X123820500Y-120797457D01*
X123820499Y-120578969D01*
X123840183Y-120511930D01*
X123856809Y-120491298D01*
X124064476Y-120283632D01*
X124114569Y-120196867D01*
X124140500Y-120100094D01*
X124140500Y-119999905D01*
X124140500Y-118949172D01*
X124160185Y-118882133D01*
X124166113Y-118873699D01*
X124217351Y-118806926D01*
X124277859Y-118660847D01*
X124298497Y-118504085D01*
X124295623Y-118482258D01*
X124280602Y-118368157D01*
X124277859Y-118347323D01*
X124217351Y-118201244D01*
X124121097Y-118075803D01*
X123995656Y-117979549D01*
X123985393Y-117975298D01*
X123938531Y-117955887D01*
X123849577Y-117919041D01*
X123836502Y-117917319D01*
X123769606Y-117908512D01*
X123705710Y-117880245D01*
X123667240Y-117821920D01*
X123666409Y-117752055D01*
X123669020Y-117744510D01*
X123669816Y-117741539D01*
X123669818Y-117741536D01*
X123690456Y-117584774D01*
X123682960Y-117527839D01*
X123669818Y-117428013D01*
X123669818Y-117428012D01*
X123609310Y-117281933D01*
X123513056Y-117156492D01*
X123387615Y-117060238D01*
X123241536Y-116999730D01*
X123241534Y-116999729D01*
X123084775Y-116979092D01*
X123084773Y-116979092D01*
X122928013Y-116999729D01*
X122928011Y-116999730D01*
X122781934Y-117060237D01*
X122656492Y-117156492D01*
X122560237Y-117281934D01*
X122499730Y-117428011D01*
X122499729Y-117428013D01*
X122479092Y-117584772D01*
X122479092Y-117584775D01*
X122499729Y-117741534D01*
X122499730Y-117741536D01*
X122554979Y-117874920D01*
X122560238Y-117887615D01*
X122656492Y-118013056D01*
X122656494Y-118013057D01*
X122656496Y-118013060D01*
X122662239Y-118018803D01*
X122661156Y-118019885D01*
X122696963Y-118068922D01*
X122704274Y-118110870D01*
X122704274Y-118670608D01*
X122704274Y-118770796D01*
X122730205Y-118867569D01*
X122750568Y-118902839D01*
X122778582Y-118951362D01*
X122795053Y-119019262D01*
X122772201Y-119085289D01*
X122744830Y-119113129D01*
X122703580Y-119143574D01*
X122698288Y-119148866D01*
X122636963Y-119182348D01*
X122569654Y-119178222D01*
X122535775Y-119166367D01*
X122466878Y-119142258D01*
X122466879Y-119142258D01*
X122437461Y-119139500D01*
X121962546Y-119139500D01*
X121933125Y-119142258D01*
X121933115Y-119142260D01*
X121809207Y-119185618D01*
X121703576Y-119263576D01*
X121625618Y-119369206D01*
X121600719Y-119440363D01*
X121559996Y-119497139D01*
X121495043Y-119522885D01*
X121435680Y-119511994D01*
X121435595Y-119512270D01*
X121433273Y-119511552D01*
X121429220Y-119510809D01*
X121426391Y-119509426D01*
X121426392Y-119509426D01*
X121358261Y-119499500D01*
X121358260Y-119499500D01*
X120721740Y-119499500D01*
X120657375Y-119508877D01*
X120588200Y-119499064D01*
X120535311Y-119453408D01*
X120515500Y-119386406D01*
X120515500Y-119178400D01*
X120515500Y-119178398D01*
X120489569Y-119081625D01*
X120439476Y-118994860D01*
X120368632Y-118924016D01*
X120040140Y-118595524D01*
X120040139Y-118595523D01*
X119996757Y-118570477D01*
X119953375Y-118545431D01*
X119856602Y-118519500D01*
X119250094Y-118519500D01*
X119149906Y-118519500D01*
X119101519Y-118532465D01*
X119053130Y-118545431D01*
X119053129Y-118545432D01*
X118966371Y-118595521D01*
X118966366Y-118595525D01*
X118132774Y-119429116D01*
X118071451Y-119462601D01*
X118001759Y-119457617D01*
X117986869Y-119449551D01*
X117986373Y-119450490D01*
X117978157Y-119446147D01*
X117852826Y-119402291D01*
X117852814Y-119402289D01*
X117823070Y-119399500D01*
X117823066Y-119399500D01*
X117376934Y-119399500D01*
X117376930Y-119399500D01*
X117347185Y-119402289D01*
X117347173Y-119402291D01*
X117221844Y-119446147D01*
X117115001Y-119525001D01*
X117036147Y-119631844D01*
X116992291Y-119757173D01*
X116992289Y-119757185D01*
X116989500Y-119786929D01*
X116989500Y-119808482D01*
X116969815Y-119875521D01*
X116917011Y-119921276D01*
X116847853Y-119931220D01*
X116784297Y-119902195D01*
X116748459Y-119849438D01*
X116739788Y-119824659D01*
X116734381Y-119809206D01*
X116678807Y-119733906D01*
X116656423Y-119703576D01*
X116581981Y-119648636D01*
X116550794Y-119625619D01*
X116550792Y-119625618D01*
X116426880Y-119582258D01*
X116397461Y-119579500D01*
X116022546Y-119579500D01*
X115993125Y-119582258D01*
X115993115Y-119582260D01*
X115869207Y-119625618D01*
X115763576Y-119703576D01*
X115685618Y-119809207D01*
X115642258Y-119933118D01*
X115642258Y-119933120D01*
X115639500Y-119962538D01*
X115639500Y-120257406D01*
X115619815Y-120324445D01*
X115567011Y-120370200D01*
X115562953Y-120371967D01*
X115409660Y-120435463D01*
X115284218Y-120531718D01*
X115187963Y-120657160D01*
X115127456Y-120803237D01*
X115127455Y-120803239D01*
X115121119Y-120851369D01*
X115113727Y-120907525D01*
X115113179Y-120911685D01*
X115084913Y-120975582D01*
X115026588Y-121014053D01*
X114990240Y-121019500D01*
X114697714Y-121019500D01*
X114630675Y-120999815D01*
X114584920Y-120947011D01*
X114575010Y-120913383D01*
X114565573Y-120848607D01*
X114565571Y-120848604D01*
X114565571Y-120848600D01*
X114562730Y-120839404D01*
X114565709Y-120838483D01*
X114556673Y-120785610D01*
X114563910Y-120760960D01*
X114562730Y-120760596D01*
X114565571Y-120751399D01*
X114565571Y-120751396D01*
X114565573Y-120751393D01*
X114575500Y-120683260D01*
X114575500Y-120557048D01*
X114595185Y-120490009D01*
X114611819Y-120469367D01*
X114734945Y-120346241D01*
X114859476Y-120221710D01*
X114909569Y-120134945D01*
X114935500Y-120038172D01*
X114935500Y-119937984D01*
X114935500Y-118873970D01*
X114955185Y-118806931D01*
X114971819Y-118786289D01*
X115121289Y-118636819D01*
X115182612Y-118603334D01*
X115208970Y-118600500D01*
X115423070Y-118600500D01*
X115436289Y-118599260D01*
X115452819Y-118597710D01*
X115452823Y-118597708D01*
X115452826Y-118597708D01*
X115501836Y-118580557D01*
X115578157Y-118553852D01*
X115684999Y-118474999D01*
X115763852Y-118368157D01*
X115765466Y-118363545D01*
X115806188Y-118306769D01*
X115871141Y-118281022D01*
X115882507Y-118280500D01*
X116042991Y-118280500D01*
X116042993Y-118280500D01*
X116155027Y-118250481D01*
X116255473Y-118192488D01*
X116255473Y-118192487D01*
X116256122Y-118192113D01*
X116318123Y-118175500D01*
X116691138Y-118175500D01*
X116691144Y-118175500D01*
X116775590Y-118165359D01*
X116909975Y-118112364D01*
X117025078Y-118025078D01*
X117108877Y-117914573D01*
X117165069Y-117873051D01*
X117207680Y-117865500D01*
X117603487Y-117865500D01*
X117603489Y-117865500D01*
X117715523Y-117835481D01*
X117715523Y-117835480D01*
X117717665Y-117834907D01*
X117737509Y-117832294D01*
X117737437Y-117831743D01*
X117745496Y-117830682D01*
X117902258Y-117810044D01*
X118048337Y-117749536D01*
X118173778Y-117653282D01*
X118270032Y-117527841D01*
X118330540Y-117381762D01*
X118351178Y-117225000D01*
X118330540Y-117068238D01*
X118270032Y-116922159D01*
X118173778Y-116796718D01*
X118048337Y-116700464D01*
X117902258Y-116639956D01*
X117902256Y-116639955D01*
X117898889Y-116638561D01*
X117844486Y-116594720D01*
X117822421Y-116528426D01*
X117839700Y-116460727D01*
X117890837Y-116413116D01*
X117946342Y-116400000D01*
X124500000Y-116400000D01*
X124500000Y-116000000D01*
X108856353Y-116000000D01*
X108842469Y-115999220D01*
X108800002Y-115994435D01*
X108799998Y-115994435D01*
X108757531Y-115999220D01*
X108743647Y-116000000D01*
X108424500Y-116000000D01*
X108357461Y-115980315D01*
X108311706Y-115927511D01*
X108300500Y-115876000D01*
X108300500Y-114355131D01*
X127889500Y-114355131D01*
X127889500Y-115444856D01*
X127889502Y-115444882D01*
X127892413Y-115469987D01*
X127892415Y-115469991D01*
X127937793Y-115572764D01*
X127937794Y-115572765D01*
X128017235Y-115652206D01*
X128120009Y-115697585D01*
X128145135Y-115700500D01*
X129234864Y-115700499D01*
X129234879Y-115700497D01*
X129234882Y-115700497D01*
X129259987Y-115697586D01*
X129259988Y-115697585D01*
X129259991Y-115697585D01*
X129362765Y-115652206D01*
X129404652Y-115610318D01*
X129465973Y-115576834D01*
X129535664Y-115581818D01*
X129558304Y-115593006D01*
X129610477Y-115625789D01*
X129610481Y-115625790D01*
X129780737Y-115685366D01*
X129780743Y-115685367D01*
X129780745Y-115685368D01*
X129780746Y-115685368D01*
X129780750Y-115685369D01*
X129959996Y-115705565D01*
X129960000Y-115705565D01*
X129960004Y-115705565D01*
X130139249Y-115685369D01*
X130139252Y-115685368D01*
X130139255Y-115685368D01*
X130309522Y-115625789D01*
X130462262Y-115529816D01*
X130507319Y-115484759D01*
X130568642Y-115451274D01*
X130638334Y-115456258D01*
X130682681Y-115484759D01*
X130727738Y-115529816D01*
X130880478Y-115625789D01*
X131050739Y-115685366D01*
X131050745Y-115685368D01*
X131050750Y-115685369D01*
X131229996Y-115705565D01*
X131230000Y-115705565D01*
X131230004Y-115705565D01*
X131409249Y-115685369D01*
X131409252Y-115685368D01*
X131409255Y-115685368D01*
X131579522Y-115625789D01*
X131732262Y-115529816D01*
X131859816Y-115402262D01*
X131955789Y-115249522D01*
X132015368Y-115079255D01*
X132035565Y-114900000D01*
X132015368Y-114720745D01*
X131955789Y-114550478D01*
X131859816Y-114397738D01*
X131732262Y-114270184D01*
X131729574Y-114268495D01*
X131579523Y-114174211D01*
X131409254Y-114114631D01*
X131409249Y-114114630D01*
X131230004Y-114094435D01*
X131229996Y-114094435D01*
X131050750Y-114114630D01*
X131050745Y-114114631D01*
X130880476Y-114174211D01*
X130727737Y-114270184D01*
X130682680Y-114315241D01*
X130621357Y-114348725D01*
X130551665Y-114343740D01*
X130507320Y-114315241D01*
X130462263Y-114270185D01*
X130462262Y-114270184D01*
X130309523Y-114174211D01*
X130139254Y-114114631D01*
X130139249Y-114114630D01*
X129960004Y-114094435D01*
X129959996Y-114094435D01*
X129780750Y-114114630D01*
X129780737Y-114114633D01*
X129610480Y-114174209D01*
X129558302Y-114206994D01*
X129491065Y-114225993D01*
X129424230Y-114205624D01*
X129404651Y-114189680D01*
X129362765Y-114147794D01*
X129259992Y-114102415D01*
X129234865Y-114099500D01*
X128145143Y-114099500D01*
X128145117Y-114099502D01*
X128120012Y-114102413D01*
X128120008Y-114102415D01*
X128017235Y-114147793D01*
X127937794Y-114227234D01*
X127892415Y-114330006D01*
X127892415Y-114330008D01*
X127889500Y-114355131D01*
X108300500Y-114355131D01*
X108300500Y-112324500D01*
X108320185Y-112257461D01*
X108372989Y-112211706D01*
X108424500Y-112200500D01*
X131529922Y-112200500D01*
X131596961Y-112220185D01*
G37*
G04 #@! TD.AperFunction*
G04 #@! TA.AperFunction,Conductor*
G36*
X141343334Y-128997288D02*
G01*
X141387681Y-129025789D01*
X141466368Y-129104476D01*
X141553133Y-129154569D01*
X141649906Y-129180500D01*
X141750094Y-129180500D01*
X142439218Y-129180500D01*
X142464982Y-129184580D01*
X142465056Y-129184119D01*
X142474695Y-129185645D01*
X142474696Y-129185646D01*
X142597968Y-129205169D01*
X142601472Y-129205778D01*
X142605673Y-129206570D01*
X142605172Y-129209224D01*
X142659443Y-129230817D01*
X142700093Y-129287644D01*
X142707000Y-129328451D01*
X142707000Y-130151727D01*
X142707847Y-130174461D01*
X142709220Y-130192870D01*
X142711753Y-130215451D01*
X142714340Y-130232690D01*
X142729647Y-130334687D01*
X142734893Y-130357774D01*
X142739723Y-130379031D01*
X142739725Y-130379037D01*
X142750515Y-130414179D01*
X142750526Y-130414211D01*
X142767054Y-130456523D01*
X142767066Y-130456550D01*
X142798571Y-130522296D01*
X142802307Y-130530092D01*
X142815115Y-130556819D01*
X142837759Y-130596244D01*
X142837766Y-130596254D01*
X142858408Y-130626699D01*
X142858420Y-130626716D01*
X142886637Y-130662309D01*
X142886654Y-130662329D01*
X142886659Y-130662335D01*
X142962027Y-130744086D01*
X142982700Y-130763404D01*
X142995242Y-130775124D01*
X142995246Y-130775127D01*
X142995248Y-130775129D01*
X143023934Y-130798186D01*
X143061388Y-130823951D01*
X143104571Y-130849142D01*
X143165207Y-130884515D01*
X143165518Y-130884696D01*
X143185580Y-130895418D01*
X143202168Y-130903505D01*
X143222973Y-130912706D01*
X143222982Y-130912709D01*
X143222983Y-130912710D01*
X144848448Y-131560306D01*
X144903441Y-131603405D01*
X144926404Y-131669393D01*
X144910044Y-131737321D01*
X144859558Y-131785621D01*
X144802554Y-131799500D01*
X140674000Y-131799500D01*
X140606961Y-131779815D01*
X140561206Y-131727011D01*
X140550000Y-131675500D01*
X140550000Y-130700000D01*
X139930439Y-130700000D01*
X139863400Y-130680315D01*
X139817645Y-130627511D01*
X139807701Y-130558353D01*
X139821081Y-130517547D01*
X139834229Y-130492946D01*
X139849442Y-130464487D01*
X139851159Y-130460342D01*
X139868546Y-130403028D01*
X139886909Y-130310712D01*
X139891308Y-130281053D01*
X139891529Y-130278809D01*
X139893000Y-130248867D01*
X139893000Y-129328846D01*
X139912685Y-129261807D01*
X139965489Y-129216052D01*
X140011275Y-129204978D01*
X140028188Y-129204197D01*
X140046151Y-129199085D01*
X140060662Y-129195884D01*
X140125304Y-129185646D01*
X140125304Y-129185645D01*
X140134945Y-129184119D01*
X140135018Y-129184580D01*
X140160782Y-129180500D01*
X140950091Y-129180500D01*
X140950094Y-129180500D01*
X141046867Y-129154569D01*
X141133632Y-129104476D01*
X141212319Y-129025789D01*
X141273642Y-128992304D01*
X141343334Y-128997288D01*
G37*
G04 #@! TD.AperFunction*
G04 #@! TA.AperFunction,Conductor*
G36*
X112939039Y-119688910D02*
G01*
X112939404Y-119687730D01*
X112948600Y-119690571D01*
X112948604Y-119690571D01*
X112948607Y-119690573D01*
X113016740Y-119700500D01*
X113016745Y-119700500D01*
X113075500Y-119700500D01*
X113142539Y-119720185D01*
X113188294Y-119772989D01*
X113199500Y-119824500D01*
X113199500Y-119883260D01*
X113209425Y-119951388D01*
X113212270Y-119960592D01*
X113209294Y-119961511D01*
X113218323Y-120014425D01*
X113211094Y-120039044D01*
X113212270Y-120039408D01*
X113209425Y-120048611D01*
X113199500Y-120116739D01*
X113199500Y-120283260D01*
X113209425Y-120351388D01*
X113212270Y-120360592D01*
X113209294Y-120361511D01*
X113218323Y-120414425D01*
X113211094Y-120439044D01*
X113212270Y-120439408D01*
X113209425Y-120448611D01*
X113199500Y-120516739D01*
X113199500Y-120683260D01*
X113209425Y-120751388D01*
X113212270Y-120760592D01*
X113209294Y-120761511D01*
X113218323Y-120814425D01*
X113211094Y-120839044D01*
X113212270Y-120839408D01*
X113209425Y-120848611D01*
X113199500Y-120916739D01*
X113199500Y-121083260D01*
X113209425Y-121151388D01*
X113212270Y-121160592D01*
X113209294Y-121161511D01*
X113218323Y-121214425D01*
X113211094Y-121239044D01*
X113212270Y-121239408D01*
X113209425Y-121248611D01*
X113199500Y-121316739D01*
X113199500Y-121483260D01*
X113209425Y-121551388D01*
X113212270Y-121560592D01*
X113209294Y-121561511D01*
X113218323Y-121614425D01*
X113211094Y-121639044D01*
X113212270Y-121639408D01*
X113209425Y-121648611D01*
X113199500Y-121716739D01*
X113199500Y-121883260D01*
X113209425Y-121951388D01*
X113212270Y-121960592D01*
X113209294Y-121961511D01*
X113218323Y-122014425D01*
X113211094Y-122039044D01*
X113212270Y-122039408D01*
X113209425Y-122048611D01*
X113199500Y-122116739D01*
X113199500Y-122175500D01*
X113179815Y-122242539D01*
X113127011Y-122288294D01*
X113075500Y-122299500D01*
X113016739Y-122299500D01*
X112948611Y-122309425D01*
X112939408Y-122312270D01*
X112938488Y-122309294D01*
X112885575Y-122318323D01*
X112860955Y-122311094D01*
X112860592Y-122312270D01*
X112851388Y-122309425D01*
X112783261Y-122299500D01*
X112783260Y-122299500D01*
X112616740Y-122299500D01*
X112616739Y-122299500D01*
X112548611Y-122309425D01*
X112539408Y-122312270D01*
X112538488Y-122309294D01*
X112485575Y-122318323D01*
X112460955Y-122311094D01*
X112460592Y-122312270D01*
X112451388Y-122309425D01*
X112383261Y-122299500D01*
X112383260Y-122299500D01*
X112216740Y-122299500D01*
X112216739Y-122299500D01*
X112148611Y-122309425D01*
X112139408Y-122312270D01*
X112138488Y-122309294D01*
X112085575Y-122318323D01*
X112060955Y-122311094D01*
X112060592Y-122312270D01*
X112051388Y-122309425D01*
X111983261Y-122299500D01*
X111983260Y-122299500D01*
X111816740Y-122299500D01*
X111816739Y-122299500D01*
X111748611Y-122309425D01*
X111739408Y-122312270D01*
X111738488Y-122309294D01*
X111685575Y-122318323D01*
X111660955Y-122311094D01*
X111660592Y-122312270D01*
X111651388Y-122309425D01*
X111583261Y-122299500D01*
X111583260Y-122299500D01*
X111416740Y-122299500D01*
X111416739Y-122299500D01*
X111348611Y-122309425D01*
X111339408Y-122312270D01*
X111338488Y-122309294D01*
X111285575Y-122318323D01*
X111260955Y-122311094D01*
X111260592Y-122312270D01*
X111251388Y-122309425D01*
X111183261Y-122299500D01*
X111183260Y-122299500D01*
X111016740Y-122299500D01*
X111016739Y-122299500D01*
X110948611Y-122309425D01*
X110939408Y-122312270D01*
X110938488Y-122309294D01*
X110885575Y-122318323D01*
X110860955Y-122311094D01*
X110860592Y-122312270D01*
X110851388Y-122309425D01*
X110783261Y-122299500D01*
X110783260Y-122299500D01*
X110724500Y-122299500D01*
X110657461Y-122279815D01*
X110611706Y-122227011D01*
X110600500Y-122175500D01*
X110600500Y-122116745D01*
X110600500Y-122116740D01*
X110590573Y-122048607D01*
X110590571Y-122048604D01*
X110590571Y-122048600D01*
X110587730Y-122039404D01*
X110590709Y-122038483D01*
X110581673Y-121985610D01*
X110588910Y-121960960D01*
X110587730Y-121960596D01*
X110590571Y-121951399D01*
X110590571Y-121951396D01*
X110590573Y-121951393D01*
X110600500Y-121883260D01*
X110600500Y-121716740D01*
X110590573Y-121648607D01*
X110590571Y-121648604D01*
X110590571Y-121648600D01*
X110587730Y-121639404D01*
X110590709Y-121638483D01*
X110581673Y-121585610D01*
X110588910Y-121560960D01*
X110587730Y-121560596D01*
X110590571Y-121551399D01*
X110590571Y-121551396D01*
X110590573Y-121551393D01*
X110600500Y-121483260D01*
X110600500Y-121316740D01*
X110590573Y-121248607D01*
X110590571Y-121248604D01*
X110590571Y-121248600D01*
X110587730Y-121239404D01*
X110590709Y-121238483D01*
X110581673Y-121185610D01*
X110588910Y-121160960D01*
X110587730Y-121160596D01*
X110590571Y-121151399D01*
X110590571Y-121151396D01*
X110590573Y-121151393D01*
X110600500Y-121083260D01*
X110600500Y-120916740D01*
X110590573Y-120848607D01*
X110590571Y-120848604D01*
X110590571Y-120848600D01*
X110587730Y-120839404D01*
X110590709Y-120838483D01*
X110581673Y-120785610D01*
X110588910Y-120760960D01*
X110587730Y-120760596D01*
X110590571Y-120751399D01*
X110590571Y-120751396D01*
X110590573Y-120751393D01*
X110600500Y-120683260D01*
X110600500Y-120516740D01*
X110590573Y-120448607D01*
X110590571Y-120448604D01*
X110590571Y-120448600D01*
X110587730Y-120439404D01*
X110590709Y-120438483D01*
X110581673Y-120385610D01*
X110588910Y-120360960D01*
X110587730Y-120360596D01*
X110590571Y-120351399D01*
X110590571Y-120351396D01*
X110590573Y-120351393D01*
X110600500Y-120283260D01*
X110600500Y-120116740D01*
X110590573Y-120048607D01*
X110590571Y-120048604D01*
X110590571Y-120048600D01*
X110587730Y-120039404D01*
X110590709Y-120038483D01*
X110581673Y-119985610D01*
X110588910Y-119960960D01*
X110587730Y-119960596D01*
X110590571Y-119951399D01*
X110590571Y-119951396D01*
X110590573Y-119951393D01*
X110600500Y-119883260D01*
X110600500Y-119824500D01*
X110620185Y-119757461D01*
X110672989Y-119711706D01*
X110724500Y-119700500D01*
X110783255Y-119700500D01*
X110783260Y-119700500D01*
X110851393Y-119690573D01*
X110851396Y-119690571D01*
X110851399Y-119690571D01*
X110860596Y-119687730D01*
X110861516Y-119690709D01*
X110914390Y-119681673D01*
X110939039Y-119688910D01*
X110939404Y-119687730D01*
X110948600Y-119690571D01*
X110948604Y-119690571D01*
X110948607Y-119690573D01*
X111016740Y-119700500D01*
X111016745Y-119700500D01*
X111183255Y-119700500D01*
X111183260Y-119700500D01*
X111251393Y-119690573D01*
X111251396Y-119690571D01*
X111251399Y-119690571D01*
X111260596Y-119687730D01*
X111261516Y-119690709D01*
X111314390Y-119681673D01*
X111339039Y-119688910D01*
X111339404Y-119687730D01*
X111348600Y-119690571D01*
X111348604Y-119690571D01*
X111348607Y-119690573D01*
X111416740Y-119700500D01*
X111416745Y-119700500D01*
X111583255Y-119700500D01*
X111583260Y-119700500D01*
X111651393Y-119690573D01*
X111651396Y-119690571D01*
X111651399Y-119690571D01*
X111660596Y-119687730D01*
X111661516Y-119690709D01*
X111714390Y-119681673D01*
X111739039Y-119688910D01*
X111739404Y-119687730D01*
X111748600Y-119690571D01*
X111748604Y-119690571D01*
X111748607Y-119690573D01*
X111816740Y-119700500D01*
X111816745Y-119700500D01*
X111983255Y-119700500D01*
X111983260Y-119700500D01*
X112051393Y-119690573D01*
X112051396Y-119690571D01*
X112051399Y-119690571D01*
X112060596Y-119687730D01*
X112061516Y-119690709D01*
X112114390Y-119681673D01*
X112139039Y-119688910D01*
X112139404Y-119687730D01*
X112148600Y-119690571D01*
X112148604Y-119690571D01*
X112148607Y-119690573D01*
X112216740Y-119700500D01*
X112216745Y-119700500D01*
X112383255Y-119700500D01*
X112383260Y-119700500D01*
X112451393Y-119690573D01*
X112451396Y-119690571D01*
X112451399Y-119690571D01*
X112460596Y-119687730D01*
X112461516Y-119690709D01*
X112514390Y-119681673D01*
X112539039Y-119688910D01*
X112539404Y-119687730D01*
X112548600Y-119690571D01*
X112548604Y-119690571D01*
X112548607Y-119690573D01*
X112616740Y-119700500D01*
X112616745Y-119700500D01*
X112783255Y-119700500D01*
X112783260Y-119700500D01*
X112851393Y-119690573D01*
X112851396Y-119690571D01*
X112851399Y-119690571D01*
X112860596Y-119687730D01*
X112861516Y-119690709D01*
X112914390Y-119681673D01*
X112939039Y-119688910D01*
G37*
G04 #@! TD.AperFunction*
G04 #@! TA.AperFunction,Conductor*
G36*
X120328915Y-120156708D02*
G01*
X120384848Y-120198580D01*
X120409264Y-120264044D01*
X120408285Y-120290760D01*
X120404500Y-120316740D01*
X120404500Y-120316745D01*
X120404500Y-120583260D01*
X120414425Y-120651388D01*
X120417270Y-120660592D01*
X120414294Y-120661511D01*
X120423323Y-120714425D01*
X120411533Y-120754527D01*
X120411368Y-120754864D01*
X120364209Y-120806418D01*
X120296664Y-120824292D01*
X120230178Y-120802811D01*
X120188599Y-120754797D01*
X120176463Y-120729973D01*
X120134198Y-120643517D01*
X120134196Y-120643515D01*
X120134196Y-120643514D01*
X120051484Y-120560802D01*
X120043122Y-120554832D01*
X120044068Y-120553506D01*
X120001127Y-120514277D01*
X119983210Y-120446743D01*
X120004648Y-120380244D01*
X120043888Y-120346241D01*
X120043122Y-120345168D01*
X120051480Y-120339200D01*
X120051481Y-120339198D01*
X120051483Y-120339198D01*
X120134198Y-120256483D01*
X120134201Y-120256475D01*
X120140169Y-120248119D01*
X120140732Y-120248521D01*
X120156072Y-120227034D01*
X120197900Y-120185206D01*
X120259223Y-120151722D01*
X120328915Y-120156708D01*
G37*
G04 #@! TD.AperFunction*
G04 #@! TD*
G04 #@! TA.AperFunction,Conductor*
G04 #@! TO.N,/Battery Balancer/-BAT*
G36*
X150508058Y-122801061D02*
G01*
X150530577Y-122804025D01*
X150608783Y-122814321D01*
X150640045Y-122822697D01*
X150726344Y-122858443D01*
X150754373Y-122874627D01*
X150834974Y-122936474D01*
X150847169Y-122947169D01*
X152755885Y-124855885D01*
X152766100Y-124867459D01*
X152828084Y-124947189D01*
X152843828Y-124973677D01*
X152881121Y-125059087D01*
X152889847Y-125088640D01*
X152897866Y-125137541D01*
X152899500Y-125157607D01*
X152899500Y-128159053D01*
X152879815Y-128226092D01*
X152827011Y-128271847D01*
X152757853Y-128281791D01*
X152694297Y-128252766D01*
X152670804Y-128225496D01*
X152645889Y-128186238D01*
X152645888Y-128186237D01*
X152645885Y-128186232D01*
X152453349Y-127953496D01*
X152233162Y-127746726D01*
X152233159Y-127746724D01*
X152233153Y-127746719D01*
X151988806Y-127569191D01*
X151988799Y-127569186D01*
X151988795Y-127569184D01*
X151724104Y-127423668D01*
X151724101Y-127423666D01*
X151724096Y-127423664D01*
X151724095Y-127423663D01*
X151443265Y-127312475D01*
X151443262Y-127312474D01*
X151150695Y-127237357D01*
X150851036Y-127199500D01*
X150851027Y-127199500D01*
X150548973Y-127199500D01*
X150548963Y-127199500D01*
X150249304Y-127237357D01*
X149956737Y-127312474D01*
X149956734Y-127312475D01*
X149675904Y-127423663D01*
X149675903Y-127423664D01*
X149411205Y-127569184D01*
X149411193Y-127569191D01*
X149166846Y-127746719D01*
X149166836Y-127746727D01*
X148946652Y-127953494D01*
X148754111Y-128186236D01*
X148592268Y-128441261D01*
X148592265Y-128441267D01*
X148463661Y-128714563D01*
X148463659Y-128714568D01*
X148370320Y-129001835D01*
X148313719Y-129298546D01*
X148313718Y-129298553D01*
X148294754Y-129599994D01*
X148294754Y-129600005D01*
X148313718Y-129901446D01*
X148313719Y-129901453D01*
X148370320Y-130198164D01*
X148463659Y-130485431D01*
X148463661Y-130485436D01*
X148592265Y-130758732D01*
X148592268Y-130758738D01*
X148754111Y-131013763D01*
X148946652Y-131246505D01*
X149166836Y-131453272D01*
X149166846Y-131453280D01*
X149334630Y-131575182D01*
X149377296Y-131630511D01*
X149383275Y-131700125D01*
X149350670Y-131761920D01*
X149289831Y-131796277D01*
X149261745Y-131799500D01*
X146463500Y-131799500D01*
X146443538Y-131797882D01*
X146403999Y-131791432D01*
X146207201Y-131759330D01*
X146200581Y-131758065D01*
X146157383Y-131748584D01*
X146144399Y-131744985D01*
X146102488Y-131730874D01*
X146096161Y-131728550D01*
X143336043Y-130628901D01*
X143319455Y-130620814D01*
X143215325Y-130560069D01*
X143186639Y-130537012D01*
X143111271Y-130455261D01*
X143090616Y-130424798D01*
X143074073Y-130390276D01*
X143042565Y-130324525D01*
X143031764Y-130289349D01*
X143013873Y-130170130D01*
X143012500Y-130151728D01*
X143012500Y-127297292D01*
X143013405Y-127282335D01*
X143018870Y-127237357D01*
X143025233Y-127184987D01*
X143032396Y-127155951D01*
X143064511Y-127071341D01*
X143078418Y-127044866D01*
X143134172Y-126964172D01*
X143143399Y-126952408D01*
X143622288Y-126412453D01*
X143906304Y-126092222D01*
X143965514Y-126055128D01*
X143999074Y-126050500D01*
X144679270Y-126050500D01*
X144709699Y-126047646D01*
X144709701Y-126047646D01*
X144773790Y-126025219D01*
X144837882Y-126002793D01*
X144947150Y-125922150D01*
X145027793Y-125812882D01*
X145050219Y-125748790D01*
X145072646Y-125684701D01*
X145072646Y-125684699D01*
X145075500Y-125654269D01*
X145075500Y-125002213D01*
X145095185Y-124935174D01*
X145147989Y-124889419D01*
X145152857Y-124887320D01*
X145216888Y-124861354D01*
X145668917Y-124678042D01*
X145738436Y-124671091D01*
X145800681Y-124702830D01*
X145809220Y-124711745D01*
X145873842Y-124786323D01*
X145994917Y-124864133D01*
X145994920Y-124864134D01*
X145994919Y-124864134D01*
X146133006Y-124904679D01*
X146133008Y-124904680D01*
X146133009Y-124904680D01*
X146276932Y-124904680D01*
X146276932Y-124904679D01*
X146415023Y-124864133D01*
X146536098Y-124786323D01*
X146630347Y-124677553D01*
X146690135Y-124546637D01*
X146708083Y-124421799D01*
X146737107Y-124358245D01*
X146795885Y-124320470D01*
X146814626Y-124316509D01*
X146833173Y-124314068D01*
X146940404Y-124264065D01*
X147024065Y-124180404D01*
X147033314Y-124160568D01*
X147079485Y-124108129D01*
X147099080Y-124098068D01*
X147662493Y-123869587D01*
X147705870Y-123861127D01*
X147705847Y-123860765D01*
X147708679Y-123860579D01*
X147709090Y-123860499D01*
X147709900Y-123860499D01*
X147759487Y-123853972D01*
X147868316Y-123803224D01*
X147879309Y-123792230D01*
X147920381Y-123765006D01*
X150204095Y-122838891D01*
X150215350Y-122834948D01*
X150290323Y-122812661D01*
X150313726Y-122808096D01*
X150386543Y-122801061D01*
X150391574Y-122800575D01*
X150403498Y-122800000D01*
X150491874Y-122800000D01*
X150508058Y-122801061D01*
G37*
G04 #@! TD.AperFunction*
G04 #@! TD*
G04 #@! TA.AperFunction,Conductor*
G04 #@! TO.N,Net-(C4-Pad1)*
G36*
X136212721Y-126945002D02*
G01*
X136224768Y-126945299D01*
X136225228Y-126945323D01*
X136237149Y-126946208D01*
X136237420Y-126946231D01*
X136416835Y-126964030D01*
X137775191Y-127098779D01*
X137775192Y-127098779D01*
X137775212Y-127098781D01*
X137775216Y-127098781D01*
X137787500Y-127100000D01*
X139336367Y-127100000D01*
X139338610Y-127100221D01*
X139368101Y-127106086D01*
X139430928Y-127118583D01*
X139435072Y-127120300D01*
X139512374Y-127171952D01*
X139515547Y-127175125D01*
X139567199Y-127252427D01*
X139568916Y-127256572D01*
X139587279Y-127348888D01*
X139587500Y-127351132D01*
X139587500Y-130248867D01*
X139587279Y-130251111D01*
X139568916Y-130343427D01*
X139567199Y-130347572D01*
X139515547Y-130424874D01*
X139512374Y-130428047D01*
X139435072Y-130479699D01*
X139430927Y-130481416D01*
X139338611Y-130499779D01*
X139336367Y-130500000D01*
X137787500Y-130500000D01*
X137767502Y-130503263D01*
X137767499Y-130503264D01*
X137645479Y-130523177D01*
X136486217Y-130712368D01*
X136477649Y-130710353D01*
X136473592Y-130705039D01*
X136471628Y-130699774D01*
X136389687Y-130590313D01*
X136280226Y-130508372D01*
X136152112Y-130460587D01*
X136095486Y-130454500D01*
X135621423Y-130454500D01*
X135616316Y-130453304D01*
X135214931Y-130254357D01*
X135213122Y-130253241D01*
X135142174Y-130199834D01*
X135139319Y-130196710D01*
X135093071Y-130122170D01*
X135091541Y-130118227D01*
X135075196Y-130030934D01*
X135075000Y-130028818D01*
X135075000Y-127674203D01*
X135076540Y-127668454D01*
X135130481Y-127575027D01*
X135160500Y-127462994D01*
X135160500Y-127347007D01*
X135160500Y-127016166D01*
X135163868Y-127008034D01*
X135165605Y-127006608D01*
X135227430Y-126965298D01*
X135231570Y-126963584D01*
X135301275Y-126949719D01*
X135323890Y-126945221D01*
X135326133Y-126945000D01*
X136212508Y-126945000D01*
X136212721Y-126945002D01*
G37*
G04 #@! TD.AperFunction*
G04 #@! TD*
G04 #@! TA.AperFunction,Conductor*
G04 #@! TO.N,/Battery Charger/MOTORPWR*
G36*
X140295734Y-117503870D02*
G01*
X140299967Y-117511761D01*
X140300025Y-117512902D01*
X140301000Y-118000000D01*
X140301000Y-118000046D01*
X140300025Y-118487097D01*
X140296582Y-118495364D01*
X140288302Y-118498774D01*
X140287161Y-118498716D01*
X139310536Y-118401053D01*
X139302645Y-118396820D01*
X139300000Y-118389411D01*
X139300000Y-117610588D01*
X139303427Y-117602315D01*
X139310534Y-117598946D01*
X140287163Y-117501283D01*
X140295734Y-117503870D01*
G37*
G04 #@! TD.AperFunction*
G04 #@! TD*
M02*
