M48
; DRILL file {KiCad 8.0.7-8.0.7-0~ubuntu24.04.1} date 2025-01-09T22:08:51-0700
; FORMAT={-:-/ absolute / metric / decimal}
; #@! TF.CreationDate,2025-01-09T22:08:51-07:00
; #@! TF.GenerationSoftware,Kicad,Pcbnew,8.0.7-8.0.7-0~ubuntu24.04.1
; #@! TF.FileFunction,Plated,1,4,PTH
FMAT,2
METRIC
; #@! TA.AperFunction,Plated,PTH,ViaDrill
T1C0.300
; #@! TA.AperFunction,Plated,PTH,ComponentDrill
T2C0.300
; #@! TA.AperFunction,Plated,PTH,ViaDrill
T3C0.400
; #@! TA.AperFunction,Plated,PTH,ComponentDrill
T4C0.400
; #@! TA.AperFunction,Plated,PTH,ComponentDrill
T5C0.500
; #@! TA.AperFunction,Plated,PTH,ComponentDrill
T6C0.550
; #@! TA.AperFunction,Plated,PTH,ViaDrill
T7C0.600
; #@! TA.AperFunction,Plated,PTH,ComponentDrill
T8C0.650
; #@! TA.AperFunction,Plated,PTH,ComponentDrill
T9C0.700
; #@! TA.AperFunction,Plated,PTH,ComponentDrill
T10C0.950
; #@! TA.AperFunction,Plated,PTH,ComponentDrill
T11C2.200
%
G90
G05
T1
X108.98Y-129.58
X109.012Y-121.872
X109.4Y-123.5
X109.413Y-124.967
X110.1Y-129.0
X110.2Y-123.4
X110.45Y-129.723
X110.5Y-131.5
X110.7Y-118.165
X111.5Y-131.1
X111.775Y-118.125
X111.8Y-127.065
X111.9Y-121.0
X112.5Y-126.455
X112.7Y-117.5
X112.7Y-127.7
X112.989Y-130.013
X113.1Y-128.4
X113.1Y-129.2
X113.205Y-118.168
X113.483Y-118.956
X113.743Y-129.74
X113.746Y-127.9
X114.844Y-125.944
X115.2Y-117.2
X115.365Y-122.745
X115.5Y-125.38
X115.712Y-120.96
X116.28Y-124.085
X116.833Y-120.686
X117.54Y-124.084
X117.745Y-117.225
X118.1Y-123.5
X118.34Y-126.74
X118.8Y-117.2
X119.5Y-127.37
X119.7Y-112.55
X119.7Y-117.2
X119.704Y-129.879
X119.75Y-113.45
X120.742Y-122.27
X121.345Y-118.763
X121.351Y-128.232
X122.2Y-129.312
X123.0Y-125.74
X123.085Y-117.585
X123.5Y-129.7
X123.693Y-118.504
X124.0Y-130.6
X124.072Y-128.772
X124.4Y-125.6
X124.5Y-129.9
X124.9Y-130.6
X125.7Y-130.7
X129.2Y-127.1
X129.2Y-127.9
X129.2Y-128.7
X129.2Y-129.7
X129.2Y-130.7
X129.792Y-125.7
X130.0Y-126.78
X130.0Y-127.6
X130.0Y-128.4
X130.0Y-129.4
X130.0Y-130.2
X131.585Y-124.7
X131.845Y-123.9
X132.2Y-112.6
X132.7Y-123.005
X134.6Y-123.1
X135.607Y-123.056
X137.313Y-122.158
X137.328Y-121.332
X137.351Y-123.44
X137.55Y-131.5
X137.584Y-124.72
X137.699Y-120.099
X138.5Y-119.873
X138.52Y-124.705
X139.0Y-112.7
X139.4Y-122.3
X140.0Y-131.35
X140.095Y-119.096
X140.517Y-121.663
X141.5Y-130.4
X141.5Y-131.4
X141.687Y-123.263
X141.9Y-112.6
X141.9Y-113.4
X146.205Y-124.404
X148.2Y-118.6
X150.0Y-119.7
X150.0Y-120.7
X150.0Y-121.7
X151.0Y-119.7
X151.0Y-120.7
X151.0Y-121.7
X152.0Y-119.7
X152.0Y-120.7
X152.0Y-121.7
T2
X115.35Y-128.6
X116.4Y-127.55
X116.4Y-128.6
X116.4Y-129.65
X117.45Y-128.6
T3
X129.6Y-123.2
X129.6Y-124.26
X137.95Y-117.973
T4
X149.05Y-125.0
X149.05Y-129.6
X149.533Y-123.833
X149.533Y-126.167
X149.533Y-128.433
X149.533Y-130.767
X150.7Y-123.35
X150.7Y-126.65
X150.7Y-127.95
X150.7Y-131.25
X151.867Y-123.833
X151.867Y-126.167
X151.867Y-128.433
X151.867Y-130.767
X152.35Y-125.0
X152.35Y-129.6
T6
X113.59Y-117.105
X113.59Y-126.295
T7
X140.3Y-118.0
T8
X119.1Y-121.9
X119.1Y-123.17
T9
X128.69Y-114.9
X129.96Y-114.9
X131.23Y-114.9
X132.5Y-114.9
T10
X143.9Y-120.0
X143.9Y-122.5
X143.9Y-125.0
T11
X150.7Y-125.0
X150.7Y-129.6
T5
G00X111.235Y-117.105
M15
G01X109.985Y-117.105
M16
G05
G00X111.235Y-126.295
M15
G01X109.985Y-126.295
M16
G05
M30
