%TF.GenerationSoftware,KiCad,Pcbnew,8.0.7-8.0.7-0~ubuntu24.04.1*%
%TF.CreationDate,2025-01-09T22:08:51-07:00*%
%TF.ProjectId,2s 40A PSU and charger,32732034-3041-4205-9053-5520616e6420,V1*%
%TF.SameCoordinates,Original*%
%TF.FileFunction,Drillmap*%
%TF.FilePolarity,Positive*%
%FSLAX45Y45*%
G04 Gerber Fmt 4.5, Leading zero omitted, Abs format (unit mm)*
G04 Created by KiCad (PCBNEW 8.0.7-8.0.7-0~ubuntu24.04.1) date 2025-01-09 22:08:51*
%MOMM*%
%LPD*%
G01*
G04 APERTURE LIST*
%ADD10C,0.050000*%
%ADD11C,0.200000*%
%ADD12C,0.100000*%
%ADD13C,0.220000*%
G04 APERTURE END LIST*
D10*
X10810000Y-13000000D02*
X10810000Y-11200000D01*
X10810000Y-11200000D02*
X15310000Y-11200000D01*
X15310000Y-13000000D02*
G75*
G02*
X15110000Y-13200000I-200000J0D01*
G01*
X15110000Y-13200000D02*
X11010000Y-13200000D01*
X11010000Y-13200000D02*
G75*
G02*
X10810000Y-13000000I0J200000D01*
G01*
X15310000Y-11200000D02*
X15310000Y-13000000D01*
D11*
D12*
X10883034Y-12943000D02*
X10913034Y-12973000D01*
X10913034Y-12943000D02*
X10883034Y-12973000D01*
X10886189Y-12172189D02*
X10916189Y-12202189D01*
X10916189Y-12172189D02*
X10886189Y-12202189D01*
X10925000Y-12335000D02*
X10955000Y-12365000D01*
X10955000Y-12335000D02*
X10925000Y-12365000D01*
X10926284Y-12481708D02*
X10956284Y-12511708D01*
X10956284Y-12481708D02*
X10926284Y-12511708D01*
X10995000Y-12885000D02*
X11025000Y-12915000D01*
X11025000Y-12885000D02*
X10995000Y-12915000D01*
X11005000Y-12325000D02*
X11035000Y-12355000D01*
X11035000Y-12325000D02*
X11005000Y-12355000D01*
X11030021Y-12957309D02*
X11060021Y-12987309D01*
X11060021Y-12957309D02*
X11030021Y-12987309D01*
X11035000Y-13135000D02*
X11065000Y-13165000D01*
X11065000Y-13135000D02*
X11035000Y-13165000D01*
X11055000Y-11801500D02*
X11085000Y-11831500D01*
X11085000Y-11801500D02*
X11055000Y-11831500D01*
X11135000Y-13095000D02*
X11165000Y-13125000D01*
X11165000Y-13095000D02*
X11135000Y-13125000D01*
X11162509Y-11797491D02*
X11192509Y-11827491D01*
X11192509Y-11797491D02*
X11162509Y-11827491D01*
X11165000Y-12691487D02*
X11195000Y-12721487D01*
X11195000Y-12691487D02*
X11165000Y-12721487D01*
X11175000Y-12085000D02*
X11205000Y-12115000D01*
X11205000Y-12085000D02*
X11175000Y-12115000D01*
X11234982Y-12630476D02*
X11264982Y-12660476D01*
X11264982Y-12630476D02*
X11234982Y-12660476D01*
X11255000Y-11735000D02*
X11285000Y-11765000D01*
X11285000Y-11735000D02*
X11255000Y-11765000D01*
X11255000Y-12755000D02*
X11285000Y-12785000D01*
X11285000Y-12755000D02*
X11255000Y-12785000D01*
X11283914Y-12986267D02*
X11313914Y-13016267D01*
X11313914Y-12986267D02*
X11283914Y-13016267D01*
X11295000Y-12825000D02*
X11325000Y-12855000D01*
X11325000Y-12825000D02*
X11295000Y-12855000D01*
X11295000Y-12905000D02*
X11325000Y-12935000D01*
X11325000Y-12905000D02*
X11295000Y-12935000D01*
X11305538Y-11801777D02*
X11335538Y-11831777D01*
X11335538Y-11801777D02*
X11305538Y-11831777D01*
X11333272Y-11880563D02*
X11363272Y-11910563D01*
X11363272Y-11880563D02*
X11333272Y-11910563D01*
X11359322Y-12959000D02*
X11389322Y-12989000D01*
X11389322Y-12959000D02*
X11359322Y-12989000D01*
X11359563Y-12775000D02*
X11389563Y-12805000D01*
X11389563Y-12775000D02*
X11359563Y-12805000D01*
X11469434Y-12579434D02*
X11499434Y-12609434D01*
X11499434Y-12579434D02*
X11469434Y-12609434D01*
X11505000Y-11705000D02*
X11535000Y-11735000D01*
X11535000Y-11705000D02*
X11505000Y-11735000D01*
X11521500Y-12259499D02*
X11551500Y-12289499D01*
X11551500Y-12259499D02*
X11521500Y-12289499D01*
X11535000Y-12523000D02*
X11565000Y-12553000D01*
X11565000Y-12523000D02*
X11535000Y-12553000D01*
X11556250Y-12081000D02*
X11586250Y-12111000D01*
X11586250Y-12081000D02*
X11556250Y-12111000D01*
X11612990Y-12393500D02*
X11642990Y-12423500D01*
X11642990Y-12393500D02*
X11612990Y-12423500D01*
X11668302Y-12053644D02*
X11698302Y-12083644D01*
X11698302Y-12053644D02*
X11668302Y-12083644D01*
X11738957Y-12393420D02*
X11768957Y-12423420D01*
X11768957Y-12393420D02*
X11738957Y-12423420D01*
X11759550Y-11707500D02*
X11789550Y-11737500D01*
X11789550Y-11707500D02*
X11759550Y-11737500D01*
X11795000Y-12335000D02*
X11825000Y-12365000D01*
X11825000Y-12335000D02*
X11795000Y-12365000D01*
X11819000Y-12659000D02*
X11849000Y-12689000D01*
X11849000Y-12659000D02*
X11819000Y-12689000D01*
X11865000Y-11705000D02*
X11895000Y-11735000D01*
X11895000Y-11705000D02*
X11865000Y-11735000D01*
X11935000Y-12722000D02*
X11965000Y-12752000D01*
X11965000Y-12722000D02*
X11935000Y-12752000D01*
X11955000Y-11240000D02*
X11985000Y-11270000D01*
X11985000Y-11240000D02*
X11955000Y-11270000D01*
X11955000Y-11705000D02*
X11985000Y-11735000D01*
X11985000Y-11705000D02*
X11955000Y-11735000D01*
X11955406Y-12972886D02*
X11985406Y-13002886D01*
X11985406Y-12972886D02*
X11955406Y-13002886D01*
X11960000Y-11330000D02*
X11990000Y-11360000D01*
X11990000Y-11330000D02*
X11960000Y-11360000D01*
X12059194Y-12212000D02*
X12089194Y-12242000D01*
X12089194Y-12212000D02*
X12059194Y-12242000D01*
X12119463Y-11861284D02*
X12149463Y-11891284D01*
X12149463Y-11861284D02*
X12119463Y-11891284D01*
X12120120Y-12808172D02*
X12150120Y-12838172D01*
X12150120Y-12808172D02*
X12120120Y-12838172D01*
X12205000Y-12916172D02*
X12235000Y-12946172D01*
X12235000Y-12916172D02*
X12205000Y-12946172D01*
X12285000Y-12559000D02*
X12315000Y-12589000D01*
X12315000Y-12559000D02*
X12285000Y-12589000D01*
X12293477Y-11743477D02*
X12323477Y-11773477D01*
X12323477Y-11743477D02*
X12293477Y-11773477D01*
X12335000Y-12955000D02*
X12365000Y-12985000D01*
X12365000Y-12955000D02*
X12335000Y-12985000D01*
X12354281Y-11835408D02*
X12384281Y-11865408D01*
X12384281Y-11835408D02*
X12354281Y-11865408D01*
X12385000Y-13045000D02*
X12415000Y-13075000D01*
X12415000Y-13045000D02*
X12385000Y-13075000D01*
X12392172Y-12862172D02*
X12422172Y-12892172D01*
X12422172Y-12862172D02*
X12392172Y-12892172D01*
X12425000Y-12545000D02*
X12455000Y-12575000D01*
X12455000Y-12545000D02*
X12425000Y-12575000D01*
X12435000Y-12975000D02*
X12465000Y-13005000D01*
X12465000Y-12975000D02*
X12435000Y-13005000D01*
X12475000Y-13045000D02*
X12505000Y-13075000D01*
X12505000Y-13045000D02*
X12475000Y-13075000D01*
X12555000Y-13055000D02*
X12585000Y-13085000D01*
X12585000Y-13055000D02*
X12555000Y-13085000D01*
X12905000Y-12695000D02*
X12935000Y-12725000D01*
X12935000Y-12695000D02*
X12905000Y-12725000D01*
X12905000Y-12775000D02*
X12935000Y-12805000D01*
X12935000Y-12775000D02*
X12905000Y-12805000D01*
X12905000Y-12855000D02*
X12935000Y-12885000D01*
X12935000Y-12855000D02*
X12905000Y-12885000D01*
X12905000Y-12955000D02*
X12935000Y-12985000D01*
X12935000Y-12955000D02*
X12905000Y-12985000D01*
X12905000Y-13055000D02*
X12935000Y-13085000D01*
X12935000Y-13055000D02*
X12905000Y-13085000D01*
X12964250Y-12555000D02*
X12994250Y-12585000D01*
X12994250Y-12555000D02*
X12964250Y-12585000D01*
X12985000Y-12663000D02*
X13015000Y-12693000D01*
X13015000Y-12663000D02*
X12985000Y-12693000D01*
X12985000Y-12745000D02*
X13015000Y-12775000D01*
X13015000Y-12745000D02*
X12985000Y-12775000D01*
X12985000Y-12825000D02*
X13015000Y-12855000D01*
X13015000Y-12825000D02*
X12985000Y-12855000D01*
X12985000Y-12925000D02*
X13015000Y-12955000D01*
X13015000Y-12925000D02*
X12985000Y-12955000D01*
X12985000Y-13005000D02*
X13015000Y-13035000D01*
X13015000Y-13005000D02*
X12985000Y-13035000D01*
X13143486Y-12455000D02*
X13173486Y-12485000D01*
X13173486Y-12455000D02*
X13143486Y-12485000D01*
X13169500Y-12375000D02*
X13199500Y-12405000D01*
X13199500Y-12375000D02*
X13169500Y-12405000D01*
X13205000Y-11245000D02*
X13235000Y-11275000D01*
X13235000Y-11245000D02*
X13205000Y-11275000D01*
X13255000Y-12285500D02*
X13285000Y-12315500D01*
X13285000Y-12285500D02*
X13255000Y-12315500D01*
X13445000Y-12295000D02*
X13475000Y-12325000D01*
X13475000Y-12295000D02*
X13445000Y-12325000D01*
X13545705Y-12290641D02*
X13575705Y-12320641D01*
X13575705Y-12290641D02*
X13545705Y-12320641D01*
X13716345Y-12200784D02*
X13746345Y-12230784D01*
X13746345Y-12200784D02*
X13716345Y-12230784D01*
X13717849Y-12118180D02*
X13747849Y-12148180D01*
X13747849Y-12118180D02*
X13717849Y-12148180D01*
X13720059Y-12329000D02*
X13750059Y-12359000D01*
X13750059Y-12329000D02*
X13720059Y-12359000D01*
X13740000Y-13135000D02*
X13770000Y-13165000D01*
X13770000Y-13135000D02*
X13740000Y-13165000D01*
X13743402Y-12457000D02*
X13773402Y-12487000D01*
X13773402Y-12457000D02*
X13743402Y-12487000D01*
X13754893Y-11994850D02*
X13784893Y-12024850D01*
X13784893Y-11994850D02*
X13754893Y-12024850D01*
X13835000Y-11972280D02*
X13865000Y-12002280D01*
X13865000Y-11972280D02*
X13835000Y-12002280D01*
X13836974Y-12455500D02*
X13866974Y-12485500D01*
X13866974Y-12455500D02*
X13836974Y-12485500D01*
X13885000Y-11255000D02*
X13915000Y-11285000D01*
X13915000Y-11255000D02*
X13885000Y-11285000D01*
X13925000Y-12215000D02*
X13955000Y-12245000D01*
X13955000Y-12215000D02*
X13925000Y-12245000D01*
X13985000Y-13120000D02*
X14015000Y-13150000D01*
X14015000Y-13120000D02*
X13985000Y-13150000D01*
X13994530Y-11894568D02*
X14024530Y-11924568D01*
X14024530Y-11894568D02*
X13994530Y-11924568D01*
X14036702Y-12151263D02*
X14066702Y-12181263D01*
X14066702Y-12151263D02*
X14036702Y-12181263D01*
X14135000Y-13025000D02*
X14165000Y-13055000D01*
X14165000Y-13025000D02*
X14135000Y-13055000D01*
X14135000Y-13125000D02*
X14165000Y-13155000D01*
X14165000Y-13125000D02*
X14135000Y-13155000D01*
X14153725Y-12311287D02*
X14183725Y-12341287D01*
X14183725Y-12311287D02*
X14153725Y-12341287D01*
X14175000Y-11245000D02*
X14205000Y-11275000D01*
X14205000Y-11245000D02*
X14175000Y-11275000D01*
X14175000Y-11325000D02*
X14205000Y-11355000D01*
X14205000Y-11325000D02*
X14175000Y-11355000D01*
X14605497Y-12425418D02*
X14635497Y-12455418D01*
X14635497Y-12425418D02*
X14605497Y-12455418D01*
X14805000Y-11845000D02*
X14835000Y-11875000D01*
X14835000Y-11845000D02*
X14805000Y-11875000D01*
X14985000Y-11955000D02*
X15015000Y-11985000D01*
X15015000Y-11955000D02*
X14985000Y-11985000D01*
X14985000Y-12055000D02*
X15015000Y-12085000D01*
X15015000Y-12055000D02*
X14985000Y-12085000D01*
X14985000Y-12155000D02*
X15015000Y-12185000D01*
X15015000Y-12155000D02*
X14985000Y-12185000D01*
X15085000Y-11955000D02*
X15115000Y-11985000D01*
X15115000Y-11955000D02*
X15085000Y-11985000D01*
X15085000Y-12055000D02*
X15115000Y-12085000D01*
X15115000Y-12055000D02*
X15085000Y-12085000D01*
X15085000Y-12155000D02*
X15115000Y-12185000D01*
X15115000Y-12155000D02*
X15085000Y-12185000D01*
X15185000Y-11955000D02*
X15215000Y-11985000D01*
X15215000Y-11955000D02*
X15185000Y-11985000D01*
X15185000Y-12055000D02*
X15215000Y-12085000D01*
X15215000Y-12055000D02*
X15185000Y-12085000D01*
X15185000Y-12155000D02*
X15215000Y-12185000D01*
X15215000Y-12155000D02*
X15185000Y-12185000D01*
X11550000Y-12860000D02*
G75*
G02*
X11520000Y-12860000I-15000J0D01*
G01*
X11520000Y-12860000D02*
G75*
G02*
X11550000Y-12860000I15000J0D01*
G01*
X11655000Y-12755000D02*
G75*
G02*
X11625000Y-12755000I-15000J0D01*
G01*
X11625000Y-12755000D02*
G75*
G02*
X11655000Y-12755000I15000J0D01*
G01*
X11655000Y-12860000D02*
G75*
G02*
X11625000Y-12860000I-15000J0D01*
G01*
X11625000Y-12860000D02*
G75*
G02*
X11655000Y-12860000I15000J0D01*
G01*
X11655000Y-12965000D02*
G75*
G02*
X11625000Y-12965000I-15000J0D01*
G01*
X11625000Y-12965000D02*
G75*
G02*
X11655000Y-12965000I15000J0D01*
G01*
X11760000Y-12860000D02*
G75*
G02*
X11730000Y-12860000I-15000J0D01*
G01*
X11730000Y-12860000D02*
G75*
G02*
X11760000Y-12860000I15000J0D01*
G01*
X12960000Y-12300000D02*
X12960000Y-12340000D01*
X12940000Y-12320000D02*
X12980000Y-12320000D01*
X12960000Y-12406000D02*
X12960000Y-12446000D01*
X12940000Y-12426000D02*
X12980000Y-12426000D01*
X13795000Y-11777280D02*
X13795000Y-11817280D01*
X13775000Y-11797280D02*
X13815000Y-11797280D01*
X14919142Y-12514142D02*
X14919142Y-12485858D01*
X14890858Y-12485858D01*
X14890858Y-12514142D01*
X14919142Y-12514142D01*
X14919142Y-12974142D02*
X14919142Y-12945858D01*
X14890858Y-12945858D01*
X14890858Y-12974142D01*
X14919142Y-12974142D01*
X14967470Y-12397470D02*
X14967470Y-12369185D01*
X14939185Y-12369185D01*
X14939185Y-12397470D01*
X14967470Y-12397470D01*
X14967470Y-12630815D02*
X14967470Y-12602530D01*
X14939185Y-12602530D01*
X14939185Y-12630815D01*
X14967470Y-12630815D01*
X14967470Y-12857470D02*
X14967470Y-12829185D01*
X14939185Y-12829185D01*
X14939185Y-12857470D01*
X14967470Y-12857470D01*
X14967470Y-13090815D02*
X14967470Y-13062530D01*
X14939185Y-13062530D01*
X14939185Y-13090815D01*
X14967470Y-13090815D01*
X15084142Y-12349142D02*
X15084142Y-12320858D01*
X15055858Y-12320858D01*
X15055858Y-12349142D01*
X15084142Y-12349142D01*
X15084142Y-12679142D02*
X15084142Y-12650858D01*
X15055858Y-12650858D01*
X15055858Y-12679142D01*
X15084142Y-12679142D01*
X15084142Y-12809142D02*
X15084142Y-12780858D01*
X15055858Y-12780858D01*
X15055858Y-12809142D01*
X15084142Y-12809142D01*
X15084142Y-13139142D02*
X15084142Y-13110858D01*
X15055858Y-13110858D01*
X15055858Y-13139142D01*
X15084142Y-13139142D01*
X15200815Y-12397470D02*
X15200815Y-12369185D01*
X15172530Y-12369185D01*
X15172530Y-12397470D01*
X15200815Y-12397470D01*
X15200815Y-12630815D02*
X15200815Y-12602530D01*
X15172530Y-12602530D01*
X15172530Y-12630815D01*
X15200815Y-12630815D01*
X15200815Y-12857470D02*
X15200815Y-12829185D01*
X15172530Y-12829185D01*
X15172530Y-12857470D01*
X15200815Y-12857470D01*
X15200815Y-13090815D02*
X15200815Y-13062530D01*
X15172530Y-13062530D01*
X15172530Y-13090815D01*
X15200815Y-13090815D01*
X15249142Y-12514142D02*
X15249142Y-12485858D01*
X15220858Y-12485858D01*
X15220858Y-12514142D01*
X15249142Y-12514142D01*
X15249142Y-12974142D02*
X15249142Y-12945858D01*
X15220858Y-12945858D01*
X15220858Y-12974142D01*
X15249142Y-12974142D01*
X11061000Y-11735500D02*
X11086000Y-11710500D01*
X11061000Y-11685500D01*
X11036000Y-11710500D01*
X11061000Y-11735500D01*
X11123500Y-11685500D02*
X10998500Y-11685500D01*
X10998500Y-11735500D02*
G75*
G02*
X10998500Y-11685500I0J25000D01*
G01*
X10998500Y-11735500D02*
X11123500Y-11735500D01*
X11123500Y-11735500D02*
G75*
G03*
X11123500Y-11685500I0J25000D01*
G01*
X11061000Y-12654500D02*
X11086000Y-12629500D01*
X11061000Y-12604500D01*
X11036000Y-12629500D01*
X11061000Y-12654500D01*
X11123500Y-12604500D02*
X10998500Y-12604500D01*
X10998500Y-12654500D02*
G75*
G02*
X10998500Y-12604500I0J25000D01*
G01*
X10998500Y-12654500D02*
X11123500Y-12654500D01*
X11123500Y-12654500D02*
G75*
G03*
X11123500Y-12604500I0J25000D01*
G01*
X11331500Y-11683000D02*
X11386500Y-11738000D01*
X11386500Y-11683000D02*
X11331500Y-11738000D01*
X11386500Y-11710500D02*
G75*
G02*
X11331500Y-11710500I-27500J0D01*
G01*
X11331500Y-11710500D02*
G75*
G02*
X11386500Y-11710500I27500J0D01*
G01*
X11331500Y-12602000D02*
X11386500Y-12657000D01*
X11386500Y-12602000D02*
X11331500Y-12657000D01*
X11386500Y-12629500D02*
G75*
G02*
X11331500Y-12629500I-27500J0D01*
G01*
X11331500Y-12629500D02*
G75*
G02*
X11386500Y-12629500I27500J0D01*
G01*
X14000000Y-11770000D02*
X14060000Y-11830000D01*
X14060000Y-11770000D02*
X14000000Y-11830000D01*
X14030000Y-11770000D02*
X14030000Y-11830000D01*
X14000000Y-11800000D02*
X14060000Y-11800000D01*
X11877500Y-12157500D02*
X11942500Y-12222500D01*
X11942500Y-12157500D02*
X11877500Y-12222500D01*
X11932981Y-12212981D02*
X11932981Y-12167019D01*
X11887019Y-12167019D01*
X11887019Y-12212981D01*
X11932981Y-12212981D01*
X11877500Y-12284500D02*
X11942500Y-12349500D01*
X11942500Y-12284500D02*
X11877500Y-12349500D01*
X11932981Y-12339981D02*
X11932981Y-12294019D01*
X11887019Y-12294019D01*
X11887019Y-12339981D01*
X11932981Y-12339981D01*
X12834000Y-11455000D02*
X12904000Y-11525000D01*
X12904000Y-11455000D02*
X12834000Y-11525000D01*
X12869000Y-11525000D02*
X12904000Y-11490000D01*
X12869000Y-11455000D01*
X12834000Y-11490000D01*
X12869000Y-11525000D01*
X12961000Y-11455000D02*
X13031000Y-11525000D01*
X13031000Y-11455000D02*
X12961000Y-11525000D01*
X12996000Y-11525000D02*
X13031000Y-11490000D01*
X12996000Y-11455000D01*
X12961000Y-11490000D01*
X12996000Y-11525000D01*
X13088000Y-11455000D02*
X13158000Y-11525000D01*
X13158000Y-11455000D02*
X13088000Y-11525000D01*
X13123000Y-11525000D02*
X13158000Y-11490000D01*
X13123000Y-11455000D01*
X13088000Y-11490000D01*
X13123000Y-11525000D01*
X13215000Y-11455000D02*
X13285000Y-11525000D01*
X13285000Y-11455000D02*
X13215000Y-11525000D01*
X13250000Y-11525000D02*
X13285000Y-11490000D01*
X13250000Y-11455000D01*
X13215000Y-11490000D01*
X13250000Y-11525000D01*
X14390000Y-11952500D02*
X14390000Y-12047500D01*
X14342500Y-12000000D02*
X14437500Y-12000000D01*
X14437500Y-12000000D02*
G75*
G02*
X14342500Y-12000000I-47500J0D01*
G01*
X14342500Y-12000000D02*
G75*
G02*
X14437500Y-12000000I47500J0D01*
G01*
X14390000Y-12202500D02*
X14390000Y-12297500D01*
X14342500Y-12250000D02*
X14437500Y-12250000D01*
X14437500Y-12250000D02*
G75*
G02*
X14342500Y-12250000I-47500J0D01*
G01*
X14342500Y-12250000D02*
G75*
G02*
X14437500Y-12250000I47500J0D01*
G01*
X14390000Y-12452500D02*
X14390000Y-12547500D01*
X14342500Y-12500000D02*
X14437500Y-12500000D01*
X14437500Y-12500000D02*
G75*
G02*
X14342500Y-12500000I-47500J0D01*
G01*
X14342500Y-12500000D02*
G75*
G02*
X14437500Y-12500000I47500J0D01*
G01*
D13*
X15147782Y-12577782D02*
X15147782Y-12422217D01*
X14992217Y-12422217D01*
X14992217Y-12577782D01*
X15147782Y-12577782D01*
X15180000Y-12500000D02*
G75*
G02*
X14960000Y-12500000I-110000J0D01*
G01*
X14960000Y-12500000D02*
G75*
G02*
X15180000Y-12500000I110000J0D01*
G01*
X15147782Y-13037782D02*
X15147782Y-12882217D01*
X14992217Y-12882217D01*
X14992217Y-13037782D01*
X15147782Y-13037782D01*
X15180000Y-12960000D02*
G75*
G02*
X14960000Y-12960000I-110000J0D01*
G01*
X14960000Y-12960000D02*
G75*
G02*
X15180000Y-12960000I110000J0D01*
G01*
D11*
X11068277Y-13513984D02*
X11068277Y-13313984D01*
X11068277Y-13313984D02*
X11115896Y-13313984D01*
X11115896Y-13313984D02*
X11144467Y-13323508D01*
X11144467Y-13323508D02*
X11163515Y-13342555D01*
X11163515Y-13342555D02*
X11173039Y-13361603D01*
X11173039Y-13361603D02*
X11182563Y-13399698D01*
X11182563Y-13399698D02*
X11182563Y-13428269D01*
X11182563Y-13428269D02*
X11173039Y-13466365D01*
X11173039Y-13466365D02*
X11163515Y-13485412D01*
X11163515Y-13485412D02*
X11144467Y-13504460D01*
X11144467Y-13504460D02*
X11115896Y-13513984D01*
X11115896Y-13513984D02*
X11068277Y-13513984D01*
X11268277Y-13513984D02*
X11268277Y-13380650D01*
X11268277Y-13418746D02*
X11277801Y-13399698D01*
X11277801Y-13399698D02*
X11287324Y-13390174D01*
X11287324Y-13390174D02*
X11306372Y-13380650D01*
X11306372Y-13380650D02*
X11325420Y-13380650D01*
X11392086Y-13513984D02*
X11392086Y-13380650D01*
X11392086Y-13313984D02*
X11382562Y-13323508D01*
X11382562Y-13323508D02*
X11392086Y-13333031D01*
X11392086Y-13333031D02*
X11401610Y-13323508D01*
X11401610Y-13323508D02*
X11392086Y-13313984D01*
X11392086Y-13313984D02*
X11392086Y-13333031D01*
X11515896Y-13513984D02*
X11496848Y-13504460D01*
X11496848Y-13504460D02*
X11487324Y-13485412D01*
X11487324Y-13485412D02*
X11487324Y-13313984D01*
X11620658Y-13513984D02*
X11601610Y-13504460D01*
X11601610Y-13504460D02*
X11592086Y-13485412D01*
X11592086Y-13485412D02*
X11592086Y-13313984D01*
X11849229Y-13513984D02*
X11849229Y-13313984D01*
X11849229Y-13313984D02*
X11915896Y-13456841D01*
X11915896Y-13456841D02*
X11982562Y-13313984D01*
X11982562Y-13313984D02*
X11982562Y-13513984D01*
X12163515Y-13513984D02*
X12163515Y-13409222D01*
X12163515Y-13409222D02*
X12153991Y-13390174D01*
X12153991Y-13390174D02*
X12134943Y-13380650D01*
X12134943Y-13380650D02*
X12096848Y-13380650D01*
X12096848Y-13380650D02*
X12077801Y-13390174D01*
X12163515Y-13504460D02*
X12144467Y-13513984D01*
X12144467Y-13513984D02*
X12096848Y-13513984D01*
X12096848Y-13513984D02*
X12077801Y-13504460D01*
X12077801Y-13504460D02*
X12068277Y-13485412D01*
X12068277Y-13485412D02*
X12068277Y-13466365D01*
X12068277Y-13466365D02*
X12077801Y-13447317D01*
X12077801Y-13447317D02*
X12096848Y-13437793D01*
X12096848Y-13437793D02*
X12144467Y-13437793D01*
X12144467Y-13437793D02*
X12163515Y-13428269D01*
X12258753Y-13380650D02*
X12258753Y-13580650D01*
X12258753Y-13390174D02*
X12277801Y-13380650D01*
X12277801Y-13380650D02*
X12315896Y-13380650D01*
X12315896Y-13380650D02*
X12334943Y-13390174D01*
X12334943Y-13390174D02*
X12344467Y-13399698D01*
X12344467Y-13399698D02*
X12353991Y-13418746D01*
X12353991Y-13418746D02*
X12353991Y-13475888D01*
X12353991Y-13475888D02*
X12344467Y-13494936D01*
X12344467Y-13494936D02*
X12334943Y-13504460D01*
X12334943Y-13504460D02*
X12315896Y-13513984D01*
X12315896Y-13513984D02*
X12277801Y-13513984D01*
X12277801Y-13513984D02*
X12258753Y-13504460D01*
X12439705Y-13494936D02*
X12449229Y-13504460D01*
X12449229Y-13504460D02*
X12439705Y-13513984D01*
X12439705Y-13513984D02*
X12430182Y-13504460D01*
X12430182Y-13504460D02*
X12439705Y-13494936D01*
X12439705Y-13494936D02*
X12439705Y-13513984D01*
X12439705Y-13390174D02*
X12449229Y-13399698D01*
X12449229Y-13399698D02*
X12439705Y-13409222D01*
X12439705Y-13409222D02*
X12430182Y-13399698D01*
X12430182Y-13399698D02*
X12439705Y-13390174D01*
X12439705Y-13390174D02*
X12439705Y-13409222D01*
D12*
X10777500Y-13827500D02*
X10807500Y-13857500D01*
X10807500Y-13827500D02*
X10777500Y-13857500D01*
D11*
X11106372Y-13733984D02*
X11125420Y-13733984D01*
X11125420Y-13733984D02*
X11144467Y-13743508D01*
X11144467Y-13743508D02*
X11153991Y-13753031D01*
X11153991Y-13753031D02*
X11163515Y-13772079D01*
X11163515Y-13772079D02*
X11173039Y-13810174D01*
X11173039Y-13810174D02*
X11173039Y-13857793D01*
X11173039Y-13857793D02*
X11163515Y-13895888D01*
X11163515Y-13895888D02*
X11153991Y-13914936D01*
X11153991Y-13914936D02*
X11144467Y-13924460D01*
X11144467Y-13924460D02*
X11125420Y-13933984D01*
X11125420Y-13933984D02*
X11106372Y-13933984D01*
X11106372Y-13933984D02*
X11087324Y-13924460D01*
X11087324Y-13924460D02*
X11077801Y-13914936D01*
X11077801Y-13914936D02*
X11068277Y-13895888D01*
X11068277Y-13895888D02*
X11058753Y-13857793D01*
X11058753Y-13857793D02*
X11058753Y-13810174D01*
X11058753Y-13810174D02*
X11068277Y-13772079D01*
X11068277Y-13772079D02*
X11077801Y-13753031D01*
X11077801Y-13753031D02*
X11087324Y-13743508D01*
X11087324Y-13743508D02*
X11106372Y-13733984D01*
X11258753Y-13914936D02*
X11268277Y-13924460D01*
X11268277Y-13924460D02*
X11258753Y-13933984D01*
X11258753Y-13933984D02*
X11249229Y-13924460D01*
X11249229Y-13924460D02*
X11258753Y-13914936D01*
X11258753Y-13914936D02*
X11258753Y-13933984D01*
X11334943Y-13733984D02*
X11458753Y-13733984D01*
X11458753Y-13733984D02*
X11392086Y-13810174D01*
X11392086Y-13810174D02*
X11420658Y-13810174D01*
X11420658Y-13810174D02*
X11439705Y-13819698D01*
X11439705Y-13819698D02*
X11449229Y-13829222D01*
X11449229Y-13829222D02*
X11458753Y-13848269D01*
X11458753Y-13848269D02*
X11458753Y-13895888D01*
X11458753Y-13895888D02*
X11449229Y-13914936D01*
X11449229Y-13914936D02*
X11439705Y-13924460D01*
X11439705Y-13924460D02*
X11420658Y-13933984D01*
X11420658Y-13933984D02*
X11363515Y-13933984D01*
X11363515Y-13933984D02*
X11344467Y-13924460D01*
X11344467Y-13924460D02*
X11334943Y-13914936D01*
X11582562Y-13733984D02*
X11601610Y-13733984D01*
X11601610Y-13733984D02*
X11620658Y-13743508D01*
X11620658Y-13743508D02*
X11630182Y-13753031D01*
X11630182Y-13753031D02*
X11639705Y-13772079D01*
X11639705Y-13772079D02*
X11649229Y-13810174D01*
X11649229Y-13810174D02*
X11649229Y-13857793D01*
X11649229Y-13857793D02*
X11639705Y-13895888D01*
X11639705Y-13895888D02*
X11630182Y-13914936D01*
X11630182Y-13914936D02*
X11620658Y-13924460D01*
X11620658Y-13924460D02*
X11601610Y-13933984D01*
X11601610Y-13933984D02*
X11582562Y-13933984D01*
X11582562Y-13933984D02*
X11563515Y-13924460D01*
X11563515Y-13924460D02*
X11553991Y-13914936D01*
X11553991Y-13914936D02*
X11544467Y-13895888D01*
X11544467Y-13895888D02*
X11534943Y-13857793D01*
X11534943Y-13857793D02*
X11534943Y-13810174D01*
X11534943Y-13810174D02*
X11544467Y-13772079D01*
X11544467Y-13772079D02*
X11553991Y-13753031D01*
X11553991Y-13753031D02*
X11563515Y-13743508D01*
X11563515Y-13743508D02*
X11582562Y-13733984D01*
X11773039Y-13733984D02*
X11792086Y-13733984D01*
X11792086Y-13733984D02*
X11811134Y-13743508D01*
X11811134Y-13743508D02*
X11820658Y-13753031D01*
X11820658Y-13753031D02*
X11830182Y-13772079D01*
X11830182Y-13772079D02*
X11839705Y-13810174D01*
X11839705Y-13810174D02*
X11839705Y-13857793D01*
X11839705Y-13857793D02*
X11830182Y-13895888D01*
X11830182Y-13895888D02*
X11820658Y-13914936D01*
X11820658Y-13914936D02*
X11811134Y-13924460D01*
X11811134Y-13924460D02*
X11792086Y-13933984D01*
X11792086Y-13933984D02*
X11773039Y-13933984D01*
X11773039Y-13933984D02*
X11753991Y-13924460D01*
X11753991Y-13924460D02*
X11744467Y-13914936D01*
X11744467Y-13914936D02*
X11734943Y-13895888D01*
X11734943Y-13895888D02*
X11725420Y-13857793D01*
X11725420Y-13857793D02*
X11725420Y-13810174D01*
X11725420Y-13810174D02*
X11734943Y-13772079D01*
X11734943Y-13772079D02*
X11744467Y-13753031D01*
X11744467Y-13753031D02*
X11753991Y-13743508D01*
X11753991Y-13743508D02*
X11773039Y-13733984D01*
X11925420Y-13933984D02*
X11925420Y-13800650D01*
X11925420Y-13819698D02*
X11934943Y-13810174D01*
X11934943Y-13810174D02*
X11953991Y-13800650D01*
X11953991Y-13800650D02*
X11982563Y-13800650D01*
X11982563Y-13800650D02*
X12001610Y-13810174D01*
X12001610Y-13810174D02*
X12011134Y-13829222D01*
X12011134Y-13829222D02*
X12011134Y-13933984D01*
X12011134Y-13829222D02*
X12020658Y-13810174D01*
X12020658Y-13810174D02*
X12039705Y-13800650D01*
X12039705Y-13800650D02*
X12068277Y-13800650D01*
X12068277Y-13800650D02*
X12087324Y-13810174D01*
X12087324Y-13810174D02*
X12096848Y-13829222D01*
X12096848Y-13829222D02*
X12096848Y-13933984D01*
X12192086Y-13933984D02*
X12192086Y-13800650D01*
X12192086Y-13819698D02*
X12201610Y-13810174D01*
X12201610Y-13810174D02*
X12220658Y-13800650D01*
X12220658Y-13800650D02*
X12249229Y-13800650D01*
X12249229Y-13800650D02*
X12268277Y-13810174D01*
X12268277Y-13810174D02*
X12277801Y-13829222D01*
X12277801Y-13829222D02*
X12277801Y-13933984D01*
X12277801Y-13829222D02*
X12287324Y-13810174D01*
X12287324Y-13810174D02*
X12306372Y-13800650D01*
X12306372Y-13800650D02*
X12334943Y-13800650D01*
X12334943Y-13800650D02*
X12353991Y-13810174D01*
X12353991Y-13810174D02*
X12363515Y-13829222D01*
X12363515Y-13829222D02*
X12363515Y-13933984D01*
X12753991Y-13724460D02*
X12582563Y-13981603D01*
X13011134Y-13733984D02*
X13030182Y-13733984D01*
X13030182Y-13733984D02*
X13049229Y-13743508D01*
X13049229Y-13743508D02*
X13058753Y-13753031D01*
X13058753Y-13753031D02*
X13068277Y-13772079D01*
X13068277Y-13772079D02*
X13077801Y-13810174D01*
X13077801Y-13810174D02*
X13077801Y-13857793D01*
X13077801Y-13857793D02*
X13068277Y-13895888D01*
X13068277Y-13895888D02*
X13058753Y-13914936D01*
X13058753Y-13914936D02*
X13049229Y-13924460D01*
X13049229Y-13924460D02*
X13030182Y-13933984D01*
X13030182Y-13933984D02*
X13011134Y-13933984D01*
X13011134Y-13933984D02*
X12992086Y-13924460D01*
X12992086Y-13924460D02*
X12982563Y-13914936D01*
X12982563Y-13914936D02*
X12973039Y-13895888D01*
X12973039Y-13895888D02*
X12963515Y-13857793D01*
X12963515Y-13857793D02*
X12963515Y-13810174D01*
X12963515Y-13810174D02*
X12973039Y-13772079D01*
X12973039Y-13772079D02*
X12982563Y-13753031D01*
X12982563Y-13753031D02*
X12992086Y-13743508D01*
X12992086Y-13743508D02*
X13011134Y-13733984D01*
X13163515Y-13914936D02*
X13173039Y-13924460D01*
X13173039Y-13924460D02*
X13163515Y-13933984D01*
X13163515Y-13933984D02*
X13153991Y-13924460D01*
X13153991Y-13924460D02*
X13163515Y-13914936D01*
X13163515Y-13914936D02*
X13163515Y-13933984D01*
X13296848Y-13733984D02*
X13315896Y-13733984D01*
X13315896Y-13733984D02*
X13334944Y-13743508D01*
X13334944Y-13743508D02*
X13344467Y-13753031D01*
X13344467Y-13753031D02*
X13353991Y-13772079D01*
X13353991Y-13772079D02*
X13363515Y-13810174D01*
X13363515Y-13810174D02*
X13363515Y-13857793D01*
X13363515Y-13857793D02*
X13353991Y-13895888D01*
X13353991Y-13895888D02*
X13344467Y-13914936D01*
X13344467Y-13914936D02*
X13334944Y-13924460D01*
X13334944Y-13924460D02*
X13315896Y-13933984D01*
X13315896Y-13933984D02*
X13296848Y-13933984D01*
X13296848Y-13933984D02*
X13277801Y-13924460D01*
X13277801Y-13924460D02*
X13268277Y-13914936D01*
X13268277Y-13914936D02*
X13258753Y-13895888D01*
X13258753Y-13895888D02*
X13249229Y-13857793D01*
X13249229Y-13857793D02*
X13249229Y-13810174D01*
X13249229Y-13810174D02*
X13258753Y-13772079D01*
X13258753Y-13772079D02*
X13268277Y-13753031D01*
X13268277Y-13753031D02*
X13277801Y-13743508D01*
X13277801Y-13743508D02*
X13296848Y-13733984D01*
X13553991Y-13933984D02*
X13439706Y-13933984D01*
X13496848Y-13933984D02*
X13496848Y-13733984D01*
X13496848Y-13733984D02*
X13477801Y-13762555D01*
X13477801Y-13762555D02*
X13458753Y-13781603D01*
X13458753Y-13781603D02*
X13439706Y-13791127D01*
X13744467Y-13933984D02*
X13630182Y-13933984D01*
X13687325Y-13933984D02*
X13687325Y-13733984D01*
X13687325Y-13733984D02*
X13668277Y-13762555D01*
X13668277Y-13762555D02*
X13649229Y-13781603D01*
X13649229Y-13781603D02*
X13630182Y-13791127D01*
X13858753Y-13819698D02*
X13839706Y-13810174D01*
X13839706Y-13810174D02*
X13830182Y-13800650D01*
X13830182Y-13800650D02*
X13820658Y-13781603D01*
X13820658Y-13781603D02*
X13820658Y-13772079D01*
X13820658Y-13772079D02*
X13830182Y-13753031D01*
X13830182Y-13753031D02*
X13839706Y-13743508D01*
X13839706Y-13743508D02*
X13858753Y-13733984D01*
X13858753Y-13733984D02*
X13896848Y-13733984D01*
X13896848Y-13733984D02*
X13915896Y-13743508D01*
X13915896Y-13743508D02*
X13925420Y-13753031D01*
X13925420Y-13753031D02*
X13934944Y-13772079D01*
X13934944Y-13772079D02*
X13934944Y-13781603D01*
X13934944Y-13781603D02*
X13925420Y-13800650D01*
X13925420Y-13800650D02*
X13915896Y-13810174D01*
X13915896Y-13810174D02*
X13896848Y-13819698D01*
X13896848Y-13819698D02*
X13858753Y-13819698D01*
X13858753Y-13819698D02*
X13839706Y-13829222D01*
X13839706Y-13829222D02*
X13830182Y-13838746D01*
X13830182Y-13838746D02*
X13820658Y-13857793D01*
X13820658Y-13857793D02*
X13820658Y-13895888D01*
X13820658Y-13895888D02*
X13830182Y-13914936D01*
X13830182Y-13914936D02*
X13839706Y-13924460D01*
X13839706Y-13924460D02*
X13858753Y-13933984D01*
X13858753Y-13933984D02*
X13896848Y-13933984D01*
X13896848Y-13933984D02*
X13915896Y-13924460D01*
X13915896Y-13924460D02*
X13925420Y-13914936D01*
X13925420Y-13914936D02*
X13934944Y-13895888D01*
X13934944Y-13895888D02*
X13934944Y-13857793D01*
X13934944Y-13857793D02*
X13925420Y-13838746D01*
X13925420Y-13838746D02*
X13915896Y-13829222D01*
X13915896Y-13829222D02*
X13896848Y-13819698D01*
X14011134Y-13733984D02*
X14011134Y-13772079D01*
X14087325Y-13733984D02*
X14087325Y-13772079D01*
X14382563Y-14010174D02*
X14373039Y-14000650D01*
X14373039Y-14000650D02*
X14353991Y-13972079D01*
X14353991Y-13972079D02*
X14344468Y-13953031D01*
X14344468Y-13953031D02*
X14334944Y-13924460D01*
X14334944Y-13924460D02*
X14325420Y-13876841D01*
X14325420Y-13876841D02*
X14325420Y-13838746D01*
X14325420Y-13838746D02*
X14334944Y-13791127D01*
X14334944Y-13791127D02*
X14344468Y-13762555D01*
X14344468Y-13762555D02*
X14353991Y-13743508D01*
X14353991Y-13743508D02*
X14373039Y-13714936D01*
X14373039Y-13714936D02*
X14382563Y-13705412D01*
X14563515Y-13933984D02*
X14449229Y-13933984D01*
X14506372Y-13933984D02*
X14506372Y-13733984D01*
X14506372Y-13733984D02*
X14487325Y-13762555D01*
X14487325Y-13762555D02*
X14468277Y-13781603D01*
X14468277Y-13781603D02*
X14449229Y-13791127D01*
X14687325Y-13733984D02*
X14706372Y-13733984D01*
X14706372Y-13733984D02*
X14725420Y-13743508D01*
X14725420Y-13743508D02*
X14734944Y-13753031D01*
X14734944Y-13753031D02*
X14744468Y-13772079D01*
X14744468Y-13772079D02*
X14753991Y-13810174D01*
X14753991Y-13810174D02*
X14753991Y-13857793D01*
X14753991Y-13857793D02*
X14744468Y-13895888D01*
X14744468Y-13895888D02*
X14734944Y-13914936D01*
X14734944Y-13914936D02*
X14725420Y-13924460D01*
X14725420Y-13924460D02*
X14706372Y-13933984D01*
X14706372Y-13933984D02*
X14687325Y-13933984D01*
X14687325Y-13933984D02*
X14668277Y-13924460D01*
X14668277Y-13924460D02*
X14658753Y-13914936D01*
X14658753Y-13914936D02*
X14649229Y-13895888D01*
X14649229Y-13895888D02*
X14639706Y-13857793D01*
X14639706Y-13857793D02*
X14639706Y-13810174D01*
X14639706Y-13810174D02*
X14649229Y-13772079D01*
X14649229Y-13772079D02*
X14658753Y-13753031D01*
X14658753Y-13753031D02*
X14668277Y-13743508D01*
X14668277Y-13743508D02*
X14687325Y-13733984D01*
X14877801Y-13733984D02*
X14896849Y-13733984D01*
X14896849Y-13733984D02*
X14915896Y-13743508D01*
X14915896Y-13743508D02*
X14925420Y-13753031D01*
X14925420Y-13753031D02*
X14934944Y-13772079D01*
X14934944Y-13772079D02*
X14944468Y-13810174D01*
X14944468Y-13810174D02*
X14944468Y-13857793D01*
X14944468Y-13857793D02*
X14934944Y-13895888D01*
X14934944Y-13895888D02*
X14925420Y-13914936D01*
X14925420Y-13914936D02*
X14915896Y-13924460D01*
X14915896Y-13924460D02*
X14896849Y-13933984D01*
X14896849Y-13933984D02*
X14877801Y-13933984D01*
X14877801Y-13933984D02*
X14858753Y-13924460D01*
X14858753Y-13924460D02*
X14849229Y-13914936D01*
X14849229Y-13914936D02*
X14839706Y-13895888D01*
X14839706Y-13895888D02*
X14830182Y-13857793D01*
X14830182Y-13857793D02*
X14830182Y-13810174D01*
X14830182Y-13810174D02*
X14839706Y-13772079D01*
X14839706Y-13772079D02*
X14849229Y-13753031D01*
X14849229Y-13753031D02*
X14858753Y-13743508D01*
X14858753Y-13743508D02*
X14877801Y-13733984D01*
X15182563Y-13933984D02*
X15182563Y-13733984D01*
X15268277Y-13933984D02*
X15268277Y-13829222D01*
X15268277Y-13829222D02*
X15258753Y-13810174D01*
X15258753Y-13810174D02*
X15239706Y-13800650D01*
X15239706Y-13800650D02*
X15211134Y-13800650D01*
X15211134Y-13800650D02*
X15192087Y-13810174D01*
X15192087Y-13810174D02*
X15182563Y-13819698D01*
X15392087Y-13933984D02*
X15373039Y-13924460D01*
X15373039Y-13924460D02*
X15363515Y-13914936D01*
X15363515Y-13914936D02*
X15353991Y-13895888D01*
X15353991Y-13895888D02*
X15353991Y-13838746D01*
X15353991Y-13838746D02*
X15363515Y-13819698D01*
X15363515Y-13819698D02*
X15373039Y-13810174D01*
X15373039Y-13810174D02*
X15392087Y-13800650D01*
X15392087Y-13800650D02*
X15420658Y-13800650D01*
X15420658Y-13800650D02*
X15439706Y-13810174D01*
X15439706Y-13810174D02*
X15449230Y-13819698D01*
X15449230Y-13819698D02*
X15458753Y-13838746D01*
X15458753Y-13838746D02*
X15458753Y-13895888D01*
X15458753Y-13895888D02*
X15449230Y-13914936D01*
X15449230Y-13914936D02*
X15439706Y-13924460D01*
X15439706Y-13924460D02*
X15420658Y-13933984D01*
X15420658Y-13933984D02*
X15392087Y-13933984D01*
X15573039Y-13933984D02*
X15553991Y-13924460D01*
X15553991Y-13924460D02*
X15544468Y-13905412D01*
X15544468Y-13905412D02*
X15544468Y-13733984D01*
X15725420Y-13924460D02*
X15706372Y-13933984D01*
X15706372Y-13933984D02*
X15668277Y-13933984D01*
X15668277Y-13933984D02*
X15649230Y-13924460D01*
X15649230Y-13924460D02*
X15639706Y-13905412D01*
X15639706Y-13905412D02*
X15639706Y-13829222D01*
X15639706Y-13829222D02*
X15649230Y-13810174D01*
X15649230Y-13810174D02*
X15668277Y-13800650D01*
X15668277Y-13800650D02*
X15706372Y-13800650D01*
X15706372Y-13800650D02*
X15725420Y-13810174D01*
X15725420Y-13810174D02*
X15734944Y-13829222D01*
X15734944Y-13829222D02*
X15734944Y-13848269D01*
X15734944Y-13848269D02*
X15639706Y-13867317D01*
X15811134Y-13924460D02*
X15830182Y-13933984D01*
X15830182Y-13933984D02*
X15868277Y-13933984D01*
X15868277Y-13933984D02*
X15887325Y-13924460D01*
X15887325Y-13924460D02*
X15896849Y-13905412D01*
X15896849Y-13905412D02*
X15896849Y-13895888D01*
X15896849Y-13895888D02*
X15887325Y-13876841D01*
X15887325Y-13876841D02*
X15868277Y-13867317D01*
X15868277Y-13867317D02*
X15839706Y-13867317D01*
X15839706Y-13867317D02*
X15820658Y-13857793D01*
X15820658Y-13857793D02*
X15811134Y-13838746D01*
X15811134Y-13838746D02*
X15811134Y-13829222D01*
X15811134Y-13829222D02*
X15820658Y-13810174D01*
X15820658Y-13810174D02*
X15839706Y-13800650D01*
X15839706Y-13800650D02*
X15868277Y-13800650D01*
X15868277Y-13800650D02*
X15887325Y-13810174D01*
X15963515Y-14010174D02*
X15973039Y-14000650D01*
X15973039Y-14000650D02*
X15992087Y-13972079D01*
X15992087Y-13972079D02*
X16001611Y-13953031D01*
X16001611Y-13953031D02*
X16011134Y-13924460D01*
X16011134Y-13924460D02*
X16020658Y-13876841D01*
X16020658Y-13876841D02*
X16020658Y-13838746D01*
X16020658Y-13838746D02*
X16011134Y-13791127D01*
X16011134Y-13791127D02*
X16001611Y-13762555D01*
X16001611Y-13762555D02*
X15992087Y-13743508D01*
X15992087Y-13743508D02*
X15973039Y-13714936D01*
X15973039Y-13714936D02*
X15963515Y-13705412D01*
D12*
X10807500Y-14106500D02*
G75*
G02*
X10777500Y-14106500I-15000J0D01*
G01*
X10777500Y-14106500D02*
G75*
G02*
X10807500Y-14106500I15000J0D01*
G01*
D11*
X11106372Y-13997984D02*
X11125420Y-13997984D01*
X11125420Y-13997984D02*
X11144467Y-14007508D01*
X11144467Y-14007508D02*
X11153991Y-14017031D01*
X11153991Y-14017031D02*
X11163515Y-14036079D01*
X11163515Y-14036079D02*
X11173039Y-14074174D01*
X11173039Y-14074174D02*
X11173039Y-14121793D01*
X11173039Y-14121793D02*
X11163515Y-14159888D01*
X11163515Y-14159888D02*
X11153991Y-14178936D01*
X11153991Y-14178936D02*
X11144467Y-14188460D01*
X11144467Y-14188460D02*
X11125420Y-14197984D01*
X11125420Y-14197984D02*
X11106372Y-14197984D01*
X11106372Y-14197984D02*
X11087324Y-14188460D01*
X11087324Y-14188460D02*
X11077801Y-14178936D01*
X11077801Y-14178936D02*
X11068277Y-14159888D01*
X11068277Y-14159888D02*
X11058753Y-14121793D01*
X11058753Y-14121793D02*
X11058753Y-14074174D01*
X11058753Y-14074174D02*
X11068277Y-14036079D01*
X11068277Y-14036079D02*
X11077801Y-14017031D01*
X11077801Y-14017031D02*
X11087324Y-14007508D01*
X11087324Y-14007508D02*
X11106372Y-13997984D01*
X11258753Y-14178936D02*
X11268277Y-14188460D01*
X11268277Y-14188460D02*
X11258753Y-14197984D01*
X11258753Y-14197984D02*
X11249229Y-14188460D01*
X11249229Y-14188460D02*
X11258753Y-14178936D01*
X11258753Y-14178936D02*
X11258753Y-14197984D01*
X11334943Y-13997984D02*
X11458753Y-13997984D01*
X11458753Y-13997984D02*
X11392086Y-14074174D01*
X11392086Y-14074174D02*
X11420658Y-14074174D01*
X11420658Y-14074174D02*
X11439705Y-14083698D01*
X11439705Y-14083698D02*
X11449229Y-14093222D01*
X11449229Y-14093222D02*
X11458753Y-14112269D01*
X11458753Y-14112269D02*
X11458753Y-14159888D01*
X11458753Y-14159888D02*
X11449229Y-14178936D01*
X11449229Y-14178936D02*
X11439705Y-14188460D01*
X11439705Y-14188460D02*
X11420658Y-14197984D01*
X11420658Y-14197984D02*
X11363515Y-14197984D01*
X11363515Y-14197984D02*
X11344467Y-14188460D01*
X11344467Y-14188460D02*
X11334943Y-14178936D01*
X11582562Y-13997984D02*
X11601610Y-13997984D01*
X11601610Y-13997984D02*
X11620658Y-14007508D01*
X11620658Y-14007508D02*
X11630182Y-14017031D01*
X11630182Y-14017031D02*
X11639705Y-14036079D01*
X11639705Y-14036079D02*
X11649229Y-14074174D01*
X11649229Y-14074174D02*
X11649229Y-14121793D01*
X11649229Y-14121793D02*
X11639705Y-14159888D01*
X11639705Y-14159888D02*
X11630182Y-14178936D01*
X11630182Y-14178936D02*
X11620658Y-14188460D01*
X11620658Y-14188460D02*
X11601610Y-14197984D01*
X11601610Y-14197984D02*
X11582562Y-14197984D01*
X11582562Y-14197984D02*
X11563515Y-14188460D01*
X11563515Y-14188460D02*
X11553991Y-14178936D01*
X11553991Y-14178936D02*
X11544467Y-14159888D01*
X11544467Y-14159888D02*
X11534943Y-14121793D01*
X11534943Y-14121793D02*
X11534943Y-14074174D01*
X11534943Y-14074174D02*
X11544467Y-14036079D01*
X11544467Y-14036079D02*
X11553991Y-14017031D01*
X11553991Y-14017031D02*
X11563515Y-14007508D01*
X11563515Y-14007508D02*
X11582562Y-13997984D01*
X11773039Y-13997984D02*
X11792086Y-13997984D01*
X11792086Y-13997984D02*
X11811134Y-14007508D01*
X11811134Y-14007508D02*
X11820658Y-14017031D01*
X11820658Y-14017031D02*
X11830182Y-14036079D01*
X11830182Y-14036079D02*
X11839705Y-14074174D01*
X11839705Y-14074174D02*
X11839705Y-14121793D01*
X11839705Y-14121793D02*
X11830182Y-14159888D01*
X11830182Y-14159888D02*
X11820658Y-14178936D01*
X11820658Y-14178936D02*
X11811134Y-14188460D01*
X11811134Y-14188460D02*
X11792086Y-14197984D01*
X11792086Y-14197984D02*
X11773039Y-14197984D01*
X11773039Y-14197984D02*
X11753991Y-14188460D01*
X11753991Y-14188460D02*
X11744467Y-14178936D01*
X11744467Y-14178936D02*
X11734943Y-14159888D01*
X11734943Y-14159888D02*
X11725420Y-14121793D01*
X11725420Y-14121793D02*
X11725420Y-14074174D01*
X11725420Y-14074174D02*
X11734943Y-14036079D01*
X11734943Y-14036079D02*
X11744467Y-14017031D01*
X11744467Y-14017031D02*
X11753991Y-14007508D01*
X11753991Y-14007508D02*
X11773039Y-13997984D01*
X11925420Y-14197984D02*
X11925420Y-14064650D01*
X11925420Y-14083698D02*
X11934943Y-14074174D01*
X11934943Y-14074174D02*
X11953991Y-14064650D01*
X11953991Y-14064650D02*
X11982563Y-14064650D01*
X11982563Y-14064650D02*
X12001610Y-14074174D01*
X12001610Y-14074174D02*
X12011134Y-14093222D01*
X12011134Y-14093222D02*
X12011134Y-14197984D01*
X12011134Y-14093222D02*
X12020658Y-14074174D01*
X12020658Y-14074174D02*
X12039705Y-14064650D01*
X12039705Y-14064650D02*
X12068277Y-14064650D01*
X12068277Y-14064650D02*
X12087324Y-14074174D01*
X12087324Y-14074174D02*
X12096848Y-14093222D01*
X12096848Y-14093222D02*
X12096848Y-14197984D01*
X12192086Y-14197984D02*
X12192086Y-14064650D01*
X12192086Y-14083698D02*
X12201610Y-14074174D01*
X12201610Y-14074174D02*
X12220658Y-14064650D01*
X12220658Y-14064650D02*
X12249229Y-14064650D01*
X12249229Y-14064650D02*
X12268277Y-14074174D01*
X12268277Y-14074174D02*
X12277801Y-14093222D01*
X12277801Y-14093222D02*
X12277801Y-14197984D01*
X12277801Y-14093222D02*
X12287324Y-14074174D01*
X12287324Y-14074174D02*
X12306372Y-14064650D01*
X12306372Y-14064650D02*
X12334943Y-14064650D01*
X12334943Y-14064650D02*
X12353991Y-14074174D01*
X12353991Y-14074174D02*
X12363515Y-14093222D01*
X12363515Y-14093222D02*
X12363515Y-14197984D01*
X12753991Y-13988460D02*
X12582563Y-14245603D01*
X13011134Y-13997984D02*
X13030182Y-13997984D01*
X13030182Y-13997984D02*
X13049229Y-14007508D01*
X13049229Y-14007508D02*
X13058753Y-14017031D01*
X13058753Y-14017031D02*
X13068277Y-14036079D01*
X13068277Y-14036079D02*
X13077801Y-14074174D01*
X13077801Y-14074174D02*
X13077801Y-14121793D01*
X13077801Y-14121793D02*
X13068277Y-14159888D01*
X13068277Y-14159888D02*
X13058753Y-14178936D01*
X13058753Y-14178936D02*
X13049229Y-14188460D01*
X13049229Y-14188460D02*
X13030182Y-14197984D01*
X13030182Y-14197984D02*
X13011134Y-14197984D01*
X13011134Y-14197984D02*
X12992086Y-14188460D01*
X12992086Y-14188460D02*
X12982563Y-14178936D01*
X12982563Y-14178936D02*
X12973039Y-14159888D01*
X12973039Y-14159888D02*
X12963515Y-14121793D01*
X12963515Y-14121793D02*
X12963515Y-14074174D01*
X12963515Y-14074174D02*
X12973039Y-14036079D01*
X12973039Y-14036079D02*
X12982563Y-14017031D01*
X12982563Y-14017031D02*
X12992086Y-14007508D01*
X12992086Y-14007508D02*
X13011134Y-13997984D01*
X13163515Y-14178936D02*
X13173039Y-14188460D01*
X13173039Y-14188460D02*
X13163515Y-14197984D01*
X13163515Y-14197984D02*
X13153991Y-14188460D01*
X13153991Y-14188460D02*
X13163515Y-14178936D01*
X13163515Y-14178936D02*
X13163515Y-14197984D01*
X13296848Y-13997984D02*
X13315896Y-13997984D01*
X13315896Y-13997984D02*
X13334944Y-14007508D01*
X13334944Y-14007508D02*
X13344467Y-14017031D01*
X13344467Y-14017031D02*
X13353991Y-14036079D01*
X13353991Y-14036079D02*
X13363515Y-14074174D01*
X13363515Y-14074174D02*
X13363515Y-14121793D01*
X13363515Y-14121793D02*
X13353991Y-14159888D01*
X13353991Y-14159888D02*
X13344467Y-14178936D01*
X13344467Y-14178936D02*
X13334944Y-14188460D01*
X13334944Y-14188460D02*
X13315896Y-14197984D01*
X13315896Y-14197984D02*
X13296848Y-14197984D01*
X13296848Y-14197984D02*
X13277801Y-14188460D01*
X13277801Y-14188460D02*
X13268277Y-14178936D01*
X13268277Y-14178936D02*
X13258753Y-14159888D01*
X13258753Y-14159888D02*
X13249229Y-14121793D01*
X13249229Y-14121793D02*
X13249229Y-14074174D01*
X13249229Y-14074174D02*
X13258753Y-14036079D01*
X13258753Y-14036079D02*
X13268277Y-14017031D01*
X13268277Y-14017031D02*
X13277801Y-14007508D01*
X13277801Y-14007508D02*
X13296848Y-13997984D01*
X13553991Y-14197984D02*
X13439706Y-14197984D01*
X13496848Y-14197984D02*
X13496848Y-13997984D01*
X13496848Y-13997984D02*
X13477801Y-14026555D01*
X13477801Y-14026555D02*
X13458753Y-14045603D01*
X13458753Y-14045603D02*
X13439706Y-14055127D01*
X13744467Y-14197984D02*
X13630182Y-14197984D01*
X13687325Y-14197984D02*
X13687325Y-13997984D01*
X13687325Y-13997984D02*
X13668277Y-14026555D01*
X13668277Y-14026555D02*
X13649229Y-14045603D01*
X13649229Y-14045603D02*
X13630182Y-14055127D01*
X13858753Y-14083698D02*
X13839706Y-14074174D01*
X13839706Y-14074174D02*
X13830182Y-14064650D01*
X13830182Y-14064650D02*
X13820658Y-14045603D01*
X13820658Y-14045603D02*
X13820658Y-14036079D01*
X13820658Y-14036079D02*
X13830182Y-14017031D01*
X13830182Y-14017031D02*
X13839706Y-14007508D01*
X13839706Y-14007508D02*
X13858753Y-13997984D01*
X13858753Y-13997984D02*
X13896848Y-13997984D01*
X13896848Y-13997984D02*
X13915896Y-14007508D01*
X13915896Y-14007508D02*
X13925420Y-14017031D01*
X13925420Y-14017031D02*
X13934944Y-14036079D01*
X13934944Y-14036079D02*
X13934944Y-14045603D01*
X13934944Y-14045603D02*
X13925420Y-14064650D01*
X13925420Y-14064650D02*
X13915896Y-14074174D01*
X13915896Y-14074174D02*
X13896848Y-14083698D01*
X13896848Y-14083698D02*
X13858753Y-14083698D01*
X13858753Y-14083698D02*
X13839706Y-14093222D01*
X13839706Y-14093222D02*
X13830182Y-14102746D01*
X13830182Y-14102746D02*
X13820658Y-14121793D01*
X13820658Y-14121793D02*
X13820658Y-14159888D01*
X13820658Y-14159888D02*
X13830182Y-14178936D01*
X13830182Y-14178936D02*
X13839706Y-14188460D01*
X13839706Y-14188460D02*
X13858753Y-14197984D01*
X13858753Y-14197984D02*
X13896848Y-14197984D01*
X13896848Y-14197984D02*
X13915896Y-14188460D01*
X13915896Y-14188460D02*
X13925420Y-14178936D01*
X13925420Y-14178936D02*
X13934944Y-14159888D01*
X13934944Y-14159888D02*
X13934944Y-14121793D01*
X13934944Y-14121793D02*
X13925420Y-14102746D01*
X13925420Y-14102746D02*
X13915896Y-14093222D01*
X13915896Y-14093222D02*
X13896848Y-14083698D01*
X14011134Y-13997984D02*
X14011134Y-14036079D01*
X14087325Y-13997984D02*
X14087325Y-14036079D01*
X14382563Y-14274174D02*
X14373039Y-14264650D01*
X14373039Y-14264650D02*
X14353991Y-14236079D01*
X14353991Y-14236079D02*
X14344468Y-14217031D01*
X14344468Y-14217031D02*
X14334944Y-14188460D01*
X14334944Y-14188460D02*
X14325420Y-14140841D01*
X14325420Y-14140841D02*
X14325420Y-14102746D01*
X14325420Y-14102746D02*
X14334944Y-14055127D01*
X14334944Y-14055127D02*
X14344468Y-14026555D01*
X14344468Y-14026555D02*
X14353991Y-14007508D01*
X14353991Y-14007508D02*
X14373039Y-13978936D01*
X14373039Y-13978936D02*
X14382563Y-13969412D01*
X14553991Y-13997984D02*
X14458753Y-13997984D01*
X14458753Y-13997984D02*
X14449229Y-14093222D01*
X14449229Y-14093222D02*
X14458753Y-14083698D01*
X14458753Y-14083698D02*
X14477801Y-14074174D01*
X14477801Y-14074174D02*
X14525420Y-14074174D01*
X14525420Y-14074174D02*
X14544468Y-14083698D01*
X14544468Y-14083698D02*
X14553991Y-14093222D01*
X14553991Y-14093222D02*
X14563515Y-14112269D01*
X14563515Y-14112269D02*
X14563515Y-14159888D01*
X14563515Y-14159888D02*
X14553991Y-14178936D01*
X14553991Y-14178936D02*
X14544468Y-14188460D01*
X14544468Y-14188460D02*
X14525420Y-14197984D01*
X14525420Y-14197984D02*
X14477801Y-14197984D01*
X14477801Y-14197984D02*
X14458753Y-14188460D01*
X14458753Y-14188460D02*
X14449229Y-14178936D01*
X14801610Y-14197984D02*
X14801610Y-13997984D01*
X14887325Y-14197984D02*
X14887325Y-14093222D01*
X14887325Y-14093222D02*
X14877801Y-14074174D01*
X14877801Y-14074174D02*
X14858753Y-14064650D01*
X14858753Y-14064650D02*
X14830182Y-14064650D01*
X14830182Y-14064650D02*
X14811134Y-14074174D01*
X14811134Y-14074174D02*
X14801610Y-14083698D01*
X15011134Y-14197984D02*
X14992087Y-14188460D01*
X14992087Y-14188460D02*
X14982563Y-14178936D01*
X14982563Y-14178936D02*
X14973039Y-14159888D01*
X14973039Y-14159888D02*
X14973039Y-14102746D01*
X14973039Y-14102746D02*
X14982563Y-14083698D01*
X14982563Y-14083698D02*
X14992087Y-14074174D01*
X14992087Y-14074174D02*
X15011134Y-14064650D01*
X15011134Y-14064650D02*
X15039706Y-14064650D01*
X15039706Y-14064650D02*
X15058753Y-14074174D01*
X15058753Y-14074174D02*
X15068277Y-14083698D01*
X15068277Y-14083698D02*
X15077801Y-14102746D01*
X15077801Y-14102746D02*
X15077801Y-14159888D01*
X15077801Y-14159888D02*
X15068277Y-14178936D01*
X15068277Y-14178936D02*
X15058753Y-14188460D01*
X15058753Y-14188460D02*
X15039706Y-14197984D01*
X15039706Y-14197984D02*
X15011134Y-14197984D01*
X15192087Y-14197984D02*
X15173039Y-14188460D01*
X15173039Y-14188460D02*
X15163515Y-14169412D01*
X15163515Y-14169412D02*
X15163515Y-13997984D01*
X15344468Y-14188460D02*
X15325420Y-14197984D01*
X15325420Y-14197984D02*
X15287325Y-14197984D01*
X15287325Y-14197984D02*
X15268277Y-14188460D01*
X15268277Y-14188460D02*
X15258753Y-14169412D01*
X15258753Y-14169412D02*
X15258753Y-14093222D01*
X15258753Y-14093222D02*
X15268277Y-14074174D01*
X15268277Y-14074174D02*
X15287325Y-14064650D01*
X15287325Y-14064650D02*
X15325420Y-14064650D01*
X15325420Y-14064650D02*
X15344468Y-14074174D01*
X15344468Y-14074174D02*
X15353991Y-14093222D01*
X15353991Y-14093222D02*
X15353991Y-14112269D01*
X15353991Y-14112269D02*
X15258753Y-14131317D01*
X15430182Y-14188460D02*
X15449230Y-14197984D01*
X15449230Y-14197984D02*
X15487325Y-14197984D01*
X15487325Y-14197984D02*
X15506372Y-14188460D01*
X15506372Y-14188460D02*
X15515896Y-14169412D01*
X15515896Y-14169412D02*
X15515896Y-14159888D01*
X15515896Y-14159888D02*
X15506372Y-14140841D01*
X15506372Y-14140841D02*
X15487325Y-14131317D01*
X15487325Y-14131317D02*
X15458753Y-14131317D01*
X15458753Y-14131317D02*
X15439706Y-14121793D01*
X15439706Y-14121793D02*
X15430182Y-14102746D01*
X15430182Y-14102746D02*
X15430182Y-14093222D01*
X15430182Y-14093222D02*
X15439706Y-14074174D01*
X15439706Y-14074174D02*
X15458753Y-14064650D01*
X15458753Y-14064650D02*
X15487325Y-14064650D01*
X15487325Y-14064650D02*
X15506372Y-14074174D01*
X15582563Y-14274174D02*
X15592087Y-14264650D01*
X15592087Y-14264650D02*
X15611134Y-14236079D01*
X15611134Y-14236079D02*
X15620658Y-14217031D01*
X15620658Y-14217031D02*
X15630182Y-14188460D01*
X15630182Y-14188460D02*
X15639706Y-14140841D01*
X15639706Y-14140841D02*
X15639706Y-14102746D01*
X15639706Y-14102746D02*
X15630182Y-14055127D01*
X15630182Y-14055127D02*
X15620658Y-14026555D01*
X15620658Y-14026555D02*
X15611134Y-14007508D01*
X15611134Y-14007508D02*
X15592087Y-13978936D01*
X15592087Y-13978936D02*
X15582563Y-13969412D01*
D12*
X10787500Y-14350500D02*
X10787500Y-14390500D01*
X10767500Y-14370500D02*
X10807500Y-14370500D01*
D11*
X11106372Y-14261984D02*
X11125420Y-14261984D01*
X11125420Y-14261984D02*
X11144467Y-14271508D01*
X11144467Y-14271508D02*
X11153991Y-14281031D01*
X11153991Y-14281031D02*
X11163515Y-14300079D01*
X11163515Y-14300079D02*
X11173039Y-14338174D01*
X11173039Y-14338174D02*
X11173039Y-14385793D01*
X11173039Y-14385793D02*
X11163515Y-14423888D01*
X11163515Y-14423888D02*
X11153991Y-14442936D01*
X11153991Y-14442936D02*
X11144467Y-14452460D01*
X11144467Y-14452460D02*
X11125420Y-14461984D01*
X11125420Y-14461984D02*
X11106372Y-14461984D01*
X11106372Y-14461984D02*
X11087324Y-14452460D01*
X11087324Y-14452460D02*
X11077801Y-14442936D01*
X11077801Y-14442936D02*
X11068277Y-14423888D01*
X11068277Y-14423888D02*
X11058753Y-14385793D01*
X11058753Y-14385793D02*
X11058753Y-14338174D01*
X11058753Y-14338174D02*
X11068277Y-14300079D01*
X11068277Y-14300079D02*
X11077801Y-14281031D01*
X11077801Y-14281031D02*
X11087324Y-14271508D01*
X11087324Y-14271508D02*
X11106372Y-14261984D01*
X11258753Y-14442936D02*
X11268277Y-14452460D01*
X11268277Y-14452460D02*
X11258753Y-14461984D01*
X11258753Y-14461984D02*
X11249229Y-14452460D01*
X11249229Y-14452460D02*
X11258753Y-14442936D01*
X11258753Y-14442936D02*
X11258753Y-14461984D01*
X11439705Y-14328650D02*
X11439705Y-14461984D01*
X11392086Y-14252460D02*
X11344467Y-14395317D01*
X11344467Y-14395317D02*
X11468277Y-14395317D01*
X11582562Y-14261984D02*
X11601610Y-14261984D01*
X11601610Y-14261984D02*
X11620658Y-14271508D01*
X11620658Y-14271508D02*
X11630182Y-14281031D01*
X11630182Y-14281031D02*
X11639705Y-14300079D01*
X11639705Y-14300079D02*
X11649229Y-14338174D01*
X11649229Y-14338174D02*
X11649229Y-14385793D01*
X11649229Y-14385793D02*
X11639705Y-14423888D01*
X11639705Y-14423888D02*
X11630182Y-14442936D01*
X11630182Y-14442936D02*
X11620658Y-14452460D01*
X11620658Y-14452460D02*
X11601610Y-14461984D01*
X11601610Y-14461984D02*
X11582562Y-14461984D01*
X11582562Y-14461984D02*
X11563515Y-14452460D01*
X11563515Y-14452460D02*
X11553991Y-14442936D01*
X11553991Y-14442936D02*
X11544467Y-14423888D01*
X11544467Y-14423888D02*
X11534943Y-14385793D01*
X11534943Y-14385793D02*
X11534943Y-14338174D01*
X11534943Y-14338174D02*
X11544467Y-14300079D01*
X11544467Y-14300079D02*
X11553991Y-14281031D01*
X11553991Y-14281031D02*
X11563515Y-14271508D01*
X11563515Y-14271508D02*
X11582562Y-14261984D01*
X11773039Y-14261984D02*
X11792086Y-14261984D01*
X11792086Y-14261984D02*
X11811134Y-14271508D01*
X11811134Y-14271508D02*
X11820658Y-14281031D01*
X11820658Y-14281031D02*
X11830182Y-14300079D01*
X11830182Y-14300079D02*
X11839705Y-14338174D01*
X11839705Y-14338174D02*
X11839705Y-14385793D01*
X11839705Y-14385793D02*
X11830182Y-14423888D01*
X11830182Y-14423888D02*
X11820658Y-14442936D01*
X11820658Y-14442936D02*
X11811134Y-14452460D01*
X11811134Y-14452460D02*
X11792086Y-14461984D01*
X11792086Y-14461984D02*
X11773039Y-14461984D01*
X11773039Y-14461984D02*
X11753991Y-14452460D01*
X11753991Y-14452460D02*
X11744467Y-14442936D01*
X11744467Y-14442936D02*
X11734943Y-14423888D01*
X11734943Y-14423888D02*
X11725420Y-14385793D01*
X11725420Y-14385793D02*
X11725420Y-14338174D01*
X11725420Y-14338174D02*
X11734943Y-14300079D01*
X11734943Y-14300079D02*
X11744467Y-14281031D01*
X11744467Y-14281031D02*
X11753991Y-14271508D01*
X11753991Y-14271508D02*
X11773039Y-14261984D01*
X11925420Y-14461984D02*
X11925420Y-14328650D01*
X11925420Y-14347698D02*
X11934943Y-14338174D01*
X11934943Y-14338174D02*
X11953991Y-14328650D01*
X11953991Y-14328650D02*
X11982563Y-14328650D01*
X11982563Y-14328650D02*
X12001610Y-14338174D01*
X12001610Y-14338174D02*
X12011134Y-14357222D01*
X12011134Y-14357222D02*
X12011134Y-14461984D01*
X12011134Y-14357222D02*
X12020658Y-14338174D01*
X12020658Y-14338174D02*
X12039705Y-14328650D01*
X12039705Y-14328650D02*
X12068277Y-14328650D01*
X12068277Y-14328650D02*
X12087324Y-14338174D01*
X12087324Y-14338174D02*
X12096848Y-14357222D01*
X12096848Y-14357222D02*
X12096848Y-14461984D01*
X12192086Y-14461984D02*
X12192086Y-14328650D01*
X12192086Y-14347698D02*
X12201610Y-14338174D01*
X12201610Y-14338174D02*
X12220658Y-14328650D01*
X12220658Y-14328650D02*
X12249229Y-14328650D01*
X12249229Y-14328650D02*
X12268277Y-14338174D01*
X12268277Y-14338174D02*
X12277801Y-14357222D01*
X12277801Y-14357222D02*
X12277801Y-14461984D01*
X12277801Y-14357222D02*
X12287324Y-14338174D01*
X12287324Y-14338174D02*
X12306372Y-14328650D01*
X12306372Y-14328650D02*
X12334943Y-14328650D01*
X12334943Y-14328650D02*
X12353991Y-14338174D01*
X12353991Y-14338174D02*
X12363515Y-14357222D01*
X12363515Y-14357222D02*
X12363515Y-14461984D01*
X12753991Y-14252460D02*
X12582563Y-14509603D01*
X13011134Y-14261984D02*
X13030182Y-14261984D01*
X13030182Y-14261984D02*
X13049229Y-14271508D01*
X13049229Y-14271508D02*
X13058753Y-14281031D01*
X13058753Y-14281031D02*
X13068277Y-14300079D01*
X13068277Y-14300079D02*
X13077801Y-14338174D01*
X13077801Y-14338174D02*
X13077801Y-14385793D01*
X13077801Y-14385793D02*
X13068277Y-14423888D01*
X13068277Y-14423888D02*
X13058753Y-14442936D01*
X13058753Y-14442936D02*
X13049229Y-14452460D01*
X13049229Y-14452460D02*
X13030182Y-14461984D01*
X13030182Y-14461984D02*
X13011134Y-14461984D01*
X13011134Y-14461984D02*
X12992086Y-14452460D01*
X12992086Y-14452460D02*
X12982563Y-14442936D01*
X12982563Y-14442936D02*
X12973039Y-14423888D01*
X12973039Y-14423888D02*
X12963515Y-14385793D01*
X12963515Y-14385793D02*
X12963515Y-14338174D01*
X12963515Y-14338174D02*
X12973039Y-14300079D01*
X12973039Y-14300079D02*
X12982563Y-14281031D01*
X12982563Y-14281031D02*
X12992086Y-14271508D01*
X12992086Y-14271508D02*
X13011134Y-14261984D01*
X13163515Y-14442936D02*
X13173039Y-14452460D01*
X13173039Y-14452460D02*
X13163515Y-14461984D01*
X13163515Y-14461984D02*
X13153991Y-14452460D01*
X13153991Y-14452460D02*
X13163515Y-14442936D01*
X13163515Y-14442936D02*
X13163515Y-14461984D01*
X13296848Y-14261984D02*
X13315896Y-14261984D01*
X13315896Y-14261984D02*
X13334944Y-14271508D01*
X13334944Y-14271508D02*
X13344467Y-14281031D01*
X13344467Y-14281031D02*
X13353991Y-14300079D01*
X13353991Y-14300079D02*
X13363515Y-14338174D01*
X13363515Y-14338174D02*
X13363515Y-14385793D01*
X13363515Y-14385793D02*
X13353991Y-14423888D01*
X13353991Y-14423888D02*
X13344467Y-14442936D01*
X13344467Y-14442936D02*
X13334944Y-14452460D01*
X13334944Y-14452460D02*
X13315896Y-14461984D01*
X13315896Y-14461984D02*
X13296848Y-14461984D01*
X13296848Y-14461984D02*
X13277801Y-14452460D01*
X13277801Y-14452460D02*
X13268277Y-14442936D01*
X13268277Y-14442936D02*
X13258753Y-14423888D01*
X13258753Y-14423888D02*
X13249229Y-14385793D01*
X13249229Y-14385793D02*
X13249229Y-14338174D01*
X13249229Y-14338174D02*
X13258753Y-14300079D01*
X13258753Y-14300079D02*
X13268277Y-14281031D01*
X13268277Y-14281031D02*
X13277801Y-14271508D01*
X13277801Y-14271508D02*
X13296848Y-14261984D01*
X13553991Y-14461984D02*
X13439706Y-14461984D01*
X13496848Y-14461984D02*
X13496848Y-14261984D01*
X13496848Y-14261984D02*
X13477801Y-14290555D01*
X13477801Y-14290555D02*
X13458753Y-14309603D01*
X13458753Y-14309603D02*
X13439706Y-14319127D01*
X13734944Y-14261984D02*
X13639706Y-14261984D01*
X13639706Y-14261984D02*
X13630182Y-14357222D01*
X13630182Y-14357222D02*
X13639706Y-14347698D01*
X13639706Y-14347698D02*
X13658753Y-14338174D01*
X13658753Y-14338174D02*
X13706372Y-14338174D01*
X13706372Y-14338174D02*
X13725420Y-14347698D01*
X13725420Y-14347698D02*
X13734944Y-14357222D01*
X13734944Y-14357222D02*
X13744467Y-14376269D01*
X13744467Y-14376269D02*
X13744467Y-14423888D01*
X13744467Y-14423888D02*
X13734944Y-14442936D01*
X13734944Y-14442936D02*
X13725420Y-14452460D01*
X13725420Y-14452460D02*
X13706372Y-14461984D01*
X13706372Y-14461984D02*
X13658753Y-14461984D01*
X13658753Y-14461984D02*
X13639706Y-14452460D01*
X13639706Y-14452460D02*
X13630182Y-14442936D01*
X13811134Y-14261984D02*
X13944467Y-14261984D01*
X13944467Y-14261984D02*
X13858753Y-14461984D01*
X14011134Y-14261984D02*
X14011134Y-14300079D01*
X14087325Y-14261984D02*
X14087325Y-14300079D01*
X14382563Y-14538174D02*
X14373039Y-14528650D01*
X14373039Y-14528650D02*
X14353991Y-14500079D01*
X14353991Y-14500079D02*
X14344468Y-14481031D01*
X14344468Y-14481031D02*
X14334944Y-14452460D01*
X14334944Y-14452460D02*
X14325420Y-14404841D01*
X14325420Y-14404841D02*
X14325420Y-14366746D01*
X14325420Y-14366746D02*
X14334944Y-14319127D01*
X14334944Y-14319127D02*
X14344468Y-14290555D01*
X14344468Y-14290555D02*
X14353991Y-14271508D01*
X14353991Y-14271508D02*
X14373039Y-14242936D01*
X14373039Y-14242936D02*
X14382563Y-14233412D01*
X14439706Y-14261984D02*
X14563515Y-14261984D01*
X14563515Y-14261984D02*
X14496848Y-14338174D01*
X14496848Y-14338174D02*
X14525420Y-14338174D01*
X14525420Y-14338174D02*
X14544468Y-14347698D01*
X14544468Y-14347698D02*
X14553991Y-14357222D01*
X14553991Y-14357222D02*
X14563515Y-14376269D01*
X14563515Y-14376269D02*
X14563515Y-14423888D01*
X14563515Y-14423888D02*
X14553991Y-14442936D01*
X14553991Y-14442936D02*
X14544468Y-14452460D01*
X14544468Y-14452460D02*
X14525420Y-14461984D01*
X14525420Y-14461984D02*
X14468277Y-14461984D01*
X14468277Y-14461984D02*
X14449229Y-14452460D01*
X14449229Y-14452460D02*
X14439706Y-14442936D01*
X14801610Y-14461984D02*
X14801610Y-14261984D01*
X14887325Y-14461984D02*
X14887325Y-14357222D01*
X14887325Y-14357222D02*
X14877801Y-14338174D01*
X14877801Y-14338174D02*
X14858753Y-14328650D01*
X14858753Y-14328650D02*
X14830182Y-14328650D01*
X14830182Y-14328650D02*
X14811134Y-14338174D01*
X14811134Y-14338174D02*
X14801610Y-14347698D01*
X15011134Y-14461984D02*
X14992087Y-14452460D01*
X14992087Y-14452460D02*
X14982563Y-14442936D01*
X14982563Y-14442936D02*
X14973039Y-14423888D01*
X14973039Y-14423888D02*
X14973039Y-14366746D01*
X14973039Y-14366746D02*
X14982563Y-14347698D01*
X14982563Y-14347698D02*
X14992087Y-14338174D01*
X14992087Y-14338174D02*
X15011134Y-14328650D01*
X15011134Y-14328650D02*
X15039706Y-14328650D01*
X15039706Y-14328650D02*
X15058753Y-14338174D01*
X15058753Y-14338174D02*
X15068277Y-14347698D01*
X15068277Y-14347698D02*
X15077801Y-14366746D01*
X15077801Y-14366746D02*
X15077801Y-14423888D01*
X15077801Y-14423888D02*
X15068277Y-14442936D01*
X15068277Y-14442936D02*
X15058753Y-14452460D01*
X15058753Y-14452460D02*
X15039706Y-14461984D01*
X15039706Y-14461984D02*
X15011134Y-14461984D01*
X15192087Y-14461984D02*
X15173039Y-14452460D01*
X15173039Y-14452460D02*
X15163515Y-14433412D01*
X15163515Y-14433412D02*
X15163515Y-14261984D01*
X15344468Y-14452460D02*
X15325420Y-14461984D01*
X15325420Y-14461984D02*
X15287325Y-14461984D01*
X15287325Y-14461984D02*
X15268277Y-14452460D01*
X15268277Y-14452460D02*
X15258753Y-14433412D01*
X15258753Y-14433412D02*
X15258753Y-14357222D01*
X15258753Y-14357222D02*
X15268277Y-14338174D01*
X15268277Y-14338174D02*
X15287325Y-14328650D01*
X15287325Y-14328650D02*
X15325420Y-14328650D01*
X15325420Y-14328650D02*
X15344468Y-14338174D01*
X15344468Y-14338174D02*
X15353991Y-14357222D01*
X15353991Y-14357222D02*
X15353991Y-14376269D01*
X15353991Y-14376269D02*
X15258753Y-14395317D01*
X15430182Y-14452460D02*
X15449230Y-14461984D01*
X15449230Y-14461984D02*
X15487325Y-14461984D01*
X15487325Y-14461984D02*
X15506372Y-14452460D01*
X15506372Y-14452460D02*
X15515896Y-14433412D01*
X15515896Y-14433412D02*
X15515896Y-14423888D01*
X15515896Y-14423888D02*
X15506372Y-14404841D01*
X15506372Y-14404841D02*
X15487325Y-14395317D01*
X15487325Y-14395317D02*
X15458753Y-14395317D01*
X15458753Y-14395317D02*
X15439706Y-14385793D01*
X15439706Y-14385793D02*
X15430182Y-14366746D01*
X15430182Y-14366746D02*
X15430182Y-14357222D01*
X15430182Y-14357222D02*
X15439706Y-14338174D01*
X15439706Y-14338174D02*
X15458753Y-14328650D01*
X15458753Y-14328650D02*
X15487325Y-14328650D01*
X15487325Y-14328650D02*
X15506372Y-14338174D01*
X15582563Y-14538174D02*
X15592087Y-14528650D01*
X15592087Y-14528650D02*
X15611134Y-14500079D01*
X15611134Y-14500079D02*
X15620658Y-14481031D01*
X15620658Y-14481031D02*
X15630182Y-14452460D01*
X15630182Y-14452460D02*
X15639706Y-14404841D01*
X15639706Y-14404841D02*
X15639706Y-14366746D01*
X15639706Y-14366746D02*
X15630182Y-14319127D01*
X15630182Y-14319127D02*
X15620658Y-14290555D01*
X15620658Y-14290555D02*
X15611134Y-14271508D01*
X15611134Y-14271508D02*
X15592087Y-14242936D01*
X15592087Y-14242936D02*
X15582563Y-14233412D01*
D12*
X10801642Y-14648642D02*
X10801642Y-14620358D01*
X10773358Y-14620358D01*
X10773358Y-14648642D01*
X10801642Y-14648642D01*
D11*
X11106372Y-14525984D02*
X11125420Y-14525984D01*
X11125420Y-14525984D02*
X11144467Y-14535508D01*
X11144467Y-14535508D02*
X11153991Y-14545031D01*
X11153991Y-14545031D02*
X11163515Y-14564079D01*
X11163515Y-14564079D02*
X11173039Y-14602174D01*
X11173039Y-14602174D02*
X11173039Y-14649793D01*
X11173039Y-14649793D02*
X11163515Y-14687888D01*
X11163515Y-14687888D02*
X11153991Y-14706936D01*
X11153991Y-14706936D02*
X11144467Y-14716460D01*
X11144467Y-14716460D02*
X11125420Y-14725984D01*
X11125420Y-14725984D02*
X11106372Y-14725984D01*
X11106372Y-14725984D02*
X11087324Y-14716460D01*
X11087324Y-14716460D02*
X11077801Y-14706936D01*
X11077801Y-14706936D02*
X11068277Y-14687888D01*
X11068277Y-14687888D02*
X11058753Y-14649793D01*
X11058753Y-14649793D02*
X11058753Y-14602174D01*
X11058753Y-14602174D02*
X11068277Y-14564079D01*
X11068277Y-14564079D02*
X11077801Y-14545031D01*
X11077801Y-14545031D02*
X11087324Y-14535508D01*
X11087324Y-14535508D02*
X11106372Y-14525984D01*
X11258753Y-14706936D02*
X11268277Y-14716460D01*
X11268277Y-14716460D02*
X11258753Y-14725984D01*
X11258753Y-14725984D02*
X11249229Y-14716460D01*
X11249229Y-14716460D02*
X11258753Y-14706936D01*
X11258753Y-14706936D02*
X11258753Y-14725984D01*
X11439705Y-14592650D02*
X11439705Y-14725984D01*
X11392086Y-14516460D02*
X11344467Y-14659317D01*
X11344467Y-14659317D02*
X11468277Y-14659317D01*
X11582562Y-14525984D02*
X11601610Y-14525984D01*
X11601610Y-14525984D02*
X11620658Y-14535508D01*
X11620658Y-14535508D02*
X11630182Y-14545031D01*
X11630182Y-14545031D02*
X11639705Y-14564079D01*
X11639705Y-14564079D02*
X11649229Y-14602174D01*
X11649229Y-14602174D02*
X11649229Y-14649793D01*
X11649229Y-14649793D02*
X11639705Y-14687888D01*
X11639705Y-14687888D02*
X11630182Y-14706936D01*
X11630182Y-14706936D02*
X11620658Y-14716460D01*
X11620658Y-14716460D02*
X11601610Y-14725984D01*
X11601610Y-14725984D02*
X11582562Y-14725984D01*
X11582562Y-14725984D02*
X11563515Y-14716460D01*
X11563515Y-14716460D02*
X11553991Y-14706936D01*
X11553991Y-14706936D02*
X11544467Y-14687888D01*
X11544467Y-14687888D02*
X11534943Y-14649793D01*
X11534943Y-14649793D02*
X11534943Y-14602174D01*
X11534943Y-14602174D02*
X11544467Y-14564079D01*
X11544467Y-14564079D02*
X11553991Y-14545031D01*
X11553991Y-14545031D02*
X11563515Y-14535508D01*
X11563515Y-14535508D02*
X11582562Y-14525984D01*
X11773039Y-14525984D02*
X11792086Y-14525984D01*
X11792086Y-14525984D02*
X11811134Y-14535508D01*
X11811134Y-14535508D02*
X11820658Y-14545031D01*
X11820658Y-14545031D02*
X11830182Y-14564079D01*
X11830182Y-14564079D02*
X11839705Y-14602174D01*
X11839705Y-14602174D02*
X11839705Y-14649793D01*
X11839705Y-14649793D02*
X11830182Y-14687888D01*
X11830182Y-14687888D02*
X11820658Y-14706936D01*
X11820658Y-14706936D02*
X11811134Y-14716460D01*
X11811134Y-14716460D02*
X11792086Y-14725984D01*
X11792086Y-14725984D02*
X11773039Y-14725984D01*
X11773039Y-14725984D02*
X11753991Y-14716460D01*
X11753991Y-14716460D02*
X11744467Y-14706936D01*
X11744467Y-14706936D02*
X11734943Y-14687888D01*
X11734943Y-14687888D02*
X11725420Y-14649793D01*
X11725420Y-14649793D02*
X11725420Y-14602174D01*
X11725420Y-14602174D02*
X11734943Y-14564079D01*
X11734943Y-14564079D02*
X11744467Y-14545031D01*
X11744467Y-14545031D02*
X11753991Y-14535508D01*
X11753991Y-14535508D02*
X11773039Y-14525984D01*
X11925420Y-14725984D02*
X11925420Y-14592650D01*
X11925420Y-14611698D02*
X11934943Y-14602174D01*
X11934943Y-14602174D02*
X11953991Y-14592650D01*
X11953991Y-14592650D02*
X11982563Y-14592650D01*
X11982563Y-14592650D02*
X12001610Y-14602174D01*
X12001610Y-14602174D02*
X12011134Y-14621222D01*
X12011134Y-14621222D02*
X12011134Y-14725984D01*
X12011134Y-14621222D02*
X12020658Y-14602174D01*
X12020658Y-14602174D02*
X12039705Y-14592650D01*
X12039705Y-14592650D02*
X12068277Y-14592650D01*
X12068277Y-14592650D02*
X12087324Y-14602174D01*
X12087324Y-14602174D02*
X12096848Y-14621222D01*
X12096848Y-14621222D02*
X12096848Y-14725984D01*
X12192086Y-14725984D02*
X12192086Y-14592650D01*
X12192086Y-14611698D02*
X12201610Y-14602174D01*
X12201610Y-14602174D02*
X12220658Y-14592650D01*
X12220658Y-14592650D02*
X12249229Y-14592650D01*
X12249229Y-14592650D02*
X12268277Y-14602174D01*
X12268277Y-14602174D02*
X12277801Y-14621222D01*
X12277801Y-14621222D02*
X12277801Y-14725984D01*
X12277801Y-14621222D02*
X12287324Y-14602174D01*
X12287324Y-14602174D02*
X12306372Y-14592650D01*
X12306372Y-14592650D02*
X12334943Y-14592650D01*
X12334943Y-14592650D02*
X12353991Y-14602174D01*
X12353991Y-14602174D02*
X12363515Y-14621222D01*
X12363515Y-14621222D02*
X12363515Y-14725984D01*
X12753991Y-14516460D02*
X12582563Y-14773603D01*
X13011134Y-14525984D02*
X13030182Y-14525984D01*
X13030182Y-14525984D02*
X13049229Y-14535508D01*
X13049229Y-14535508D02*
X13058753Y-14545031D01*
X13058753Y-14545031D02*
X13068277Y-14564079D01*
X13068277Y-14564079D02*
X13077801Y-14602174D01*
X13077801Y-14602174D02*
X13077801Y-14649793D01*
X13077801Y-14649793D02*
X13068277Y-14687888D01*
X13068277Y-14687888D02*
X13058753Y-14706936D01*
X13058753Y-14706936D02*
X13049229Y-14716460D01*
X13049229Y-14716460D02*
X13030182Y-14725984D01*
X13030182Y-14725984D02*
X13011134Y-14725984D01*
X13011134Y-14725984D02*
X12992086Y-14716460D01*
X12992086Y-14716460D02*
X12982563Y-14706936D01*
X12982563Y-14706936D02*
X12973039Y-14687888D01*
X12973039Y-14687888D02*
X12963515Y-14649793D01*
X12963515Y-14649793D02*
X12963515Y-14602174D01*
X12963515Y-14602174D02*
X12973039Y-14564079D01*
X12973039Y-14564079D02*
X12982563Y-14545031D01*
X12982563Y-14545031D02*
X12992086Y-14535508D01*
X12992086Y-14535508D02*
X13011134Y-14525984D01*
X13163515Y-14706936D02*
X13173039Y-14716460D01*
X13173039Y-14716460D02*
X13163515Y-14725984D01*
X13163515Y-14725984D02*
X13153991Y-14716460D01*
X13153991Y-14716460D02*
X13163515Y-14706936D01*
X13163515Y-14706936D02*
X13163515Y-14725984D01*
X13296848Y-14525984D02*
X13315896Y-14525984D01*
X13315896Y-14525984D02*
X13334944Y-14535508D01*
X13334944Y-14535508D02*
X13344467Y-14545031D01*
X13344467Y-14545031D02*
X13353991Y-14564079D01*
X13353991Y-14564079D02*
X13363515Y-14602174D01*
X13363515Y-14602174D02*
X13363515Y-14649793D01*
X13363515Y-14649793D02*
X13353991Y-14687888D01*
X13353991Y-14687888D02*
X13344467Y-14706936D01*
X13344467Y-14706936D02*
X13334944Y-14716460D01*
X13334944Y-14716460D02*
X13315896Y-14725984D01*
X13315896Y-14725984D02*
X13296848Y-14725984D01*
X13296848Y-14725984D02*
X13277801Y-14716460D01*
X13277801Y-14716460D02*
X13268277Y-14706936D01*
X13268277Y-14706936D02*
X13258753Y-14687888D01*
X13258753Y-14687888D02*
X13249229Y-14649793D01*
X13249229Y-14649793D02*
X13249229Y-14602174D01*
X13249229Y-14602174D02*
X13258753Y-14564079D01*
X13258753Y-14564079D02*
X13268277Y-14545031D01*
X13268277Y-14545031D02*
X13277801Y-14535508D01*
X13277801Y-14535508D02*
X13296848Y-14525984D01*
X13553991Y-14725984D02*
X13439706Y-14725984D01*
X13496848Y-14725984D02*
X13496848Y-14525984D01*
X13496848Y-14525984D02*
X13477801Y-14554555D01*
X13477801Y-14554555D02*
X13458753Y-14573603D01*
X13458753Y-14573603D02*
X13439706Y-14583127D01*
X13734944Y-14525984D02*
X13639706Y-14525984D01*
X13639706Y-14525984D02*
X13630182Y-14621222D01*
X13630182Y-14621222D02*
X13639706Y-14611698D01*
X13639706Y-14611698D02*
X13658753Y-14602174D01*
X13658753Y-14602174D02*
X13706372Y-14602174D01*
X13706372Y-14602174D02*
X13725420Y-14611698D01*
X13725420Y-14611698D02*
X13734944Y-14621222D01*
X13734944Y-14621222D02*
X13744467Y-14640269D01*
X13744467Y-14640269D02*
X13744467Y-14687888D01*
X13744467Y-14687888D02*
X13734944Y-14706936D01*
X13734944Y-14706936D02*
X13725420Y-14716460D01*
X13725420Y-14716460D02*
X13706372Y-14725984D01*
X13706372Y-14725984D02*
X13658753Y-14725984D01*
X13658753Y-14725984D02*
X13639706Y-14716460D01*
X13639706Y-14716460D02*
X13630182Y-14706936D01*
X13811134Y-14525984D02*
X13944467Y-14525984D01*
X13944467Y-14525984D02*
X13858753Y-14725984D01*
X14011134Y-14525984D02*
X14011134Y-14564079D01*
X14087325Y-14525984D02*
X14087325Y-14564079D01*
X14382563Y-14802174D02*
X14373039Y-14792650D01*
X14373039Y-14792650D02*
X14353991Y-14764079D01*
X14353991Y-14764079D02*
X14344468Y-14745031D01*
X14344468Y-14745031D02*
X14334944Y-14716460D01*
X14334944Y-14716460D02*
X14325420Y-14668841D01*
X14325420Y-14668841D02*
X14325420Y-14630746D01*
X14325420Y-14630746D02*
X14334944Y-14583127D01*
X14334944Y-14583127D02*
X14344468Y-14554555D01*
X14344468Y-14554555D02*
X14353991Y-14535508D01*
X14353991Y-14535508D02*
X14373039Y-14506936D01*
X14373039Y-14506936D02*
X14382563Y-14497412D01*
X14563515Y-14725984D02*
X14449229Y-14725984D01*
X14506372Y-14725984D02*
X14506372Y-14525984D01*
X14506372Y-14525984D02*
X14487325Y-14554555D01*
X14487325Y-14554555D02*
X14468277Y-14573603D01*
X14468277Y-14573603D02*
X14449229Y-14583127D01*
X14734944Y-14525984D02*
X14696848Y-14525984D01*
X14696848Y-14525984D02*
X14677801Y-14535508D01*
X14677801Y-14535508D02*
X14668277Y-14545031D01*
X14668277Y-14545031D02*
X14649229Y-14573603D01*
X14649229Y-14573603D02*
X14639706Y-14611698D01*
X14639706Y-14611698D02*
X14639706Y-14687888D01*
X14639706Y-14687888D02*
X14649229Y-14706936D01*
X14649229Y-14706936D02*
X14658753Y-14716460D01*
X14658753Y-14716460D02*
X14677801Y-14725984D01*
X14677801Y-14725984D02*
X14715896Y-14725984D01*
X14715896Y-14725984D02*
X14734944Y-14716460D01*
X14734944Y-14716460D02*
X14744468Y-14706936D01*
X14744468Y-14706936D02*
X14753991Y-14687888D01*
X14753991Y-14687888D02*
X14753991Y-14640269D01*
X14753991Y-14640269D02*
X14744468Y-14621222D01*
X14744468Y-14621222D02*
X14734944Y-14611698D01*
X14734944Y-14611698D02*
X14715896Y-14602174D01*
X14715896Y-14602174D02*
X14677801Y-14602174D01*
X14677801Y-14602174D02*
X14658753Y-14611698D01*
X14658753Y-14611698D02*
X14649229Y-14621222D01*
X14649229Y-14621222D02*
X14639706Y-14640269D01*
X14992087Y-14725984D02*
X14992087Y-14525984D01*
X15077801Y-14725984D02*
X15077801Y-14621222D01*
X15077801Y-14621222D02*
X15068277Y-14602174D01*
X15068277Y-14602174D02*
X15049230Y-14592650D01*
X15049230Y-14592650D02*
X15020658Y-14592650D01*
X15020658Y-14592650D02*
X15001610Y-14602174D01*
X15001610Y-14602174D02*
X14992087Y-14611698D01*
X15201610Y-14725984D02*
X15182563Y-14716460D01*
X15182563Y-14716460D02*
X15173039Y-14706936D01*
X15173039Y-14706936D02*
X15163515Y-14687888D01*
X15163515Y-14687888D02*
X15163515Y-14630746D01*
X15163515Y-14630746D02*
X15173039Y-14611698D01*
X15173039Y-14611698D02*
X15182563Y-14602174D01*
X15182563Y-14602174D02*
X15201610Y-14592650D01*
X15201610Y-14592650D02*
X15230182Y-14592650D01*
X15230182Y-14592650D02*
X15249230Y-14602174D01*
X15249230Y-14602174D02*
X15258753Y-14611698D01*
X15258753Y-14611698D02*
X15268277Y-14630746D01*
X15268277Y-14630746D02*
X15268277Y-14687888D01*
X15268277Y-14687888D02*
X15258753Y-14706936D01*
X15258753Y-14706936D02*
X15249230Y-14716460D01*
X15249230Y-14716460D02*
X15230182Y-14725984D01*
X15230182Y-14725984D02*
X15201610Y-14725984D01*
X15382563Y-14725984D02*
X15363515Y-14716460D01*
X15363515Y-14716460D02*
X15353991Y-14697412D01*
X15353991Y-14697412D02*
X15353991Y-14525984D01*
X15534944Y-14716460D02*
X15515896Y-14725984D01*
X15515896Y-14725984D02*
X15477801Y-14725984D01*
X15477801Y-14725984D02*
X15458753Y-14716460D01*
X15458753Y-14716460D02*
X15449230Y-14697412D01*
X15449230Y-14697412D02*
X15449230Y-14621222D01*
X15449230Y-14621222D02*
X15458753Y-14602174D01*
X15458753Y-14602174D02*
X15477801Y-14592650D01*
X15477801Y-14592650D02*
X15515896Y-14592650D01*
X15515896Y-14592650D02*
X15534944Y-14602174D01*
X15534944Y-14602174D02*
X15544468Y-14621222D01*
X15544468Y-14621222D02*
X15544468Y-14640269D01*
X15544468Y-14640269D02*
X15449230Y-14659317D01*
X15620658Y-14716460D02*
X15639706Y-14725984D01*
X15639706Y-14725984D02*
X15677801Y-14725984D01*
X15677801Y-14725984D02*
X15696849Y-14716460D01*
X15696849Y-14716460D02*
X15706372Y-14697412D01*
X15706372Y-14697412D02*
X15706372Y-14687888D01*
X15706372Y-14687888D02*
X15696849Y-14668841D01*
X15696849Y-14668841D02*
X15677801Y-14659317D01*
X15677801Y-14659317D02*
X15649230Y-14659317D01*
X15649230Y-14659317D02*
X15630182Y-14649793D01*
X15630182Y-14649793D02*
X15620658Y-14630746D01*
X15620658Y-14630746D02*
X15620658Y-14621222D01*
X15620658Y-14621222D02*
X15630182Y-14602174D01*
X15630182Y-14602174D02*
X15649230Y-14592650D01*
X15649230Y-14592650D02*
X15677801Y-14592650D01*
X15677801Y-14592650D02*
X15696849Y-14602174D01*
X15773039Y-14802174D02*
X15782563Y-14792650D01*
X15782563Y-14792650D02*
X15801611Y-14764079D01*
X15801611Y-14764079D02*
X15811134Y-14745031D01*
X15811134Y-14745031D02*
X15820658Y-14716460D01*
X15820658Y-14716460D02*
X15830182Y-14668841D01*
X15830182Y-14668841D02*
X15830182Y-14630746D01*
X15830182Y-14630746D02*
X15820658Y-14583127D01*
X15820658Y-14583127D02*
X15811134Y-14554555D01*
X15811134Y-14554555D02*
X15801611Y-14535508D01*
X15801611Y-14535508D02*
X15782563Y-14506936D01*
X15782563Y-14506936D02*
X15773039Y-14497412D01*
D12*
X10782500Y-14923500D02*
X10807500Y-14898500D01*
X10782500Y-14873500D01*
X10757500Y-14898500D01*
X10782500Y-14923500D01*
D11*
X11106372Y-14789984D02*
X11125420Y-14789984D01*
X11125420Y-14789984D02*
X11144467Y-14799508D01*
X11144467Y-14799508D02*
X11153991Y-14809031D01*
X11153991Y-14809031D02*
X11163515Y-14828079D01*
X11163515Y-14828079D02*
X11173039Y-14866174D01*
X11173039Y-14866174D02*
X11173039Y-14913793D01*
X11173039Y-14913793D02*
X11163515Y-14951888D01*
X11163515Y-14951888D02*
X11153991Y-14970936D01*
X11153991Y-14970936D02*
X11144467Y-14980460D01*
X11144467Y-14980460D02*
X11125420Y-14989984D01*
X11125420Y-14989984D02*
X11106372Y-14989984D01*
X11106372Y-14989984D02*
X11087324Y-14980460D01*
X11087324Y-14980460D02*
X11077801Y-14970936D01*
X11077801Y-14970936D02*
X11068277Y-14951888D01*
X11068277Y-14951888D02*
X11058753Y-14913793D01*
X11058753Y-14913793D02*
X11058753Y-14866174D01*
X11058753Y-14866174D02*
X11068277Y-14828079D01*
X11068277Y-14828079D02*
X11077801Y-14809031D01*
X11077801Y-14809031D02*
X11087324Y-14799508D01*
X11087324Y-14799508D02*
X11106372Y-14789984D01*
X11258753Y-14970936D02*
X11268277Y-14980460D01*
X11268277Y-14980460D02*
X11258753Y-14989984D01*
X11258753Y-14989984D02*
X11249229Y-14980460D01*
X11249229Y-14980460D02*
X11258753Y-14970936D01*
X11258753Y-14970936D02*
X11258753Y-14989984D01*
X11449229Y-14789984D02*
X11353991Y-14789984D01*
X11353991Y-14789984D02*
X11344467Y-14885222D01*
X11344467Y-14885222D02*
X11353991Y-14875698D01*
X11353991Y-14875698D02*
X11373039Y-14866174D01*
X11373039Y-14866174D02*
X11420658Y-14866174D01*
X11420658Y-14866174D02*
X11439705Y-14875698D01*
X11439705Y-14875698D02*
X11449229Y-14885222D01*
X11449229Y-14885222D02*
X11458753Y-14904269D01*
X11458753Y-14904269D02*
X11458753Y-14951888D01*
X11458753Y-14951888D02*
X11449229Y-14970936D01*
X11449229Y-14970936D02*
X11439705Y-14980460D01*
X11439705Y-14980460D02*
X11420658Y-14989984D01*
X11420658Y-14989984D02*
X11373039Y-14989984D01*
X11373039Y-14989984D02*
X11353991Y-14980460D01*
X11353991Y-14980460D02*
X11344467Y-14970936D01*
X11582562Y-14789984D02*
X11601610Y-14789984D01*
X11601610Y-14789984D02*
X11620658Y-14799508D01*
X11620658Y-14799508D02*
X11630182Y-14809031D01*
X11630182Y-14809031D02*
X11639705Y-14828079D01*
X11639705Y-14828079D02*
X11649229Y-14866174D01*
X11649229Y-14866174D02*
X11649229Y-14913793D01*
X11649229Y-14913793D02*
X11639705Y-14951888D01*
X11639705Y-14951888D02*
X11630182Y-14970936D01*
X11630182Y-14970936D02*
X11620658Y-14980460D01*
X11620658Y-14980460D02*
X11601610Y-14989984D01*
X11601610Y-14989984D02*
X11582562Y-14989984D01*
X11582562Y-14989984D02*
X11563515Y-14980460D01*
X11563515Y-14980460D02*
X11553991Y-14970936D01*
X11553991Y-14970936D02*
X11544467Y-14951888D01*
X11544467Y-14951888D02*
X11534943Y-14913793D01*
X11534943Y-14913793D02*
X11534943Y-14866174D01*
X11534943Y-14866174D02*
X11544467Y-14828079D01*
X11544467Y-14828079D02*
X11553991Y-14809031D01*
X11553991Y-14809031D02*
X11563515Y-14799508D01*
X11563515Y-14799508D02*
X11582562Y-14789984D01*
X11773039Y-14789984D02*
X11792086Y-14789984D01*
X11792086Y-14789984D02*
X11811134Y-14799508D01*
X11811134Y-14799508D02*
X11820658Y-14809031D01*
X11820658Y-14809031D02*
X11830182Y-14828079D01*
X11830182Y-14828079D02*
X11839705Y-14866174D01*
X11839705Y-14866174D02*
X11839705Y-14913793D01*
X11839705Y-14913793D02*
X11830182Y-14951888D01*
X11830182Y-14951888D02*
X11820658Y-14970936D01*
X11820658Y-14970936D02*
X11811134Y-14980460D01*
X11811134Y-14980460D02*
X11792086Y-14989984D01*
X11792086Y-14989984D02*
X11773039Y-14989984D01*
X11773039Y-14989984D02*
X11753991Y-14980460D01*
X11753991Y-14980460D02*
X11744467Y-14970936D01*
X11744467Y-14970936D02*
X11734943Y-14951888D01*
X11734943Y-14951888D02*
X11725420Y-14913793D01*
X11725420Y-14913793D02*
X11725420Y-14866174D01*
X11725420Y-14866174D02*
X11734943Y-14828079D01*
X11734943Y-14828079D02*
X11744467Y-14809031D01*
X11744467Y-14809031D02*
X11753991Y-14799508D01*
X11753991Y-14799508D02*
X11773039Y-14789984D01*
X11925420Y-14989984D02*
X11925420Y-14856650D01*
X11925420Y-14875698D02*
X11934943Y-14866174D01*
X11934943Y-14866174D02*
X11953991Y-14856650D01*
X11953991Y-14856650D02*
X11982563Y-14856650D01*
X11982563Y-14856650D02*
X12001610Y-14866174D01*
X12001610Y-14866174D02*
X12011134Y-14885222D01*
X12011134Y-14885222D02*
X12011134Y-14989984D01*
X12011134Y-14885222D02*
X12020658Y-14866174D01*
X12020658Y-14866174D02*
X12039705Y-14856650D01*
X12039705Y-14856650D02*
X12068277Y-14856650D01*
X12068277Y-14856650D02*
X12087324Y-14866174D01*
X12087324Y-14866174D02*
X12096848Y-14885222D01*
X12096848Y-14885222D02*
X12096848Y-14989984D01*
X12192086Y-14989984D02*
X12192086Y-14856650D01*
X12192086Y-14875698D02*
X12201610Y-14866174D01*
X12201610Y-14866174D02*
X12220658Y-14856650D01*
X12220658Y-14856650D02*
X12249229Y-14856650D01*
X12249229Y-14856650D02*
X12268277Y-14866174D01*
X12268277Y-14866174D02*
X12277801Y-14885222D01*
X12277801Y-14885222D02*
X12277801Y-14989984D01*
X12277801Y-14885222D02*
X12287324Y-14866174D01*
X12287324Y-14866174D02*
X12306372Y-14856650D01*
X12306372Y-14856650D02*
X12334943Y-14856650D01*
X12334943Y-14856650D02*
X12353991Y-14866174D01*
X12353991Y-14866174D02*
X12363515Y-14885222D01*
X12363515Y-14885222D02*
X12363515Y-14989984D01*
X12753991Y-14780460D02*
X12582563Y-15037603D01*
X13011134Y-14789984D02*
X13030182Y-14789984D01*
X13030182Y-14789984D02*
X13049229Y-14799508D01*
X13049229Y-14799508D02*
X13058753Y-14809031D01*
X13058753Y-14809031D02*
X13068277Y-14828079D01*
X13068277Y-14828079D02*
X13077801Y-14866174D01*
X13077801Y-14866174D02*
X13077801Y-14913793D01*
X13077801Y-14913793D02*
X13068277Y-14951888D01*
X13068277Y-14951888D02*
X13058753Y-14970936D01*
X13058753Y-14970936D02*
X13049229Y-14980460D01*
X13049229Y-14980460D02*
X13030182Y-14989984D01*
X13030182Y-14989984D02*
X13011134Y-14989984D01*
X13011134Y-14989984D02*
X12992086Y-14980460D01*
X12992086Y-14980460D02*
X12982563Y-14970936D01*
X12982563Y-14970936D02*
X12973039Y-14951888D01*
X12973039Y-14951888D02*
X12963515Y-14913793D01*
X12963515Y-14913793D02*
X12963515Y-14866174D01*
X12963515Y-14866174D02*
X12973039Y-14828079D01*
X12973039Y-14828079D02*
X12982563Y-14809031D01*
X12982563Y-14809031D02*
X12992086Y-14799508D01*
X12992086Y-14799508D02*
X13011134Y-14789984D01*
X13163515Y-14970936D02*
X13173039Y-14980460D01*
X13173039Y-14980460D02*
X13163515Y-14989984D01*
X13163515Y-14989984D02*
X13153991Y-14980460D01*
X13153991Y-14980460D02*
X13163515Y-14970936D01*
X13163515Y-14970936D02*
X13163515Y-14989984D01*
X13296848Y-14789984D02*
X13315896Y-14789984D01*
X13315896Y-14789984D02*
X13334944Y-14799508D01*
X13334944Y-14799508D02*
X13344467Y-14809031D01*
X13344467Y-14809031D02*
X13353991Y-14828079D01*
X13353991Y-14828079D02*
X13363515Y-14866174D01*
X13363515Y-14866174D02*
X13363515Y-14913793D01*
X13363515Y-14913793D02*
X13353991Y-14951888D01*
X13353991Y-14951888D02*
X13344467Y-14970936D01*
X13344467Y-14970936D02*
X13334944Y-14980460D01*
X13334944Y-14980460D02*
X13315896Y-14989984D01*
X13315896Y-14989984D02*
X13296848Y-14989984D01*
X13296848Y-14989984D02*
X13277801Y-14980460D01*
X13277801Y-14980460D02*
X13268277Y-14970936D01*
X13268277Y-14970936D02*
X13258753Y-14951888D01*
X13258753Y-14951888D02*
X13249229Y-14913793D01*
X13249229Y-14913793D02*
X13249229Y-14866174D01*
X13249229Y-14866174D02*
X13258753Y-14828079D01*
X13258753Y-14828079D02*
X13268277Y-14809031D01*
X13268277Y-14809031D02*
X13277801Y-14799508D01*
X13277801Y-14799508D02*
X13296848Y-14789984D01*
X13553991Y-14989984D02*
X13439706Y-14989984D01*
X13496848Y-14989984D02*
X13496848Y-14789984D01*
X13496848Y-14789984D02*
X13477801Y-14818555D01*
X13477801Y-14818555D02*
X13458753Y-14837603D01*
X13458753Y-14837603D02*
X13439706Y-14847127D01*
X13649229Y-14989984D02*
X13687325Y-14989984D01*
X13687325Y-14989984D02*
X13706372Y-14980460D01*
X13706372Y-14980460D02*
X13715896Y-14970936D01*
X13715896Y-14970936D02*
X13734944Y-14942365D01*
X13734944Y-14942365D02*
X13744467Y-14904269D01*
X13744467Y-14904269D02*
X13744467Y-14828079D01*
X13744467Y-14828079D02*
X13734944Y-14809031D01*
X13734944Y-14809031D02*
X13725420Y-14799508D01*
X13725420Y-14799508D02*
X13706372Y-14789984D01*
X13706372Y-14789984D02*
X13668277Y-14789984D01*
X13668277Y-14789984D02*
X13649229Y-14799508D01*
X13649229Y-14799508D02*
X13639706Y-14809031D01*
X13639706Y-14809031D02*
X13630182Y-14828079D01*
X13630182Y-14828079D02*
X13630182Y-14875698D01*
X13630182Y-14875698D02*
X13639706Y-14894746D01*
X13639706Y-14894746D02*
X13649229Y-14904269D01*
X13649229Y-14904269D02*
X13668277Y-14913793D01*
X13668277Y-14913793D02*
X13706372Y-14913793D01*
X13706372Y-14913793D02*
X13725420Y-14904269D01*
X13725420Y-14904269D02*
X13734944Y-14894746D01*
X13734944Y-14894746D02*
X13744467Y-14875698D01*
X13811134Y-14789984D02*
X13944467Y-14789984D01*
X13944467Y-14789984D02*
X13858753Y-14989984D01*
X14011134Y-14789984D02*
X14011134Y-14828079D01*
X14087325Y-14789984D02*
X14087325Y-14828079D01*
X14382563Y-15066174D02*
X14373039Y-15056650D01*
X14373039Y-15056650D02*
X14353991Y-15028079D01*
X14353991Y-15028079D02*
X14344468Y-15009031D01*
X14344468Y-15009031D02*
X14334944Y-14980460D01*
X14334944Y-14980460D02*
X14325420Y-14932841D01*
X14325420Y-14932841D02*
X14325420Y-14894746D01*
X14325420Y-14894746D02*
X14334944Y-14847127D01*
X14334944Y-14847127D02*
X14344468Y-14818555D01*
X14344468Y-14818555D02*
X14353991Y-14799508D01*
X14353991Y-14799508D02*
X14373039Y-14770936D01*
X14373039Y-14770936D02*
X14382563Y-14761412D01*
X14496848Y-14789984D02*
X14515896Y-14789984D01*
X14515896Y-14789984D02*
X14534944Y-14799508D01*
X14534944Y-14799508D02*
X14544468Y-14809031D01*
X14544468Y-14809031D02*
X14553991Y-14828079D01*
X14553991Y-14828079D02*
X14563515Y-14866174D01*
X14563515Y-14866174D02*
X14563515Y-14913793D01*
X14563515Y-14913793D02*
X14553991Y-14951888D01*
X14553991Y-14951888D02*
X14544468Y-14970936D01*
X14544468Y-14970936D02*
X14534944Y-14980460D01*
X14534944Y-14980460D02*
X14515896Y-14989984D01*
X14515896Y-14989984D02*
X14496848Y-14989984D01*
X14496848Y-14989984D02*
X14477801Y-14980460D01*
X14477801Y-14980460D02*
X14468277Y-14970936D01*
X14468277Y-14970936D02*
X14458753Y-14951888D01*
X14458753Y-14951888D02*
X14449229Y-14913793D01*
X14449229Y-14913793D02*
X14449229Y-14866174D01*
X14449229Y-14866174D02*
X14458753Y-14828079D01*
X14458753Y-14828079D02*
X14468277Y-14809031D01*
X14468277Y-14809031D02*
X14477801Y-14799508D01*
X14477801Y-14799508D02*
X14496848Y-14789984D01*
X14801610Y-14989984D02*
X14801610Y-14789984D01*
X14887325Y-14989984D02*
X14887325Y-14885222D01*
X14887325Y-14885222D02*
X14877801Y-14866174D01*
X14877801Y-14866174D02*
X14858753Y-14856650D01*
X14858753Y-14856650D02*
X14830182Y-14856650D01*
X14830182Y-14856650D02*
X14811134Y-14866174D01*
X14811134Y-14866174D02*
X14801610Y-14875698D01*
X15011134Y-14989984D02*
X14992087Y-14980460D01*
X14992087Y-14980460D02*
X14982563Y-14970936D01*
X14982563Y-14970936D02*
X14973039Y-14951888D01*
X14973039Y-14951888D02*
X14973039Y-14894746D01*
X14973039Y-14894746D02*
X14982563Y-14875698D01*
X14982563Y-14875698D02*
X14992087Y-14866174D01*
X14992087Y-14866174D02*
X15011134Y-14856650D01*
X15011134Y-14856650D02*
X15039706Y-14856650D01*
X15039706Y-14856650D02*
X15058753Y-14866174D01*
X15058753Y-14866174D02*
X15068277Y-14875698D01*
X15068277Y-14875698D02*
X15077801Y-14894746D01*
X15077801Y-14894746D02*
X15077801Y-14951888D01*
X15077801Y-14951888D02*
X15068277Y-14970936D01*
X15068277Y-14970936D02*
X15058753Y-14980460D01*
X15058753Y-14980460D02*
X15039706Y-14989984D01*
X15039706Y-14989984D02*
X15011134Y-14989984D01*
X15192087Y-14989984D02*
X15173039Y-14980460D01*
X15173039Y-14980460D02*
X15163515Y-14961412D01*
X15163515Y-14961412D02*
X15163515Y-14789984D01*
X15344468Y-14980460D02*
X15325420Y-14989984D01*
X15325420Y-14989984D02*
X15287325Y-14989984D01*
X15287325Y-14989984D02*
X15268277Y-14980460D01*
X15268277Y-14980460D02*
X15258753Y-14961412D01*
X15258753Y-14961412D02*
X15258753Y-14885222D01*
X15258753Y-14885222D02*
X15268277Y-14866174D01*
X15268277Y-14866174D02*
X15287325Y-14856650D01*
X15287325Y-14856650D02*
X15325420Y-14856650D01*
X15325420Y-14856650D02*
X15344468Y-14866174D01*
X15344468Y-14866174D02*
X15353991Y-14885222D01*
X15353991Y-14885222D02*
X15353991Y-14904269D01*
X15353991Y-14904269D02*
X15258753Y-14923317D01*
X15430182Y-14980460D02*
X15449230Y-14989984D01*
X15449230Y-14989984D02*
X15487325Y-14989984D01*
X15487325Y-14989984D02*
X15506372Y-14980460D01*
X15506372Y-14980460D02*
X15515896Y-14961412D01*
X15515896Y-14961412D02*
X15515896Y-14951888D01*
X15515896Y-14951888D02*
X15506372Y-14932841D01*
X15506372Y-14932841D02*
X15487325Y-14923317D01*
X15487325Y-14923317D02*
X15458753Y-14923317D01*
X15458753Y-14923317D02*
X15439706Y-14913793D01*
X15439706Y-14913793D02*
X15430182Y-14894746D01*
X15430182Y-14894746D02*
X15430182Y-14885222D01*
X15430182Y-14885222D02*
X15439706Y-14866174D01*
X15439706Y-14866174D02*
X15458753Y-14856650D01*
X15458753Y-14856650D02*
X15487325Y-14856650D01*
X15487325Y-14856650D02*
X15506372Y-14866174D01*
X15753992Y-14913793D02*
X15906373Y-14913793D01*
X15830182Y-14989984D02*
X15830182Y-14837603D01*
X16144468Y-14809031D02*
X16153992Y-14799508D01*
X16153992Y-14799508D02*
X16173039Y-14789984D01*
X16173039Y-14789984D02*
X16220658Y-14789984D01*
X16220658Y-14789984D02*
X16239706Y-14799508D01*
X16239706Y-14799508D02*
X16249230Y-14809031D01*
X16249230Y-14809031D02*
X16258753Y-14828079D01*
X16258753Y-14828079D02*
X16258753Y-14847127D01*
X16258753Y-14847127D02*
X16249230Y-14875698D01*
X16249230Y-14875698D02*
X16134944Y-14989984D01*
X16134944Y-14989984D02*
X16258753Y-14989984D01*
X16487325Y-14980460D02*
X16506373Y-14989984D01*
X16506373Y-14989984D02*
X16544468Y-14989984D01*
X16544468Y-14989984D02*
X16563515Y-14980460D01*
X16563515Y-14980460D02*
X16573039Y-14961412D01*
X16573039Y-14961412D02*
X16573039Y-14951888D01*
X16573039Y-14951888D02*
X16563515Y-14932841D01*
X16563515Y-14932841D02*
X16544468Y-14923317D01*
X16544468Y-14923317D02*
X16515896Y-14923317D01*
X16515896Y-14923317D02*
X16496849Y-14913793D01*
X16496849Y-14913793D02*
X16487325Y-14894746D01*
X16487325Y-14894746D02*
X16487325Y-14885222D01*
X16487325Y-14885222D02*
X16496849Y-14866174D01*
X16496849Y-14866174D02*
X16515896Y-14856650D01*
X16515896Y-14856650D02*
X16544468Y-14856650D01*
X16544468Y-14856650D02*
X16563515Y-14866174D01*
X16687325Y-14989984D02*
X16668277Y-14980460D01*
X16668277Y-14980460D02*
X16658754Y-14961412D01*
X16658754Y-14961412D02*
X16658754Y-14789984D01*
X16792087Y-14989984D02*
X16773039Y-14980460D01*
X16773039Y-14980460D02*
X16763515Y-14970936D01*
X16763515Y-14970936D02*
X16753992Y-14951888D01*
X16753992Y-14951888D02*
X16753992Y-14894746D01*
X16753992Y-14894746D02*
X16763515Y-14875698D01*
X16763515Y-14875698D02*
X16773039Y-14866174D01*
X16773039Y-14866174D02*
X16792087Y-14856650D01*
X16792087Y-14856650D02*
X16820658Y-14856650D01*
X16820658Y-14856650D02*
X16839706Y-14866174D01*
X16839706Y-14866174D02*
X16849230Y-14875698D01*
X16849230Y-14875698D02*
X16858754Y-14894746D01*
X16858754Y-14894746D02*
X16858754Y-14951888D01*
X16858754Y-14951888D02*
X16849230Y-14970936D01*
X16849230Y-14970936D02*
X16839706Y-14980460D01*
X16839706Y-14980460D02*
X16820658Y-14989984D01*
X16820658Y-14989984D02*
X16792087Y-14989984D01*
X16915897Y-14856650D02*
X16992087Y-14856650D01*
X16944468Y-14789984D02*
X16944468Y-14961412D01*
X16944468Y-14961412D02*
X16953992Y-14980460D01*
X16953992Y-14980460D02*
X16973039Y-14989984D01*
X16973039Y-14989984D02*
X16992087Y-14989984D01*
X17049230Y-14980460D02*
X17068277Y-14989984D01*
X17068277Y-14989984D02*
X17106373Y-14989984D01*
X17106373Y-14989984D02*
X17125420Y-14980460D01*
X17125420Y-14980460D02*
X17134944Y-14961412D01*
X17134944Y-14961412D02*
X17134944Y-14951888D01*
X17134944Y-14951888D02*
X17125420Y-14932841D01*
X17125420Y-14932841D02*
X17106373Y-14923317D01*
X17106373Y-14923317D02*
X17077801Y-14923317D01*
X17077801Y-14923317D02*
X17058754Y-14913793D01*
X17058754Y-14913793D02*
X17049230Y-14894746D01*
X17049230Y-14894746D02*
X17049230Y-14885222D01*
X17049230Y-14885222D02*
X17058754Y-14866174D01*
X17058754Y-14866174D02*
X17077801Y-14856650D01*
X17077801Y-14856650D02*
X17106373Y-14856650D01*
X17106373Y-14856650D02*
X17125420Y-14866174D01*
X17201611Y-15066174D02*
X17211135Y-15056650D01*
X17211135Y-15056650D02*
X17230182Y-15028079D01*
X17230182Y-15028079D02*
X17239706Y-15009031D01*
X17239706Y-15009031D02*
X17249230Y-14980460D01*
X17249230Y-14980460D02*
X17258754Y-14932841D01*
X17258754Y-14932841D02*
X17258754Y-14894746D01*
X17258754Y-14894746D02*
X17249230Y-14847127D01*
X17249230Y-14847127D02*
X17239706Y-14818555D01*
X17239706Y-14818555D02*
X17230182Y-14799508D01*
X17230182Y-14799508D02*
X17211135Y-14770936D01*
X17211135Y-14770936D02*
X17201611Y-14761412D01*
D12*
X10752500Y-15135000D02*
X10807500Y-15190000D01*
X10807500Y-15135000D02*
X10752500Y-15190000D01*
X10807500Y-15162500D02*
G75*
G02*
X10752500Y-15162500I-27500J0D01*
G01*
X10752500Y-15162500D02*
G75*
G02*
X10807500Y-15162500I27500J0D01*
G01*
D11*
X11106372Y-15053984D02*
X11125420Y-15053984D01*
X11125420Y-15053984D02*
X11144467Y-15063508D01*
X11144467Y-15063508D02*
X11153991Y-15073031D01*
X11153991Y-15073031D02*
X11163515Y-15092079D01*
X11163515Y-15092079D02*
X11173039Y-15130174D01*
X11173039Y-15130174D02*
X11173039Y-15177793D01*
X11173039Y-15177793D02*
X11163515Y-15215888D01*
X11163515Y-15215888D02*
X11153991Y-15234936D01*
X11153991Y-15234936D02*
X11144467Y-15244460D01*
X11144467Y-15244460D02*
X11125420Y-15253984D01*
X11125420Y-15253984D02*
X11106372Y-15253984D01*
X11106372Y-15253984D02*
X11087324Y-15244460D01*
X11087324Y-15244460D02*
X11077801Y-15234936D01*
X11077801Y-15234936D02*
X11068277Y-15215888D01*
X11068277Y-15215888D02*
X11058753Y-15177793D01*
X11058753Y-15177793D02*
X11058753Y-15130174D01*
X11058753Y-15130174D02*
X11068277Y-15092079D01*
X11068277Y-15092079D02*
X11077801Y-15073031D01*
X11077801Y-15073031D02*
X11087324Y-15063508D01*
X11087324Y-15063508D02*
X11106372Y-15053984D01*
X11258753Y-15234936D02*
X11268277Y-15244460D01*
X11268277Y-15244460D02*
X11258753Y-15253984D01*
X11258753Y-15253984D02*
X11249229Y-15244460D01*
X11249229Y-15244460D02*
X11258753Y-15234936D01*
X11258753Y-15234936D02*
X11258753Y-15253984D01*
X11449229Y-15053984D02*
X11353991Y-15053984D01*
X11353991Y-15053984D02*
X11344467Y-15149222D01*
X11344467Y-15149222D02*
X11353991Y-15139698D01*
X11353991Y-15139698D02*
X11373039Y-15130174D01*
X11373039Y-15130174D02*
X11420658Y-15130174D01*
X11420658Y-15130174D02*
X11439705Y-15139698D01*
X11439705Y-15139698D02*
X11449229Y-15149222D01*
X11449229Y-15149222D02*
X11458753Y-15168269D01*
X11458753Y-15168269D02*
X11458753Y-15215888D01*
X11458753Y-15215888D02*
X11449229Y-15234936D01*
X11449229Y-15234936D02*
X11439705Y-15244460D01*
X11439705Y-15244460D02*
X11420658Y-15253984D01*
X11420658Y-15253984D02*
X11373039Y-15253984D01*
X11373039Y-15253984D02*
X11353991Y-15244460D01*
X11353991Y-15244460D02*
X11344467Y-15234936D01*
X11639705Y-15053984D02*
X11544467Y-15053984D01*
X11544467Y-15053984D02*
X11534943Y-15149222D01*
X11534943Y-15149222D02*
X11544467Y-15139698D01*
X11544467Y-15139698D02*
X11563515Y-15130174D01*
X11563515Y-15130174D02*
X11611134Y-15130174D01*
X11611134Y-15130174D02*
X11630182Y-15139698D01*
X11630182Y-15139698D02*
X11639705Y-15149222D01*
X11639705Y-15149222D02*
X11649229Y-15168269D01*
X11649229Y-15168269D02*
X11649229Y-15215888D01*
X11649229Y-15215888D02*
X11639705Y-15234936D01*
X11639705Y-15234936D02*
X11630182Y-15244460D01*
X11630182Y-15244460D02*
X11611134Y-15253984D01*
X11611134Y-15253984D02*
X11563515Y-15253984D01*
X11563515Y-15253984D02*
X11544467Y-15244460D01*
X11544467Y-15244460D02*
X11534943Y-15234936D01*
X11773039Y-15053984D02*
X11792086Y-15053984D01*
X11792086Y-15053984D02*
X11811134Y-15063508D01*
X11811134Y-15063508D02*
X11820658Y-15073031D01*
X11820658Y-15073031D02*
X11830182Y-15092079D01*
X11830182Y-15092079D02*
X11839705Y-15130174D01*
X11839705Y-15130174D02*
X11839705Y-15177793D01*
X11839705Y-15177793D02*
X11830182Y-15215888D01*
X11830182Y-15215888D02*
X11820658Y-15234936D01*
X11820658Y-15234936D02*
X11811134Y-15244460D01*
X11811134Y-15244460D02*
X11792086Y-15253984D01*
X11792086Y-15253984D02*
X11773039Y-15253984D01*
X11773039Y-15253984D02*
X11753991Y-15244460D01*
X11753991Y-15244460D02*
X11744467Y-15234936D01*
X11744467Y-15234936D02*
X11734943Y-15215888D01*
X11734943Y-15215888D02*
X11725420Y-15177793D01*
X11725420Y-15177793D02*
X11725420Y-15130174D01*
X11725420Y-15130174D02*
X11734943Y-15092079D01*
X11734943Y-15092079D02*
X11744467Y-15073031D01*
X11744467Y-15073031D02*
X11753991Y-15063508D01*
X11753991Y-15063508D02*
X11773039Y-15053984D01*
X11925420Y-15253984D02*
X11925420Y-15120650D01*
X11925420Y-15139698D02*
X11934943Y-15130174D01*
X11934943Y-15130174D02*
X11953991Y-15120650D01*
X11953991Y-15120650D02*
X11982563Y-15120650D01*
X11982563Y-15120650D02*
X12001610Y-15130174D01*
X12001610Y-15130174D02*
X12011134Y-15149222D01*
X12011134Y-15149222D02*
X12011134Y-15253984D01*
X12011134Y-15149222D02*
X12020658Y-15130174D01*
X12020658Y-15130174D02*
X12039705Y-15120650D01*
X12039705Y-15120650D02*
X12068277Y-15120650D01*
X12068277Y-15120650D02*
X12087324Y-15130174D01*
X12087324Y-15130174D02*
X12096848Y-15149222D01*
X12096848Y-15149222D02*
X12096848Y-15253984D01*
X12192086Y-15253984D02*
X12192086Y-15120650D01*
X12192086Y-15139698D02*
X12201610Y-15130174D01*
X12201610Y-15130174D02*
X12220658Y-15120650D01*
X12220658Y-15120650D02*
X12249229Y-15120650D01*
X12249229Y-15120650D02*
X12268277Y-15130174D01*
X12268277Y-15130174D02*
X12277801Y-15149222D01*
X12277801Y-15149222D02*
X12277801Y-15253984D01*
X12277801Y-15149222D02*
X12287324Y-15130174D01*
X12287324Y-15130174D02*
X12306372Y-15120650D01*
X12306372Y-15120650D02*
X12334943Y-15120650D01*
X12334943Y-15120650D02*
X12353991Y-15130174D01*
X12353991Y-15130174D02*
X12363515Y-15149222D01*
X12363515Y-15149222D02*
X12363515Y-15253984D01*
X12753991Y-15044460D02*
X12582563Y-15301603D01*
X13011134Y-15053984D02*
X13030182Y-15053984D01*
X13030182Y-15053984D02*
X13049229Y-15063508D01*
X13049229Y-15063508D02*
X13058753Y-15073031D01*
X13058753Y-15073031D02*
X13068277Y-15092079D01*
X13068277Y-15092079D02*
X13077801Y-15130174D01*
X13077801Y-15130174D02*
X13077801Y-15177793D01*
X13077801Y-15177793D02*
X13068277Y-15215888D01*
X13068277Y-15215888D02*
X13058753Y-15234936D01*
X13058753Y-15234936D02*
X13049229Y-15244460D01*
X13049229Y-15244460D02*
X13030182Y-15253984D01*
X13030182Y-15253984D02*
X13011134Y-15253984D01*
X13011134Y-15253984D02*
X12992086Y-15244460D01*
X12992086Y-15244460D02*
X12982563Y-15234936D01*
X12982563Y-15234936D02*
X12973039Y-15215888D01*
X12973039Y-15215888D02*
X12963515Y-15177793D01*
X12963515Y-15177793D02*
X12963515Y-15130174D01*
X12963515Y-15130174D02*
X12973039Y-15092079D01*
X12973039Y-15092079D02*
X12982563Y-15073031D01*
X12982563Y-15073031D02*
X12992086Y-15063508D01*
X12992086Y-15063508D02*
X13011134Y-15053984D01*
X13163515Y-15234936D02*
X13173039Y-15244460D01*
X13173039Y-15244460D02*
X13163515Y-15253984D01*
X13163515Y-15253984D02*
X13153991Y-15244460D01*
X13153991Y-15244460D02*
X13163515Y-15234936D01*
X13163515Y-15234936D02*
X13163515Y-15253984D01*
X13296848Y-15053984D02*
X13315896Y-15053984D01*
X13315896Y-15053984D02*
X13334944Y-15063508D01*
X13334944Y-15063508D02*
X13344467Y-15073031D01*
X13344467Y-15073031D02*
X13353991Y-15092079D01*
X13353991Y-15092079D02*
X13363515Y-15130174D01*
X13363515Y-15130174D02*
X13363515Y-15177793D01*
X13363515Y-15177793D02*
X13353991Y-15215888D01*
X13353991Y-15215888D02*
X13344467Y-15234936D01*
X13344467Y-15234936D02*
X13334944Y-15244460D01*
X13334944Y-15244460D02*
X13315896Y-15253984D01*
X13315896Y-15253984D02*
X13296848Y-15253984D01*
X13296848Y-15253984D02*
X13277801Y-15244460D01*
X13277801Y-15244460D02*
X13268277Y-15234936D01*
X13268277Y-15234936D02*
X13258753Y-15215888D01*
X13258753Y-15215888D02*
X13249229Y-15177793D01*
X13249229Y-15177793D02*
X13249229Y-15130174D01*
X13249229Y-15130174D02*
X13258753Y-15092079D01*
X13258753Y-15092079D02*
X13268277Y-15073031D01*
X13268277Y-15073031D02*
X13277801Y-15063508D01*
X13277801Y-15063508D02*
X13296848Y-15053984D01*
X13439706Y-15073031D02*
X13449229Y-15063508D01*
X13449229Y-15063508D02*
X13468277Y-15053984D01*
X13468277Y-15053984D02*
X13515896Y-15053984D01*
X13515896Y-15053984D02*
X13534944Y-15063508D01*
X13534944Y-15063508D02*
X13544467Y-15073031D01*
X13544467Y-15073031D02*
X13553991Y-15092079D01*
X13553991Y-15092079D02*
X13553991Y-15111127D01*
X13553991Y-15111127D02*
X13544467Y-15139698D01*
X13544467Y-15139698D02*
X13430182Y-15253984D01*
X13430182Y-15253984D02*
X13553991Y-15253984D01*
X13744467Y-15253984D02*
X13630182Y-15253984D01*
X13687325Y-15253984D02*
X13687325Y-15053984D01*
X13687325Y-15053984D02*
X13668277Y-15082555D01*
X13668277Y-15082555D02*
X13649229Y-15101603D01*
X13649229Y-15101603D02*
X13630182Y-15111127D01*
X13811134Y-15053984D02*
X13944467Y-15053984D01*
X13944467Y-15053984D02*
X13858753Y-15253984D01*
X14011134Y-15053984D02*
X14011134Y-15092079D01*
X14087325Y-15053984D02*
X14087325Y-15092079D01*
X14382563Y-15330174D02*
X14373039Y-15320650D01*
X14373039Y-15320650D02*
X14353991Y-15292079D01*
X14353991Y-15292079D02*
X14344468Y-15273031D01*
X14344468Y-15273031D02*
X14334944Y-15244460D01*
X14334944Y-15244460D02*
X14325420Y-15196841D01*
X14325420Y-15196841D02*
X14325420Y-15158746D01*
X14325420Y-15158746D02*
X14334944Y-15111127D01*
X14334944Y-15111127D02*
X14344468Y-15082555D01*
X14344468Y-15082555D02*
X14353991Y-15063508D01*
X14353991Y-15063508D02*
X14373039Y-15034936D01*
X14373039Y-15034936D02*
X14382563Y-15025412D01*
X14449229Y-15073031D02*
X14458753Y-15063508D01*
X14458753Y-15063508D02*
X14477801Y-15053984D01*
X14477801Y-15053984D02*
X14525420Y-15053984D01*
X14525420Y-15053984D02*
X14544468Y-15063508D01*
X14544468Y-15063508D02*
X14553991Y-15073031D01*
X14553991Y-15073031D02*
X14563515Y-15092079D01*
X14563515Y-15092079D02*
X14563515Y-15111127D01*
X14563515Y-15111127D02*
X14553991Y-15139698D01*
X14553991Y-15139698D02*
X14439706Y-15253984D01*
X14439706Y-15253984D02*
X14563515Y-15253984D01*
X14801610Y-15253984D02*
X14801610Y-15053984D01*
X14887325Y-15253984D02*
X14887325Y-15149222D01*
X14887325Y-15149222D02*
X14877801Y-15130174D01*
X14877801Y-15130174D02*
X14858753Y-15120650D01*
X14858753Y-15120650D02*
X14830182Y-15120650D01*
X14830182Y-15120650D02*
X14811134Y-15130174D01*
X14811134Y-15130174D02*
X14801610Y-15139698D01*
X15011134Y-15253984D02*
X14992087Y-15244460D01*
X14992087Y-15244460D02*
X14982563Y-15234936D01*
X14982563Y-15234936D02*
X14973039Y-15215888D01*
X14973039Y-15215888D02*
X14973039Y-15158746D01*
X14973039Y-15158746D02*
X14982563Y-15139698D01*
X14982563Y-15139698D02*
X14992087Y-15130174D01*
X14992087Y-15130174D02*
X15011134Y-15120650D01*
X15011134Y-15120650D02*
X15039706Y-15120650D01*
X15039706Y-15120650D02*
X15058753Y-15130174D01*
X15058753Y-15130174D02*
X15068277Y-15139698D01*
X15068277Y-15139698D02*
X15077801Y-15158746D01*
X15077801Y-15158746D02*
X15077801Y-15215888D01*
X15077801Y-15215888D02*
X15068277Y-15234936D01*
X15068277Y-15234936D02*
X15058753Y-15244460D01*
X15058753Y-15244460D02*
X15039706Y-15253984D01*
X15039706Y-15253984D02*
X15011134Y-15253984D01*
X15192087Y-15253984D02*
X15173039Y-15244460D01*
X15173039Y-15244460D02*
X15163515Y-15225412D01*
X15163515Y-15225412D02*
X15163515Y-15053984D01*
X15344468Y-15244460D02*
X15325420Y-15253984D01*
X15325420Y-15253984D02*
X15287325Y-15253984D01*
X15287325Y-15253984D02*
X15268277Y-15244460D01*
X15268277Y-15244460D02*
X15258753Y-15225412D01*
X15258753Y-15225412D02*
X15258753Y-15149222D01*
X15258753Y-15149222D02*
X15268277Y-15130174D01*
X15268277Y-15130174D02*
X15287325Y-15120650D01*
X15287325Y-15120650D02*
X15325420Y-15120650D01*
X15325420Y-15120650D02*
X15344468Y-15130174D01*
X15344468Y-15130174D02*
X15353991Y-15149222D01*
X15353991Y-15149222D02*
X15353991Y-15168269D01*
X15353991Y-15168269D02*
X15258753Y-15187317D01*
X15430182Y-15244460D02*
X15449230Y-15253984D01*
X15449230Y-15253984D02*
X15487325Y-15253984D01*
X15487325Y-15253984D02*
X15506372Y-15244460D01*
X15506372Y-15244460D02*
X15515896Y-15225412D01*
X15515896Y-15225412D02*
X15515896Y-15215888D01*
X15515896Y-15215888D02*
X15506372Y-15196841D01*
X15506372Y-15196841D02*
X15487325Y-15187317D01*
X15487325Y-15187317D02*
X15458753Y-15187317D01*
X15458753Y-15187317D02*
X15439706Y-15177793D01*
X15439706Y-15177793D02*
X15430182Y-15158746D01*
X15430182Y-15158746D02*
X15430182Y-15149222D01*
X15430182Y-15149222D02*
X15439706Y-15130174D01*
X15439706Y-15130174D02*
X15458753Y-15120650D01*
X15458753Y-15120650D02*
X15487325Y-15120650D01*
X15487325Y-15120650D02*
X15506372Y-15130174D01*
X15582563Y-15330174D02*
X15592087Y-15320650D01*
X15592087Y-15320650D02*
X15611134Y-15292079D01*
X15611134Y-15292079D02*
X15620658Y-15273031D01*
X15620658Y-15273031D02*
X15630182Y-15244460D01*
X15630182Y-15244460D02*
X15639706Y-15196841D01*
X15639706Y-15196841D02*
X15639706Y-15158746D01*
X15639706Y-15158746D02*
X15630182Y-15111127D01*
X15630182Y-15111127D02*
X15620658Y-15082555D01*
X15620658Y-15082555D02*
X15611134Y-15063508D01*
X15611134Y-15063508D02*
X15592087Y-15034936D01*
X15592087Y-15034936D02*
X15582563Y-15025412D01*
D12*
X10747500Y-15396500D02*
X10807500Y-15456500D01*
X10807500Y-15396500D02*
X10747500Y-15456500D01*
X10777500Y-15396500D02*
X10777500Y-15456500D01*
X10747500Y-15426500D02*
X10807500Y-15426500D01*
D11*
X11106372Y-15317984D02*
X11125420Y-15317984D01*
X11125420Y-15317984D02*
X11144467Y-15327508D01*
X11144467Y-15327508D02*
X11153991Y-15337031D01*
X11153991Y-15337031D02*
X11163515Y-15356079D01*
X11163515Y-15356079D02*
X11173039Y-15394174D01*
X11173039Y-15394174D02*
X11173039Y-15441793D01*
X11173039Y-15441793D02*
X11163515Y-15479888D01*
X11163515Y-15479888D02*
X11153991Y-15498936D01*
X11153991Y-15498936D02*
X11144467Y-15508460D01*
X11144467Y-15508460D02*
X11125420Y-15517984D01*
X11125420Y-15517984D02*
X11106372Y-15517984D01*
X11106372Y-15517984D02*
X11087324Y-15508460D01*
X11087324Y-15508460D02*
X11077801Y-15498936D01*
X11077801Y-15498936D02*
X11068277Y-15479888D01*
X11068277Y-15479888D02*
X11058753Y-15441793D01*
X11058753Y-15441793D02*
X11058753Y-15394174D01*
X11058753Y-15394174D02*
X11068277Y-15356079D01*
X11068277Y-15356079D02*
X11077801Y-15337031D01*
X11077801Y-15337031D02*
X11087324Y-15327508D01*
X11087324Y-15327508D02*
X11106372Y-15317984D01*
X11258753Y-15498936D02*
X11268277Y-15508460D01*
X11268277Y-15508460D02*
X11258753Y-15517984D01*
X11258753Y-15517984D02*
X11249229Y-15508460D01*
X11249229Y-15508460D02*
X11258753Y-15498936D01*
X11258753Y-15498936D02*
X11258753Y-15517984D01*
X11439705Y-15317984D02*
X11401610Y-15317984D01*
X11401610Y-15317984D02*
X11382562Y-15327508D01*
X11382562Y-15327508D02*
X11373039Y-15337031D01*
X11373039Y-15337031D02*
X11353991Y-15365603D01*
X11353991Y-15365603D02*
X11344467Y-15403698D01*
X11344467Y-15403698D02*
X11344467Y-15479888D01*
X11344467Y-15479888D02*
X11353991Y-15498936D01*
X11353991Y-15498936D02*
X11363515Y-15508460D01*
X11363515Y-15508460D02*
X11382562Y-15517984D01*
X11382562Y-15517984D02*
X11420658Y-15517984D01*
X11420658Y-15517984D02*
X11439705Y-15508460D01*
X11439705Y-15508460D02*
X11449229Y-15498936D01*
X11449229Y-15498936D02*
X11458753Y-15479888D01*
X11458753Y-15479888D02*
X11458753Y-15432269D01*
X11458753Y-15432269D02*
X11449229Y-15413222D01*
X11449229Y-15413222D02*
X11439705Y-15403698D01*
X11439705Y-15403698D02*
X11420658Y-15394174D01*
X11420658Y-15394174D02*
X11382562Y-15394174D01*
X11382562Y-15394174D02*
X11363515Y-15403698D01*
X11363515Y-15403698D02*
X11353991Y-15413222D01*
X11353991Y-15413222D02*
X11344467Y-15432269D01*
X11582562Y-15317984D02*
X11601610Y-15317984D01*
X11601610Y-15317984D02*
X11620658Y-15327508D01*
X11620658Y-15327508D02*
X11630182Y-15337031D01*
X11630182Y-15337031D02*
X11639705Y-15356079D01*
X11639705Y-15356079D02*
X11649229Y-15394174D01*
X11649229Y-15394174D02*
X11649229Y-15441793D01*
X11649229Y-15441793D02*
X11639705Y-15479888D01*
X11639705Y-15479888D02*
X11630182Y-15498936D01*
X11630182Y-15498936D02*
X11620658Y-15508460D01*
X11620658Y-15508460D02*
X11601610Y-15517984D01*
X11601610Y-15517984D02*
X11582562Y-15517984D01*
X11582562Y-15517984D02*
X11563515Y-15508460D01*
X11563515Y-15508460D02*
X11553991Y-15498936D01*
X11553991Y-15498936D02*
X11544467Y-15479888D01*
X11544467Y-15479888D02*
X11534943Y-15441793D01*
X11534943Y-15441793D02*
X11534943Y-15394174D01*
X11534943Y-15394174D02*
X11544467Y-15356079D01*
X11544467Y-15356079D02*
X11553991Y-15337031D01*
X11553991Y-15337031D02*
X11563515Y-15327508D01*
X11563515Y-15327508D02*
X11582562Y-15317984D01*
X11773039Y-15317984D02*
X11792086Y-15317984D01*
X11792086Y-15317984D02*
X11811134Y-15327508D01*
X11811134Y-15327508D02*
X11820658Y-15337031D01*
X11820658Y-15337031D02*
X11830182Y-15356079D01*
X11830182Y-15356079D02*
X11839705Y-15394174D01*
X11839705Y-15394174D02*
X11839705Y-15441793D01*
X11839705Y-15441793D02*
X11830182Y-15479888D01*
X11830182Y-15479888D02*
X11820658Y-15498936D01*
X11820658Y-15498936D02*
X11811134Y-15508460D01*
X11811134Y-15508460D02*
X11792086Y-15517984D01*
X11792086Y-15517984D02*
X11773039Y-15517984D01*
X11773039Y-15517984D02*
X11753991Y-15508460D01*
X11753991Y-15508460D02*
X11744467Y-15498936D01*
X11744467Y-15498936D02*
X11734943Y-15479888D01*
X11734943Y-15479888D02*
X11725420Y-15441793D01*
X11725420Y-15441793D02*
X11725420Y-15394174D01*
X11725420Y-15394174D02*
X11734943Y-15356079D01*
X11734943Y-15356079D02*
X11744467Y-15337031D01*
X11744467Y-15337031D02*
X11753991Y-15327508D01*
X11753991Y-15327508D02*
X11773039Y-15317984D01*
X11925420Y-15517984D02*
X11925420Y-15384650D01*
X11925420Y-15403698D02*
X11934943Y-15394174D01*
X11934943Y-15394174D02*
X11953991Y-15384650D01*
X11953991Y-15384650D02*
X11982563Y-15384650D01*
X11982563Y-15384650D02*
X12001610Y-15394174D01*
X12001610Y-15394174D02*
X12011134Y-15413222D01*
X12011134Y-15413222D02*
X12011134Y-15517984D01*
X12011134Y-15413222D02*
X12020658Y-15394174D01*
X12020658Y-15394174D02*
X12039705Y-15384650D01*
X12039705Y-15384650D02*
X12068277Y-15384650D01*
X12068277Y-15384650D02*
X12087324Y-15394174D01*
X12087324Y-15394174D02*
X12096848Y-15413222D01*
X12096848Y-15413222D02*
X12096848Y-15517984D01*
X12192086Y-15517984D02*
X12192086Y-15384650D01*
X12192086Y-15403698D02*
X12201610Y-15394174D01*
X12201610Y-15394174D02*
X12220658Y-15384650D01*
X12220658Y-15384650D02*
X12249229Y-15384650D01*
X12249229Y-15384650D02*
X12268277Y-15394174D01*
X12268277Y-15394174D02*
X12277801Y-15413222D01*
X12277801Y-15413222D02*
X12277801Y-15517984D01*
X12277801Y-15413222D02*
X12287324Y-15394174D01*
X12287324Y-15394174D02*
X12306372Y-15384650D01*
X12306372Y-15384650D02*
X12334943Y-15384650D01*
X12334943Y-15384650D02*
X12353991Y-15394174D01*
X12353991Y-15394174D02*
X12363515Y-15413222D01*
X12363515Y-15413222D02*
X12363515Y-15517984D01*
X12753991Y-15308460D02*
X12582563Y-15565603D01*
X13011134Y-15317984D02*
X13030182Y-15317984D01*
X13030182Y-15317984D02*
X13049229Y-15327508D01*
X13049229Y-15327508D02*
X13058753Y-15337031D01*
X13058753Y-15337031D02*
X13068277Y-15356079D01*
X13068277Y-15356079D02*
X13077801Y-15394174D01*
X13077801Y-15394174D02*
X13077801Y-15441793D01*
X13077801Y-15441793D02*
X13068277Y-15479888D01*
X13068277Y-15479888D02*
X13058753Y-15498936D01*
X13058753Y-15498936D02*
X13049229Y-15508460D01*
X13049229Y-15508460D02*
X13030182Y-15517984D01*
X13030182Y-15517984D02*
X13011134Y-15517984D01*
X13011134Y-15517984D02*
X12992086Y-15508460D01*
X12992086Y-15508460D02*
X12982563Y-15498936D01*
X12982563Y-15498936D02*
X12973039Y-15479888D01*
X12973039Y-15479888D02*
X12963515Y-15441793D01*
X12963515Y-15441793D02*
X12963515Y-15394174D01*
X12963515Y-15394174D02*
X12973039Y-15356079D01*
X12973039Y-15356079D02*
X12982563Y-15337031D01*
X12982563Y-15337031D02*
X12992086Y-15327508D01*
X12992086Y-15327508D02*
X13011134Y-15317984D01*
X13163515Y-15498936D02*
X13173039Y-15508460D01*
X13173039Y-15508460D02*
X13163515Y-15517984D01*
X13163515Y-15517984D02*
X13153991Y-15508460D01*
X13153991Y-15508460D02*
X13163515Y-15498936D01*
X13163515Y-15498936D02*
X13163515Y-15517984D01*
X13296848Y-15317984D02*
X13315896Y-15317984D01*
X13315896Y-15317984D02*
X13334944Y-15327508D01*
X13334944Y-15327508D02*
X13344467Y-15337031D01*
X13344467Y-15337031D02*
X13353991Y-15356079D01*
X13353991Y-15356079D02*
X13363515Y-15394174D01*
X13363515Y-15394174D02*
X13363515Y-15441793D01*
X13363515Y-15441793D02*
X13353991Y-15479888D01*
X13353991Y-15479888D02*
X13344467Y-15498936D01*
X13344467Y-15498936D02*
X13334944Y-15508460D01*
X13334944Y-15508460D02*
X13315896Y-15517984D01*
X13315896Y-15517984D02*
X13296848Y-15517984D01*
X13296848Y-15517984D02*
X13277801Y-15508460D01*
X13277801Y-15508460D02*
X13268277Y-15498936D01*
X13268277Y-15498936D02*
X13258753Y-15479888D01*
X13258753Y-15479888D02*
X13249229Y-15441793D01*
X13249229Y-15441793D02*
X13249229Y-15394174D01*
X13249229Y-15394174D02*
X13258753Y-15356079D01*
X13258753Y-15356079D02*
X13268277Y-15337031D01*
X13268277Y-15337031D02*
X13277801Y-15327508D01*
X13277801Y-15327508D02*
X13296848Y-15317984D01*
X13439706Y-15337031D02*
X13449229Y-15327508D01*
X13449229Y-15327508D02*
X13468277Y-15317984D01*
X13468277Y-15317984D02*
X13515896Y-15317984D01*
X13515896Y-15317984D02*
X13534944Y-15327508D01*
X13534944Y-15327508D02*
X13544467Y-15337031D01*
X13544467Y-15337031D02*
X13553991Y-15356079D01*
X13553991Y-15356079D02*
X13553991Y-15375127D01*
X13553991Y-15375127D02*
X13544467Y-15403698D01*
X13544467Y-15403698D02*
X13430182Y-15517984D01*
X13430182Y-15517984D02*
X13553991Y-15517984D01*
X13620658Y-15317984D02*
X13744467Y-15317984D01*
X13744467Y-15317984D02*
X13677801Y-15394174D01*
X13677801Y-15394174D02*
X13706372Y-15394174D01*
X13706372Y-15394174D02*
X13725420Y-15403698D01*
X13725420Y-15403698D02*
X13734944Y-15413222D01*
X13734944Y-15413222D02*
X13744467Y-15432269D01*
X13744467Y-15432269D02*
X13744467Y-15479888D01*
X13744467Y-15479888D02*
X13734944Y-15498936D01*
X13734944Y-15498936D02*
X13725420Y-15508460D01*
X13725420Y-15508460D02*
X13706372Y-15517984D01*
X13706372Y-15517984D02*
X13649229Y-15517984D01*
X13649229Y-15517984D02*
X13630182Y-15508460D01*
X13630182Y-15508460D02*
X13620658Y-15498936D01*
X13915896Y-15317984D02*
X13877801Y-15317984D01*
X13877801Y-15317984D02*
X13858753Y-15327508D01*
X13858753Y-15327508D02*
X13849229Y-15337031D01*
X13849229Y-15337031D02*
X13830182Y-15365603D01*
X13830182Y-15365603D02*
X13820658Y-15403698D01*
X13820658Y-15403698D02*
X13820658Y-15479888D01*
X13820658Y-15479888D02*
X13830182Y-15498936D01*
X13830182Y-15498936D02*
X13839706Y-15508460D01*
X13839706Y-15508460D02*
X13858753Y-15517984D01*
X13858753Y-15517984D02*
X13896848Y-15517984D01*
X13896848Y-15517984D02*
X13915896Y-15508460D01*
X13915896Y-15508460D02*
X13925420Y-15498936D01*
X13925420Y-15498936D02*
X13934944Y-15479888D01*
X13934944Y-15479888D02*
X13934944Y-15432269D01*
X13934944Y-15432269D02*
X13925420Y-15413222D01*
X13925420Y-15413222D02*
X13915896Y-15403698D01*
X13915896Y-15403698D02*
X13896848Y-15394174D01*
X13896848Y-15394174D02*
X13858753Y-15394174D01*
X13858753Y-15394174D02*
X13839706Y-15403698D01*
X13839706Y-15403698D02*
X13830182Y-15413222D01*
X13830182Y-15413222D02*
X13820658Y-15432269D01*
X14011134Y-15317984D02*
X14011134Y-15356079D01*
X14087325Y-15317984D02*
X14087325Y-15356079D01*
X14382563Y-15594174D02*
X14373039Y-15584650D01*
X14373039Y-15584650D02*
X14353991Y-15556079D01*
X14353991Y-15556079D02*
X14344468Y-15537031D01*
X14344468Y-15537031D02*
X14334944Y-15508460D01*
X14334944Y-15508460D02*
X14325420Y-15460841D01*
X14325420Y-15460841D02*
X14325420Y-15422746D01*
X14325420Y-15422746D02*
X14334944Y-15375127D01*
X14334944Y-15375127D02*
X14344468Y-15346555D01*
X14344468Y-15346555D02*
X14353991Y-15327508D01*
X14353991Y-15327508D02*
X14373039Y-15298936D01*
X14373039Y-15298936D02*
X14382563Y-15289412D01*
X14563515Y-15517984D02*
X14449229Y-15517984D01*
X14506372Y-15517984D02*
X14506372Y-15317984D01*
X14506372Y-15317984D02*
X14487325Y-15346555D01*
X14487325Y-15346555D02*
X14468277Y-15365603D01*
X14468277Y-15365603D02*
X14449229Y-15375127D01*
X14801610Y-15517984D02*
X14801610Y-15317984D01*
X14887325Y-15517984D02*
X14887325Y-15413222D01*
X14887325Y-15413222D02*
X14877801Y-15394174D01*
X14877801Y-15394174D02*
X14858753Y-15384650D01*
X14858753Y-15384650D02*
X14830182Y-15384650D01*
X14830182Y-15384650D02*
X14811134Y-15394174D01*
X14811134Y-15394174D02*
X14801610Y-15403698D01*
X15011134Y-15517984D02*
X14992087Y-15508460D01*
X14992087Y-15508460D02*
X14982563Y-15498936D01*
X14982563Y-15498936D02*
X14973039Y-15479888D01*
X14973039Y-15479888D02*
X14973039Y-15422746D01*
X14973039Y-15422746D02*
X14982563Y-15403698D01*
X14982563Y-15403698D02*
X14992087Y-15394174D01*
X14992087Y-15394174D02*
X15011134Y-15384650D01*
X15011134Y-15384650D02*
X15039706Y-15384650D01*
X15039706Y-15384650D02*
X15058753Y-15394174D01*
X15058753Y-15394174D02*
X15068277Y-15403698D01*
X15068277Y-15403698D02*
X15077801Y-15422746D01*
X15077801Y-15422746D02*
X15077801Y-15479888D01*
X15077801Y-15479888D02*
X15068277Y-15498936D01*
X15068277Y-15498936D02*
X15058753Y-15508460D01*
X15058753Y-15508460D02*
X15039706Y-15517984D01*
X15039706Y-15517984D02*
X15011134Y-15517984D01*
X15192087Y-15517984D02*
X15173039Y-15508460D01*
X15173039Y-15508460D02*
X15163515Y-15489412D01*
X15163515Y-15489412D02*
X15163515Y-15317984D01*
X15344468Y-15508460D02*
X15325420Y-15517984D01*
X15325420Y-15517984D02*
X15287325Y-15517984D01*
X15287325Y-15517984D02*
X15268277Y-15508460D01*
X15268277Y-15508460D02*
X15258753Y-15489412D01*
X15258753Y-15489412D02*
X15258753Y-15413222D01*
X15258753Y-15413222D02*
X15268277Y-15394174D01*
X15268277Y-15394174D02*
X15287325Y-15384650D01*
X15287325Y-15384650D02*
X15325420Y-15384650D01*
X15325420Y-15384650D02*
X15344468Y-15394174D01*
X15344468Y-15394174D02*
X15353991Y-15413222D01*
X15353991Y-15413222D02*
X15353991Y-15432269D01*
X15353991Y-15432269D02*
X15258753Y-15451317D01*
X15420658Y-15594174D02*
X15430182Y-15584650D01*
X15430182Y-15584650D02*
X15449230Y-15556079D01*
X15449230Y-15556079D02*
X15458753Y-15537031D01*
X15458753Y-15537031D02*
X15468277Y-15508460D01*
X15468277Y-15508460D02*
X15477801Y-15460841D01*
X15477801Y-15460841D02*
X15477801Y-15422746D01*
X15477801Y-15422746D02*
X15468277Y-15375127D01*
X15468277Y-15375127D02*
X15458753Y-15346555D01*
X15458753Y-15346555D02*
X15449230Y-15327508D01*
X15449230Y-15327508D02*
X15430182Y-15298936D01*
X15430182Y-15298936D02*
X15420658Y-15289412D01*
D12*
X10742500Y-15658000D02*
X10807500Y-15723000D01*
X10807500Y-15658000D02*
X10742500Y-15723000D01*
X10797981Y-15713481D02*
X10797981Y-15667519D01*
X10752019Y-15667519D01*
X10752019Y-15713481D01*
X10797981Y-15713481D01*
D11*
X11106372Y-15581984D02*
X11125420Y-15581984D01*
X11125420Y-15581984D02*
X11144467Y-15591508D01*
X11144467Y-15591508D02*
X11153991Y-15601031D01*
X11153991Y-15601031D02*
X11163515Y-15620079D01*
X11163515Y-15620079D02*
X11173039Y-15658174D01*
X11173039Y-15658174D02*
X11173039Y-15705793D01*
X11173039Y-15705793D02*
X11163515Y-15743888D01*
X11163515Y-15743888D02*
X11153991Y-15762936D01*
X11153991Y-15762936D02*
X11144467Y-15772460D01*
X11144467Y-15772460D02*
X11125420Y-15781984D01*
X11125420Y-15781984D02*
X11106372Y-15781984D01*
X11106372Y-15781984D02*
X11087324Y-15772460D01*
X11087324Y-15772460D02*
X11077801Y-15762936D01*
X11077801Y-15762936D02*
X11068277Y-15743888D01*
X11068277Y-15743888D02*
X11058753Y-15705793D01*
X11058753Y-15705793D02*
X11058753Y-15658174D01*
X11058753Y-15658174D02*
X11068277Y-15620079D01*
X11068277Y-15620079D02*
X11077801Y-15601031D01*
X11077801Y-15601031D02*
X11087324Y-15591508D01*
X11087324Y-15591508D02*
X11106372Y-15581984D01*
X11258753Y-15762936D02*
X11268277Y-15772460D01*
X11268277Y-15772460D02*
X11258753Y-15781984D01*
X11258753Y-15781984D02*
X11249229Y-15772460D01*
X11249229Y-15772460D02*
X11258753Y-15762936D01*
X11258753Y-15762936D02*
X11258753Y-15781984D01*
X11439705Y-15581984D02*
X11401610Y-15581984D01*
X11401610Y-15581984D02*
X11382562Y-15591508D01*
X11382562Y-15591508D02*
X11373039Y-15601031D01*
X11373039Y-15601031D02*
X11353991Y-15629603D01*
X11353991Y-15629603D02*
X11344467Y-15667698D01*
X11344467Y-15667698D02*
X11344467Y-15743888D01*
X11344467Y-15743888D02*
X11353991Y-15762936D01*
X11353991Y-15762936D02*
X11363515Y-15772460D01*
X11363515Y-15772460D02*
X11382562Y-15781984D01*
X11382562Y-15781984D02*
X11420658Y-15781984D01*
X11420658Y-15781984D02*
X11439705Y-15772460D01*
X11439705Y-15772460D02*
X11449229Y-15762936D01*
X11449229Y-15762936D02*
X11458753Y-15743888D01*
X11458753Y-15743888D02*
X11458753Y-15696269D01*
X11458753Y-15696269D02*
X11449229Y-15677222D01*
X11449229Y-15677222D02*
X11439705Y-15667698D01*
X11439705Y-15667698D02*
X11420658Y-15658174D01*
X11420658Y-15658174D02*
X11382562Y-15658174D01*
X11382562Y-15658174D02*
X11363515Y-15667698D01*
X11363515Y-15667698D02*
X11353991Y-15677222D01*
X11353991Y-15677222D02*
X11344467Y-15696269D01*
X11639705Y-15581984D02*
X11544467Y-15581984D01*
X11544467Y-15581984D02*
X11534943Y-15677222D01*
X11534943Y-15677222D02*
X11544467Y-15667698D01*
X11544467Y-15667698D02*
X11563515Y-15658174D01*
X11563515Y-15658174D02*
X11611134Y-15658174D01*
X11611134Y-15658174D02*
X11630182Y-15667698D01*
X11630182Y-15667698D02*
X11639705Y-15677222D01*
X11639705Y-15677222D02*
X11649229Y-15696269D01*
X11649229Y-15696269D02*
X11649229Y-15743888D01*
X11649229Y-15743888D02*
X11639705Y-15762936D01*
X11639705Y-15762936D02*
X11630182Y-15772460D01*
X11630182Y-15772460D02*
X11611134Y-15781984D01*
X11611134Y-15781984D02*
X11563515Y-15781984D01*
X11563515Y-15781984D02*
X11544467Y-15772460D01*
X11544467Y-15772460D02*
X11534943Y-15762936D01*
X11773039Y-15581984D02*
X11792086Y-15581984D01*
X11792086Y-15581984D02*
X11811134Y-15591508D01*
X11811134Y-15591508D02*
X11820658Y-15601031D01*
X11820658Y-15601031D02*
X11830182Y-15620079D01*
X11830182Y-15620079D02*
X11839705Y-15658174D01*
X11839705Y-15658174D02*
X11839705Y-15705793D01*
X11839705Y-15705793D02*
X11830182Y-15743888D01*
X11830182Y-15743888D02*
X11820658Y-15762936D01*
X11820658Y-15762936D02*
X11811134Y-15772460D01*
X11811134Y-15772460D02*
X11792086Y-15781984D01*
X11792086Y-15781984D02*
X11773039Y-15781984D01*
X11773039Y-15781984D02*
X11753991Y-15772460D01*
X11753991Y-15772460D02*
X11744467Y-15762936D01*
X11744467Y-15762936D02*
X11734943Y-15743888D01*
X11734943Y-15743888D02*
X11725420Y-15705793D01*
X11725420Y-15705793D02*
X11725420Y-15658174D01*
X11725420Y-15658174D02*
X11734943Y-15620079D01*
X11734943Y-15620079D02*
X11744467Y-15601031D01*
X11744467Y-15601031D02*
X11753991Y-15591508D01*
X11753991Y-15591508D02*
X11773039Y-15581984D01*
X11925420Y-15781984D02*
X11925420Y-15648650D01*
X11925420Y-15667698D02*
X11934943Y-15658174D01*
X11934943Y-15658174D02*
X11953991Y-15648650D01*
X11953991Y-15648650D02*
X11982563Y-15648650D01*
X11982563Y-15648650D02*
X12001610Y-15658174D01*
X12001610Y-15658174D02*
X12011134Y-15677222D01*
X12011134Y-15677222D02*
X12011134Y-15781984D01*
X12011134Y-15677222D02*
X12020658Y-15658174D01*
X12020658Y-15658174D02*
X12039705Y-15648650D01*
X12039705Y-15648650D02*
X12068277Y-15648650D01*
X12068277Y-15648650D02*
X12087324Y-15658174D01*
X12087324Y-15658174D02*
X12096848Y-15677222D01*
X12096848Y-15677222D02*
X12096848Y-15781984D01*
X12192086Y-15781984D02*
X12192086Y-15648650D01*
X12192086Y-15667698D02*
X12201610Y-15658174D01*
X12201610Y-15658174D02*
X12220658Y-15648650D01*
X12220658Y-15648650D02*
X12249229Y-15648650D01*
X12249229Y-15648650D02*
X12268277Y-15658174D01*
X12268277Y-15658174D02*
X12277801Y-15677222D01*
X12277801Y-15677222D02*
X12277801Y-15781984D01*
X12277801Y-15677222D02*
X12287324Y-15658174D01*
X12287324Y-15658174D02*
X12306372Y-15648650D01*
X12306372Y-15648650D02*
X12334943Y-15648650D01*
X12334943Y-15648650D02*
X12353991Y-15658174D01*
X12353991Y-15658174D02*
X12363515Y-15677222D01*
X12363515Y-15677222D02*
X12363515Y-15781984D01*
X12753991Y-15572460D02*
X12582563Y-15829603D01*
X13011134Y-15581984D02*
X13030182Y-15581984D01*
X13030182Y-15581984D02*
X13049229Y-15591508D01*
X13049229Y-15591508D02*
X13058753Y-15601031D01*
X13058753Y-15601031D02*
X13068277Y-15620079D01*
X13068277Y-15620079D02*
X13077801Y-15658174D01*
X13077801Y-15658174D02*
X13077801Y-15705793D01*
X13077801Y-15705793D02*
X13068277Y-15743888D01*
X13068277Y-15743888D02*
X13058753Y-15762936D01*
X13058753Y-15762936D02*
X13049229Y-15772460D01*
X13049229Y-15772460D02*
X13030182Y-15781984D01*
X13030182Y-15781984D02*
X13011134Y-15781984D01*
X13011134Y-15781984D02*
X12992086Y-15772460D01*
X12992086Y-15772460D02*
X12982563Y-15762936D01*
X12982563Y-15762936D02*
X12973039Y-15743888D01*
X12973039Y-15743888D02*
X12963515Y-15705793D01*
X12963515Y-15705793D02*
X12963515Y-15658174D01*
X12963515Y-15658174D02*
X12973039Y-15620079D01*
X12973039Y-15620079D02*
X12982563Y-15601031D01*
X12982563Y-15601031D02*
X12992086Y-15591508D01*
X12992086Y-15591508D02*
X13011134Y-15581984D01*
X13163515Y-15762936D02*
X13173039Y-15772460D01*
X13173039Y-15772460D02*
X13163515Y-15781984D01*
X13163515Y-15781984D02*
X13153991Y-15772460D01*
X13153991Y-15772460D02*
X13163515Y-15762936D01*
X13163515Y-15762936D02*
X13163515Y-15781984D01*
X13296848Y-15581984D02*
X13315896Y-15581984D01*
X13315896Y-15581984D02*
X13334944Y-15591508D01*
X13334944Y-15591508D02*
X13344467Y-15601031D01*
X13344467Y-15601031D02*
X13353991Y-15620079D01*
X13353991Y-15620079D02*
X13363515Y-15658174D01*
X13363515Y-15658174D02*
X13363515Y-15705793D01*
X13363515Y-15705793D02*
X13353991Y-15743888D01*
X13353991Y-15743888D02*
X13344467Y-15762936D01*
X13344467Y-15762936D02*
X13334944Y-15772460D01*
X13334944Y-15772460D02*
X13315896Y-15781984D01*
X13315896Y-15781984D02*
X13296848Y-15781984D01*
X13296848Y-15781984D02*
X13277801Y-15772460D01*
X13277801Y-15772460D02*
X13268277Y-15762936D01*
X13268277Y-15762936D02*
X13258753Y-15743888D01*
X13258753Y-15743888D02*
X13249229Y-15705793D01*
X13249229Y-15705793D02*
X13249229Y-15658174D01*
X13249229Y-15658174D02*
X13258753Y-15620079D01*
X13258753Y-15620079D02*
X13268277Y-15601031D01*
X13268277Y-15601031D02*
X13277801Y-15591508D01*
X13277801Y-15591508D02*
X13296848Y-15581984D01*
X13439706Y-15601031D02*
X13449229Y-15591508D01*
X13449229Y-15591508D02*
X13468277Y-15581984D01*
X13468277Y-15581984D02*
X13515896Y-15581984D01*
X13515896Y-15581984D02*
X13534944Y-15591508D01*
X13534944Y-15591508D02*
X13544467Y-15601031D01*
X13544467Y-15601031D02*
X13553991Y-15620079D01*
X13553991Y-15620079D02*
X13553991Y-15639127D01*
X13553991Y-15639127D02*
X13544467Y-15667698D01*
X13544467Y-15667698D02*
X13430182Y-15781984D01*
X13430182Y-15781984D02*
X13553991Y-15781984D01*
X13734944Y-15581984D02*
X13639706Y-15581984D01*
X13639706Y-15581984D02*
X13630182Y-15677222D01*
X13630182Y-15677222D02*
X13639706Y-15667698D01*
X13639706Y-15667698D02*
X13658753Y-15658174D01*
X13658753Y-15658174D02*
X13706372Y-15658174D01*
X13706372Y-15658174D02*
X13725420Y-15667698D01*
X13725420Y-15667698D02*
X13734944Y-15677222D01*
X13734944Y-15677222D02*
X13744467Y-15696269D01*
X13744467Y-15696269D02*
X13744467Y-15743888D01*
X13744467Y-15743888D02*
X13734944Y-15762936D01*
X13734944Y-15762936D02*
X13725420Y-15772460D01*
X13725420Y-15772460D02*
X13706372Y-15781984D01*
X13706372Y-15781984D02*
X13658753Y-15781984D01*
X13658753Y-15781984D02*
X13639706Y-15772460D01*
X13639706Y-15772460D02*
X13630182Y-15762936D01*
X13915896Y-15581984D02*
X13877801Y-15581984D01*
X13877801Y-15581984D02*
X13858753Y-15591508D01*
X13858753Y-15591508D02*
X13849229Y-15601031D01*
X13849229Y-15601031D02*
X13830182Y-15629603D01*
X13830182Y-15629603D02*
X13820658Y-15667698D01*
X13820658Y-15667698D02*
X13820658Y-15743888D01*
X13820658Y-15743888D02*
X13830182Y-15762936D01*
X13830182Y-15762936D02*
X13839706Y-15772460D01*
X13839706Y-15772460D02*
X13858753Y-15781984D01*
X13858753Y-15781984D02*
X13896848Y-15781984D01*
X13896848Y-15781984D02*
X13915896Y-15772460D01*
X13915896Y-15772460D02*
X13925420Y-15762936D01*
X13925420Y-15762936D02*
X13934944Y-15743888D01*
X13934944Y-15743888D02*
X13934944Y-15696269D01*
X13934944Y-15696269D02*
X13925420Y-15677222D01*
X13925420Y-15677222D02*
X13915896Y-15667698D01*
X13915896Y-15667698D02*
X13896848Y-15658174D01*
X13896848Y-15658174D02*
X13858753Y-15658174D01*
X13858753Y-15658174D02*
X13839706Y-15667698D01*
X13839706Y-15667698D02*
X13830182Y-15677222D01*
X13830182Y-15677222D02*
X13820658Y-15696269D01*
X14011134Y-15581984D02*
X14011134Y-15620079D01*
X14087325Y-15581984D02*
X14087325Y-15620079D01*
X14382563Y-15858174D02*
X14373039Y-15848650D01*
X14373039Y-15848650D02*
X14353991Y-15820079D01*
X14353991Y-15820079D02*
X14344468Y-15801031D01*
X14344468Y-15801031D02*
X14334944Y-15772460D01*
X14334944Y-15772460D02*
X14325420Y-15724841D01*
X14325420Y-15724841D02*
X14325420Y-15686746D01*
X14325420Y-15686746D02*
X14334944Y-15639127D01*
X14334944Y-15639127D02*
X14344468Y-15610555D01*
X14344468Y-15610555D02*
X14353991Y-15591508D01*
X14353991Y-15591508D02*
X14373039Y-15562936D01*
X14373039Y-15562936D02*
X14382563Y-15553412D01*
X14449229Y-15601031D02*
X14458753Y-15591508D01*
X14458753Y-15591508D02*
X14477801Y-15581984D01*
X14477801Y-15581984D02*
X14525420Y-15581984D01*
X14525420Y-15581984D02*
X14544468Y-15591508D01*
X14544468Y-15591508D02*
X14553991Y-15601031D01*
X14553991Y-15601031D02*
X14563515Y-15620079D01*
X14563515Y-15620079D02*
X14563515Y-15639127D01*
X14563515Y-15639127D02*
X14553991Y-15667698D01*
X14553991Y-15667698D02*
X14439706Y-15781984D01*
X14439706Y-15781984D02*
X14563515Y-15781984D01*
X14801610Y-15781984D02*
X14801610Y-15581984D01*
X14887325Y-15781984D02*
X14887325Y-15677222D01*
X14887325Y-15677222D02*
X14877801Y-15658174D01*
X14877801Y-15658174D02*
X14858753Y-15648650D01*
X14858753Y-15648650D02*
X14830182Y-15648650D01*
X14830182Y-15648650D02*
X14811134Y-15658174D01*
X14811134Y-15658174D02*
X14801610Y-15667698D01*
X15011134Y-15781984D02*
X14992087Y-15772460D01*
X14992087Y-15772460D02*
X14982563Y-15762936D01*
X14982563Y-15762936D02*
X14973039Y-15743888D01*
X14973039Y-15743888D02*
X14973039Y-15686746D01*
X14973039Y-15686746D02*
X14982563Y-15667698D01*
X14982563Y-15667698D02*
X14992087Y-15658174D01*
X14992087Y-15658174D02*
X15011134Y-15648650D01*
X15011134Y-15648650D02*
X15039706Y-15648650D01*
X15039706Y-15648650D02*
X15058753Y-15658174D01*
X15058753Y-15658174D02*
X15068277Y-15667698D01*
X15068277Y-15667698D02*
X15077801Y-15686746D01*
X15077801Y-15686746D02*
X15077801Y-15743888D01*
X15077801Y-15743888D02*
X15068277Y-15762936D01*
X15068277Y-15762936D02*
X15058753Y-15772460D01*
X15058753Y-15772460D02*
X15039706Y-15781984D01*
X15039706Y-15781984D02*
X15011134Y-15781984D01*
X15192087Y-15781984D02*
X15173039Y-15772460D01*
X15173039Y-15772460D02*
X15163515Y-15753412D01*
X15163515Y-15753412D02*
X15163515Y-15581984D01*
X15344468Y-15772460D02*
X15325420Y-15781984D01*
X15325420Y-15781984D02*
X15287325Y-15781984D01*
X15287325Y-15781984D02*
X15268277Y-15772460D01*
X15268277Y-15772460D02*
X15258753Y-15753412D01*
X15258753Y-15753412D02*
X15258753Y-15677222D01*
X15258753Y-15677222D02*
X15268277Y-15658174D01*
X15268277Y-15658174D02*
X15287325Y-15648650D01*
X15287325Y-15648650D02*
X15325420Y-15648650D01*
X15325420Y-15648650D02*
X15344468Y-15658174D01*
X15344468Y-15658174D02*
X15353991Y-15677222D01*
X15353991Y-15677222D02*
X15353991Y-15696269D01*
X15353991Y-15696269D02*
X15258753Y-15715317D01*
X15430182Y-15772460D02*
X15449230Y-15781984D01*
X15449230Y-15781984D02*
X15487325Y-15781984D01*
X15487325Y-15781984D02*
X15506372Y-15772460D01*
X15506372Y-15772460D02*
X15515896Y-15753412D01*
X15515896Y-15753412D02*
X15515896Y-15743888D01*
X15515896Y-15743888D02*
X15506372Y-15724841D01*
X15506372Y-15724841D02*
X15487325Y-15715317D01*
X15487325Y-15715317D02*
X15458753Y-15715317D01*
X15458753Y-15715317D02*
X15439706Y-15705793D01*
X15439706Y-15705793D02*
X15430182Y-15686746D01*
X15430182Y-15686746D02*
X15430182Y-15677222D01*
X15430182Y-15677222D02*
X15439706Y-15658174D01*
X15439706Y-15658174D02*
X15458753Y-15648650D01*
X15458753Y-15648650D02*
X15487325Y-15648650D01*
X15487325Y-15648650D02*
X15506372Y-15658174D01*
X15582563Y-15858174D02*
X15592087Y-15848650D01*
X15592087Y-15848650D02*
X15611134Y-15820079D01*
X15611134Y-15820079D02*
X15620658Y-15801031D01*
X15620658Y-15801031D02*
X15630182Y-15772460D01*
X15630182Y-15772460D02*
X15639706Y-15724841D01*
X15639706Y-15724841D02*
X15639706Y-15686746D01*
X15639706Y-15686746D02*
X15630182Y-15639127D01*
X15630182Y-15639127D02*
X15620658Y-15610555D01*
X15620658Y-15610555D02*
X15611134Y-15591508D01*
X15611134Y-15591508D02*
X15592087Y-15562936D01*
X15592087Y-15562936D02*
X15582563Y-15553412D01*
D12*
X10737500Y-15919500D02*
X10807500Y-15989500D01*
X10807500Y-15919500D02*
X10737500Y-15989500D01*
X10772500Y-15989500D02*
X10807500Y-15954500D01*
X10772500Y-15919500D01*
X10737500Y-15954500D01*
X10772500Y-15989500D01*
D11*
X11106372Y-15845984D02*
X11125420Y-15845984D01*
X11125420Y-15845984D02*
X11144467Y-15855508D01*
X11144467Y-15855508D02*
X11153991Y-15865031D01*
X11153991Y-15865031D02*
X11163515Y-15884079D01*
X11163515Y-15884079D02*
X11173039Y-15922174D01*
X11173039Y-15922174D02*
X11173039Y-15969793D01*
X11173039Y-15969793D02*
X11163515Y-16007888D01*
X11163515Y-16007888D02*
X11153991Y-16026936D01*
X11153991Y-16026936D02*
X11144467Y-16036460D01*
X11144467Y-16036460D02*
X11125420Y-16045984D01*
X11125420Y-16045984D02*
X11106372Y-16045984D01*
X11106372Y-16045984D02*
X11087324Y-16036460D01*
X11087324Y-16036460D02*
X11077801Y-16026936D01*
X11077801Y-16026936D02*
X11068277Y-16007888D01*
X11068277Y-16007888D02*
X11058753Y-15969793D01*
X11058753Y-15969793D02*
X11058753Y-15922174D01*
X11058753Y-15922174D02*
X11068277Y-15884079D01*
X11068277Y-15884079D02*
X11077801Y-15865031D01*
X11077801Y-15865031D02*
X11087324Y-15855508D01*
X11087324Y-15855508D02*
X11106372Y-15845984D01*
X11258753Y-16026936D02*
X11268277Y-16036460D01*
X11268277Y-16036460D02*
X11258753Y-16045984D01*
X11258753Y-16045984D02*
X11249229Y-16036460D01*
X11249229Y-16036460D02*
X11258753Y-16026936D01*
X11258753Y-16026936D02*
X11258753Y-16045984D01*
X11334943Y-15845984D02*
X11468277Y-15845984D01*
X11468277Y-15845984D02*
X11382562Y-16045984D01*
X11582562Y-15845984D02*
X11601610Y-15845984D01*
X11601610Y-15845984D02*
X11620658Y-15855508D01*
X11620658Y-15855508D02*
X11630182Y-15865031D01*
X11630182Y-15865031D02*
X11639705Y-15884079D01*
X11639705Y-15884079D02*
X11649229Y-15922174D01*
X11649229Y-15922174D02*
X11649229Y-15969793D01*
X11649229Y-15969793D02*
X11639705Y-16007888D01*
X11639705Y-16007888D02*
X11630182Y-16026936D01*
X11630182Y-16026936D02*
X11620658Y-16036460D01*
X11620658Y-16036460D02*
X11601610Y-16045984D01*
X11601610Y-16045984D02*
X11582562Y-16045984D01*
X11582562Y-16045984D02*
X11563515Y-16036460D01*
X11563515Y-16036460D02*
X11553991Y-16026936D01*
X11553991Y-16026936D02*
X11544467Y-16007888D01*
X11544467Y-16007888D02*
X11534943Y-15969793D01*
X11534943Y-15969793D02*
X11534943Y-15922174D01*
X11534943Y-15922174D02*
X11544467Y-15884079D01*
X11544467Y-15884079D02*
X11553991Y-15865031D01*
X11553991Y-15865031D02*
X11563515Y-15855508D01*
X11563515Y-15855508D02*
X11582562Y-15845984D01*
X11773039Y-15845984D02*
X11792086Y-15845984D01*
X11792086Y-15845984D02*
X11811134Y-15855508D01*
X11811134Y-15855508D02*
X11820658Y-15865031D01*
X11820658Y-15865031D02*
X11830182Y-15884079D01*
X11830182Y-15884079D02*
X11839705Y-15922174D01*
X11839705Y-15922174D02*
X11839705Y-15969793D01*
X11839705Y-15969793D02*
X11830182Y-16007888D01*
X11830182Y-16007888D02*
X11820658Y-16026936D01*
X11820658Y-16026936D02*
X11811134Y-16036460D01*
X11811134Y-16036460D02*
X11792086Y-16045984D01*
X11792086Y-16045984D02*
X11773039Y-16045984D01*
X11773039Y-16045984D02*
X11753991Y-16036460D01*
X11753991Y-16036460D02*
X11744467Y-16026936D01*
X11744467Y-16026936D02*
X11734943Y-16007888D01*
X11734943Y-16007888D02*
X11725420Y-15969793D01*
X11725420Y-15969793D02*
X11725420Y-15922174D01*
X11725420Y-15922174D02*
X11734943Y-15884079D01*
X11734943Y-15884079D02*
X11744467Y-15865031D01*
X11744467Y-15865031D02*
X11753991Y-15855508D01*
X11753991Y-15855508D02*
X11773039Y-15845984D01*
X11925420Y-16045984D02*
X11925420Y-15912650D01*
X11925420Y-15931698D02*
X11934943Y-15922174D01*
X11934943Y-15922174D02*
X11953991Y-15912650D01*
X11953991Y-15912650D02*
X11982563Y-15912650D01*
X11982563Y-15912650D02*
X12001610Y-15922174D01*
X12001610Y-15922174D02*
X12011134Y-15941222D01*
X12011134Y-15941222D02*
X12011134Y-16045984D01*
X12011134Y-15941222D02*
X12020658Y-15922174D01*
X12020658Y-15922174D02*
X12039705Y-15912650D01*
X12039705Y-15912650D02*
X12068277Y-15912650D01*
X12068277Y-15912650D02*
X12087324Y-15922174D01*
X12087324Y-15922174D02*
X12096848Y-15941222D01*
X12096848Y-15941222D02*
X12096848Y-16045984D01*
X12192086Y-16045984D02*
X12192086Y-15912650D01*
X12192086Y-15931698D02*
X12201610Y-15922174D01*
X12201610Y-15922174D02*
X12220658Y-15912650D01*
X12220658Y-15912650D02*
X12249229Y-15912650D01*
X12249229Y-15912650D02*
X12268277Y-15922174D01*
X12268277Y-15922174D02*
X12277801Y-15941222D01*
X12277801Y-15941222D02*
X12277801Y-16045984D01*
X12277801Y-15941222D02*
X12287324Y-15922174D01*
X12287324Y-15922174D02*
X12306372Y-15912650D01*
X12306372Y-15912650D02*
X12334943Y-15912650D01*
X12334943Y-15912650D02*
X12353991Y-15922174D01*
X12353991Y-15922174D02*
X12363515Y-15941222D01*
X12363515Y-15941222D02*
X12363515Y-16045984D01*
X12753991Y-15836460D02*
X12582563Y-16093603D01*
X13011134Y-15845984D02*
X13030182Y-15845984D01*
X13030182Y-15845984D02*
X13049229Y-15855508D01*
X13049229Y-15855508D02*
X13058753Y-15865031D01*
X13058753Y-15865031D02*
X13068277Y-15884079D01*
X13068277Y-15884079D02*
X13077801Y-15922174D01*
X13077801Y-15922174D02*
X13077801Y-15969793D01*
X13077801Y-15969793D02*
X13068277Y-16007888D01*
X13068277Y-16007888D02*
X13058753Y-16026936D01*
X13058753Y-16026936D02*
X13049229Y-16036460D01*
X13049229Y-16036460D02*
X13030182Y-16045984D01*
X13030182Y-16045984D02*
X13011134Y-16045984D01*
X13011134Y-16045984D02*
X12992086Y-16036460D01*
X12992086Y-16036460D02*
X12982563Y-16026936D01*
X12982563Y-16026936D02*
X12973039Y-16007888D01*
X12973039Y-16007888D02*
X12963515Y-15969793D01*
X12963515Y-15969793D02*
X12963515Y-15922174D01*
X12963515Y-15922174D02*
X12973039Y-15884079D01*
X12973039Y-15884079D02*
X12982563Y-15865031D01*
X12982563Y-15865031D02*
X12992086Y-15855508D01*
X12992086Y-15855508D02*
X13011134Y-15845984D01*
X13163515Y-16026936D02*
X13173039Y-16036460D01*
X13173039Y-16036460D02*
X13163515Y-16045984D01*
X13163515Y-16045984D02*
X13153991Y-16036460D01*
X13153991Y-16036460D02*
X13163515Y-16026936D01*
X13163515Y-16026936D02*
X13163515Y-16045984D01*
X13296848Y-15845984D02*
X13315896Y-15845984D01*
X13315896Y-15845984D02*
X13334944Y-15855508D01*
X13334944Y-15855508D02*
X13344467Y-15865031D01*
X13344467Y-15865031D02*
X13353991Y-15884079D01*
X13353991Y-15884079D02*
X13363515Y-15922174D01*
X13363515Y-15922174D02*
X13363515Y-15969793D01*
X13363515Y-15969793D02*
X13353991Y-16007888D01*
X13353991Y-16007888D02*
X13344467Y-16026936D01*
X13344467Y-16026936D02*
X13334944Y-16036460D01*
X13334944Y-16036460D02*
X13315896Y-16045984D01*
X13315896Y-16045984D02*
X13296848Y-16045984D01*
X13296848Y-16045984D02*
X13277801Y-16036460D01*
X13277801Y-16036460D02*
X13268277Y-16026936D01*
X13268277Y-16026936D02*
X13258753Y-16007888D01*
X13258753Y-16007888D02*
X13249229Y-15969793D01*
X13249229Y-15969793D02*
X13249229Y-15922174D01*
X13249229Y-15922174D02*
X13258753Y-15884079D01*
X13258753Y-15884079D02*
X13268277Y-15865031D01*
X13268277Y-15865031D02*
X13277801Y-15855508D01*
X13277801Y-15855508D02*
X13296848Y-15845984D01*
X13439706Y-15865031D02*
X13449229Y-15855508D01*
X13449229Y-15855508D02*
X13468277Y-15845984D01*
X13468277Y-15845984D02*
X13515896Y-15845984D01*
X13515896Y-15845984D02*
X13534944Y-15855508D01*
X13534944Y-15855508D02*
X13544467Y-15865031D01*
X13544467Y-15865031D02*
X13553991Y-15884079D01*
X13553991Y-15884079D02*
X13553991Y-15903127D01*
X13553991Y-15903127D02*
X13544467Y-15931698D01*
X13544467Y-15931698D02*
X13430182Y-16045984D01*
X13430182Y-16045984D02*
X13553991Y-16045984D01*
X13620658Y-15845984D02*
X13753991Y-15845984D01*
X13753991Y-15845984D02*
X13668277Y-16045984D01*
X13915896Y-15845984D02*
X13877801Y-15845984D01*
X13877801Y-15845984D02*
X13858753Y-15855508D01*
X13858753Y-15855508D02*
X13849229Y-15865031D01*
X13849229Y-15865031D02*
X13830182Y-15893603D01*
X13830182Y-15893603D02*
X13820658Y-15931698D01*
X13820658Y-15931698D02*
X13820658Y-16007888D01*
X13820658Y-16007888D02*
X13830182Y-16026936D01*
X13830182Y-16026936D02*
X13839706Y-16036460D01*
X13839706Y-16036460D02*
X13858753Y-16045984D01*
X13858753Y-16045984D02*
X13896848Y-16045984D01*
X13896848Y-16045984D02*
X13915896Y-16036460D01*
X13915896Y-16036460D02*
X13925420Y-16026936D01*
X13925420Y-16026936D02*
X13934944Y-16007888D01*
X13934944Y-16007888D02*
X13934944Y-15960269D01*
X13934944Y-15960269D02*
X13925420Y-15941222D01*
X13925420Y-15941222D02*
X13915896Y-15931698D01*
X13915896Y-15931698D02*
X13896848Y-15922174D01*
X13896848Y-15922174D02*
X13858753Y-15922174D01*
X13858753Y-15922174D02*
X13839706Y-15931698D01*
X13839706Y-15931698D02*
X13830182Y-15941222D01*
X13830182Y-15941222D02*
X13820658Y-15960269D01*
X14011134Y-15845984D02*
X14011134Y-15884079D01*
X14087325Y-15845984D02*
X14087325Y-15884079D01*
X14382563Y-16122174D02*
X14373039Y-16112650D01*
X14373039Y-16112650D02*
X14353991Y-16084079D01*
X14353991Y-16084079D02*
X14344468Y-16065031D01*
X14344468Y-16065031D02*
X14334944Y-16036460D01*
X14334944Y-16036460D02*
X14325420Y-15988841D01*
X14325420Y-15988841D02*
X14325420Y-15950746D01*
X14325420Y-15950746D02*
X14334944Y-15903127D01*
X14334944Y-15903127D02*
X14344468Y-15874555D01*
X14344468Y-15874555D02*
X14353991Y-15855508D01*
X14353991Y-15855508D02*
X14373039Y-15826936D01*
X14373039Y-15826936D02*
X14382563Y-15817412D01*
X14544468Y-15912650D02*
X14544468Y-16045984D01*
X14496848Y-15836460D02*
X14449229Y-15979317D01*
X14449229Y-15979317D02*
X14573039Y-15979317D01*
X14801610Y-16045984D02*
X14801610Y-15845984D01*
X14887325Y-16045984D02*
X14887325Y-15941222D01*
X14887325Y-15941222D02*
X14877801Y-15922174D01*
X14877801Y-15922174D02*
X14858753Y-15912650D01*
X14858753Y-15912650D02*
X14830182Y-15912650D01*
X14830182Y-15912650D02*
X14811134Y-15922174D01*
X14811134Y-15922174D02*
X14801610Y-15931698D01*
X15011134Y-16045984D02*
X14992087Y-16036460D01*
X14992087Y-16036460D02*
X14982563Y-16026936D01*
X14982563Y-16026936D02*
X14973039Y-16007888D01*
X14973039Y-16007888D02*
X14973039Y-15950746D01*
X14973039Y-15950746D02*
X14982563Y-15931698D01*
X14982563Y-15931698D02*
X14992087Y-15922174D01*
X14992087Y-15922174D02*
X15011134Y-15912650D01*
X15011134Y-15912650D02*
X15039706Y-15912650D01*
X15039706Y-15912650D02*
X15058753Y-15922174D01*
X15058753Y-15922174D02*
X15068277Y-15931698D01*
X15068277Y-15931698D02*
X15077801Y-15950746D01*
X15077801Y-15950746D02*
X15077801Y-16007888D01*
X15077801Y-16007888D02*
X15068277Y-16026936D01*
X15068277Y-16026936D02*
X15058753Y-16036460D01*
X15058753Y-16036460D02*
X15039706Y-16045984D01*
X15039706Y-16045984D02*
X15011134Y-16045984D01*
X15192087Y-16045984D02*
X15173039Y-16036460D01*
X15173039Y-16036460D02*
X15163515Y-16017412D01*
X15163515Y-16017412D02*
X15163515Y-15845984D01*
X15344468Y-16036460D02*
X15325420Y-16045984D01*
X15325420Y-16045984D02*
X15287325Y-16045984D01*
X15287325Y-16045984D02*
X15268277Y-16036460D01*
X15268277Y-16036460D02*
X15258753Y-16017412D01*
X15258753Y-16017412D02*
X15258753Y-15941222D01*
X15258753Y-15941222D02*
X15268277Y-15922174D01*
X15268277Y-15922174D02*
X15287325Y-15912650D01*
X15287325Y-15912650D02*
X15325420Y-15912650D01*
X15325420Y-15912650D02*
X15344468Y-15922174D01*
X15344468Y-15922174D02*
X15353991Y-15941222D01*
X15353991Y-15941222D02*
X15353991Y-15960269D01*
X15353991Y-15960269D02*
X15258753Y-15979317D01*
X15430182Y-16036460D02*
X15449230Y-16045984D01*
X15449230Y-16045984D02*
X15487325Y-16045984D01*
X15487325Y-16045984D02*
X15506372Y-16036460D01*
X15506372Y-16036460D02*
X15515896Y-16017412D01*
X15515896Y-16017412D02*
X15515896Y-16007888D01*
X15515896Y-16007888D02*
X15506372Y-15988841D01*
X15506372Y-15988841D02*
X15487325Y-15979317D01*
X15487325Y-15979317D02*
X15458753Y-15979317D01*
X15458753Y-15979317D02*
X15439706Y-15969793D01*
X15439706Y-15969793D02*
X15430182Y-15950746D01*
X15430182Y-15950746D02*
X15430182Y-15941222D01*
X15430182Y-15941222D02*
X15439706Y-15922174D01*
X15439706Y-15922174D02*
X15458753Y-15912650D01*
X15458753Y-15912650D02*
X15487325Y-15912650D01*
X15487325Y-15912650D02*
X15506372Y-15922174D01*
X15582563Y-16122174D02*
X15592087Y-16112650D01*
X15592087Y-16112650D02*
X15611134Y-16084079D01*
X15611134Y-16084079D02*
X15620658Y-16065031D01*
X15620658Y-16065031D02*
X15630182Y-16036460D01*
X15630182Y-16036460D02*
X15639706Y-15988841D01*
X15639706Y-15988841D02*
X15639706Y-15950746D01*
X15639706Y-15950746D02*
X15630182Y-15903127D01*
X15630182Y-15903127D02*
X15620658Y-15874555D01*
X15620658Y-15874555D02*
X15611134Y-15855508D01*
X15611134Y-15855508D02*
X15592087Y-15826936D01*
X15592087Y-15826936D02*
X15582563Y-15817412D01*
D12*
X10760000Y-16171000D02*
X10760000Y-16266000D01*
X10712500Y-16218500D02*
X10807500Y-16218500D01*
X10807500Y-16218500D02*
G75*
G02*
X10712500Y-16218500I-47500J0D01*
G01*
X10712500Y-16218500D02*
G75*
G02*
X10807500Y-16218500I47500J0D01*
G01*
D11*
X11106372Y-16109984D02*
X11125420Y-16109984D01*
X11125420Y-16109984D02*
X11144467Y-16119508D01*
X11144467Y-16119508D02*
X11153991Y-16129031D01*
X11153991Y-16129031D02*
X11163515Y-16148079D01*
X11163515Y-16148079D02*
X11173039Y-16186174D01*
X11173039Y-16186174D02*
X11173039Y-16233793D01*
X11173039Y-16233793D02*
X11163515Y-16271888D01*
X11163515Y-16271888D02*
X11153991Y-16290936D01*
X11153991Y-16290936D02*
X11144467Y-16300460D01*
X11144467Y-16300460D02*
X11125420Y-16309984D01*
X11125420Y-16309984D02*
X11106372Y-16309984D01*
X11106372Y-16309984D02*
X11087324Y-16300460D01*
X11087324Y-16300460D02*
X11077801Y-16290936D01*
X11077801Y-16290936D02*
X11068277Y-16271888D01*
X11068277Y-16271888D02*
X11058753Y-16233793D01*
X11058753Y-16233793D02*
X11058753Y-16186174D01*
X11058753Y-16186174D02*
X11068277Y-16148079D01*
X11068277Y-16148079D02*
X11077801Y-16129031D01*
X11077801Y-16129031D02*
X11087324Y-16119508D01*
X11087324Y-16119508D02*
X11106372Y-16109984D01*
X11258753Y-16290936D02*
X11268277Y-16300460D01*
X11268277Y-16300460D02*
X11258753Y-16309984D01*
X11258753Y-16309984D02*
X11249229Y-16300460D01*
X11249229Y-16300460D02*
X11258753Y-16290936D01*
X11258753Y-16290936D02*
X11258753Y-16309984D01*
X11363515Y-16309984D02*
X11401610Y-16309984D01*
X11401610Y-16309984D02*
X11420658Y-16300460D01*
X11420658Y-16300460D02*
X11430182Y-16290936D01*
X11430182Y-16290936D02*
X11449229Y-16262365D01*
X11449229Y-16262365D02*
X11458753Y-16224269D01*
X11458753Y-16224269D02*
X11458753Y-16148079D01*
X11458753Y-16148079D02*
X11449229Y-16129031D01*
X11449229Y-16129031D02*
X11439705Y-16119508D01*
X11439705Y-16119508D02*
X11420658Y-16109984D01*
X11420658Y-16109984D02*
X11382562Y-16109984D01*
X11382562Y-16109984D02*
X11363515Y-16119508D01*
X11363515Y-16119508D02*
X11353991Y-16129031D01*
X11353991Y-16129031D02*
X11344467Y-16148079D01*
X11344467Y-16148079D02*
X11344467Y-16195698D01*
X11344467Y-16195698D02*
X11353991Y-16214746D01*
X11353991Y-16214746D02*
X11363515Y-16224269D01*
X11363515Y-16224269D02*
X11382562Y-16233793D01*
X11382562Y-16233793D02*
X11420658Y-16233793D01*
X11420658Y-16233793D02*
X11439705Y-16224269D01*
X11439705Y-16224269D02*
X11449229Y-16214746D01*
X11449229Y-16214746D02*
X11458753Y-16195698D01*
X11639705Y-16109984D02*
X11544467Y-16109984D01*
X11544467Y-16109984D02*
X11534943Y-16205222D01*
X11534943Y-16205222D02*
X11544467Y-16195698D01*
X11544467Y-16195698D02*
X11563515Y-16186174D01*
X11563515Y-16186174D02*
X11611134Y-16186174D01*
X11611134Y-16186174D02*
X11630182Y-16195698D01*
X11630182Y-16195698D02*
X11639705Y-16205222D01*
X11639705Y-16205222D02*
X11649229Y-16224269D01*
X11649229Y-16224269D02*
X11649229Y-16271888D01*
X11649229Y-16271888D02*
X11639705Y-16290936D01*
X11639705Y-16290936D02*
X11630182Y-16300460D01*
X11630182Y-16300460D02*
X11611134Y-16309984D01*
X11611134Y-16309984D02*
X11563515Y-16309984D01*
X11563515Y-16309984D02*
X11544467Y-16300460D01*
X11544467Y-16300460D02*
X11534943Y-16290936D01*
X11773039Y-16109984D02*
X11792086Y-16109984D01*
X11792086Y-16109984D02*
X11811134Y-16119508D01*
X11811134Y-16119508D02*
X11820658Y-16129031D01*
X11820658Y-16129031D02*
X11830182Y-16148079D01*
X11830182Y-16148079D02*
X11839705Y-16186174D01*
X11839705Y-16186174D02*
X11839705Y-16233793D01*
X11839705Y-16233793D02*
X11830182Y-16271888D01*
X11830182Y-16271888D02*
X11820658Y-16290936D01*
X11820658Y-16290936D02*
X11811134Y-16300460D01*
X11811134Y-16300460D02*
X11792086Y-16309984D01*
X11792086Y-16309984D02*
X11773039Y-16309984D01*
X11773039Y-16309984D02*
X11753991Y-16300460D01*
X11753991Y-16300460D02*
X11744467Y-16290936D01*
X11744467Y-16290936D02*
X11734943Y-16271888D01*
X11734943Y-16271888D02*
X11725420Y-16233793D01*
X11725420Y-16233793D02*
X11725420Y-16186174D01*
X11725420Y-16186174D02*
X11734943Y-16148079D01*
X11734943Y-16148079D02*
X11744467Y-16129031D01*
X11744467Y-16129031D02*
X11753991Y-16119508D01*
X11753991Y-16119508D02*
X11773039Y-16109984D01*
X11925420Y-16309984D02*
X11925420Y-16176650D01*
X11925420Y-16195698D02*
X11934943Y-16186174D01*
X11934943Y-16186174D02*
X11953991Y-16176650D01*
X11953991Y-16176650D02*
X11982563Y-16176650D01*
X11982563Y-16176650D02*
X12001610Y-16186174D01*
X12001610Y-16186174D02*
X12011134Y-16205222D01*
X12011134Y-16205222D02*
X12011134Y-16309984D01*
X12011134Y-16205222D02*
X12020658Y-16186174D01*
X12020658Y-16186174D02*
X12039705Y-16176650D01*
X12039705Y-16176650D02*
X12068277Y-16176650D01*
X12068277Y-16176650D02*
X12087324Y-16186174D01*
X12087324Y-16186174D02*
X12096848Y-16205222D01*
X12096848Y-16205222D02*
X12096848Y-16309984D01*
X12192086Y-16309984D02*
X12192086Y-16176650D01*
X12192086Y-16195698D02*
X12201610Y-16186174D01*
X12201610Y-16186174D02*
X12220658Y-16176650D01*
X12220658Y-16176650D02*
X12249229Y-16176650D01*
X12249229Y-16176650D02*
X12268277Y-16186174D01*
X12268277Y-16186174D02*
X12277801Y-16205222D01*
X12277801Y-16205222D02*
X12277801Y-16309984D01*
X12277801Y-16205222D02*
X12287324Y-16186174D01*
X12287324Y-16186174D02*
X12306372Y-16176650D01*
X12306372Y-16176650D02*
X12334943Y-16176650D01*
X12334943Y-16176650D02*
X12353991Y-16186174D01*
X12353991Y-16186174D02*
X12363515Y-16205222D01*
X12363515Y-16205222D02*
X12363515Y-16309984D01*
X12753991Y-16100460D02*
X12582563Y-16357603D01*
X13011134Y-16109984D02*
X13030182Y-16109984D01*
X13030182Y-16109984D02*
X13049229Y-16119508D01*
X13049229Y-16119508D02*
X13058753Y-16129031D01*
X13058753Y-16129031D02*
X13068277Y-16148079D01*
X13068277Y-16148079D02*
X13077801Y-16186174D01*
X13077801Y-16186174D02*
X13077801Y-16233793D01*
X13077801Y-16233793D02*
X13068277Y-16271888D01*
X13068277Y-16271888D02*
X13058753Y-16290936D01*
X13058753Y-16290936D02*
X13049229Y-16300460D01*
X13049229Y-16300460D02*
X13030182Y-16309984D01*
X13030182Y-16309984D02*
X13011134Y-16309984D01*
X13011134Y-16309984D02*
X12992086Y-16300460D01*
X12992086Y-16300460D02*
X12982563Y-16290936D01*
X12982563Y-16290936D02*
X12973039Y-16271888D01*
X12973039Y-16271888D02*
X12963515Y-16233793D01*
X12963515Y-16233793D02*
X12963515Y-16186174D01*
X12963515Y-16186174D02*
X12973039Y-16148079D01*
X12973039Y-16148079D02*
X12982563Y-16129031D01*
X12982563Y-16129031D02*
X12992086Y-16119508D01*
X12992086Y-16119508D02*
X13011134Y-16109984D01*
X13163515Y-16290936D02*
X13173039Y-16300460D01*
X13173039Y-16300460D02*
X13163515Y-16309984D01*
X13163515Y-16309984D02*
X13153991Y-16300460D01*
X13153991Y-16300460D02*
X13163515Y-16290936D01*
X13163515Y-16290936D02*
X13163515Y-16309984D01*
X13296848Y-16109984D02*
X13315896Y-16109984D01*
X13315896Y-16109984D02*
X13334944Y-16119508D01*
X13334944Y-16119508D02*
X13344467Y-16129031D01*
X13344467Y-16129031D02*
X13353991Y-16148079D01*
X13353991Y-16148079D02*
X13363515Y-16186174D01*
X13363515Y-16186174D02*
X13363515Y-16233793D01*
X13363515Y-16233793D02*
X13353991Y-16271888D01*
X13353991Y-16271888D02*
X13344467Y-16290936D01*
X13344467Y-16290936D02*
X13334944Y-16300460D01*
X13334944Y-16300460D02*
X13315896Y-16309984D01*
X13315896Y-16309984D02*
X13296848Y-16309984D01*
X13296848Y-16309984D02*
X13277801Y-16300460D01*
X13277801Y-16300460D02*
X13268277Y-16290936D01*
X13268277Y-16290936D02*
X13258753Y-16271888D01*
X13258753Y-16271888D02*
X13249229Y-16233793D01*
X13249229Y-16233793D02*
X13249229Y-16186174D01*
X13249229Y-16186174D02*
X13258753Y-16148079D01*
X13258753Y-16148079D02*
X13268277Y-16129031D01*
X13268277Y-16129031D02*
X13277801Y-16119508D01*
X13277801Y-16119508D02*
X13296848Y-16109984D01*
X13430182Y-16109984D02*
X13553991Y-16109984D01*
X13553991Y-16109984D02*
X13487325Y-16186174D01*
X13487325Y-16186174D02*
X13515896Y-16186174D01*
X13515896Y-16186174D02*
X13534944Y-16195698D01*
X13534944Y-16195698D02*
X13544467Y-16205222D01*
X13544467Y-16205222D02*
X13553991Y-16224269D01*
X13553991Y-16224269D02*
X13553991Y-16271888D01*
X13553991Y-16271888D02*
X13544467Y-16290936D01*
X13544467Y-16290936D02*
X13534944Y-16300460D01*
X13534944Y-16300460D02*
X13515896Y-16309984D01*
X13515896Y-16309984D02*
X13458753Y-16309984D01*
X13458753Y-16309984D02*
X13439706Y-16300460D01*
X13439706Y-16300460D02*
X13430182Y-16290936D01*
X13620658Y-16109984D02*
X13753991Y-16109984D01*
X13753991Y-16109984D02*
X13668277Y-16309984D01*
X13915896Y-16176650D02*
X13915896Y-16309984D01*
X13868277Y-16100460D02*
X13820658Y-16243317D01*
X13820658Y-16243317D02*
X13944467Y-16243317D01*
X14011134Y-16109984D02*
X14011134Y-16148079D01*
X14087325Y-16109984D02*
X14087325Y-16148079D01*
X14382563Y-16386174D02*
X14373039Y-16376650D01*
X14373039Y-16376650D02*
X14353991Y-16348079D01*
X14353991Y-16348079D02*
X14344468Y-16329031D01*
X14344468Y-16329031D02*
X14334944Y-16300460D01*
X14334944Y-16300460D02*
X14325420Y-16252841D01*
X14325420Y-16252841D02*
X14325420Y-16214746D01*
X14325420Y-16214746D02*
X14334944Y-16167127D01*
X14334944Y-16167127D02*
X14344468Y-16138555D01*
X14344468Y-16138555D02*
X14353991Y-16119508D01*
X14353991Y-16119508D02*
X14373039Y-16090936D01*
X14373039Y-16090936D02*
X14382563Y-16081412D01*
X14439706Y-16109984D02*
X14563515Y-16109984D01*
X14563515Y-16109984D02*
X14496848Y-16186174D01*
X14496848Y-16186174D02*
X14525420Y-16186174D01*
X14525420Y-16186174D02*
X14544468Y-16195698D01*
X14544468Y-16195698D02*
X14553991Y-16205222D01*
X14553991Y-16205222D02*
X14563515Y-16224269D01*
X14563515Y-16224269D02*
X14563515Y-16271888D01*
X14563515Y-16271888D02*
X14553991Y-16290936D01*
X14553991Y-16290936D02*
X14544468Y-16300460D01*
X14544468Y-16300460D02*
X14525420Y-16309984D01*
X14525420Y-16309984D02*
X14468277Y-16309984D01*
X14468277Y-16309984D02*
X14449229Y-16300460D01*
X14449229Y-16300460D02*
X14439706Y-16290936D01*
X14801610Y-16309984D02*
X14801610Y-16109984D01*
X14887325Y-16309984D02*
X14887325Y-16205222D01*
X14887325Y-16205222D02*
X14877801Y-16186174D01*
X14877801Y-16186174D02*
X14858753Y-16176650D01*
X14858753Y-16176650D02*
X14830182Y-16176650D01*
X14830182Y-16176650D02*
X14811134Y-16186174D01*
X14811134Y-16186174D02*
X14801610Y-16195698D01*
X15011134Y-16309984D02*
X14992087Y-16300460D01*
X14992087Y-16300460D02*
X14982563Y-16290936D01*
X14982563Y-16290936D02*
X14973039Y-16271888D01*
X14973039Y-16271888D02*
X14973039Y-16214746D01*
X14973039Y-16214746D02*
X14982563Y-16195698D01*
X14982563Y-16195698D02*
X14992087Y-16186174D01*
X14992087Y-16186174D02*
X15011134Y-16176650D01*
X15011134Y-16176650D02*
X15039706Y-16176650D01*
X15039706Y-16176650D02*
X15058753Y-16186174D01*
X15058753Y-16186174D02*
X15068277Y-16195698D01*
X15068277Y-16195698D02*
X15077801Y-16214746D01*
X15077801Y-16214746D02*
X15077801Y-16271888D01*
X15077801Y-16271888D02*
X15068277Y-16290936D01*
X15068277Y-16290936D02*
X15058753Y-16300460D01*
X15058753Y-16300460D02*
X15039706Y-16309984D01*
X15039706Y-16309984D02*
X15011134Y-16309984D01*
X15192087Y-16309984D02*
X15173039Y-16300460D01*
X15173039Y-16300460D02*
X15163515Y-16281412D01*
X15163515Y-16281412D02*
X15163515Y-16109984D01*
X15344468Y-16300460D02*
X15325420Y-16309984D01*
X15325420Y-16309984D02*
X15287325Y-16309984D01*
X15287325Y-16309984D02*
X15268277Y-16300460D01*
X15268277Y-16300460D02*
X15258753Y-16281412D01*
X15258753Y-16281412D02*
X15258753Y-16205222D01*
X15258753Y-16205222D02*
X15268277Y-16186174D01*
X15268277Y-16186174D02*
X15287325Y-16176650D01*
X15287325Y-16176650D02*
X15325420Y-16176650D01*
X15325420Y-16176650D02*
X15344468Y-16186174D01*
X15344468Y-16186174D02*
X15353991Y-16205222D01*
X15353991Y-16205222D02*
X15353991Y-16224269D01*
X15353991Y-16224269D02*
X15258753Y-16243317D01*
X15430182Y-16300460D02*
X15449230Y-16309984D01*
X15449230Y-16309984D02*
X15487325Y-16309984D01*
X15487325Y-16309984D02*
X15506372Y-16300460D01*
X15506372Y-16300460D02*
X15515896Y-16281412D01*
X15515896Y-16281412D02*
X15515896Y-16271888D01*
X15515896Y-16271888D02*
X15506372Y-16252841D01*
X15506372Y-16252841D02*
X15487325Y-16243317D01*
X15487325Y-16243317D02*
X15458753Y-16243317D01*
X15458753Y-16243317D02*
X15439706Y-16233793D01*
X15439706Y-16233793D02*
X15430182Y-16214746D01*
X15430182Y-16214746D02*
X15430182Y-16205222D01*
X15430182Y-16205222D02*
X15439706Y-16186174D01*
X15439706Y-16186174D02*
X15458753Y-16176650D01*
X15458753Y-16176650D02*
X15487325Y-16176650D01*
X15487325Y-16176650D02*
X15506372Y-16186174D01*
X15582563Y-16386174D02*
X15592087Y-16376650D01*
X15592087Y-16376650D02*
X15611134Y-16348079D01*
X15611134Y-16348079D02*
X15620658Y-16329031D01*
X15620658Y-16329031D02*
X15630182Y-16300460D01*
X15630182Y-16300460D02*
X15639706Y-16252841D01*
X15639706Y-16252841D02*
X15639706Y-16214746D01*
X15639706Y-16214746D02*
X15630182Y-16167127D01*
X15630182Y-16167127D02*
X15620658Y-16138555D01*
X15620658Y-16138555D02*
X15611134Y-16119508D01*
X15611134Y-16119508D02*
X15592087Y-16090936D01*
X15592087Y-16090936D02*
X15582563Y-16081412D01*
X10778211Y-16553211D02*
X10778211Y-16411789D01*
X10636789Y-16411789D01*
X10636789Y-16553211D01*
X10778211Y-16553211D01*
X10807500Y-16482500D02*
G75*
G02*
X10607500Y-16482500I-100000J0D01*
G01*
X10607500Y-16482500D02*
G75*
G02*
X10807500Y-16482500I100000J0D01*
G01*
X11058753Y-16393031D02*
X11068277Y-16383508D01*
X11068277Y-16383508D02*
X11087324Y-16373984D01*
X11087324Y-16373984D02*
X11134944Y-16373984D01*
X11134944Y-16373984D02*
X11153991Y-16383508D01*
X11153991Y-16383508D02*
X11163515Y-16393031D01*
X11163515Y-16393031D02*
X11173039Y-16412079D01*
X11173039Y-16412079D02*
X11173039Y-16431127D01*
X11173039Y-16431127D02*
X11163515Y-16459698D01*
X11163515Y-16459698D02*
X11049229Y-16573984D01*
X11049229Y-16573984D02*
X11173039Y-16573984D01*
X11258753Y-16554936D02*
X11268277Y-16564460D01*
X11268277Y-16564460D02*
X11258753Y-16573984D01*
X11258753Y-16573984D02*
X11249229Y-16564460D01*
X11249229Y-16564460D02*
X11258753Y-16554936D01*
X11258753Y-16554936D02*
X11258753Y-16573984D01*
X11344467Y-16393031D02*
X11353991Y-16383508D01*
X11353991Y-16383508D02*
X11373039Y-16373984D01*
X11373039Y-16373984D02*
X11420658Y-16373984D01*
X11420658Y-16373984D02*
X11439705Y-16383508D01*
X11439705Y-16383508D02*
X11449229Y-16393031D01*
X11449229Y-16393031D02*
X11458753Y-16412079D01*
X11458753Y-16412079D02*
X11458753Y-16431127D01*
X11458753Y-16431127D02*
X11449229Y-16459698D01*
X11449229Y-16459698D02*
X11334943Y-16573984D01*
X11334943Y-16573984D02*
X11458753Y-16573984D01*
X11582562Y-16373984D02*
X11601610Y-16373984D01*
X11601610Y-16373984D02*
X11620658Y-16383508D01*
X11620658Y-16383508D02*
X11630182Y-16393031D01*
X11630182Y-16393031D02*
X11639705Y-16412079D01*
X11639705Y-16412079D02*
X11649229Y-16450174D01*
X11649229Y-16450174D02*
X11649229Y-16497793D01*
X11649229Y-16497793D02*
X11639705Y-16535888D01*
X11639705Y-16535888D02*
X11630182Y-16554936D01*
X11630182Y-16554936D02*
X11620658Y-16564460D01*
X11620658Y-16564460D02*
X11601610Y-16573984D01*
X11601610Y-16573984D02*
X11582562Y-16573984D01*
X11582562Y-16573984D02*
X11563515Y-16564460D01*
X11563515Y-16564460D02*
X11553991Y-16554936D01*
X11553991Y-16554936D02*
X11544467Y-16535888D01*
X11544467Y-16535888D02*
X11534943Y-16497793D01*
X11534943Y-16497793D02*
X11534943Y-16450174D01*
X11534943Y-16450174D02*
X11544467Y-16412079D01*
X11544467Y-16412079D02*
X11553991Y-16393031D01*
X11553991Y-16393031D02*
X11563515Y-16383508D01*
X11563515Y-16383508D02*
X11582562Y-16373984D01*
X11773039Y-16373984D02*
X11792086Y-16373984D01*
X11792086Y-16373984D02*
X11811134Y-16383508D01*
X11811134Y-16383508D02*
X11820658Y-16393031D01*
X11820658Y-16393031D02*
X11830182Y-16412079D01*
X11830182Y-16412079D02*
X11839705Y-16450174D01*
X11839705Y-16450174D02*
X11839705Y-16497793D01*
X11839705Y-16497793D02*
X11830182Y-16535888D01*
X11830182Y-16535888D02*
X11820658Y-16554936D01*
X11820658Y-16554936D02*
X11811134Y-16564460D01*
X11811134Y-16564460D02*
X11792086Y-16573984D01*
X11792086Y-16573984D02*
X11773039Y-16573984D01*
X11773039Y-16573984D02*
X11753991Y-16564460D01*
X11753991Y-16564460D02*
X11744467Y-16554936D01*
X11744467Y-16554936D02*
X11734943Y-16535888D01*
X11734943Y-16535888D02*
X11725420Y-16497793D01*
X11725420Y-16497793D02*
X11725420Y-16450174D01*
X11725420Y-16450174D02*
X11734943Y-16412079D01*
X11734943Y-16412079D02*
X11744467Y-16393031D01*
X11744467Y-16393031D02*
X11753991Y-16383508D01*
X11753991Y-16383508D02*
X11773039Y-16373984D01*
X11925420Y-16573984D02*
X11925420Y-16440650D01*
X11925420Y-16459698D02*
X11934943Y-16450174D01*
X11934943Y-16450174D02*
X11953991Y-16440650D01*
X11953991Y-16440650D02*
X11982563Y-16440650D01*
X11982563Y-16440650D02*
X12001610Y-16450174D01*
X12001610Y-16450174D02*
X12011134Y-16469222D01*
X12011134Y-16469222D02*
X12011134Y-16573984D01*
X12011134Y-16469222D02*
X12020658Y-16450174D01*
X12020658Y-16450174D02*
X12039705Y-16440650D01*
X12039705Y-16440650D02*
X12068277Y-16440650D01*
X12068277Y-16440650D02*
X12087324Y-16450174D01*
X12087324Y-16450174D02*
X12096848Y-16469222D01*
X12096848Y-16469222D02*
X12096848Y-16573984D01*
X12192086Y-16573984D02*
X12192086Y-16440650D01*
X12192086Y-16459698D02*
X12201610Y-16450174D01*
X12201610Y-16450174D02*
X12220658Y-16440650D01*
X12220658Y-16440650D02*
X12249229Y-16440650D01*
X12249229Y-16440650D02*
X12268277Y-16450174D01*
X12268277Y-16450174D02*
X12277801Y-16469222D01*
X12277801Y-16469222D02*
X12277801Y-16573984D01*
X12277801Y-16469222D02*
X12287324Y-16450174D01*
X12287324Y-16450174D02*
X12306372Y-16440650D01*
X12306372Y-16440650D02*
X12334943Y-16440650D01*
X12334943Y-16440650D02*
X12353991Y-16450174D01*
X12353991Y-16450174D02*
X12363515Y-16469222D01*
X12363515Y-16469222D02*
X12363515Y-16573984D01*
X12753991Y-16364460D02*
X12582563Y-16621603D01*
X13011134Y-16373984D02*
X13030182Y-16373984D01*
X13030182Y-16373984D02*
X13049229Y-16383508D01*
X13049229Y-16383508D02*
X13058753Y-16393031D01*
X13058753Y-16393031D02*
X13068277Y-16412079D01*
X13068277Y-16412079D02*
X13077801Y-16450174D01*
X13077801Y-16450174D02*
X13077801Y-16497793D01*
X13077801Y-16497793D02*
X13068277Y-16535888D01*
X13068277Y-16535888D02*
X13058753Y-16554936D01*
X13058753Y-16554936D02*
X13049229Y-16564460D01*
X13049229Y-16564460D02*
X13030182Y-16573984D01*
X13030182Y-16573984D02*
X13011134Y-16573984D01*
X13011134Y-16573984D02*
X12992086Y-16564460D01*
X12992086Y-16564460D02*
X12982563Y-16554936D01*
X12982563Y-16554936D02*
X12973039Y-16535888D01*
X12973039Y-16535888D02*
X12963515Y-16497793D01*
X12963515Y-16497793D02*
X12963515Y-16450174D01*
X12963515Y-16450174D02*
X12973039Y-16412079D01*
X12973039Y-16412079D02*
X12982563Y-16393031D01*
X12982563Y-16393031D02*
X12992086Y-16383508D01*
X12992086Y-16383508D02*
X13011134Y-16373984D01*
X13163515Y-16554936D02*
X13173039Y-16564460D01*
X13173039Y-16564460D02*
X13163515Y-16573984D01*
X13163515Y-16573984D02*
X13153991Y-16564460D01*
X13153991Y-16564460D02*
X13163515Y-16554936D01*
X13163515Y-16554936D02*
X13163515Y-16573984D01*
X13296848Y-16373984D02*
X13315896Y-16373984D01*
X13315896Y-16373984D02*
X13334944Y-16383508D01*
X13334944Y-16383508D02*
X13344467Y-16393031D01*
X13344467Y-16393031D02*
X13353991Y-16412079D01*
X13353991Y-16412079D02*
X13363515Y-16450174D01*
X13363515Y-16450174D02*
X13363515Y-16497793D01*
X13363515Y-16497793D02*
X13353991Y-16535888D01*
X13353991Y-16535888D02*
X13344467Y-16554936D01*
X13344467Y-16554936D02*
X13334944Y-16564460D01*
X13334944Y-16564460D02*
X13315896Y-16573984D01*
X13315896Y-16573984D02*
X13296848Y-16573984D01*
X13296848Y-16573984D02*
X13277801Y-16564460D01*
X13277801Y-16564460D02*
X13268277Y-16554936D01*
X13268277Y-16554936D02*
X13258753Y-16535888D01*
X13258753Y-16535888D02*
X13249229Y-16497793D01*
X13249229Y-16497793D02*
X13249229Y-16450174D01*
X13249229Y-16450174D02*
X13258753Y-16412079D01*
X13258753Y-16412079D02*
X13268277Y-16393031D01*
X13268277Y-16393031D02*
X13277801Y-16383508D01*
X13277801Y-16383508D02*
X13296848Y-16373984D01*
X13477801Y-16459698D02*
X13458753Y-16450174D01*
X13458753Y-16450174D02*
X13449229Y-16440650D01*
X13449229Y-16440650D02*
X13439706Y-16421603D01*
X13439706Y-16421603D02*
X13439706Y-16412079D01*
X13439706Y-16412079D02*
X13449229Y-16393031D01*
X13449229Y-16393031D02*
X13458753Y-16383508D01*
X13458753Y-16383508D02*
X13477801Y-16373984D01*
X13477801Y-16373984D02*
X13515896Y-16373984D01*
X13515896Y-16373984D02*
X13534944Y-16383508D01*
X13534944Y-16383508D02*
X13544467Y-16393031D01*
X13544467Y-16393031D02*
X13553991Y-16412079D01*
X13553991Y-16412079D02*
X13553991Y-16421603D01*
X13553991Y-16421603D02*
X13544467Y-16440650D01*
X13544467Y-16440650D02*
X13534944Y-16450174D01*
X13534944Y-16450174D02*
X13515896Y-16459698D01*
X13515896Y-16459698D02*
X13477801Y-16459698D01*
X13477801Y-16459698D02*
X13458753Y-16469222D01*
X13458753Y-16469222D02*
X13449229Y-16478746D01*
X13449229Y-16478746D02*
X13439706Y-16497793D01*
X13439706Y-16497793D02*
X13439706Y-16535888D01*
X13439706Y-16535888D02*
X13449229Y-16554936D01*
X13449229Y-16554936D02*
X13458753Y-16564460D01*
X13458753Y-16564460D02*
X13477801Y-16573984D01*
X13477801Y-16573984D02*
X13515896Y-16573984D01*
X13515896Y-16573984D02*
X13534944Y-16564460D01*
X13534944Y-16564460D02*
X13544467Y-16554936D01*
X13544467Y-16554936D02*
X13553991Y-16535888D01*
X13553991Y-16535888D02*
X13553991Y-16497793D01*
X13553991Y-16497793D02*
X13544467Y-16478746D01*
X13544467Y-16478746D02*
X13534944Y-16469222D01*
X13534944Y-16469222D02*
X13515896Y-16459698D01*
X13725420Y-16373984D02*
X13687325Y-16373984D01*
X13687325Y-16373984D02*
X13668277Y-16383508D01*
X13668277Y-16383508D02*
X13658753Y-16393031D01*
X13658753Y-16393031D02*
X13639706Y-16421603D01*
X13639706Y-16421603D02*
X13630182Y-16459698D01*
X13630182Y-16459698D02*
X13630182Y-16535888D01*
X13630182Y-16535888D02*
X13639706Y-16554936D01*
X13639706Y-16554936D02*
X13649229Y-16564460D01*
X13649229Y-16564460D02*
X13668277Y-16573984D01*
X13668277Y-16573984D02*
X13706372Y-16573984D01*
X13706372Y-16573984D02*
X13725420Y-16564460D01*
X13725420Y-16564460D02*
X13734944Y-16554936D01*
X13734944Y-16554936D02*
X13744467Y-16535888D01*
X13744467Y-16535888D02*
X13744467Y-16488269D01*
X13744467Y-16488269D02*
X13734944Y-16469222D01*
X13734944Y-16469222D02*
X13725420Y-16459698D01*
X13725420Y-16459698D02*
X13706372Y-16450174D01*
X13706372Y-16450174D02*
X13668277Y-16450174D01*
X13668277Y-16450174D02*
X13649229Y-16459698D01*
X13649229Y-16459698D02*
X13639706Y-16469222D01*
X13639706Y-16469222D02*
X13630182Y-16488269D01*
X13915896Y-16373984D02*
X13877801Y-16373984D01*
X13877801Y-16373984D02*
X13858753Y-16383508D01*
X13858753Y-16383508D02*
X13849229Y-16393031D01*
X13849229Y-16393031D02*
X13830182Y-16421603D01*
X13830182Y-16421603D02*
X13820658Y-16459698D01*
X13820658Y-16459698D02*
X13820658Y-16535888D01*
X13820658Y-16535888D02*
X13830182Y-16554936D01*
X13830182Y-16554936D02*
X13839706Y-16564460D01*
X13839706Y-16564460D02*
X13858753Y-16573984D01*
X13858753Y-16573984D02*
X13896848Y-16573984D01*
X13896848Y-16573984D02*
X13915896Y-16564460D01*
X13915896Y-16564460D02*
X13925420Y-16554936D01*
X13925420Y-16554936D02*
X13934944Y-16535888D01*
X13934944Y-16535888D02*
X13934944Y-16488269D01*
X13934944Y-16488269D02*
X13925420Y-16469222D01*
X13925420Y-16469222D02*
X13915896Y-16459698D01*
X13915896Y-16459698D02*
X13896848Y-16450174D01*
X13896848Y-16450174D02*
X13858753Y-16450174D01*
X13858753Y-16450174D02*
X13839706Y-16459698D01*
X13839706Y-16459698D02*
X13830182Y-16469222D01*
X13830182Y-16469222D02*
X13820658Y-16488269D01*
X14011134Y-16373984D02*
X14011134Y-16412079D01*
X14087325Y-16373984D02*
X14087325Y-16412079D01*
X14382563Y-16650174D02*
X14373039Y-16640650D01*
X14373039Y-16640650D02*
X14353991Y-16612079D01*
X14353991Y-16612079D02*
X14344468Y-16593031D01*
X14344468Y-16593031D02*
X14334944Y-16564460D01*
X14334944Y-16564460D02*
X14325420Y-16516841D01*
X14325420Y-16516841D02*
X14325420Y-16478746D01*
X14325420Y-16478746D02*
X14334944Y-16431127D01*
X14334944Y-16431127D02*
X14344468Y-16402555D01*
X14344468Y-16402555D02*
X14353991Y-16383508D01*
X14353991Y-16383508D02*
X14373039Y-16354936D01*
X14373039Y-16354936D02*
X14382563Y-16345412D01*
X14449229Y-16393031D02*
X14458753Y-16383508D01*
X14458753Y-16383508D02*
X14477801Y-16373984D01*
X14477801Y-16373984D02*
X14525420Y-16373984D01*
X14525420Y-16373984D02*
X14544468Y-16383508D01*
X14544468Y-16383508D02*
X14553991Y-16393031D01*
X14553991Y-16393031D02*
X14563515Y-16412079D01*
X14563515Y-16412079D02*
X14563515Y-16431127D01*
X14563515Y-16431127D02*
X14553991Y-16459698D01*
X14553991Y-16459698D02*
X14439706Y-16573984D01*
X14439706Y-16573984D02*
X14563515Y-16573984D01*
X14801610Y-16573984D02*
X14801610Y-16373984D01*
X14887325Y-16573984D02*
X14887325Y-16469222D01*
X14887325Y-16469222D02*
X14877801Y-16450174D01*
X14877801Y-16450174D02*
X14858753Y-16440650D01*
X14858753Y-16440650D02*
X14830182Y-16440650D01*
X14830182Y-16440650D02*
X14811134Y-16450174D01*
X14811134Y-16450174D02*
X14801610Y-16459698D01*
X15011134Y-16573984D02*
X14992087Y-16564460D01*
X14992087Y-16564460D02*
X14982563Y-16554936D01*
X14982563Y-16554936D02*
X14973039Y-16535888D01*
X14973039Y-16535888D02*
X14973039Y-16478746D01*
X14973039Y-16478746D02*
X14982563Y-16459698D01*
X14982563Y-16459698D02*
X14992087Y-16450174D01*
X14992087Y-16450174D02*
X15011134Y-16440650D01*
X15011134Y-16440650D02*
X15039706Y-16440650D01*
X15039706Y-16440650D02*
X15058753Y-16450174D01*
X15058753Y-16450174D02*
X15068277Y-16459698D01*
X15068277Y-16459698D02*
X15077801Y-16478746D01*
X15077801Y-16478746D02*
X15077801Y-16535888D01*
X15077801Y-16535888D02*
X15068277Y-16554936D01*
X15068277Y-16554936D02*
X15058753Y-16564460D01*
X15058753Y-16564460D02*
X15039706Y-16573984D01*
X15039706Y-16573984D02*
X15011134Y-16573984D01*
X15192087Y-16573984D02*
X15173039Y-16564460D01*
X15173039Y-16564460D02*
X15163515Y-16545412D01*
X15163515Y-16545412D02*
X15163515Y-16373984D01*
X15344468Y-16564460D02*
X15325420Y-16573984D01*
X15325420Y-16573984D02*
X15287325Y-16573984D01*
X15287325Y-16573984D02*
X15268277Y-16564460D01*
X15268277Y-16564460D02*
X15258753Y-16545412D01*
X15258753Y-16545412D02*
X15258753Y-16469222D01*
X15258753Y-16469222D02*
X15268277Y-16450174D01*
X15268277Y-16450174D02*
X15287325Y-16440650D01*
X15287325Y-16440650D02*
X15325420Y-16440650D01*
X15325420Y-16440650D02*
X15344468Y-16450174D01*
X15344468Y-16450174D02*
X15353991Y-16469222D01*
X15353991Y-16469222D02*
X15353991Y-16488269D01*
X15353991Y-16488269D02*
X15258753Y-16507317D01*
X15430182Y-16564460D02*
X15449230Y-16573984D01*
X15449230Y-16573984D02*
X15487325Y-16573984D01*
X15487325Y-16573984D02*
X15506372Y-16564460D01*
X15506372Y-16564460D02*
X15515896Y-16545412D01*
X15515896Y-16545412D02*
X15515896Y-16535888D01*
X15515896Y-16535888D02*
X15506372Y-16516841D01*
X15506372Y-16516841D02*
X15487325Y-16507317D01*
X15487325Y-16507317D02*
X15458753Y-16507317D01*
X15458753Y-16507317D02*
X15439706Y-16497793D01*
X15439706Y-16497793D02*
X15430182Y-16478746D01*
X15430182Y-16478746D02*
X15430182Y-16469222D01*
X15430182Y-16469222D02*
X15439706Y-16450174D01*
X15439706Y-16450174D02*
X15458753Y-16440650D01*
X15458753Y-16440650D02*
X15487325Y-16440650D01*
X15487325Y-16440650D02*
X15506372Y-16450174D01*
X15582563Y-16650174D02*
X15592087Y-16640650D01*
X15592087Y-16640650D02*
X15611134Y-16612079D01*
X15611134Y-16612079D02*
X15620658Y-16593031D01*
X15620658Y-16593031D02*
X15630182Y-16564460D01*
X15630182Y-16564460D02*
X15639706Y-16516841D01*
X15639706Y-16516841D02*
X15639706Y-16478746D01*
X15639706Y-16478746D02*
X15630182Y-16431127D01*
X15630182Y-16431127D02*
X15620658Y-16402555D01*
X15620658Y-16402555D02*
X15611134Y-16383508D01*
X15611134Y-16383508D02*
X15592087Y-16354936D01*
X15592087Y-16354936D02*
X15582563Y-16345412D01*
M02*
