%TF.GenerationSoftware,KiCad,Pcbnew,8.0.7-8.0.7-0~ubuntu24.04.1*%
%TF.CreationDate,2024-12-31T12:59:00-07:00*%
%TF.ProjectId,2s 40A PSU and charger,32732034-3041-4205-9053-5520616e6420,V1*%
%TF.SameCoordinates,Original*%
%TF.FileFunction,Drillmap*%
%TF.FilePolarity,Positive*%
%FSLAX45Y45*%
G04 Gerber Fmt 4.5, Leading zero omitted, Abs format (unit mm)*
G04 Created by KiCad (PCBNEW 8.0.7-8.0.7-0~ubuntu24.04.1) date 2024-12-31 12:59:00*
%MOMM*%
%LPD*%
G01*
G04 APERTURE LIST*
%ADD10C,0.050000*%
%ADD11C,0.200000*%
G04 APERTURE END LIST*
D10*
X10810000Y-13000000D02*
X10810000Y-11200000D01*
X10810000Y-11200000D02*
X15310000Y-11200000D01*
X15310000Y-13000000D02*
G75*
G02*
X15110000Y-13200000I-200000J0D01*
G01*
X15110000Y-13200000D02*
X11010000Y-13200000D01*
X11010000Y-13200000D02*
G75*
G02*
X10810000Y-13000000I0J200000D01*
G01*
X15310000Y-11200000D02*
X15310000Y-13000000D01*
D11*
X11068277Y-13513984D02*
X11068277Y-13313984D01*
X11068277Y-13313984D02*
X11115896Y-13313984D01*
X11115896Y-13313984D02*
X11144467Y-13323508D01*
X11144467Y-13323508D02*
X11163515Y-13342555D01*
X11163515Y-13342555D02*
X11173039Y-13361603D01*
X11173039Y-13361603D02*
X11182563Y-13399698D01*
X11182563Y-13399698D02*
X11182563Y-13428269D01*
X11182563Y-13428269D02*
X11173039Y-13466365D01*
X11173039Y-13466365D02*
X11163515Y-13485412D01*
X11163515Y-13485412D02*
X11144467Y-13504460D01*
X11144467Y-13504460D02*
X11115896Y-13513984D01*
X11115896Y-13513984D02*
X11068277Y-13513984D01*
X11268277Y-13513984D02*
X11268277Y-13380650D01*
X11268277Y-13418746D02*
X11277801Y-13399698D01*
X11277801Y-13399698D02*
X11287324Y-13390174D01*
X11287324Y-13390174D02*
X11306372Y-13380650D01*
X11306372Y-13380650D02*
X11325420Y-13380650D01*
X11392086Y-13513984D02*
X11392086Y-13380650D01*
X11392086Y-13313984D02*
X11382562Y-13323508D01*
X11382562Y-13323508D02*
X11392086Y-13333031D01*
X11392086Y-13333031D02*
X11401610Y-13323508D01*
X11401610Y-13323508D02*
X11392086Y-13313984D01*
X11392086Y-13313984D02*
X11392086Y-13333031D01*
X11515896Y-13513984D02*
X11496848Y-13504460D01*
X11496848Y-13504460D02*
X11487324Y-13485412D01*
X11487324Y-13485412D02*
X11487324Y-13313984D01*
X11620658Y-13513984D02*
X11601610Y-13504460D01*
X11601610Y-13504460D02*
X11592086Y-13485412D01*
X11592086Y-13485412D02*
X11592086Y-13313984D01*
X11849229Y-13513984D02*
X11849229Y-13313984D01*
X11849229Y-13313984D02*
X11915896Y-13456841D01*
X11915896Y-13456841D02*
X11982562Y-13313984D01*
X11982562Y-13313984D02*
X11982562Y-13513984D01*
X12163515Y-13513984D02*
X12163515Y-13409222D01*
X12163515Y-13409222D02*
X12153991Y-13390174D01*
X12153991Y-13390174D02*
X12134943Y-13380650D01*
X12134943Y-13380650D02*
X12096848Y-13380650D01*
X12096848Y-13380650D02*
X12077801Y-13390174D01*
X12163515Y-13504460D02*
X12144467Y-13513984D01*
X12144467Y-13513984D02*
X12096848Y-13513984D01*
X12096848Y-13513984D02*
X12077801Y-13504460D01*
X12077801Y-13504460D02*
X12068277Y-13485412D01*
X12068277Y-13485412D02*
X12068277Y-13466365D01*
X12068277Y-13466365D02*
X12077801Y-13447317D01*
X12077801Y-13447317D02*
X12096848Y-13437793D01*
X12096848Y-13437793D02*
X12144467Y-13437793D01*
X12144467Y-13437793D02*
X12163515Y-13428269D01*
X12258753Y-13380650D02*
X12258753Y-13580650D01*
X12258753Y-13390174D02*
X12277801Y-13380650D01*
X12277801Y-13380650D02*
X12315896Y-13380650D01*
X12315896Y-13380650D02*
X12334943Y-13390174D01*
X12334943Y-13390174D02*
X12344467Y-13399698D01*
X12344467Y-13399698D02*
X12353991Y-13418746D01*
X12353991Y-13418746D02*
X12353991Y-13475888D01*
X12353991Y-13475888D02*
X12344467Y-13494936D01*
X12344467Y-13494936D02*
X12334943Y-13504460D01*
X12334943Y-13504460D02*
X12315896Y-13513984D01*
X12315896Y-13513984D02*
X12277801Y-13513984D01*
X12277801Y-13513984D02*
X12258753Y-13504460D01*
X12439705Y-13494936D02*
X12449229Y-13504460D01*
X12449229Y-13504460D02*
X12439705Y-13513984D01*
X12439705Y-13513984D02*
X12430182Y-13504460D01*
X12430182Y-13504460D02*
X12439705Y-13494936D01*
X12439705Y-13494936D02*
X12439705Y-13513984D01*
X12439705Y-13390174D02*
X12449229Y-13399698D01*
X12449229Y-13399698D02*
X12439705Y-13409222D01*
X12439705Y-13409222D02*
X12430182Y-13399698D01*
X12430182Y-13399698D02*
X12439705Y-13390174D01*
X12439705Y-13390174D02*
X12439705Y-13409222D01*
M02*
