G04 #@! TF.GenerationSoftware,KiCad,Pcbnew,8.0.7-8.0.7-0~ubuntu24.04.1*
G04 #@! TF.CreationDate,2024-12-31T12:59:00-07:00*
G04 #@! TF.ProjectId,2s 40A PSU and charger,32732034-3041-4205-9053-5520616e6420,V1*
G04 #@! TF.SameCoordinates,Original*
G04 #@! TF.FileFunction,Copper,L1,Top*
G04 #@! TF.FilePolarity,Positive*
%FSLAX46Y46*%
G04 Gerber Fmt 4.6, Leading zero omitted, Abs format (unit mm)*
G04 Created by KiCad (PCBNEW 8.0.7-8.0.7-0~ubuntu24.04.1) date 2024-12-31 12:59:00*
%MOMM*%
%LPD*%
G01*
G04 APERTURE LIST*
G04 Aperture macros list*
%AMRoundRect*
0 Rectangle with rounded corners*
0 $1 Rounding radius*
0 $2 $3 $4 $5 $6 $7 $8 $9 X,Y pos of 4 corners*
0 Add a 4 corners polygon primitive as box body*
4,1,4,$2,$3,$4,$5,$6,$7,$8,$9,$2,$3,0*
0 Add four circle primitives for the rounded corners*
1,1,$1+$1,$2,$3*
1,1,$1+$1,$4,$5*
1,1,$1+$1,$6,$7*
1,1,$1+$1,$8,$9*
0 Add four rect primitives between the rounded corners*
20,1,$1+$1,$2,$3,$4,$5,0*
20,1,$1+$1,$4,$5,$6,$7,0*
20,1,$1+$1,$6,$7,$8,$9,0*
20,1,$1+$1,$8,$9,$2,$3,0*%
%AMOutline5P*
0 Free polygon, 5 corners , with rotation*
0 The origin of the aperture is its center*
0 number of corners: always 5*
0 $1 to $10 corner X, Y*
0 $11 Rotation angle, in degrees counterclockwise*
0 create outline with 5 corners*
4,1,5,$1,$2,$3,$4,$5,$6,$7,$8,$9,$10,$1,$2,$11*%
%AMOutline6P*
0 Free polygon, 6 corners , with rotation*
0 The origin of the aperture is its center*
0 number of corners: always 6*
0 $1 to $12 corner X, Y*
0 $13 Rotation angle, in degrees counterclockwise*
0 create outline with 6 corners*
4,1,6,$1,$2,$3,$4,$5,$6,$7,$8,$9,$10,$11,$12,$1,$2,$13*%
%AMOutline7P*
0 Free polygon, 7 corners , with rotation*
0 The origin of the aperture is its center*
0 number of corners: always 7*
0 $1 to $14 corner X, Y*
0 $15 Rotation angle, in degrees counterclockwise*
0 create outline with 7 corners*
4,1,7,$1,$2,$3,$4,$5,$6,$7,$8,$9,$10,$11,$12,$13,$14,$1,$2,$15*%
%AMOutline8P*
0 Free polygon, 8 corners , with rotation*
0 The origin of the aperture is its center*
0 number of corners: always 8*
0 $1 to $16 corner X, Y*
0 $17 Rotation angle, in degrees counterclockwise*
0 create outline with 8 corners*
4,1,8,$1,$2,$3,$4,$5,$6,$7,$8,$9,$10,$11,$12,$13,$14,$15,$16,$1,$2,$17*%
%AMFreePoly0*
4,1,9,2.100000,-2.000000,2.350000,-2.000000,2.350000,-3.500000,-2.350000,-3.500000,-2.350000,-2.000000,-2.100000,-2.000000,-2.100000,1.100000,2.100000,1.100000,2.100000,-2.000000,2.100000,-2.000000,$1*%
G04 Aperture macros list end*
G04 #@! TA.AperFunction,EtchedComponent*
%ADD10C,0.000000*%
G04 #@! TD*
G04 #@! TA.AperFunction,SMDPad,CuDef*
%ADD11R,3.500000X5.100000*%
G04 #@! TD*
G04 #@! TA.AperFunction,SMDPad,CuDef*
%ADD12C,0.800000*%
G04 #@! TD*
G04 #@! TA.AperFunction,SMDPad,CuDef*
%ADD13RoundRect,0.140000X0.140000X0.170000X-0.140000X0.170000X-0.140000X-0.170000X0.140000X-0.170000X0*%
G04 #@! TD*
G04 #@! TA.AperFunction,SMDPad,CuDef*
%ADD14R,0.675000X0.250000*%
G04 #@! TD*
G04 #@! TA.AperFunction,SMDPad,CuDef*
%ADD15R,0.775000X0.400000*%
G04 #@! TD*
G04 #@! TA.AperFunction,SMDPad,CuDef*
%ADD16RoundRect,0.135000X-0.185000X0.135000X-0.185000X-0.135000X0.185000X-0.135000X0.185000X0.135000X0*%
G04 #@! TD*
G04 #@! TA.AperFunction,SMDPad,CuDef*
%ADD17RoundRect,0.135000X0.185000X-0.135000X0.185000X0.135000X-0.185000X0.135000X-0.185000X-0.135000X0*%
G04 #@! TD*
G04 #@! TA.AperFunction,SMDPad,CuDef*
%ADD18RoundRect,0.250000X-0.250000X-0.475000X0.250000X-0.475000X0.250000X0.475000X-0.250000X0.475000X0*%
G04 #@! TD*
G04 #@! TA.AperFunction,SMDPad,CuDef*
%ADD19RoundRect,0.140000X-0.140000X-0.170000X0.140000X-0.170000X0.140000X0.170000X-0.140000X0.170000X0*%
G04 #@! TD*
G04 #@! TA.AperFunction,SMDPad,CuDef*
%ADD20RoundRect,0.250000X0.312500X0.625000X-0.312500X0.625000X-0.312500X-0.625000X0.312500X-0.625000X0*%
G04 #@! TD*
G04 #@! TA.AperFunction,SMDPad,CuDef*
%ADD21RoundRect,0.200000X0.200000X-0.250000X0.200000X0.250000X-0.200000X0.250000X-0.200000X-0.250000X0*%
G04 #@! TD*
G04 #@! TA.AperFunction,SMDPad,CuDef*
%ADD22RoundRect,0.147500X0.172500X-0.147500X0.172500X0.147500X-0.172500X0.147500X-0.172500X-0.147500X0*%
G04 #@! TD*
G04 #@! TA.AperFunction,SMDPad,CuDef*
%ADD23RoundRect,0.200000X-0.250000X-0.200000X0.250000X-0.200000X0.250000X0.200000X-0.250000X0.200000X0*%
G04 #@! TD*
G04 #@! TA.AperFunction,SMDPad,CuDef*
%ADD24RoundRect,0.135000X0.135000X0.185000X-0.135000X0.185000X-0.135000X-0.185000X0.135000X-0.185000X0*%
G04 #@! TD*
G04 #@! TA.AperFunction,SMDPad,CuDef*
%ADD25RoundRect,0.225000X-0.250000X0.225000X-0.250000X-0.225000X0.250000X-0.225000X0.250000X0.225000X0*%
G04 #@! TD*
G04 #@! TA.AperFunction,SMDPad,CuDef*
%ADD26C,0.200000*%
G04 #@! TD*
G04 #@! TA.AperFunction,SMDPad,CuDef*
%ADD27RoundRect,0.135000X-0.135000X-0.185000X0.135000X-0.185000X0.135000X0.185000X-0.135000X0.185000X0*%
G04 #@! TD*
G04 #@! TA.AperFunction,SMDPad,CuDef*
%ADD28RoundRect,0.250000X0.250000X0.475000X-0.250000X0.475000X-0.250000X-0.475000X0.250000X-0.475000X0*%
G04 #@! TD*
G04 #@! TA.AperFunction,SMDPad,CuDef*
%ADD29R,2.800000X2.800000*%
G04 #@! TD*
G04 #@! TA.AperFunction,SMDPad,CuDef*
%ADD30RoundRect,0.250000X0.475000X-0.250000X0.475000X0.250000X-0.475000X0.250000X-0.475000X-0.250000X0*%
G04 #@! TD*
G04 #@! TA.AperFunction,SMDPad,CuDef*
%ADD31Outline6P,-2.900000X0.630000X-2.480000X1.050000X2.480000X1.050000X2.900000X0.630000X2.900000X-1.050000X-2.900000X-1.050000X90.000000*%
G04 #@! TD*
G04 #@! TA.AperFunction,SMDPad,CuDef*
%ADD32Outline6P,-2.900000X0.630000X-2.480000X1.050000X2.480000X1.050000X2.900000X0.630000X2.900000X-1.050000X-2.900000X-1.050000X270.000000*%
G04 #@! TD*
G04 #@! TA.AperFunction,ComponentPad*
%ADD33RoundRect,0.250000X0.725000X-0.600000X0.725000X0.600000X-0.725000X0.600000X-0.725000X-0.600000X0*%
G04 #@! TD*
G04 #@! TA.AperFunction,ComponentPad*
%ADD34O,1.950000X1.700000*%
G04 #@! TD*
G04 #@! TA.AperFunction,SMDPad,CuDef*
%ADD35C,0.280000*%
G04 #@! TD*
G04 #@! TA.AperFunction,SMDPad,CuDef*
%ADD36RoundRect,0.135000X0.035355X-0.226274X0.226274X-0.035355X-0.035355X0.226274X-0.226274X0.035355X0*%
G04 #@! TD*
G04 #@! TA.AperFunction,SMDPad,CuDef*
%ADD37R,2.500000X2.800000*%
G04 #@! TD*
G04 #@! TA.AperFunction,ComponentPad*
%ADD38R,1.000000X1.000000*%
G04 #@! TD*
G04 #@! TA.AperFunction,ComponentPad*
%ADD39O,1.000000X1.000000*%
G04 #@! TD*
G04 #@! TA.AperFunction,SMDPad,CuDef*
%ADD40RoundRect,0.140000X-0.170000X0.140000X-0.170000X-0.140000X0.170000X-0.140000X0.170000X0.140000X0*%
G04 #@! TD*
G04 #@! TA.AperFunction,SMDPad,CuDef*
%ADD41RoundRect,0.250000X0.450000X-0.262500X0.450000X0.262500X-0.450000X0.262500X-0.450000X-0.262500X0*%
G04 #@! TD*
G04 #@! TA.AperFunction,SMDPad,CuDef*
%ADD42RoundRect,0.237500X0.287500X0.237500X-0.287500X0.237500X-0.287500X-0.237500X0.287500X-0.237500X0*%
G04 #@! TD*
G04 #@! TA.AperFunction,SMDPad,CuDef*
%ADD43RoundRect,0.175000X0.175000X0.400000X-0.175000X0.400000X-0.175000X-0.400000X0.175000X-0.400000X0*%
G04 #@! TD*
G04 #@! TA.AperFunction,SMDPad,CuDef*
%ADD44FreePoly0,180.000000*%
G04 #@! TD*
G04 #@! TA.AperFunction,SMDPad,CuDef*
%ADD45RoundRect,0.200000X-0.200000X0.250000X-0.200000X-0.250000X0.200000X-0.250000X0.200000X0.250000X0*%
G04 #@! TD*
G04 #@! TA.AperFunction,ComponentPad*
%ADD46C,0.700000*%
G04 #@! TD*
G04 #@! TA.AperFunction,ComponentPad*
%ADD47C,4.400000*%
G04 #@! TD*
G04 #@! TA.AperFunction,SMDPad,CuDef*
%ADD48O,0.200000X0.599999*%
G04 #@! TD*
G04 #@! TA.AperFunction,SMDPad,CuDef*
%ADD49O,0.599999X0.200000*%
G04 #@! TD*
G04 #@! TA.AperFunction,ComponentPad*
%ADD50C,0.600000*%
G04 #@! TD*
G04 #@! TA.AperFunction,SMDPad,CuDef*
%ADD51R,2.600000X2.600000*%
G04 #@! TD*
G04 #@! TA.AperFunction,SMDPad,CuDef*
%ADD52RoundRect,0.225000X0.225000X0.250000X-0.225000X0.250000X-0.225000X-0.250000X0.225000X-0.250000X0*%
G04 #@! TD*
G04 #@! TA.AperFunction,SMDPad,CuDef*
%ADD53RoundRect,0.070000X-0.345000X0.070000X-0.345000X-0.070000X0.345000X-0.070000X0.345000X0.070000X0*%
G04 #@! TD*
G04 #@! TA.AperFunction,SMDPad,CuDef*
%ADD54RoundRect,0.112500X-0.302500X0.112500X-0.302500X-0.112500X0.302500X-0.112500X0.302500X0.112500X0*%
G04 #@! TD*
G04 #@! TA.AperFunction,ComponentPad*
%ADD55C,0.850000*%
G04 #@! TD*
G04 #@! TA.AperFunction,ComponentPad*
%ADD56O,2.050000X0.800000*%
G04 #@! TD*
G04 #@! TA.AperFunction,SMDPad,CuDef*
%ADD57RoundRect,0.225000X-0.225000X-0.250000X0.225000X-0.250000X0.225000X0.250000X-0.225000X0.250000X0*%
G04 #@! TD*
G04 #@! TA.AperFunction,ViaPad*
%ADD58C,0.600000*%
G04 #@! TD*
G04 #@! TA.AperFunction,ViaPad*
%ADD59C,0.800000*%
G04 #@! TD*
G04 #@! TA.AperFunction,ViaPad*
%ADD60C,1.000000*%
G04 #@! TD*
G04 #@! TA.AperFunction,Conductor*
%ADD61C,0.500000*%
G04 #@! TD*
G04 #@! TA.AperFunction,Conductor*
%ADD62C,0.160000*%
G04 #@! TD*
G04 #@! TA.AperFunction,Conductor*
%ADD63C,0.280000*%
G04 #@! TD*
G04 #@! TA.AperFunction,Conductor*
%ADD64C,0.200000*%
G04 #@! TD*
G04 #@! TA.AperFunction,Conductor*
%ADD65C,0.800000*%
G04 #@! TD*
G04 #@! TA.AperFunction,Conductor*
%ADD66C,2.800000*%
G04 #@! TD*
G04 APERTURE END LIST*
D10*
G04 #@! TA.AperFunction,EtchedComponent*
G04 #@! TO.C,NT4*
G36*
X131245343Y-119857842D02*
G01*
X130113972Y-120989213D01*
X129548287Y-120423528D01*
X130679658Y-119292157D01*
X131245343Y-119857842D01*
G37*
G04 #@! TD.AperFunction*
G04 #@! TA.AperFunction,EtchedComponent*
G04 #@! TO.C,NT3*
G36*
X130400000Y-118800000D02*
G01*
X130000000Y-118800000D01*
X130000000Y-118600000D01*
X130400000Y-118600000D01*
X130400000Y-118800000D01*
G37*
G04 #@! TD.AperFunction*
G04 #@! TA.AperFunction,EtchedComponent*
G04 #@! TO.C,NT12*
G36*
X112696985Y-123001005D02*
G01*
X112301005Y-123396985D01*
X112103015Y-123198995D01*
X112498995Y-122803015D01*
X112696985Y-123001005D01*
G37*
G04 #@! TD.AperFunction*
G04 #@! TA.AperFunction,EtchedComponent*
G04 #@! TO.C,NT2*
G36*
X129000000Y-118800000D02*
G01*
X128600000Y-118800000D01*
X128600000Y-118600000D01*
X129000000Y-118600000D01*
X129000000Y-118800000D01*
G37*
G04 #@! TD.AperFunction*
G04 #@! TA.AperFunction,EtchedComponent*
G04 #@! TO.C,NT14*
G36*
X125124999Y-121900000D02*
G01*
X124724999Y-121900000D01*
X124724999Y-121700000D01*
X125124999Y-121700000D01*
X125124999Y-121900000D01*
G37*
G04 #@! TD.AperFunction*
G04 #@! TA.AperFunction,EtchedComponent*
G04 #@! TO.C,NT9*
G36*
X142925000Y-124940000D02*
G01*
X142365000Y-124940000D01*
X142365000Y-124660000D01*
X142925000Y-124660000D01*
X142925000Y-124940000D01*
G37*
G04 #@! TD.AperFunction*
G04 #@! TD*
D11*
G04 #@! TO.P,R18,1*
G04 #@! TO.N,/Battery Balancer/+BAT*
X139005000Y-127850000D03*
G04 #@! TO.P,R18,2*
G04 #@! TO.N,Net-(C21-Pad2)*
X134895000Y-127850000D03*
G04 #@! TD*
D12*
G04 #@! TO.P,NT4,1,1*
G04 #@! TO.N,Net-(Q4-D)*
X129831130Y-120706370D03*
G04 #@! TO.P,NT4,2,2*
G04 #@! TO.N,/Battery Charger/MOTORPWR*
X130962500Y-119575000D03*
G04 #@! TD*
D13*
G04 #@! TO.P,C9,1*
G04 #@! TO.N,GND*
X120080000Y-124900000D03*
G04 #@! TO.P,C9,2*
G04 #@! TO.N,Net-(U3-ACP)*
X119120000Y-124900000D03*
G04 #@! TD*
D14*
G04 #@! TO.P,D11,1,IN/OUT_1*
G04 #@! TO.N,/Connectors/D+*
X116300000Y-121500000D03*
G04 #@! TO.P,D11,2,IN/OUT_2*
G04 #@! TO.N,/Connectors/D-*
X116300000Y-122000000D03*
D15*
G04 #@! TO.P,D11,3,GND_1*
G04 #@! TO.N,GND*
X116350000Y-122500000D03*
D14*
G04 #@! TO.P,D11,4,IN/OUT_3*
G04 #@! TO.N,/Connectors/CC2*
X116300000Y-123000000D03*
G04 #@! TO.P,D11,5,IN/OUT_4*
G04 #@! TO.N,/Connectors/CC1*
X116300000Y-123500000D03*
G04 #@! TO.P,D11,6,NC_1*
X117175000Y-123500000D03*
G04 #@! TO.P,D11,7,NC_2*
G04 #@! TO.N,/Connectors/CC2*
X117175000Y-123000000D03*
D15*
G04 #@! TO.P,D11,8,GND_2*
G04 #@! TO.N,GND*
X117125000Y-122500000D03*
D14*
G04 #@! TO.P,D11,9,NC_3*
G04 #@! TO.N,/Connectors/D-*
X117175000Y-122000000D03*
G04 #@! TO.P,D11,10,NC_4*
G04 #@! TO.N,/Connectors/D+*
X117175000Y-121500000D03*
G04 #@! TD*
D16*
G04 #@! TO.P,R24,1*
G04 #@! TO.N,/Battery Charger/MCU3.3v*
X109500000Y-130290000D03*
G04 #@! TO.P,R24,2*
G04 #@! TO.N,Net-(U3-TB_STAT_N)*
X109500000Y-131310000D03*
G04 #@! TD*
D17*
G04 #@! TO.P,R20,1*
G04 #@! TO.N,Net-(U3-ILIM)*
X120300000Y-129310000D03*
G04 #@! TO.P,R20,2*
G04 #@! TO.N,/Battery Charger/REGN*
X120300000Y-128290000D03*
G04 #@! TD*
D16*
G04 #@! TO.P,R10,1*
G04 #@! TO.N,Net-(Q3-G)*
X139600000Y-123190000D03*
G04 #@! TO.P,R10,2*
G04 #@! TO.N,Net-(U3-BATDRV)*
X139600000Y-124210000D03*
G04 #@! TD*
D18*
G04 #@! TO.P,C20,1*
G04 #@! TO.N,GND*
X142250000Y-131000000D03*
G04 #@! TO.P,C20,2*
G04 #@! TO.N,/Battery Balancer/+BAT*
X144150000Y-131000000D03*
G04 #@! TD*
D19*
G04 #@! TO.P,C23,1*
G04 #@! TO.N,/Battery Balancer/+BAT*
X138370000Y-131400000D03*
G04 #@! TO.P,C23,2*
G04 #@! TO.N,GND*
X139330000Y-131400000D03*
G04 #@! TD*
D20*
G04 #@! TO.P,R1,1*
G04 #@! TO.N,/Battery Charger/MOTORPWR*
X130962500Y-118700000D03*
G04 #@! TO.P,R1,2*
G04 #@! TO.N,Net-(Q2-D)*
X128037500Y-118700000D03*
G04 #@! TD*
D21*
G04 #@! TO.P,Q1,1,G*
G04 #@! TO.N,Net-(Q1-G)*
X120850000Y-120300000D03*
G04 #@! TO.P,Q1,2,S*
G04 #@! TO.N,Net-(Q1-S)*
X122750000Y-120300000D03*
G04 #@! TO.P,Q1,3,D*
G04 #@! TO.N,/Battery Charger/IN*
X121800000Y-117900000D03*
G04 #@! TD*
D22*
G04 #@! TO.P,D1,1,K*
G04 #@! TO.N,Net-(D1-K)*
X140600000Y-120785000D03*
G04 #@! TO.P,D1,2,A*
G04 #@! TO.N,Net-(D1-A)*
X140600000Y-119815000D03*
G04 #@! TD*
D23*
G04 #@! TO.P,Q5,1,G*
G04 #@! TO.N,Net-(Q5-G)*
X123200000Y-128750000D03*
G04 #@! TO.P,Q5,2,S*
G04 #@! TO.N,GND*
X123200000Y-130650000D03*
G04 #@! TO.P,Q5,3,D*
G04 #@! TO.N,Net-(Q4-S)*
X125600000Y-129700000D03*
G04 #@! TD*
D24*
G04 #@! TO.P,R19,1*
G04 #@! TO.N,GND*
X116910000Y-124600000D03*
G04 #@! TO.P,R19,2*
G04 #@! TO.N,/Connectors/CC2*
X115890000Y-124600000D03*
G04 #@! TD*
D25*
G04 #@! TO.P,C2,1*
G04 #@! TO.N,Net-(U1-BAT)*
X138400000Y-120925000D03*
G04 #@! TO.P,C2,2*
G04 #@! TO.N,/Battery Balancer/-BAT*
X138400000Y-122475000D03*
G04 #@! TD*
D26*
G04 #@! TO.P,NT3,1,1*
G04 #@! TO.N,Net-(U3-ACN)*
X130000000Y-118700000D03*
G04 #@! TO.P,NT3,2,2*
G04 #@! TO.N,/Battery Charger/MOTORPWR*
X130400000Y-118700000D03*
G04 #@! TD*
D27*
G04 #@! TO.P,R25,1*
G04 #@! TO.N,/MCU/LED*
X134090000Y-112600000D03*
G04 #@! TO.P,R25,2*
G04 #@! TO.N,Net-(D4-A)*
X135110000Y-112600000D03*
G04 #@! TD*
D19*
G04 #@! TO.P,C10,1*
G04 #@! TO.N,Net-(U3-ACP)*
X127320000Y-121500000D03*
G04 #@! TO.P,C10,2*
G04 #@! TO.N,Net-(U3-ACN)*
X128280000Y-121500000D03*
G04 #@! TD*
D28*
G04 #@! TO.P,C12,1*
G04 #@! TO.N,GND*
X118750000Y-113000000D03*
G04 #@! TO.P,C12,2*
G04 #@! TO.N,/Battery Charger/MOTORPWR*
X116850000Y-113000000D03*
G04 #@! TD*
D19*
G04 #@! TO.P,C5,1*
G04 #@! TO.N,/Battery Charger/IN*
X120620000Y-121500000D03*
G04 #@! TO.P,C5,2*
G04 #@! TO.N,Net-(Q1-G)*
X121580000Y-121500000D03*
G04 #@! TD*
D29*
G04 #@! TO.P,J3,1,Pin_1*
G04 #@! TO.N,/Battery Charger/MOTORPWR*
X110250000Y-113650000D03*
G04 #@! TD*
D30*
G04 #@! TO.P,C7,1*
G04 #@! TO.N,Net-(C7-Pad1)*
X118900000Y-119950000D03*
G04 #@! TO.P,C7,2*
G04 #@! TO.N,GND*
X118900000Y-118050000D03*
G04 #@! TD*
D22*
G04 #@! TO.P,D3,1,K*
G04 #@! TO.N,Net-(D2-K)*
X108900000Y-128785000D03*
G04 #@! TO.P,D3,2,A*
G04 #@! TO.N,Net-(D3-A)*
X108900000Y-127815000D03*
G04 #@! TD*
D17*
G04 #@! TO.P,R3,1*
G04 #@! TO.N,Net-(D1-K)*
X139600000Y-120810000D03*
G04 #@! TO.P,R3,2*
G04 #@! TO.N,Net-(U1-BAT)*
X139600000Y-119790000D03*
G04 #@! TD*
D31*
G04 #@! TO.P,L2,1,1*
G04 #@! TO.N,Net-(Q4-S)*
X127650000Y-128100000D03*
D32*
G04 #@! TO.P,L2,2,2*
G04 #@! TO.N,Net-(C21-Pad2)*
X131550000Y-128100000D03*
G04 #@! TD*
D33*
G04 #@! TO.P,J2,1,Pin_1*
G04 #@! TO.N,/Battery Balancer/+BAT*
X143900000Y-125000000D03*
D34*
G04 #@! TO.P,J2,2,Pin_2*
G04 #@! TO.N,/Battery Balancer/Bat Cell 1*
X143900000Y-122500000D03*
G04 #@! TO.P,J2,3,Pin_3*
G04 #@! TO.N,/Battery Balancer/-BAT*
X143900000Y-120000000D03*
G04 #@! TD*
D35*
G04 #@! TO.P,NT12,1,1*
G04 #@! TO.N,Net-(D3-A)*
X112202010Y-123297990D03*
G04 #@! TO.P,NT12,2,2*
G04 #@! TO.N,/Battery Charger/IN*
X112597990Y-122902010D03*
G04 #@! TD*
D36*
G04 #@! TO.P,R8,1*
G04 #@! TO.N,Net-(U3-ACDRV)*
X120739376Y-123360624D03*
G04 #@! TO.P,R8,2*
G04 #@! TO.N,Net-(Q1-G)*
X121460624Y-122639376D03*
G04 #@! TD*
D37*
G04 #@! TO.P,J5,1,Pin_1*
G04 #@! TO.N,/Battery Charger/MOTORPWR*
X113950000Y-114600000D03*
G04 #@! TD*
D27*
G04 #@! TO.P,R23,1*
G04 #@! TO.N,/Battery Charger/MCU3.3v*
X109990000Y-127700000D03*
G04 #@! TO.P,R23,2*
G04 #@! TO.N,Net-(U3-ACOK)*
X111010000Y-127700000D03*
G04 #@! TD*
D38*
G04 #@! TO.P,J11,1,Pin_1*
G04 #@! TO.N,/Connectors/3.3v*
X128690000Y-114900000D03*
D39*
G04 #@! TO.P,J11,2,Pin_2*
G04 #@! TO.N,/Connectors/RS485+*
X129960000Y-114900000D03*
G04 #@! TO.P,J11,3,Pin_3*
G04 #@! TO.N,/Connectors/RS485-*
X131230000Y-114900000D03*
G04 #@! TO.P,J11,4,Pin_4*
G04 #@! TO.N,GND*
X132500000Y-114900000D03*
G04 #@! TD*
D21*
G04 #@! TO.P,Q4,1,G*
G04 #@! TO.N,Net-(Q4-G)*
X123550000Y-127000000D03*
G04 #@! TO.P,Q4,2,S*
G04 #@! TO.N,Net-(Q4-S)*
X125450000Y-127000000D03*
G04 #@! TO.P,Q4,3,D*
G04 #@! TO.N,Net-(Q4-D)*
X124500000Y-124600000D03*
G04 #@! TD*
D40*
G04 #@! TO.P,C21,1*
G04 #@! TO.N,GND*
X121600000Y-129220000D03*
G04 #@! TO.P,C21,2*
G04 #@! TO.N,Net-(C21-Pad2)*
X121600000Y-130180000D03*
G04 #@! TD*
D41*
G04 #@! TO.P,R2,1*
G04 #@! TO.N,Net-(C7-Pad1)*
X116600000Y-119612500D03*
G04 #@! TO.P,R2,2*
G04 #@! TO.N,/Battery Charger/IN*
X116600000Y-117787500D03*
G04 #@! TD*
D19*
G04 #@! TO.P,C11,1*
G04 #@! TO.N,Net-(U3-ACN)*
X121220000Y-125600000D03*
G04 #@! TO.P,C11,2*
G04 #@! TO.N,GND*
X122180000Y-125600000D03*
G04 #@! TD*
D24*
G04 #@! TO.P,R21,1*
G04 #@! TO.N,Net-(C21-Pad2)*
X121710000Y-131100000D03*
G04 #@! TO.P,R21,2*
G04 #@! TO.N,Net-(U3-SRP)*
X120690000Y-131100000D03*
G04 #@! TD*
D38*
G04 #@! TO.P,J12,1,Pin_1*
G04 #@! TO.N,/Connectors/D+*
X119100000Y-121900000D03*
D39*
G04 #@! TO.P,J12,2,Pin_2*
G04 #@! TO.N,/Connectors/D-*
X119100000Y-123170000D03*
G04 #@! TD*
D26*
G04 #@! TO.P,NT2,1,1*
G04 #@! TO.N,Net-(U3-ACP)*
X129000000Y-118700000D03*
G04 #@! TO.P,NT2,2,2*
G04 #@! TO.N,Net-(Q2-D)*
X128600000Y-118700000D03*
G04 #@! TD*
G04 #@! TO.P,NT14,1,1*
G04 #@! TO.N,Net-(NT14-Pad1)*
X125124998Y-121800000D03*
G04 #@! TO.P,NT14,2,2*
G04 #@! TO.N,Net-(Q1-S)*
X124725000Y-121800000D03*
G04 #@! TD*
D42*
G04 #@! TO.P,D4,1,K*
G04 #@! TO.N,GND*
X138075000Y-112700000D03*
G04 #@! TO.P,D4,2,A*
G04 #@! TO.N,Net-(D4-A)*
X136325000Y-112700000D03*
G04 #@! TD*
D18*
G04 #@! TO.P,C14,1*
G04 #@! TO.N,GND*
X142850000Y-113000000D03*
G04 #@! TO.P,C14,2*
G04 #@! TO.N,/Battery Charger/MOTORPWR*
X144750000Y-113000000D03*
G04 #@! TD*
D24*
G04 #@! TO.P,R29,1*
G04 #@! TO.N,/SDA*
X112210000Y-128700000D03*
G04 #@! TO.P,R29,2*
G04 #@! TO.N,/Battery Charger/MCU3.3v*
X111190000Y-128700000D03*
G04 #@! TD*
D19*
G04 #@! TO.P,C22,1*
G04 #@! TO.N,Net-(C21-Pad2)*
X135820000Y-131100000D03*
G04 #@! TO.P,C22,2*
G04 #@! TO.N,/Battery Balancer/+BAT*
X136780000Y-131100000D03*
G04 #@! TD*
D43*
G04 #@! TO.P,Q3,1,S*
G04 #@! TO.N,Net-(C21-Pad2)*
X132795000Y-124125000D03*
G04 #@! TO.P,Q3,2,S*
X134065000Y-124125000D03*
G04 #@! TO.P,Q3,3,S*
X135335000Y-124125000D03*
G04 #@! TO.P,Q3,4,G*
G04 #@! TO.N,Net-(Q3-G)*
X136605000Y-124125000D03*
D44*
G04 #@! TO.P,Q3,5,D*
G04 #@! TO.N,/Battery Charger/MOTORPWR*
X134700000Y-121400000D03*
G04 #@! TD*
D16*
G04 #@! TO.P,R12,1*
G04 #@! TO.N,Net-(C21-Pad2)*
X131000000Y-122890000D03*
G04 #@! TO.P,R12,2*
G04 #@! TO.N,Net-(U3-BATSRC)*
X131000000Y-123910000D03*
G04 #@! TD*
D45*
G04 #@! TO.P,Q2,1,G*
G04 #@! TO.N,Net-(Q1-G)*
X126350000Y-117900000D03*
G04 #@! TO.P,Q2,2,S*
G04 #@! TO.N,Net-(Q1-S)*
X124450000Y-117900000D03*
G04 #@! TO.P,Q2,3,D*
G04 #@! TO.N,Net-(Q2-D)*
X125400000Y-120300000D03*
G04 #@! TD*
D17*
G04 #@! TO.P,R7,1*
G04 #@! TO.N,Net-(U3-CMSRC)*
X125500000Y-122609999D03*
G04 #@! TO.P,R7,2*
G04 #@! TO.N,Net-(NT14-Pad1)*
X125500000Y-121590001D03*
G04 #@! TD*
D29*
G04 #@! TO.P,J1,1,Pin_1*
G04 #@! TO.N,/Battery Charger/MOTORPWR*
X147199999Y-113650000D03*
G04 #@! TD*
D46*
G04 #@! TO.P,H1,1,1*
G04 #@! TO.N,/Battery Balancer/+BAT*
X149050000Y-129600000D03*
X149533274Y-128433274D03*
X149533274Y-130766726D03*
X150700000Y-127950000D03*
D47*
X150700000Y-129600000D03*
D46*
X150700000Y-131250000D03*
X151866726Y-128433274D03*
X151866726Y-130766726D03*
X152350000Y-129600000D03*
G04 #@! TD*
D48*
G04 #@! TO.P,U3,1,ACN*
G04 #@! TO.N,Net-(U3-ACN)*
X117600000Y-126700001D03*
G04 #@! TO.P,U3,2,ACP*
G04 #@! TO.N,Net-(U3-ACP)*
X117200001Y-126700001D03*
G04 #@! TO.P,U3,3,CMSRC*
G04 #@! TO.N,Net-(U3-CMSRC)*
X116799999Y-126700001D03*
G04 #@! TO.P,U3,4,ACDRV*
G04 #@! TO.N,Net-(U3-ACDRV)*
X116400000Y-126700001D03*
G04 #@! TO.P,U3,5,ACOK*
G04 #@! TO.N,Net-(U3-ACOK)*
X116000001Y-126700001D03*
G04 #@! TO.P,U3,6,ACDET*
G04 #@! TO.N,/Battery Charger/PWRON*
X115599999Y-126700001D03*
G04 #@! TO.P,U3,7,IADP*
G04 #@! TO.N,/Battery Charger/Charger IADP*
X115200000Y-126700001D03*
D49*
G04 #@! TO.P,U3,8,IDCHG*
G04 #@! TO.N,/Battery Charger/Charger IDCHG*
X114500001Y-127400000D03*
G04 #@! TO.P,U3,9,PMON*
G04 #@! TO.N,unconnected-(U3-PMON-Pad9)*
X114500001Y-127799999D03*
G04 #@! TO.P,U3,10,PROCHOT_N*
G04 #@! TO.N,/Battery Charger/Charger PROCHOT*
X114500001Y-128200001D03*
G04 #@! TO.P,U3,11,SDA*
G04 #@! TO.N,/SDA*
X114500001Y-128600000D03*
G04 #@! TO.P,U3,12,SCL*
G04 #@! TO.N,/SCL*
X114500001Y-128999999D03*
G04 #@! TO.P,U3,13,CMPIN*
G04 #@! TO.N,Net-(U3-CMPIN)*
X114500001Y-129400001D03*
G04 #@! TO.P,U3,14,CMPOUT*
G04 #@! TO.N,Net-(U3-BATPRES_N)*
X114500001Y-129800000D03*
D48*
G04 #@! TO.P,U3,15,BATPRES_N*
X115200000Y-130500001D03*
G04 #@! TO.P,U3,16,TB_STAT_N*
G04 #@! TO.N,Net-(U3-TB_STAT_N)*
X115599999Y-130500001D03*
G04 #@! TO.P,U3,17,BATSRC*
G04 #@! TO.N,Net-(U3-BATSRC)*
X116000001Y-130500001D03*
G04 #@! TO.P,U3,18,BATDRV*
G04 #@! TO.N,Net-(U3-BATDRV)*
X116400000Y-130500001D03*
G04 #@! TO.P,U3,19,SRN*
G04 #@! TO.N,Net-(U3-SRN)*
X116799999Y-130500001D03*
G04 #@! TO.P,U3,20,SRP*
G04 #@! TO.N,Net-(U3-SRP)*
X117200001Y-130500001D03*
G04 #@! TO.P,U3,21,ILIM*
G04 #@! TO.N,Net-(U3-ILIM)*
X117600000Y-130500001D03*
D49*
G04 #@! TO.P,U3,22,GND*
G04 #@! TO.N,GND*
X118299999Y-129800000D03*
G04 #@! TO.P,U3,23,LODRV*
G04 #@! TO.N,Net-(Q5-G)*
X118299999Y-129400001D03*
G04 #@! TO.P,U3,24,REGN*
G04 #@! TO.N,/Battery Charger/REGN*
X118299999Y-128999999D03*
G04 #@! TO.P,U3,25,BTST*
G04 #@! TO.N,Net-(U3-BTST)*
X118299999Y-128600000D03*
G04 #@! TO.P,U3,26,HIDRV*
G04 #@! TO.N,Net-(Q4-G)*
X118299999Y-128200001D03*
G04 #@! TO.P,U3,27,PHASE*
G04 #@! TO.N,Net-(Q4-S)*
X118299999Y-127799999D03*
G04 #@! TO.P,U3,28,VCC*
G04 #@! TO.N,/Battery Charger/Always On PWR*
X118299999Y-127400000D03*
D50*
G04 #@! TO.P,U3,29,PAD*
G04 #@! TO.N,GND*
X116400000Y-127550000D03*
X117450000Y-128600000D03*
X116400000Y-128600000D03*
D51*
X116400000Y-128600000D03*
D50*
X115350000Y-128600000D03*
X116400000Y-129650000D03*
G04 #@! TD*
D37*
G04 #@! TO.P,J4,1,Pin_1*
G04 #@! TO.N,/Battery Charger/MOTORPWR*
X150950000Y-114600000D03*
G04 #@! TD*
D52*
G04 #@! TO.P,C6,1*
G04 #@! TO.N,Net-(Q1-S)*
X124275000Y-121800000D03*
G04 #@! TO.P,C6,2*
G04 #@! TO.N,Net-(Q1-G)*
X122725000Y-121800000D03*
G04 #@! TD*
D53*
G04 #@! TO.P,J10,A1,GND*
G04 #@! TO.N,GND*
X114350000Y-118700000D03*
G04 #@! TO.P,J10,A4,VBUS*
G04 #@! TO.N,/Battery Charger/IN*
X114350000Y-119500000D03*
G04 #@! TO.P,J10,A5,CC1*
G04 #@! TO.N,/Connectors/CC1*
X114350000Y-120300000D03*
G04 #@! TO.P,J10,A6,D+*
G04 #@! TO.N,/Connectors/D+*
X114350000Y-121100000D03*
G04 #@! TO.P,J10,A7,D-*
G04 #@! TO.N,/Connectors/D-*
X114350000Y-121500000D03*
G04 #@! TO.P,J10,A8,SBU1*
G04 #@! TO.N,unconnected-(J10-SBU1-PadA8)*
X114350000Y-121900000D03*
G04 #@! TO.P,J10,A9,VBUS*
G04 #@! TO.N,/Battery Charger/IN*
X114350000Y-123500000D03*
G04 #@! TO.P,J10,A12,GND*
G04 #@! TO.N,GND*
X114350000Y-124300000D03*
G04 #@! TO.P,J10,B1,GND*
X114350000Y-124700000D03*
G04 #@! TO.P,J10,B4,VBUS*
G04 #@! TO.N,/Battery Charger/IN*
X114350000Y-123900000D03*
G04 #@! TO.P,J10,B5,CC2*
G04 #@! TO.N,/Connectors/CC2*
X114350000Y-123100000D03*
G04 #@! TO.P,J10,B6,D+*
G04 #@! TO.N,/Connectors/D+*
X114350000Y-122700000D03*
G04 #@! TO.P,J10,B7,D-*
G04 #@! TO.N,/Connectors/D-*
X114350000Y-122300000D03*
G04 #@! TO.P,J10,B8,SBU2*
G04 #@! TO.N,unconnected-(J10-SBU2-PadB8)*
X114350000Y-120700000D03*
G04 #@! TO.P,J10,B9,VBUS*
G04 #@! TO.N,/Battery Charger/IN*
X114350000Y-119900000D03*
G04 #@! TO.P,J10,B12,GND*
G04 #@! TO.N,GND*
X114350000Y-119100000D03*
D54*
G04 #@! TO.P,J10,GND,GND*
X114350000Y-118185000D03*
X114350000Y-125215000D03*
D55*
G04 #@! TO.P,J10,S1,SHIELD*
X113590000Y-117105000D03*
D56*
X110610000Y-117105000D03*
D55*
X113590000Y-126295000D03*
D56*
X110610000Y-126295000D03*
G04 #@! TD*
D57*
G04 #@! TO.P,C17,1*
G04 #@! TO.N,Net-(U3-BTST)*
X120425000Y-127100000D03*
G04 #@! TO.P,C17,2*
G04 #@! TO.N,Net-(Q4-S)*
X121975000Y-127100000D03*
G04 #@! TD*
D24*
G04 #@! TO.P,R11,1*
G04 #@! TO.N,/SCL*
X112210000Y-129700000D03*
G04 #@! TO.P,R11,2*
G04 #@! TO.N,/Battery Charger/MCU3.3v*
X111190000Y-129700000D03*
G04 #@! TD*
D35*
G04 #@! TO.P,NT9,1,1*
G04 #@! TO.N,/Battery Balancer/+BAT*
X142925000Y-124800000D03*
G04 #@! TO.P,NT9,2,2*
G04 #@! TO.N,Net-(D1-A)*
X142365000Y-124800000D03*
G04 #@! TD*
D24*
G04 #@! TO.P,R22,1*
G04 #@! TO.N,/Battery Balancer/+BAT*
X119810000Y-131400000D03*
G04 #@! TO.P,R22,2*
G04 #@! TO.N,Net-(U3-SRN)*
X118790000Y-131400000D03*
G04 #@! TD*
D46*
G04 #@! TO.P,H2,1,1*
G04 #@! TO.N,/Battery Balancer/-BAT*
X149533274Y-123833274D03*
X150700000Y-123350000D03*
X149050000Y-125000000D03*
X151866726Y-123833274D03*
D47*
X150700000Y-125000000D03*
D46*
X149533274Y-126166726D03*
X152350000Y-125000000D03*
X150700000Y-126650000D03*
X151866726Y-126166726D03*
G04 #@! TD*
D58*
G04 #@! TO.N,Net-(U3-BATDRV)*
X137584017Y-124720000D03*
D59*
G04 #@! TO.N,/Connectors/3.3v*
X129600000Y-123200000D03*
X129600000Y-124260000D03*
X137949999Y-117972800D03*
D58*
G04 #@! TO.N,GND*
X130000000Y-129200000D03*
X150000000Y-121700000D03*
X129200000Y-128600000D03*
X152000000Y-120700000D03*
X119700000Y-112550000D03*
X124900000Y-130600000D03*
X109412841Y-124967080D03*
X141900000Y-113400000D03*
X131845000Y-123900000D03*
X124000000Y-130600000D03*
X118800000Y-117200000D03*
X130000000Y-127900000D03*
X151000000Y-120700000D03*
X151000000Y-121700000D03*
X152000000Y-119700000D03*
X115365000Y-122744994D03*
X137350595Y-123440000D03*
X123000000Y-125740000D03*
X130000000Y-126780000D03*
X141500000Y-130400000D03*
X150000000Y-120700000D03*
X141500000Y-131400000D03*
X135607048Y-123056411D03*
X134600000Y-123100000D03*
X123500000Y-129700000D03*
X152000000Y-121700000D03*
X124500000Y-129900000D03*
X129200000Y-130800000D03*
X129200000Y-127400000D03*
X131584856Y-124700000D03*
X125700000Y-130700000D03*
X132700000Y-123005000D03*
X139000000Y-112700000D03*
X151000000Y-119700000D03*
X130000000Y-130400000D03*
X122200000Y-129311716D03*
X129200000Y-129800000D03*
X140000000Y-131350000D03*
X121344634Y-118762843D03*
X117539569Y-124084202D03*
X141900000Y-112600000D03*
X150000000Y-119700000D03*
X119700000Y-117200000D03*
X111900000Y-121000000D03*
X119750000Y-113450000D03*
G04 #@! TO.N,Net-(Q4-G)*
X124400000Y-125600000D03*
X119499999Y-127370000D03*
G04 #@! TO.N,Net-(D2-K)*
X110100000Y-129000000D03*
G04 #@! TO.N,Net-(U1-BAT)*
X138500000Y-119872800D03*
D60*
G04 #@! TO.N,/Battery Charger/MOTORPWR*
X140300000Y-118000000D03*
D58*
G04 #@! TO.N,/Battery Balancer/Up*
X140095298Y-119095681D03*
X146204970Y-124404180D03*
G04 #@! TO.N,/Battery Charger/Always On PWR*
X108980342Y-129579999D03*
X118340000Y-126740000D03*
G04 #@! TO.N,/Battery Balancer/Low*
X148200000Y-118600000D03*
X141687254Y-123262868D03*
G04 #@! TO.N,/Battery Charger/REGN*
X121351203Y-128231716D03*
G04 #@! TO.N,/Connectors/RS485+*
X123692815Y-118504085D03*
G04 #@! TO.N,/Connectors/RS485-*
X123084774Y-117584774D03*
G04 #@! TO.N,Net-(U3-CMPIN)*
X113743225Y-129740000D03*
G04 #@! TO.N,Net-(Q5-G)*
X124071716Y-128771716D03*
X119602919Y-129980001D03*
G04 #@! TO.N,Net-(Q6-G)*
X138519740Y-124705000D03*
X137550000Y-131500000D03*
G04 #@! TO.N,Net-(U3-BATDRV)*
X110500000Y-131500000D03*
G04 #@! TO.N,Net-(U3-BATSRC)*
X111500000Y-131100000D03*
X129792500Y-125700000D03*
G04 #@! TO.N,Net-(U3-ACOK)*
X112700000Y-127700000D03*
X115500000Y-125380000D03*
G04 #@! TO.N,/Battery Charger/Charger IADP*
X115712500Y-120960000D03*
X112499818Y-126454760D03*
G04 #@! TO.N,/SCL*
X113100000Y-129200000D03*
X137313454Y-122157836D03*
X110700000Y-118165000D03*
G04 #@! TO.N,/Battery Charger/Charger IDCHG*
X111800000Y-127064873D03*
G04 #@! TO.N,/SDA*
X113100000Y-128400000D03*
X111775092Y-118124908D03*
X137328488Y-121331805D03*
G04 #@! TO.N,/MCU/LED*
X109011888Y-121871888D03*
X132200000Y-112600000D03*
G04 #@! TO.N,/Battery Charger/Charger PROCHOT*
X109400000Y-123500000D03*
X113745629Y-127900000D03*
G04 #@! TO.N,/Connectors/CC2*
X116279899Y-124084999D03*
X115200000Y-117200000D03*
G04 #@! TO.N,/Battery Balancer/Balancer Alert*
X137698929Y-120098501D03*
X110200000Y-123400000D03*
G04 #@! TO.N,/Connectors/CC1*
X118100000Y-123500000D03*
X116833024Y-120686438D03*
X113500000Y-119000000D03*
G04 #@! TO.N,/Connectors/D-*
X112700000Y-117500000D03*
G04 #@! TO.N,/Battery Charger/PWRON*
X114844338Y-125944338D03*
G04 #@! TO.N,/Battery Charger/MCU3.3v*
X117745496Y-117225000D03*
X110450206Y-129723090D03*
X120741937Y-122269999D03*
G04 #@! TO.N,/Battery Balancer/-BAT*
X140517019Y-121662631D03*
X139400000Y-122300000D03*
G04 #@! TO.N,/Battery Balancer/+BAT*
X112989139Y-130012669D03*
G04 #@! TO.N,/Connectors/D+*
X113205382Y-118167775D03*
G04 #@! TD*
D61*
G04 #@! TO.N,/Battery Charger/IN*
X116600000Y-117787500D02*
X115862500Y-117787500D01*
X115862500Y-117787500D02*
X115400000Y-118250000D01*
X112700000Y-122700000D02*
X113710000Y-123710000D01*
X115400000Y-118250000D02*
X115400000Y-119500000D01*
X112700000Y-120500000D02*
X112700000Y-122700000D01*
X115400000Y-119500000D02*
X115190000Y-119710000D01*
X115190000Y-119710000D02*
X113490000Y-119710000D01*
X113490000Y-119710000D02*
X112700000Y-120500000D01*
X113710000Y-123710000D02*
X114490000Y-123710000D01*
D62*
G04 #@! TO.N,/Battery Balancer/+BAT*
X139005000Y-127850000D02*
X137500000Y-129355000D01*
X137500000Y-129355000D02*
X137500000Y-130800000D01*
X137500000Y-130800000D02*
X137450000Y-130850000D01*
X137820000Y-130850000D02*
X137450000Y-130850000D01*
X137450000Y-130850000D02*
X137030000Y-130850000D01*
G04 #@! TO.N,Net-(C21-Pad2)*
X134895000Y-127850000D02*
X136400000Y-129355000D01*
X136400000Y-129355000D02*
X136400000Y-130520000D01*
X136400000Y-130520000D02*
X135820000Y-131100000D01*
G04 #@! TO.N,/Battery Balancer/+BAT*
X137030000Y-130850000D02*
X136780000Y-131100000D01*
G04 #@! TO.N,Net-(C21-Pad2)*
X135570000Y-131350000D02*
X135820000Y-131100000D01*
X121960000Y-131350000D02*
X135570000Y-131350000D01*
G04 #@! TO.N,/Battery Balancer/+BAT*
X138370000Y-131400000D02*
X137820000Y-130850000D01*
G04 #@! TO.N,Net-(C21-Pad2)*
X121710000Y-131100000D02*
X121960000Y-131350000D01*
G04 #@! TO.N,/Battery Balancer/+BAT*
X119810000Y-131400000D02*
X120130000Y-131720000D01*
X120130000Y-131720000D02*
X136160000Y-131720000D01*
X136160000Y-131720000D02*
X136780000Y-131100000D01*
X139005000Y-127850000D02*
X139005000Y-128995000D01*
D63*
G04 #@! TO.N,GND*
X139380000Y-131350000D02*
X139330000Y-131400000D01*
X140000000Y-131350000D02*
X139380000Y-131350000D01*
D62*
G04 #@! TO.N,Net-(Q3-G)*
X136605000Y-124125000D02*
X136750000Y-123980000D01*
X136750000Y-123980000D02*
X137871469Y-123980000D01*
G04 #@! TO.N,Net-(U3-BATDRV)*
X139360000Y-123970000D02*
X138334017Y-123970000D01*
G04 #@! TO.N,Net-(Q3-G)*
X137871469Y-123980000D02*
X138201469Y-123650000D01*
X138201469Y-123650000D02*
X139140000Y-123650000D01*
X139140000Y-123650000D02*
X139600000Y-123190000D01*
G04 #@! TO.N,Net-(U3-BATDRV)*
X139600000Y-124210000D02*
X139360000Y-123970000D01*
X138334017Y-123970000D02*
X137584017Y-124720000D01*
G04 #@! TO.N,GND*
X139000000Y-112700000D02*
X138075000Y-112700000D01*
X114350000Y-117865000D02*
X113590000Y-117105000D01*
X114350000Y-125535000D02*
X113590000Y-126295000D01*
D64*
X118299999Y-129800000D02*
X117600000Y-129800000D01*
D62*
X124760000Y-119862204D02*
X126032204Y-118590000D01*
X117470000Y-124040000D02*
X116910000Y-124600000D01*
X123020000Y-116880000D02*
X122544774Y-117355226D01*
X119750000Y-113450000D02*
X119200000Y-113450000D01*
X114350000Y-119100000D02*
X114350000Y-118185000D01*
X113590000Y-117105000D02*
X113445000Y-116960000D01*
X117495367Y-124040000D02*
X117470000Y-124040000D01*
X122037157Y-118762843D02*
X121344634Y-118762843D01*
X126300000Y-122900000D02*
X126300000Y-121535929D01*
X125764071Y-121000000D02*
X125022204Y-121000000D01*
X122544774Y-118255226D02*
X122037157Y-118762843D01*
X117539569Y-124084202D02*
X117495367Y-124040000D01*
X115474994Y-122635000D02*
X116990000Y-122635000D01*
X122544774Y-117355226D02*
X122544774Y-118255226D01*
X126020000Y-123180000D02*
X126300000Y-122900000D01*
X120080000Y-124900000D02*
X120250000Y-124730000D01*
X126032204Y-118590000D02*
X126745000Y-118590000D01*
X113445000Y-116960000D02*
X110755000Y-116960000D01*
X119700000Y-112550000D02*
X119250000Y-113000000D01*
X110755000Y-116960000D02*
X110610000Y-117105000D01*
X120250000Y-124730000D02*
X120970000Y-124730000D01*
X120970000Y-124730000D02*
X122520000Y-123180000D01*
X122320000Y-125740000D02*
X122180000Y-125600000D01*
X127100000Y-118235000D02*
X127100000Y-117572204D01*
D64*
X124000000Y-130600000D02*
X123500000Y-130600000D01*
D62*
X126407796Y-116880000D02*
X123020000Y-116880000D01*
X141900000Y-113400000D02*
X142450000Y-113400000D01*
X126300000Y-121535929D02*
X125764071Y-121000000D01*
X142450000Y-113400000D02*
X142850000Y-113000000D01*
X114350000Y-118185000D02*
X114350000Y-117865000D01*
X114350000Y-124300000D02*
X114350000Y-125215000D01*
X142300000Y-113000000D02*
X142850000Y-113000000D01*
X126745000Y-118590000D02*
X127100000Y-118235000D01*
X114350000Y-125215000D02*
X114350000Y-125535000D01*
X122200000Y-129311716D02*
X121691716Y-129311716D01*
X116990000Y-122635000D02*
X117125000Y-122500000D01*
X122520000Y-123180000D02*
X126020000Y-123180000D01*
X119250000Y-113000000D02*
X118750000Y-113000000D01*
X121691716Y-129311716D02*
X121600000Y-129220000D01*
X127100000Y-117572204D02*
X126407796Y-116880000D01*
X141900000Y-112600000D02*
X142300000Y-113000000D01*
X123000000Y-125740000D02*
X122320000Y-125740000D01*
D64*
X117600000Y-129800000D02*
X116400000Y-128600000D01*
D62*
X125022204Y-121000000D02*
X124760000Y-120737796D01*
X115365000Y-122744994D02*
X115474994Y-122635000D01*
X124760000Y-120737796D02*
X124760000Y-119862204D01*
X119200000Y-113450000D02*
X118750000Y-113000000D01*
D61*
G04 #@! TO.N,/Battery Charger/IN*
X120040000Y-120920000D02*
X120040000Y-119240000D01*
X116820881Y-117787500D02*
X118033381Y-119000000D01*
X118033381Y-119000000D02*
X119800000Y-119000000D01*
X120040000Y-119240000D02*
X119800000Y-119000000D01*
X120900000Y-117900000D02*
X121800000Y-117900000D01*
X116600000Y-117787500D02*
X116820881Y-117787500D01*
X120620000Y-121500000D02*
X120040000Y-120920000D01*
X119800000Y-119000000D02*
X120900000Y-117900000D01*
G04 #@! TO.N,Net-(Q1-S)*
X124000000Y-119500000D02*
X124450000Y-119050000D01*
X122750000Y-120300000D02*
X123600000Y-120300000D01*
X124000000Y-119900000D02*
X124000000Y-119500000D01*
X124275000Y-121175000D02*
X124275000Y-121800000D01*
X123600000Y-120300000D02*
X124000000Y-119900000D01*
X124000000Y-119900000D02*
X124000000Y-120900000D01*
X124000000Y-120900000D02*
X124275000Y-121175000D01*
X124450000Y-119050000D02*
X124450000Y-117900000D01*
D62*
G04 #@! TO.N,Net-(Q4-G)*
X119499999Y-127519168D02*
X118819166Y-128200001D01*
X119499999Y-127370000D02*
X119499999Y-127519168D01*
X118819166Y-128200001D02*
X118299999Y-128200001D01*
X123550000Y-126450000D02*
X123550000Y-127000000D01*
X124400000Y-125600000D02*
X123550000Y-126450000D01*
D63*
G04 #@! TO.N,Net-(Q4-S)*
X126950000Y-127400000D02*
X127650000Y-128100000D01*
X121160000Y-126285000D02*
X122275000Y-127400000D01*
D61*
X121975000Y-127100000D02*
X122775000Y-127900000D01*
D64*
X118665685Y-127799999D02*
X118299999Y-127799999D01*
X118899999Y-127565685D02*
X118665685Y-127799999D01*
D61*
X127150000Y-127900000D02*
X127300000Y-127750000D01*
D65*
X125450000Y-127000000D02*
X126550000Y-127000000D01*
D64*
X118899999Y-127000001D02*
X118899999Y-127565685D01*
D65*
X125600000Y-129700000D02*
X126050000Y-129700000D01*
D63*
X119000000Y-126900000D02*
X119615000Y-126285000D01*
D61*
X122775000Y-127900000D02*
X127150000Y-127900000D01*
D65*
X126550000Y-127000000D02*
X127650000Y-128100000D01*
X126050000Y-129700000D02*
X127650000Y-128100000D01*
D64*
X119000000Y-126900000D02*
X118899999Y-127000001D01*
D63*
X119615000Y-126285000D02*
X121160000Y-126285000D01*
D65*
X127300000Y-127750000D02*
X127650000Y-128100000D01*
D62*
G04 #@! TO.N,Net-(D2-K)*
X110100000Y-129000000D02*
X109885000Y-128785000D01*
X109885000Y-128785000D02*
X108900000Y-128785000D01*
G04 #@! TO.N,Net-(Q1-G)*
X124072204Y-117200000D02*
X125650000Y-117200000D01*
X125650000Y-117200000D02*
X126350000Y-117900000D01*
X121800000Y-121280000D02*
X121800000Y-119600000D01*
X121580000Y-121500000D02*
X121800000Y-121280000D01*
X122800000Y-118600000D02*
X122833224Y-118600000D01*
X123810000Y-117623224D02*
X123810000Y-117462204D01*
X120850000Y-120300000D02*
X120850000Y-120770000D01*
X122833224Y-118600000D02*
X123810000Y-117623224D01*
X121580000Y-121500000D02*
X121460624Y-121619376D01*
X122725000Y-121800000D02*
X121880000Y-121800000D01*
X120850000Y-120770000D02*
X121580000Y-121500000D01*
X121880000Y-121800000D02*
X121580000Y-121500000D01*
X121800000Y-119600000D02*
X122800000Y-118600000D01*
X121460624Y-121619376D02*
X121460624Y-122639376D01*
X123810000Y-117462204D02*
X124072204Y-117200000D01*
G04 #@! TO.N,Net-(U3-SRP)*
X117519166Y-131100000D02*
X117200001Y-130780835D01*
X118460000Y-130840000D02*
X118200000Y-131100000D01*
X120430000Y-130840000D02*
X118460000Y-130840000D01*
X118200000Y-131100000D02*
X117519166Y-131100000D01*
X120690000Y-131100000D02*
X120430000Y-130840000D01*
X117200001Y-130780835D02*
X117200001Y-130500001D01*
G04 #@! TO.N,Net-(U3-SRN)*
X118790000Y-131400000D02*
X118670000Y-131520000D01*
X116799999Y-130833381D02*
X116799999Y-130500001D01*
X117486618Y-131520000D02*
X116799999Y-130833381D01*
X118670000Y-131520000D02*
X117486618Y-131520000D01*
D63*
G04 #@! TO.N,Net-(U1-BAT)*
X138400000Y-120700000D02*
X138400000Y-120925000D01*
X138500000Y-120600000D02*
X138400000Y-120700000D01*
X138500000Y-119872800D02*
X139517200Y-119872800D01*
X139517200Y-119872800D02*
X139600000Y-119790000D01*
X138500000Y-119872800D02*
X138500000Y-120600000D01*
D62*
G04 #@! TO.N,Net-(C21-Pad2)*
X131550000Y-128100000D02*
X131004856Y-127554856D01*
X132795000Y-124125000D02*
X132795000Y-124029756D01*
X131655244Y-122890000D02*
X131000000Y-122890000D01*
X132795000Y-124029756D02*
X131655244Y-122890000D01*
D61*
G04 #@! TO.N,/Battery Charger/MOTORPWR*
X140300000Y-118000000D02*
X138800000Y-116500000D01*
G04 #@! TO.N,Net-(C7-Pad1)*
X118050000Y-119950000D02*
X118900000Y-119950000D01*
X116600000Y-119612500D02*
X117712500Y-119612500D01*
X117712500Y-119612500D02*
X118050000Y-119950000D01*
G04 #@! TO.N,Net-(Q2-D)*
X126437500Y-120300000D02*
X128037500Y-118700000D01*
X125400000Y-120300000D02*
X126437500Y-120300000D01*
D64*
G04 #@! TO.N,/Battery Charger/Always On PWR*
X118340000Y-126740000D02*
X118299999Y-126780001D01*
X118299999Y-126780001D02*
X118299999Y-127400000D01*
G04 #@! TO.N,Net-(U3-BTST)*
X119792872Y-127865000D02*
X119796959Y-127865000D01*
X119796959Y-127865000D02*
X120425000Y-127236959D01*
X118299999Y-128600000D02*
X119061959Y-128600000D01*
X119515000Y-128146959D02*
X119515000Y-128142872D01*
X119061959Y-128600000D02*
X119515000Y-128146959D01*
X120425000Y-127236959D02*
X120425000Y-127100000D01*
X119515000Y-128142872D02*
X119792872Y-127865000D01*
D63*
G04 #@! TO.N,/Battery Charger/REGN*
X120482919Y-128472919D02*
X120300000Y-128290000D01*
D64*
X119590001Y-128999999D02*
X118299999Y-128999999D01*
X120300000Y-128290000D02*
X119590001Y-128999999D01*
D63*
X121351203Y-128231716D02*
X121110000Y-128472919D01*
X121110000Y-128472919D02*
X120482919Y-128472919D01*
G04 #@! TO.N,Net-(D1-K)*
X139600000Y-120810000D02*
X140575000Y-120810000D01*
X140575000Y-120810000D02*
X140600000Y-120785000D01*
D62*
G04 #@! TO.N,Net-(D4-A)*
X136225000Y-112600000D02*
X136325000Y-112700000D01*
X135110000Y-112600000D02*
X136225000Y-112600000D01*
G04 #@! TO.N,Net-(U3-CMPIN)*
X113743225Y-129740000D02*
X113824058Y-129659167D01*
X113824058Y-129659167D02*
X113960001Y-129659167D01*
X113960001Y-129659167D02*
X114219167Y-129400001D01*
X114219167Y-129400001D02*
X114500001Y-129400001D01*
G04 #@! TO.N,Net-(Q5-G)*
X124071716Y-128771716D02*
X123221716Y-128771716D01*
D64*
X119602919Y-129980001D02*
X119022919Y-129400001D01*
D62*
X123221716Y-128771716D02*
X123200000Y-128750000D01*
D64*
X119022919Y-129400001D02*
X118299999Y-129400001D01*
D62*
G04 #@! TO.N,Net-(U3-CMSRC)*
X125500000Y-122509999D02*
X125500000Y-122609999D01*
X120780000Y-124320000D02*
X118580000Y-124320000D01*
X125500000Y-122609999D02*
X122490001Y-122609999D01*
X118580000Y-124320000D02*
X116799999Y-126100001D01*
X116799999Y-126100001D02*
X116799999Y-126700001D01*
X122490001Y-122609999D02*
X120780000Y-124320000D01*
G04 #@! TO.N,Net-(U3-ACDRV)*
X120739376Y-123360624D02*
X120100000Y-124000000D01*
X116400000Y-126047452D02*
X116400000Y-126700001D01*
X118447452Y-124000000D02*
X116400000Y-126047452D01*
X120100000Y-124000000D02*
X118447452Y-124000000D01*
G04 #@! TO.N,Net-(U3-BATDRV)*
X116400000Y-130885930D02*
X116400000Y-130500001D01*
X115565930Y-131720000D02*
X116400000Y-130885930D01*
X110500000Y-131500000D02*
X110720000Y-131720000D01*
X110720000Y-131720000D02*
X115565930Y-131720000D01*
G04 #@! TO.N,Net-(U3-BATSRC)*
X112300000Y-131100000D02*
X112600000Y-131400000D01*
X129792500Y-125700000D02*
X129792500Y-125507500D01*
X116000001Y-130833381D02*
X116000001Y-130500001D01*
X129792500Y-125507500D02*
X131000000Y-124300000D01*
X115433382Y-131400000D02*
X116000001Y-130833381D01*
X111500000Y-131100000D02*
X112300000Y-131100000D01*
X131000000Y-124300000D02*
X131000000Y-123910000D01*
X112600000Y-131400000D02*
X115433382Y-131400000D01*
G04 #@! TO.N,Net-(U3-ILIM)*
X120300000Y-129310000D02*
X120300000Y-130046596D01*
X117619999Y-130520000D02*
X117600000Y-130500001D01*
X119826596Y-130520000D02*
X117619999Y-130520000D01*
X120300000Y-130046596D02*
X119826596Y-130520000D01*
G04 #@! TO.N,Net-(U3-ACOK)*
X115500000Y-125380000D02*
X116000001Y-125880001D01*
X112700000Y-127700000D02*
X111010000Y-127700000D01*
X116000001Y-125880001D02*
X116000001Y-126700001D01*
G04 #@! TO.N,Net-(U3-TB_STAT_N)*
X110510000Y-130300000D02*
X109500000Y-131310000D01*
X115599999Y-130500001D02*
X115599999Y-130780835D01*
X115599999Y-130780835D02*
X115300834Y-131080000D01*
X112000000Y-130300000D02*
X110510000Y-130300000D01*
X112780000Y-131080000D02*
X112000000Y-130300000D01*
X115300834Y-131080000D02*
X112780000Y-131080000D01*
G04 #@! TO.N,/Battery Charger/Charger IADP*
X114980001Y-126920000D02*
X115200000Y-126700001D01*
X112499818Y-126454760D02*
X112707308Y-126454760D01*
X112707308Y-126454760D02*
X113172548Y-126920000D01*
X113172548Y-126920000D02*
X114980001Y-126920000D01*
G04 #@! TO.N,Net-(U3-BATPRES_N)*
X114500001Y-129800000D02*
X114500001Y-129800002D01*
X114500001Y-129800002D02*
X115200000Y-130500001D01*
G04 #@! TO.N,/SCL*
X112710000Y-129200000D02*
X112210000Y-129700000D01*
X113100000Y-129200000D02*
X113300001Y-128999999D01*
X113300001Y-128999999D02*
X114500001Y-128999999D01*
X113100000Y-129200000D02*
X112710000Y-129200000D01*
G04 #@! TO.N,/Battery Charger/Charger IDCHG*
X114009305Y-127400000D02*
X114500001Y-127400000D01*
X111800000Y-127064873D02*
X112864873Y-127064873D01*
X113040000Y-127240000D02*
X113849305Y-127240000D01*
X113849305Y-127240000D02*
X114009305Y-127400000D01*
X112864873Y-127064873D02*
X113040000Y-127240000D01*
G04 #@! TO.N,/SDA*
X113100000Y-128400000D02*
X112800000Y-128700000D01*
X113100000Y-128400000D02*
X113300000Y-128600000D01*
X113300000Y-128600000D02*
X114500001Y-128600000D01*
X112800000Y-128700000D02*
X112210000Y-128700000D01*
G04 #@! TO.N,/MCU/LED*
X132200000Y-112600000D02*
X134090000Y-112600000D01*
G04 #@! TO.N,/Battery Charger/Charger PROCHOT*
X113919166Y-127900000D02*
X114219167Y-128200001D01*
X114219167Y-128200001D02*
X114500001Y-128200001D01*
X113745629Y-127900000D02*
X113919166Y-127900000D01*
G04 #@! TO.N,/Connectors/CC2*
X115900000Y-123000000D02*
X116300000Y-123000000D01*
X115890000Y-124474898D02*
X116279899Y-124084999D01*
X116300000Y-123000000D02*
X117175000Y-123000000D01*
X115141324Y-123284994D02*
X115615006Y-123284994D01*
X114956330Y-123100000D02*
X115141324Y-123284994D01*
X115615006Y-124325006D02*
X115615006Y-123284994D01*
X115890000Y-124600000D02*
X115615006Y-124325006D01*
X114350000Y-123100000D02*
X114956330Y-123100000D01*
X115615006Y-123284994D02*
X115900000Y-123000000D01*
X115890000Y-124600000D02*
X115890000Y-124474898D01*
G04 #@! TO.N,/Connectors/CC1*
X116204978Y-120686438D02*
X115838540Y-120320000D01*
X116833024Y-120686438D02*
X116204978Y-120686438D01*
X116300000Y-123500000D02*
X117175000Y-123500000D01*
X117175000Y-123500000D02*
X118100000Y-123500000D01*
X115838540Y-120320000D02*
X114490000Y-120320000D01*
G04 #@! TO.N,/Connectors/D-*
X113860000Y-121500000D02*
X114350000Y-121500000D01*
X118162132Y-122762131D02*
X118162133Y-122762133D01*
X117752500Y-122060000D02*
X117692500Y-122000000D01*
X114350000Y-122300000D02*
X113894654Y-122300000D01*
X113695000Y-122100346D02*
X113695000Y-121665000D01*
X119100000Y-123170000D02*
X118570000Y-123170000D01*
X117752500Y-122328605D02*
X117752500Y-122060000D01*
X118570000Y-123170000D02*
X118478919Y-123078919D01*
X117692500Y-122000000D02*
X117175000Y-122000000D01*
X118232843Y-122691421D02*
X118162132Y-122762131D01*
X117800094Y-122400094D02*
X117752500Y-122352500D01*
X115445346Y-122000000D02*
X116300000Y-122000000D01*
X117905130Y-122847800D02*
X117850190Y-122792860D01*
X113695000Y-121665000D02*
X113860000Y-121500000D01*
X118478919Y-122796075D02*
X118374265Y-122691421D01*
X118162133Y-122762133D02*
X118076464Y-122847799D01*
X114350000Y-121500000D02*
X114945346Y-121500000D01*
X117850190Y-122450190D02*
X117800094Y-122400094D01*
X117752500Y-122352500D02*
X117752500Y-122328605D01*
X113894654Y-122300000D02*
X113695000Y-122100346D01*
X116300000Y-122000000D02*
X117175000Y-122000000D01*
X114945346Y-121500000D02*
X115445346Y-122000000D01*
X118478919Y-123078919D02*
G75*
G02*
X118478911Y-122937489I70681J70719D01*
G01*
X117850190Y-122792860D02*
G75*
G02*
X117850197Y-122621532I85710J85660D01*
G01*
X118374265Y-122691421D02*
G75*
G03*
X118232843Y-122691421I-70711J-70713D01*
G01*
X117850189Y-122621524D02*
G75*
G03*
X117850147Y-122450233I-85689J85624D01*
G01*
X118478919Y-122937497D02*
G75*
G03*
X118478905Y-122796089I-70719J70697D01*
G01*
X118076464Y-122847799D02*
G75*
G02*
X117905133Y-122847796I-85664J85699D01*
G01*
G04 #@! TO.N,/Battery Charger/PWRON*
X115599999Y-126240001D02*
X115599999Y-126700001D01*
X115304336Y-125944338D02*
X115599999Y-126240001D01*
X114844338Y-125944338D02*
X115304336Y-125944338D01*
D63*
G04 #@! TO.N,/Battery Charger/MCU3.3v*
X110450206Y-129723090D02*
X110066910Y-129723090D01*
X110066910Y-129723090D02*
X109500000Y-130290000D01*
X109500000Y-130290000D02*
X110090000Y-129700000D01*
X111190000Y-129700000D02*
X111190000Y-128700000D01*
X110090000Y-129700000D02*
X111190000Y-129700000D01*
X111190000Y-128700000D02*
X110990000Y-128700000D01*
X110990000Y-128700000D02*
X109990000Y-127700000D01*
D62*
G04 #@! TO.N,Net-(U3-ACP)*
X122791960Y-123500000D02*
X121241960Y-125050000D01*
X118367453Y-125480000D02*
X117687452Y-126160001D01*
X119120000Y-125460000D02*
X119100000Y-125480000D01*
X127320000Y-121500000D02*
X127320000Y-122427452D01*
X117459167Y-126160001D02*
X117200001Y-126419167D01*
X120850000Y-125050000D02*
X120420000Y-125480000D01*
X129380000Y-119520000D02*
X127400000Y-121500000D01*
X121241960Y-125050000D02*
X120850000Y-125050000D01*
X119120000Y-124900000D02*
X119120000Y-125460000D01*
X127400000Y-121500000D02*
X127320000Y-121500000D01*
X127320000Y-122427452D02*
X126247452Y-123500000D01*
X126247452Y-123500000D02*
X122791960Y-123500000D01*
X117200001Y-126419167D02*
X117200001Y-126700001D01*
X119100000Y-125480000D02*
X118367453Y-125480000D01*
X117687452Y-126160001D02*
X117459167Y-126160001D01*
X129000000Y-118700000D02*
X129380000Y-119080000D01*
X120420000Y-125480000D02*
X119100000Y-125480000D01*
X129380000Y-119080000D02*
X129380000Y-119520000D01*
G04 #@! TO.N,Net-(U3-ACN)*
X118500001Y-125800000D02*
X121020000Y-125800000D01*
X126380000Y-123820000D02*
X128280000Y-121920000D01*
X123000000Y-123820000D02*
X126380000Y-123820000D01*
X129700000Y-119000000D02*
X129700000Y-119700000D01*
X128280000Y-121920000D02*
X128280000Y-121500000D01*
X117600000Y-126700001D02*
X118500001Y-125800000D01*
X121020000Y-125800000D02*
X123000000Y-123820000D01*
X130000000Y-118700000D02*
X129700000Y-119000000D01*
X128280000Y-121120000D02*
X128280000Y-121500000D01*
X129700000Y-119700000D02*
X128280000Y-121120000D01*
G04 #@! TO.N,Net-(C21-Pad2)*
X121600000Y-130990000D02*
X121710000Y-131100000D01*
X121600000Y-130180000D02*
X121600000Y-130990000D01*
D63*
G04 #@! TO.N,Net-(D1-A)*
X140600000Y-119815000D02*
X141600000Y-120815000D01*
X141600000Y-120815000D02*
X141600000Y-122000000D01*
X141087254Y-124387254D02*
X141500000Y-124800000D01*
X141600000Y-122000000D02*
X141087254Y-122512746D01*
X141087254Y-122512746D02*
X141087254Y-124387254D01*
X141500000Y-124800000D02*
X142365000Y-124800000D01*
D62*
G04 #@! TO.N,Net-(D3-A)*
X108900000Y-126300000D02*
X108900000Y-127815000D01*
X112202010Y-123297990D02*
X110000000Y-125500000D01*
X110000000Y-125500000D02*
X109700000Y-125500000D01*
X109700000Y-125500000D02*
X108900000Y-126300000D01*
D65*
G04 #@! TO.N,Net-(Q4-D)*
X126800000Y-124500000D02*
X124600000Y-124500000D01*
X129400000Y-121900000D02*
X126800000Y-124500000D01*
X129400000Y-121137500D02*
X129400000Y-121900000D01*
X124600000Y-124500000D02*
X124500000Y-124600000D01*
X129831130Y-120706370D02*
X129400000Y-121137500D01*
D62*
G04 #@! TO.N,Net-(NT14-Pad1)*
X125124998Y-121800000D02*
X125190001Y-121800000D01*
X125190001Y-121800000D02*
X125500000Y-121490001D01*
D66*
G04 #@! TO.N,/Battery Balancer/-BAT*
X143900000Y-120000000D02*
X144989823Y-120000000D01*
X144989823Y-120000000D02*
X149989823Y-125000000D01*
D63*
X138400000Y-122475000D02*
X139225000Y-122475000D01*
D66*
X149989823Y-125000000D02*
X150700000Y-125000000D01*
D63*
X139225000Y-122475000D02*
X139400000Y-122300000D01*
D62*
G04 #@! TO.N,/Connectors/D+*
X116300000Y-121500000D02*
X117175000Y-121500000D01*
X115488824Y-121500000D02*
X116300000Y-121500000D01*
X114350000Y-122700000D02*
X113842106Y-122700000D01*
X115088824Y-121100000D02*
X115488824Y-121500000D01*
X113842106Y-122700000D02*
X113360000Y-122217894D01*
X113360000Y-122217894D02*
X113360000Y-121547452D01*
X113807452Y-121100000D02*
X114350000Y-121100000D01*
X119100000Y-121900000D02*
X118700000Y-121500000D01*
X113360000Y-121547452D02*
X113807452Y-121100000D01*
X118700000Y-121500000D02*
X117175000Y-121500000D01*
X114350000Y-121100000D02*
X115088824Y-121100000D01*
G04 #@! TD*
G04 #@! TA.AperFunction,Conductor*
G04 #@! TO.N,/Battery Balancer/+BAT*
G36*
X144897693Y-125009350D02*
G01*
X145349174Y-125195368D01*
X148858625Y-126641322D01*
X148906924Y-126676924D01*
X148910124Y-126680792D01*
X148910129Y-126680797D01*
X149134902Y-126891874D01*
X149134912Y-126891882D01*
X149384348Y-127073108D01*
X149384353Y-127073110D01*
X149384360Y-127073116D01*
X149654565Y-127221663D01*
X149654570Y-127221665D01*
X149654572Y-127221666D01*
X149654573Y-127221667D01*
X149941253Y-127335171D01*
X149941256Y-127335172D01*
X150239910Y-127411853D01*
X150239914Y-127411854D01*
X150304091Y-127419961D01*
X150545816Y-127450499D01*
X150545825Y-127450499D01*
X150545828Y-127450500D01*
X150545830Y-127450500D01*
X150576000Y-127450500D01*
X150643039Y-127470185D01*
X150688794Y-127522989D01*
X150700000Y-127574500D01*
X150700000Y-131674527D01*
X150680315Y-131741566D01*
X150627511Y-131787321D01*
X150574536Y-131798518D01*
X144371368Y-131725252D01*
X144329950Y-131717610D01*
X143081617Y-131257515D01*
X143025521Y-131215861D01*
X143000850Y-131150492D01*
X143000499Y-131141182D01*
X143000499Y-130477128D01*
X142994091Y-130417517D01*
X142993555Y-130416081D01*
X142943797Y-130282671D01*
X142943793Y-130282664D01*
X142857547Y-130167455D01*
X142857544Y-130167452D01*
X142742335Y-130081206D01*
X142742328Y-130081202D01*
X142607486Y-130030910D01*
X142607485Y-130030909D01*
X142607483Y-130030909D01*
X142547873Y-130024500D01*
X142547864Y-130024500D01*
X141957026Y-130024500D01*
X141889987Y-130004815D01*
X141881547Y-129998882D01*
X141777625Y-129919139D01*
X141777624Y-129919138D01*
X141777622Y-129919137D01*
X141643712Y-129863671D01*
X141643710Y-129863670D01*
X141643709Y-129863670D01*
X141571854Y-129854210D01*
X141500001Y-129844750D01*
X141499999Y-129844750D01*
X141356291Y-129863670D01*
X141356287Y-129863671D01*
X141222377Y-129919137D01*
X141107379Y-130007379D01*
X141019137Y-130122377D01*
X140963671Y-130256287D01*
X140963670Y-130256291D01*
X140956219Y-130312884D01*
X140927952Y-130376780D01*
X140869627Y-130415250D01*
X140799762Y-130416081D01*
X140790398Y-130413046D01*
X140755003Y-130400000D01*
X140755000Y-130400000D01*
X139129000Y-130400000D01*
X139061961Y-130380315D01*
X139016206Y-130327511D01*
X139005000Y-130276000D01*
X139005000Y-125424000D01*
X139024685Y-125356961D01*
X139077489Y-125311206D01*
X139129000Y-125300000D01*
X140754997Y-125300000D01*
X140755000Y-125300000D01*
X141538601Y-125191667D01*
X141555582Y-125190500D01*
X142324508Y-125190500D01*
X142343904Y-125192026D01*
X142365000Y-125195368D01*
X142386095Y-125192026D01*
X142405492Y-125190500D01*
X142416408Y-125190500D01*
X142416410Y-125190500D01*
X142440034Y-125184169D01*
X142452713Y-125181475D01*
X142487175Y-125176017D01*
X142494097Y-125172489D01*
X142508243Y-125167059D01*
X142508218Y-125166998D01*
X142515722Y-125163889D01*
X142515728Y-125163888D01*
X142548631Y-125144890D01*
X142554263Y-125141833D01*
X142597391Y-125119859D01*
X142604770Y-125112479D01*
X142604773Y-125112478D01*
X142654478Y-125062772D01*
X142715797Y-125029290D01*
X142725139Y-125027630D01*
X142907216Y-125002458D01*
X142916552Y-125001168D01*
X142933532Y-125000000D01*
X144850455Y-125000000D01*
X144897693Y-125009350D01*
G37*
G04 #@! TD.AperFunction*
G04 #@! TD*
G04 #@! TA.AperFunction,Conductor*
G04 #@! TO.N,Net-(Q4-S)*
G36*
X126806173Y-125429859D02*
G01*
X126826464Y-125435497D01*
X126902353Y-125475750D01*
X126918402Y-125489388D01*
X126970376Y-125557777D01*
X126979219Y-125576893D01*
X126998855Y-125666114D01*
X127000000Y-125676646D01*
X127000000Y-130414012D01*
X126999080Y-130423464D01*
X126983255Y-130503962D01*
X126976100Y-130521457D01*
X126933659Y-130585914D01*
X126920414Y-130599400D01*
X126856730Y-130642997D01*
X126839366Y-130650466D01*
X126763918Y-130666714D01*
X126745018Y-130667054D01*
X126669037Y-130653535D01*
X126651416Y-130646697D01*
X126582095Y-130602822D01*
X126574601Y-130596990D01*
X126122321Y-130168515D01*
X126122318Y-130168512D01*
X126050000Y-130100000D01*
X125950382Y-130100000D01*
X125950381Y-130100000D01*
X125396393Y-130100000D01*
X125387037Y-130099099D01*
X125307311Y-130083591D01*
X125289964Y-130076576D01*
X125225905Y-130034940D01*
X125212452Y-130021936D01*
X125168667Y-129959320D01*
X125161069Y-129942220D01*
X125142871Y-129863071D01*
X125141653Y-129853751D01*
X125050150Y-127154414D01*
X125050138Y-127154007D01*
X125050046Y-127150410D01*
X125050032Y-127149568D01*
X125050002Y-127145993D01*
X125050000Y-127145582D01*
X125050000Y-126454823D01*
X125050939Y-126445274D01*
X125063323Y-126383018D01*
X125070638Y-126365360D01*
X125103167Y-126316677D01*
X125116677Y-126303167D01*
X125165361Y-126270637D01*
X125183018Y-126263323D01*
X125245274Y-126250939D01*
X125254823Y-126250000D01*
X125373292Y-126250000D01*
X125373294Y-126250000D01*
X125450000Y-126250000D01*
X126605378Y-125467323D01*
X126614734Y-125462367D01*
X126699617Y-125428583D01*
X126720404Y-125425184D01*
X126806173Y-125429859D01*
G37*
G04 #@! TD.AperFunction*
G04 #@! TD*
G04 #@! TA.AperFunction,Conductor*
G04 #@! TO.N,/Battery Charger/MOTORPWR*
G36*
X118028541Y-112220185D02*
G01*
X118074296Y-112272989D01*
X118084240Y-112342147D01*
X118078543Y-112365455D01*
X118052354Y-112440298D01*
X118052353Y-112440300D01*
X118049500Y-112470730D01*
X118049500Y-113529269D01*
X118052353Y-113559699D01*
X118052353Y-113559701D01*
X118092129Y-113673371D01*
X118097207Y-113687882D01*
X118177850Y-113797150D01*
X118287118Y-113877793D01*
X118329845Y-113892744D01*
X118415299Y-113922646D01*
X118445730Y-113925500D01*
X118445734Y-113925500D01*
X119054270Y-113925500D01*
X119084699Y-113922646D01*
X119084701Y-113922646D01*
X119148790Y-113900219D01*
X119212882Y-113877793D01*
X119273056Y-113833382D01*
X119338684Y-113809412D01*
X119406855Y-113824727D01*
X119413728Y-113828837D01*
X119418871Y-113832142D01*
X119418872Y-113832143D01*
X119539947Y-113909953D01*
X119539950Y-113909954D01*
X119539949Y-113909954D01*
X119678036Y-113950499D01*
X119678038Y-113950500D01*
X119678039Y-113950500D01*
X119821962Y-113950500D01*
X119821962Y-113950499D01*
X119960053Y-113909953D01*
X120081128Y-113832143D01*
X120175377Y-113723373D01*
X120235165Y-113592457D01*
X120255647Y-113450000D01*
X120235165Y-113307543D01*
X120175377Y-113176627D01*
X120081128Y-113067857D01*
X120081126Y-113067855D01*
X120081122Y-113067851D01*
X120079115Y-113066112D01*
X120077678Y-113063877D01*
X120075320Y-113061155D01*
X120075711Y-113060815D01*
X120041341Y-113007334D01*
X120041343Y-112937464D01*
X120066604Y-112891200D01*
X120125377Y-112823373D01*
X120185165Y-112692457D01*
X120205647Y-112550000D01*
X120185165Y-112407543D01*
X120170764Y-112376011D01*
X120160821Y-112306853D01*
X120189846Y-112243298D01*
X120248624Y-112205523D01*
X120283559Y-112200500D01*
X131639275Y-112200500D01*
X131706314Y-112220185D01*
X131752069Y-112272989D01*
X131762013Y-112342147D01*
X131752069Y-112376011D01*
X131714835Y-112457541D01*
X131714834Y-112457542D01*
X131694353Y-112600000D01*
X131714834Y-112742456D01*
X131760504Y-112842457D01*
X131774623Y-112873373D01*
X131868872Y-112982143D01*
X131989947Y-113059953D01*
X131989950Y-113059954D01*
X131989949Y-113059954D01*
X132128036Y-113100499D01*
X132128038Y-113100500D01*
X132128039Y-113100500D01*
X132271962Y-113100500D01*
X132271962Y-113100499D01*
X132396689Y-113063877D01*
X132410050Y-113059954D01*
X132410050Y-113059953D01*
X132410053Y-113059953D01*
X132531128Y-112982143D01*
X132536832Y-112975561D01*
X132582116Y-112923299D01*
X132640893Y-112885523D01*
X132675830Y-112880500D01*
X133550352Y-112880500D01*
X133617391Y-112900185D01*
X133662733Y-112952093D01*
X133675935Y-112980404D01*
X133759596Y-113064065D01*
X133866827Y-113114068D01*
X133915683Y-113120500D01*
X133915684Y-113120500D01*
X134264317Y-113120500D01*
X134280601Y-113118356D01*
X134313173Y-113114068D01*
X134420404Y-113064065D01*
X134504065Y-112980404D01*
X134504065Y-112980403D01*
X134511736Y-112972733D01*
X134514564Y-112975561D01*
X134552977Y-112944843D01*
X134622474Y-112937635D01*
X134684835Y-112969143D01*
X134688093Y-112972903D01*
X134688264Y-112972733D01*
X134695935Y-112980404D01*
X134779596Y-113064065D01*
X134886827Y-113114068D01*
X134935683Y-113120500D01*
X134935684Y-113120500D01*
X135284317Y-113120500D01*
X135300601Y-113118356D01*
X135333173Y-113114068D01*
X135440404Y-113064065D01*
X135440411Y-113064057D01*
X135448742Y-113058225D01*
X135514946Y-113035893D01*
X135582715Y-113052899D01*
X135630531Y-113103844D01*
X135636913Y-113118838D01*
X135645885Y-113144477D01*
X135724288Y-113250710D01*
X135724289Y-113250711D01*
X135830523Y-113329115D01*
X135830524Y-113329115D01*
X135830525Y-113329116D01*
X135955151Y-113372725D01*
X135955150Y-113372725D01*
X135984740Y-113375500D01*
X135984744Y-113375500D01*
X136665260Y-113375500D01*
X136694849Y-113372725D01*
X136819475Y-113329116D01*
X136925711Y-113250711D01*
X137004116Y-113144475D01*
X137047725Y-113019849D01*
X137048899Y-113007334D01*
X137050500Y-112990260D01*
X137050500Y-112409739D01*
X137047725Y-112380152D01*
X137046276Y-112376012D01*
X137042583Y-112365455D01*
X137039020Y-112295678D01*
X137073748Y-112235050D01*
X137135740Y-112202822D01*
X137159624Y-112200500D01*
X137240376Y-112200500D01*
X137307415Y-112220185D01*
X137353170Y-112272989D01*
X137363114Y-112342147D01*
X137357417Y-112365457D01*
X137352274Y-112380152D01*
X137349500Y-112409739D01*
X137349500Y-112990260D01*
X137352274Y-113019849D01*
X137395884Y-113144476D01*
X137474288Y-113250710D01*
X137474289Y-113250711D01*
X137580523Y-113329115D01*
X137580524Y-113329115D01*
X137580525Y-113329116D01*
X137705151Y-113372725D01*
X137705150Y-113372725D01*
X137734740Y-113375500D01*
X137734744Y-113375500D01*
X138415260Y-113375500D01*
X138444849Y-113372725D01*
X138569475Y-113329116D01*
X138675711Y-113250711D01*
X138699614Y-113218322D01*
X138755257Y-113176074D01*
X138824913Y-113170615D01*
X138834315Y-113172980D01*
X138849460Y-113177427D01*
X138928038Y-113200500D01*
X138928039Y-113200500D01*
X139071962Y-113200500D01*
X139071962Y-113200499D01*
X139210053Y-113159953D01*
X139331128Y-113082143D01*
X139425377Y-112973373D01*
X139485165Y-112842457D01*
X139505647Y-112700000D01*
X139485165Y-112557543D01*
X139425377Y-112426627D01*
X139407245Y-112405702D01*
X139378221Y-112342147D01*
X139388165Y-112272989D01*
X139433919Y-112220185D01*
X139500959Y-112200500D01*
X141339275Y-112200500D01*
X141406314Y-112220185D01*
X141452069Y-112272989D01*
X141462013Y-112342147D01*
X141452069Y-112376011D01*
X141414835Y-112457541D01*
X141414834Y-112457542D01*
X141394353Y-112600000D01*
X141414834Y-112742456D01*
X141474622Y-112873371D01*
X141474625Y-112873377D01*
X141513983Y-112918798D01*
X141543008Y-112982353D01*
X141533064Y-113051512D01*
X141513983Y-113081202D01*
X141474625Y-113126622D01*
X141474622Y-113126628D01*
X141414834Y-113257543D01*
X141394353Y-113400000D01*
X141414834Y-113542456D01*
X141422709Y-113559699D01*
X141474623Y-113673373D01*
X141568872Y-113782143D01*
X141689947Y-113859953D01*
X141689950Y-113859954D01*
X141689949Y-113859954D01*
X141828036Y-113900499D01*
X141828038Y-113900500D01*
X141828039Y-113900500D01*
X141971962Y-113900500D01*
X141971962Y-113900499D01*
X142110050Y-113859954D01*
X142110051Y-113859954D01*
X142110053Y-113859953D01*
X142173331Y-113819286D01*
X142240369Y-113799602D01*
X142307409Y-113819286D01*
X142313989Y-113823821D01*
X142387118Y-113877793D01*
X142429845Y-113892744D01*
X142515299Y-113922646D01*
X142545730Y-113925500D01*
X142545734Y-113925500D01*
X143154270Y-113925500D01*
X143184699Y-113922646D01*
X143184701Y-113922646D01*
X143248790Y-113900219D01*
X143312882Y-113877793D01*
X143422150Y-113797150D01*
X143502793Y-113687882D01*
X143536184Y-113592456D01*
X143547646Y-113559701D01*
X143547646Y-113559699D01*
X143550500Y-113529269D01*
X143550500Y-112470730D01*
X143547646Y-112440300D01*
X143547645Y-112440298D01*
X143521457Y-112365455D01*
X143517895Y-112295676D01*
X143552623Y-112235049D01*
X143614617Y-112202821D01*
X143638498Y-112200500D01*
X152775500Y-112200500D01*
X152842539Y-112220185D01*
X152888294Y-112272989D01*
X152899500Y-112324500D01*
X152899500Y-116476000D01*
X152879815Y-116543039D01*
X152827011Y-116588794D01*
X152775500Y-116600000D01*
X141899996Y-116600000D01*
X138436818Y-117528274D01*
X138366968Y-117526617D01*
X138329228Y-117506878D01*
X138252841Y-117448264D01*
X138106761Y-117387756D01*
X138106759Y-117387755D01*
X137950000Y-117367118D01*
X137949998Y-117367118D01*
X137793238Y-117387755D01*
X137793236Y-117387756D01*
X137647159Y-117448263D01*
X137521715Y-117544519D01*
X137425463Y-117669958D01*
X137425459Y-117669965D01*
X137388565Y-117759033D01*
X137344724Y-117813436D01*
X137306109Y-117831351D01*
X137050000Y-117899999D01*
X137050000Y-119279865D01*
X137030315Y-119346904D01*
X136977511Y-119392659D01*
X136929926Y-119403803D01*
X131595233Y-119572775D01*
X131527604Y-119555223D01*
X131487001Y-119515891D01*
X131414944Y-119403803D01*
X130943501Y-118670446D01*
X130400001Y-117825001D01*
X130400000Y-117825000D01*
X126650156Y-116704619D01*
X126597973Y-116673490D01*
X126580028Y-116655545D01*
X126580027Y-116655544D01*
X126516065Y-116618616D01*
X126516066Y-116618616D01*
X126492285Y-116612244D01*
X126444725Y-116599500D01*
X126444724Y-116599500D01*
X123056929Y-116599500D01*
X122983071Y-116599500D01*
X122978776Y-116599500D01*
X122971147Y-116600000D01*
X113820947Y-116600000D01*
X113773495Y-116590561D01*
X113732407Y-116573542D01*
X113732405Y-116573541D01*
X113732404Y-116573541D01*
X113590000Y-116554793D01*
X113447596Y-116573541D01*
X113447595Y-116573541D01*
X113431242Y-116580315D01*
X113406505Y-116590561D01*
X113359054Y-116600000D01*
X111377696Y-116600000D01*
X111345603Y-116595775D01*
X111303525Y-116584500D01*
X109916475Y-116584500D01*
X109874396Y-116595775D01*
X109842304Y-116600000D01*
X108424500Y-116600000D01*
X108357461Y-116580315D01*
X108311706Y-116527511D01*
X108300500Y-116476000D01*
X108300500Y-114380247D01*
X127989500Y-114380247D01*
X127989500Y-115419752D01*
X128001131Y-115478229D01*
X128001132Y-115478230D01*
X128045447Y-115544552D01*
X128111769Y-115588867D01*
X128111770Y-115588868D01*
X128170247Y-115600499D01*
X128170250Y-115600500D01*
X128170252Y-115600500D01*
X129209750Y-115600500D01*
X129209751Y-115600499D01*
X129224568Y-115597552D01*
X129268229Y-115588868D01*
X129268229Y-115588867D01*
X129268231Y-115588867D01*
X129334552Y-115544552D01*
X129365899Y-115497638D01*
X129419508Y-115452836D01*
X129488833Y-115444127D01*
X129551225Y-115473715D01*
X129559148Y-115480734D01*
X129709775Y-115559790D01*
X129874944Y-115600500D01*
X130045056Y-115600500D01*
X130210225Y-115559790D01*
X130328639Y-115497641D01*
X130360849Y-115480736D01*
X130360850Y-115480734D01*
X130360852Y-115480734D01*
X130488183Y-115367929D01*
X130492950Y-115361021D01*
X130547230Y-115317033D01*
X130616678Y-115309372D01*
X130679244Y-115340473D01*
X130697046Y-115361017D01*
X130701817Y-115367929D01*
X130787827Y-115444127D01*
X130829150Y-115480736D01*
X130979773Y-115559789D01*
X130979775Y-115559790D01*
X131144944Y-115600500D01*
X131315056Y-115600500D01*
X131480225Y-115559790D01*
X131598639Y-115497641D01*
X131630849Y-115480736D01*
X131630850Y-115480734D01*
X131630852Y-115480734D01*
X131758183Y-115367929D01*
X131762950Y-115361021D01*
X131817230Y-115317033D01*
X131886678Y-115309372D01*
X131949244Y-115340473D01*
X131967046Y-115361017D01*
X131971817Y-115367929D01*
X132057827Y-115444127D01*
X132099150Y-115480736D01*
X132249773Y-115559789D01*
X132249775Y-115559790D01*
X132414944Y-115600500D01*
X132585056Y-115600500D01*
X132750225Y-115559790D01*
X132868639Y-115497641D01*
X132900849Y-115480736D01*
X132900850Y-115480734D01*
X132900852Y-115480734D01*
X133028183Y-115367929D01*
X133124818Y-115227930D01*
X133185140Y-115068872D01*
X133205645Y-114900000D01*
X133185140Y-114731128D01*
X133124818Y-114572070D01*
X133028183Y-114432071D01*
X132908776Y-114326286D01*
X132900849Y-114319263D01*
X132750226Y-114240210D01*
X132585056Y-114199500D01*
X132414944Y-114199500D01*
X132249773Y-114240210D01*
X132099150Y-114319263D01*
X131971815Y-114432072D01*
X131967049Y-114438978D01*
X131912766Y-114482968D01*
X131843317Y-114490627D01*
X131780753Y-114459523D01*
X131762951Y-114438978D01*
X131758184Y-114432072D01*
X131630849Y-114319263D01*
X131480226Y-114240210D01*
X131315056Y-114199500D01*
X131144944Y-114199500D01*
X130979773Y-114240210D01*
X130829150Y-114319263D01*
X130701815Y-114432072D01*
X130697049Y-114438978D01*
X130642766Y-114482968D01*
X130573317Y-114490627D01*
X130510753Y-114459523D01*
X130492951Y-114438978D01*
X130488184Y-114432072D01*
X130360849Y-114319263D01*
X130210226Y-114240210D01*
X130045056Y-114199500D01*
X129874944Y-114199500D01*
X129709773Y-114240210D01*
X129559149Y-114319264D01*
X129559147Y-114319266D01*
X129551223Y-114326286D01*
X129487989Y-114356005D01*
X129418726Y-114346820D01*
X129365897Y-114302358D01*
X129334553Y-114255448D01*
X129268230Y-114211132D01*
X129268229Y-114211131D01*
X129209752Y-114199500D01*
X129209748Y-114199500D01*
X128170252Y-114199500D01*
X128170247Y-114199500D01*
X128111770Y-114211131D01*
X128111769Y-114211132D01*
X128045447Y-114255447D01*
X128001132Y-114321769D01*
X128001131Y-114321770D01*
X127989500Y-114380247D01*
X108300500Y-114380247D01*
X108300500Y-112324500D01*
X108320185Y-112257461D01*
X108372989Y-112211706D01*
X108424500Y-112200500D01*
X117961502Y-112200500D01*
X118028541Y-112220185D01*
G37*
G04 #@! TD.AperFunction*
G04 #@! TD*
G04 #@! TA.AperFunction,Conductor*
G04 #@! TO.N,Net-(C21-Pad2)*
G36*
X134203117Y-123552375D02*
G01*
X134297159Y-123624536D01*
X134443238Y-123685044D01*
X134600000Y-123705682D01*
X134756762Y-123685044D01*
X134902841Y-123624536D01*
X134996882Y-123552375D01*
X135003883Y-123550000D01*
X135259972Y-123550000D01*
X135266972Y-123552375D01*
X135304207Y-123580947D01*
X135450286Y-123641455D01*
X135607048Y-123662093D01*
X135763810Y-123641455D01*
X135909889Y-123580947D01*
X135947122Y-123552376D01*
X135954122Y-123550000D01*
X135971210Y-123550000D01*
X135979342Y-123553368D01*
X135982710Y-123561500D01*
X135981985Y-123565517D01*
X135976231Y-123580945D01*
X135960587Y-123622887D01*
X135954500Y-123679514D01*
X135954500Y-124570484D01*
X135960587Y-124627112D01*
X135960588Y-124627114D01*
X136008372Y-124755226D01*
X136090313Y-124864687D01*
X136199774Y-124946628D01*
X136327886Y-124994412D01*
X136384515Y-125000500D01*
X136444085Y-125000499D01*
X136452215Y-125003867D01*
X136453725Y-125005732D01*
X136591168Y-125217182D01*
X136592330Y-125219510D01*
X136621775Y-125300264D01*
X136622409Y-125305395D01*
X136613501Y-125390890D01*
X136612940Y-125393430D01*
X136441783Y-125892232D01*
X136435958Y-125898831D01*
X136430906Y-125900000D01*
X136200000Y-125900000D01*
X136200000Y-125900001D01*
X136200000Y-126594940D01*
X136199377Y-126598672D01*
X134930275Y-130297199D01*
X134929038Y-130299737D01*
X134878247Y-130377823D01*
X134874139Y-130381635D01*
X134792474Y-130426445D01*
X134789851Y-130427489D01*
X133506034Y-130763128D01*
X132625217Y-130993406D01*
X132624512Y-130993567D01*
X132600510Y-130998227D01*
X132599053Y-130998414D01*
X132574663Y-130999976D01*
X132573928Y-131000000D01*
X130740720Y-131000000D01*
X130738226Y-130999726D01*
X130710519Y-130993567D01*
X130657223Y-130981719D01*
X130652703Y-130979605D01*
X130587982Y-130929768D01*
X130584782Y-130925937D01*
X130547270Y-130853373D01*
X130545995Y-130848550D01*
X130542707Y-130765632D01*
X130542882Y-130763128D01*
X130576293Y-130578571D01*
X130576982Y-130576224D01*
X130585044Y-130556762D01*
X130597817Y-130459738D01*
X130597890Y-130459272D01*
X131530172Y-125309519D01*
X131534934Y-125302121D01*
X131542985Y-125300169D01*
X131584856Y-125305682D01*
X131741618Y-125285044D01*
X131887697Y-125224536D01*
X132013138Y-125128282D01*
X132109392Y-125002841D01*
X132169900Y-124856762D01*
X132190538Y-124700000D01*
X132169900Y-124543238D01*
X132148269Y-124491017D01*
X132148269Y-124482217D01*
X132150050Y-124479268D01*
X132398703Y-124180608D01*
X132398702Y-124180608D01*
X132445000Y-124125000D01*
X132445000Y-123943915D01*
X132445098Y-123942414D01*
X132446460Y-123932070D01*
X132450682Y-123900000D01*
X132445098Y-123857584D01*
X132445000Y-123856083D01*
X132445000Y-123751132D01*
X132445221Y-123748889D01*
X132445456Y-123747703D01*
X132459778Y-123675704D01*
X132461492Y-123671564D01*
X132502308Y-123610480D01*
X132505477Y-123607310D01*
X132530771Y-123590409D01*
X132539400Y-123588693D01*
X132541554Y-123589346D01*
X132543238Y-123590044D01*
X132700000Y-123610682D01*
X132856762Y-123590044D01*
X132945306Y-123553368D01*
X132951325Y-123550875D01*
X132955726Y-123550000D01*
X134196117Y-123550000D01*
X134203117Y-123552375D01*
G37*
G04 #@! TD.AperFunction*
G04 #@! TD*
G04 #@! TA.AperFunction,Conductor*
G04 #@! TO.N,GND*
G36*
X141516186Y-130155017D02*
G01*
X141535991Y-130157625D01*
X141536004Y-130157626D01*
X141547771Y-130159175D01*
X141547779Y-130159176D01*
X141579040Y-130167552D01*
X141590752Y-130172404D01*
X141608471Y-130179743D01*
X141636504Y-130195927D01*
X141691610Y-130238212D01*
X141695590Y-130241266D01*
X141705851Y-130248804D01*
X141705858Y-130248809D01*
X141714298Y-130254742D01*
X141803915Y-130297939D01*
X141870954Y-130317624D01*
X141957026Y-130330000D01*
X142512812Y-130330000D01*
X142556143Y-130337817D01*
X142577711Y-130345861D01*
X142608681Y-130362772D01*
X142625031Y-130375011D01*
X142649983Y-130399962D01*
X142662224Y-130416315D01*
X142679137Y-130447288D01*
X142687181Y-130468855D01*
X142694999Y-130512188D01*
X142694999Y-131141181D01*
X142695215Y-131152688D01*
X142695566Y-131161997D01*
X142695567Y-131162005D01*
X142715027Y-131258358D01*
X142715028Y-131258362D01*
X142715029Y-131258364D01*
X142739700Y-131323733D01*
X142767088Y-131378780D01*
X142843393Y-131461135D01*
X142899489Y-131502789D01*
X142899491Y-131502790D01*
X142899494Y-131502792D01*
X142929408Y-131518975D01*
X142975967Y-131544165D01*
X143016628Y-131559151D01*
X143072724Y-131600805D01*
X143097395Y-131666174D01*
X143082808Y-131734504D01*
X143033595Y-131784101D01*
X142973746Y-131799500D01*
X140674000Y-131799500D01*
X140606961Y-131779815D01*
X140561206Y-131727011D01*
X140550000Y-131675500D01*
X140550000Y-130829500D01*
X140569685Y-130762461D01*
X140622489Y-130716706D01*
X140674000Y-130705500D01*
X140688316Y-130705500D01*
X140706937Y-130706905D01*
X140803395Y-130721559D01*
X140873260Y-130720728D01*
X140934351Y-130713815D01*
X141037835Y-130670272D01*
X141096160Y-130631802D01*
X141143820Y-130592954D01*
X141207334Y-130500376D01*
X141235601Y-130436480D01*
X141259105Y-130352762D01*
X141259173Y-130352241D01*
X141259338Y-130351625D01*
X141259995Y-130348424D01*
X141260185Y-130348463D01*
X141267552Y-130320958D01*
X141279745Y-130291519D01*
X141295921Y-130263500D01*
X141315332Y-130238204D01*
X141338204Y-130215332D01*
X141363500Y-130195921D01*
X141391520Y-130179745D01*
X141420961Y-130167550D01*
X141452216Y-130159175D01*
X141483813Y-130155016D01*
X141516186Y-130155017D01*
G37*
G04 #@! TD.AperFunction*
G04 #@! TA.AperFunction,Conductor*
G36*
X124777047Y-129071619D02*
G01*
X124809800Y-129133336D01*
X124812258Y-129154050D01*
X124836328Y-129864110D01*
X124838729Y-129893346D01*
X124839941Y-129902622D01*
X124839947Y-129902658D01*
X124845138Y-129931522D01*
X124845141Y-129931537D01*
X124848377Y-129945610D01*
X124850819Y-129960138D01*
X124855909Y-130007483D01*
X124906202Y-130142328D01*
X124906206Y-130142335D01*
X124992452Y-130257544D01*
X124992455Y-130257547D01*
X125107664Y-130343793D01*
X125107671Y-130343797D01*
X125242516Y-130394091D01*
X125268419Y-130396875D01*
X125302127Y-130400500D01*
X125330246Y-130400499D01*
X125348063Y-130401786D01*
X125357731Y-130403189D01*
X125357733Y-130403189D01*
X125357752Y-130403192D01*
X125367108Y-130404093D01*
X125387081Y-130405052D01*
X125396368Y-130405499D01*
X125396386Y-130405499D01*
X125396393Y-130405500D01*
X125878856Y-130405500D01*
X125945895Y-130425185D01*
X125964135Y-130439481D01*
X126166077Y-130630794D01*
X126297692Y-130755482D01*
X126332822Y-130815878D01*
X126329722Y-130885679D01*
X126289377Y-130942723D01*
X126224597Y-130968900D01*
X126212412Y-130969500D01*
X122631173Y-130969500D01*
X122564134Y-130949815D01*
X122518379Y-130897011D01*
X122508003Y-130831178D01*
X122575030Y-130254741D01*
X122658218Y-129539310D01*
X122685514Y-129474996D01*
X122743249Y-129435646D01*
X122813093Y-129433757D01*
X122824712Y-129437450D01*
X122842517Y-129444091D01*
X122902127Y-129450500D01*
X123497872Y-129450499D01*
X123557483Y-129444091D01*
X123692331Y-129393796D01*
X123746958Y-129352901D01*
X123812416Y-129328485D01*
X123868715Y-129337607D01*
X123914954Y-129356760D01*
X123993335Y-129367079D01*
X124071715Y-129377398D01*
X124071716Y-129377398D01*
X124071717Y-129377398D01*
X124123970Y-129370518D01*
X124228478Y-129356760D01*
X124374557Y-129296252D01*
X124499998Y-129199998D01*
X124589954Y-129082763D01*
X124646381Y-129041562D01*
X124716127Y-129037407D01*
X124777047Y-129071619D01*
G37*
G04 #@! TD.AperFunction*
G04 #@! TA.AperFunction,Conductor*
G36*
X129205702Y-125886800D02*
G01*
X129239059Y-125933059D01*
X129267964Y-126002841D01*
X129364218Y-126128282D01*
X129489659Y-126224536D01*
X129635738Y-126285044D01*
X129684959Y-126291524D01*
X129792499Y-126305682D01*
X129792500Y-126305682D01*
X129792501Y-126305682D01*
X129850874Y-126297997D01*
X129949262Y-126285044D01*
X130028047Y-126252409D01*
X130097517Y-126244941D01*
X130159996Y-126276216D01*
X130195648Y-126336305D01*
X130199500Y-126366971D01*
X130199501Y-130845500D01*
X130179816Y-130912539D01*
X130127012Y-130958294D01*
X130075501Y-130969500D01*
X129124500Y-130969500D01*
X129057461Y-130949815D01*
X129011706Y-130897011D01*
X129000500Y-130845500D01*
X129000500Y-128422033D01*
X129000499Y-125980512D01*
X129020184Y-125913474D01*
X129072988Y-125867719D01*
X129142146Y-125857775D01*
X129205702Y-125886800D01*
G37*
G04 #@! TD.AperFunction*
G04 #@! TA.AperFunction,Conductor*
G36*
X117037551Y-127271144D02*
G01*
X117037563Y-127271103D01*
X117045412Y-127273206D01*
X117045414Y-127273207D01*
X117147274Y-127300500D01*
X117147276Y-127300500D01*
X117252726Y-127300500D01*
X117252728Y-127300500D01*
X117354588Y-127273207D01*
X117354589Y-127273206D01*
X117362439Y-127271103D01*
X117362930Y-127272936D01*
X117422015Y-127266583D01*
X117437551Y-127271143D01*
X117437562Y-127271103D01*
X117445411Y-127273206D01*
X117445413Y-127273207D01*
X117547273Y-127300500D01*
X117547275Y-127300500D01*
X117575500Y-127300500D01*
X117642539Y-127320185D01*
X117688294Y-127372989D01*
X117699500Y-127424500D01*
X117699500Y-127452727D01*
X117726793Y-127554587D01*
X117726794Y-127554588D01*
X117728897Y-127562437D01*
X117727066Y-127562927D01*
X117733413Y-127622032D01*
X117728856Y-127637551D01*
X117728896Y-127637562D01*
X117712166Y-127700000D01*
X117699500Y-127747272D01*
X117699500Y-127852726D01*
X117726793Y-127954586D01*
X117726794Y-127954587D01*
X117728897Y-127962436D01*
X117727065Y-127962926D01*
X117733417Y-128022020D01*
X117728856Y-128037553D01*
X117728897Y-128037564D01*
X117726794Y-128045412D01*
X117726793Y-128045414D01*
X117699500Y-128147274D01*
X117699500Y-128252728D01*
X117726793Y-128354588D01*
X117726794Y-128354589D01*
X117728897Y-128362438D01*
X117727066Y-128362928D01*
X117733413Y-128422033D01*
X117728856Y-128437552D01*
X117728896Y-128437563D01*
X117702907Y-128534557D01*
X117699500Y-128547273D01*
X117699500Y-128652727D01*
X117726793Y-128754587D01*
X117726794Y-128754588D01*
X117728897Y-128762437D01*
X117727066Y-128762927D01*
X117733413Y-128822032D01*
X117728856Y-128837551D01*
X117728896Y-128837562D01*
X117726793Y-128845412D01*
X117699500Y-128947272D01*
X117699500Y-129052726D01*
X117726793Y-129154586D01*
X117726794Y-129154587D01*
X117728897Y-129162436D01*
X117727065Y-129162926D01*
X117733417Y-129222020D01*
X117728856Y-129237553D01*
X117728897Y-129237564D01*
X117726794Y-129245412D01*
X117726793Y-129245414D01*
X117699500Y-129347274D01*
X117699500Y-129452728D01*
X117726793Y-129554588D01*
X117779520Y-129645914D01*
X117779523Y-129645917D01*
X117783387Y-129652609D01*
X117800000Y-129714610D01*
X117800000Y-129777496D01*
X117780315Y-129844535D01*
X117727511Y-129890290D01*
X117659815Y-129900435D01*
X117652728Y-129899502D01*
X117652727Y-129899502D01*
X117547273Y-129899502D01*
X117437563Y-129928898D01*
X117437073Y-129927069D01*
X117377960Y-129933414D01*
X117362448Y-129928859D01*
X117362438Y-129928899D01*
X117354589Y-129926796D01*
X117354588Y-129926795D01*
X117252728Y-129899502D01*
X117147274Y-129899502D01*
X117045414Y-129926795D01*
X117045412Y-129926796D01*
X117037564Y-129928899D01*
X117037073Y-129927067D01*
X116977980Y-129933419D01*
X116962446Y-129928858D01*
X116962436Y-129928899D01*
X116954587Y-129926796D01*
X116954586Y-129926795D01*
X116852726Y-129899502D01*
X116747272Y-129899502D01*
X116637562Y-129928898D01*
X116637072Y-129927069D01*
X116577959Y-129933414D01*
X116562447Y-129928859D01*
X116562437Y-129928899D01*
X116554588Y-129926796D01*
X116554587Y-129926795D01*
X116452727Y-129899502D01*
X116347273Y-129899502D01*
X116237563Y-129928898D01*
X116237073Y-129927069D01*
X116177960Y-129933414D01*
X116162448Y-129928859D01*
X116162438Y-129928899D01*
X116154589Y-129926796D01*
X116154588Y-129926795D01*
X116052728Y-129899502D01*
X115947274Y-129899502D01*
X115845414Y-129926795D01*
X115845412Y-129926796D01*
X115837564Y-129928899D01*
X115837073Y-129927067D01*
X115777980Y-129933419D01*
X115762446Y-129928858D01*
X115762436Y-129928899D01*
X115754587Y-129926796D01*
X115754586Y-129926795D01*
X115652726Y-129899502D01*
X115547272Y-129899502D01*
X115437562Y-129928898D01*
X115437072Y-129927069D01*
X115377959Y-129933414D01*
X115362447Y-129928859D01*
X115362437Y-129928899D01*
X115354588Y-129926796D01*
X115354587Y-129926795D01*
X115252727Y-129899502D01*
X115224500Y-129899502D01*
X115157461Y-129879817D01*
X115111706Y-129827013D01*
X115100500Y-129775502D01*
X115100500Y-129747275D01*
X115100500Y-129747273D01*
X115073207Y-129645413D01*
X115073206Y-129645411D01*
X115071103Y-129637562D01*
X115072934Y-129637071D01*
X115066584Y-129577977D01*
X115071144Y-129562450D01*
X115071103Y-129562439D01*
X115073207Y-129554587D01*
X115100500Y-129452728D01*
X115100500Y-129347274D01*
X115073207Y-129245414D01*
X115073206Y-129245412D01*
X115071103Y-129237563D01*
X115072935Y-129237071D01*
X115066581Y-129177988D01*
X115071144Y-129162448D01*
X115071103Y-129162437D01*
X115073207Y-129154586D01*
X115100500Y-129052726D01*
X115100500Y-128947272D01*
X115073207Y-128845412D01*
X115073206Y-128845410D01*
X115071103Y-128837561D01*
X115072934Y-128837070D01*
X115066584Y-128777976D01*
X115071144Y-128762449D01*
X115071103Y-128762438D01*
X115075048Y-128747715D01*
X115100500Y-128652727D01*
X115100500Y-128547273D01*
X115073207Y-128445413D01*
X115073206Y-128445411D01*
X115071103Y-128437562D01*
X115072934Y-128437071D01*
X115066584Y-128377977D01*
X115071144Y-128362450D01*
X115071103Y-128362439D01*
X115076979Y-128340510D01*
X115100500Y-128252728D01*
X115100500Y-128147274D01*
X115073207Y-128045414D01*
X115073206Y-128045412D01*
X115071103Y-128037563D01*
X115072935Y-128037071D01*
X115066581Y-127977988D01*
X115071144Y-127962448D01*
X115071103Y-127962437D01*
X115085918Y-127907146D01*
X115100500Y-127852726D01*
X115100500Y-127747272D01*
X115073207Y-127645412D01*
X115073206Y-127645410D01*
X115071103Y-127637561D01*
X115072934Y-127637070D01*
X115066584Y-127577976D01*
X115071144Y-127562449D01*
X115071103Y-127562438D01*
X115073207Y-127554587D01*
X115100500Y-127452727D01*
X115100500Y-127424500D01*
X115120185Y-127357461D01*
X115172989Y-127311706D01*
X115224500Y-127300500D01*
X115252725Y-127300500D01*
X115252727Y-127300500D01*
X115354587Y-127273207D01*
X115354588Y-127273206D01*
X115362438Y-127271103D01*
X115362929Y-127272936D01*
X115422014Y-127266583D01*
X115437550Y-127271143D01*
X115437561Y-127271103D01*
X115445410Y-127273206D01*
X115445412Y-127273207D01*
X115547272Y-127300500D01*
X115547274Y-127300500D01*
X115652724Y-127300500D01*
X115652726Y-127300500D01*
X115754586Y-127273207D01*
X115754587Y-127273206D01*
X115762437Y-127271103D01*
X115762928Y-127272935D01*
X115822012Y-127266581D01*
X115837551Y-127271144D01*
X115837563Y-127271103D01*
X115845412Y-127273206D01*
X115845414Y-127273207D01*
X115947274Y-127300500D01*
X115947276Y-127300500D01*
X116052726Y-127300500D01*
X116052728Y-127300500D01*
X116154588Y-127273207D01*
X116154589Y-127273206D01*
X116162439Y-127271103D01*
X116162930Y-127272936D01*
X116222015Y-127266583D01*
X116237551Y-127271143D01*
X116237562Y-127271103D01*
X116245411Y-127273206D01*
X116245413Y-127273207D01*
X116347273Y-127300500D01*
X116347275Y-127300500D01*
X116452725Y-127300500D01*
X116452727Y-127300500D01*
X116554587Y-127273207D01*
X116554588Y-127273206D01*
X116562438Y-127271103D01*
X116562929Y-127272936D01*
X116622014Y-127266583D01*
X116637550Y-127271143D01*
X116637561Y-127271103D01*
X116645410Y-127273206D01*
X116645412Y-127273207D01*
X116747272Y-127300500D01*
X116747274Y-127300500D01*
X116852724Y-127300500D01*
X116852726Y-127300500D01*
X116954586Y-127273207D01*
X116954587Y-127273206D01*
X116962437Y-127271103D01*
X116962928Y-127272935D01*
X117022012Y-127266581D01*
X117037551Y-127271144D01*
G37*
G04 #@! TD.AperFunction*
G04 #@! TA.AperFunction,Conductor*
G36*
X112719085Y-123513458D02*
G01*
X112763434Y-123541959D01*
X113371985Y-124150510D01*
X113497515Y-124222984D01*
X113637525Y-124260500D01*
X113637526Y-124260500D01*
X113637528Y-124260500D01*
X114562472Y-124260500D01*
X114562475Y-124260500D01*
X114702485Y-124222984D01*
X114828015Y-124150509D01*
X114930509Y-124048015D01*
X114964613Y-123988946D01*
X115003119Y-123922252D01*
X115053686Y-123874036D01*
X115122293Y-123860814D01*
X115187158Y-123886782D01*
X115227686Y-123943696D01*
X115234506Y-123984252D01*
X115234506Y-124274912D01*
X115234506Y-124375100D01*
X115260437Y-124471873D01*
X115275566Y-124498077D01*
X115302888Y-124545401D01*
X115319500Y-124607400D01*
X115319500Y-124721934D01*
X115299815Y-124788973D01*
X115247011Y-124834728D01*
X115242953Y-124836495D01*
X115197161Y-124855462D01*
X115197158Y-124855464D01*
X115071719Y-124951716D01*
X114975463Y-125077160D01*
X114914956Y-125223237D01*
X114913157Y-125236901D01*
X114884887Y-125300797D01*
X114826561Y-125339265D01*
X114806404Y-125343650D01*
X114687576Y-125359294D01*
X114687575Y-125359294D01*
X114541498Y-125419801D01*
X114416056Y-125516056D01*
X114319801Y-125641498D01*
X114259294Y-125787575D01*
X114259293Y-125787577D01*
X114238656Y-125944336D01*
X114238656Y-125944339D01*
X114259293Y-126101098D01*
X114259294Y-126101100D01*
X114269001Y-126124536D01*
X114319802Y-126247179D01*
X114391038Y-126340016D01*
X114416231Y-126405182D01*
X114402193Y-126473627D01*
X114353379Y-126523617D01*
X114292661Y-126539500D01*
X113381518Y-126539500D01*
X113314479Y-126519815D01*
X113293837Y-126503181D01*
X113099621Y-126308965D01*
X113072741Y-126268736D01*
X113024355Y-126151921D01*
X113024354Y-126151920D01*
X113024354Y-126151919D01*
X112928100Y-126026478D01*
X112802659Y-125930224D01*
X112798982Y-125928701D01*
X112656580Y-125869716D01*
X112656578Y-125869715D01*
X112499819Y-125849078D01*
X112499817Y-125849078D01*
X112343057Y-125869715D01*
X112343055Y-125869716D01*
X112196978Y-125930223D01*
X112071536Y-126026478D01*
X111975281Y-126151920D01*
X111914774Y-126297997D01*
X111914774Y-126297998D01*
X111907622Y-126352323D01*
X111879355Y-126416219D01*
X111821031Y-126454690D01*
X111800869Y-126459076D01*
X111643238Y-126479829D01*
X111643237Y-126479829D01*
X111497160Y-126540336D01*
X111371718Y-126636591D01*
X111275463Y-126762033D01*
X111214956Y-126908110D01*
X111214956Y-126908112D01*
X111206586Y-126971686D01*
X111178319Y-127035582D01*
X111119994Y-127074053D01*
X111083647Y-127079500D01*
X110822546Y-127079500D01*
X110793125Y-127082258D01*
X110793115Y-127082260D01*
X110669205Y-127125619D01*
X110669204Y-127125619D01*
X110573633Y-127196154D01*
X110508004Y-127220125D01*
X110439834Y-127204809D01*
X110426367Y-127196154D01*
X110330794Y-127125619D01*
X110206880Y-127082258D01*
X110177461Y-127079500D01*
X109802546Y-127079500D01*
X109773125Y-127082258D01*
X109773115Y-127082260D01*
X109649207Y-127125618D01*
X109543576Y-127203576D01*
X109504270Y-127256835D01*
X109448622Y-127299086D01*
X109378966Y-127304543D01*
X109317417Y-127271476D01*
X109283516Y-127210382D01*
X109280500Y-127183201D01*
X109280500Y-126508970D01*
X109300185Y-126441931D01*
X109316819Y-126421289D01*
X109821289Y-125916819D01*
X109882612Y-125883334D01*
X109908970Y-125880500D01*
X110050091Y-125880500D01*
X110050094Y-125880500D01*
X110146867Y-125854569D01*
X110233632Y-125804476D01*
X112291486Y-123746620D01*
X112344232Y-123715326D01*
X112386882Y-123702804D01*
X112493443Y-123634321D01*
X112493980Y-123633700D01*
X112512811Y-123616892D01*
X112512621Y-123616663D01*
X112517019Y-123613010D01*
X112517026Y-123613006D01*
X112588072Y-123541959D01*
X112649393Y-123508474D01*
X112719085Y-123513458D01*
G37*
G04 #@! TD.AperFunction*
G04 #@! TA.AperFunction,Conductor*
G36*
X111274162Y-116892382D02*
G01*
X111305728Y-116898662D01*
X111337821Y-116902887D01*
X111377696Y-116905500D01*
X112147815Y-116905500D01*
X112214854Y-116925185D01*
X112260609Y-116977989D01*
X112270553Y-117047147D01*
X112246192Y-117104983D01*
X112187527Y-117181437D01*
X112175463Y-117197160D01*
X112114956Y-117343237D01*
X112114956Y-117343239D01*
X112102032Y-117441400D01*
X112073765Y-117505297D01*
X112015440Y-117543767D01*
X111945575Y-117544598D01*
X111932038Y-117539913D01*
X111931852Y-117539863D01*
X111775093Y-117519226D01*
X111775091Y-117519226D01*
X111618331Y-117539863D01*
X111618329Y-117539864D01*
X111472252Y-117600371D01*
X111435879Y-117628281D01*
X111365770Y-117682078D01*
X111346809Y-117696627D01*
X111320539Y-117730863D01*
X111264110Y-117772065D01*
X111194364Y-117776219D01*
X111134112Y-117742381D01*
X111134029Y-117742465D01*
X111133731Y-117742167D01*
X111133444Y-117742006D01*
X111132623Y-117741059D01*
X111128286Y-117736722D01*
X111128283Y-117736720D01*
X111128282Y-117736718D01*
X111002841Y-117640464D01*
X110970495Y-117627066D01*
X110856762Y-117579956D01*
X110856760Y-117579955D01*
X110700001Y-117559318D01*
X110699999Y-117559318D01*
X110543239Y-117579955D01*
X110543237Y-117579956D01*
X110397160Y-117640463D01*
X110271718Y-117736718D01*
X110175463Y-117862160D01*
X110114956Y-118008237D01*
X110114955Y-118008239D01*
X110094318Y-118164998D01*
X110094318Y-118165001D01*
X110114955Y-118321760D01*
X110114956Y-118321762D01*
X110165273Y-118443239D01*
X110175464Y-118467841D01*
X110271718Y-118593282D01*
X110397159Y-118689536D01*
X110543238Y-118750044D01*
X110594267Y-118756762D01*
X110699999Y-118770682D01*
X110700000Y-118770682D01*
X110700001Y-118770682D01*
X110752254Y-118763802D01*
X110856762Y-118750044D01*
X111002841Y-118689536D01*
X111128282Y-118593282D01*
X111154553Y-118559044D01*
X111210977Y-118517843D01*
X111280723Y-118513688D01*
X111340979Y-118547526D01*
X111341063Y-118547443D01*
X111341358Y-118547738D01*
X111341644Y-118547899D01*
X111342460Y-118548840D01*
X111346805Y-118553185D01*
X111346807Y-118553187D01*
X111346810Y-118553190D01*
X111472251Y-118649444D01*
X111618330Y-118709952D01*
X111688781Y-118719227D01*
X111775091Y-118730590D01*
X111775092Y-118730590D01*
X111775093Y-118730590D01*
X111827346Y-118723710D01*
X111931854Y-118709952D01*
X112077933Y-118649444D01*
X112203374Y-118553190D01*
X112299628Y-118427749D01*
X112360136Y-118281670D01*
X112364476Y-118248701D01*
X112392742Y-118184806D01*
X112451066Y-118146334D01*
X112520931Y-118145502D01*
X112580155Y-118182574D01*
X112609934Y-118245780D01*
X112610354Y-118248701D01*
X112619972Y-118321760D01*
X112620338Y-118324536D01*
X112620338Y-118324537D01*
X112679696Y-118467841D01*
X112680846Y-118470616D01*
X112767121Y-118583052D01*
X112777101Y-118596058D01*
X112792267Y-118607695D01*
X112877765Y-118673300D01*
X112883913Y-118678017D01*
X112925116Y-118734445D01*
X112929271Y-118804191D01*
X112922989Y-118823843D01*
X112914957Y-118843234D01*
X112914955Y-118843239D01*
X112894318Y-118999998D01*
X112894318Y-119000001D01*
X112914955Y-119156760D01*
X112914956Y-119156762D01*
X112975465Y-119302843D01*
X112979528Y-119309881D01*
X112976795Y-119311458D01*
X112996621Y-119362780D01*
X112982564Y-119431221D01*
X112960729Y-119460744D01*
X112259491Y-120161983D01*
X112259485Y-120161991D01*
X112188119Y-120285603D01*
X112188116Y-120285610D01*
X112187016Y-120287513D01*
X112169900Y-120351393D01*
X112149500Y-120427525D01*
X112149500Y-120427527D01*
X112149500Y-122669106D01*
X112129815Y-122736145D01*
X112113181Y-122756787D01*
X111887015Y-122982952D01*
X111886959Y-122983011D01*
X111867987Y-123003821D01*
X111867983Y-123003827D01*
X111863310Y-123012215D01*
X111848703Y-123033064D01*
X111827627Y-123057388D01*
X111827624Y-123057392D01*
X111772303Y-123178530D01*
X111747190Y-123214699D01*
X109878711Y-125083181D01*
X109817388Y-125116666D01*
X109791030Y-125119500D01*
X109750094Y-125119500D01*
X109649906Y-125119500D01*
X109553133Y-125145431D01*
X109553131Y-125145431D01*
X109553131Y-125145432D01*
X109466368Y-125195523D01*
X108595523Y-126066368D01*
X108545431Y-126153132D01*
X108545429Y-126153137D01*
X108544274Y-126157450D01*
X108507909Y-126217110D01*
X108445062Y-126247638D01*
X108375686Y-126239343D01*
X108321809Y-126194857D01*
X108300535Y-126128305D01*
X108300500Y-126125355D01*
X108300500Y-123499998D01*
X108794318Y-123499998D01*
X108794318Y-123500001D01*
X108814955Y-123656760D01*
X108814956Y-123656762D01*
X108868853Y-123786882D01*
X108875464Y-123802841D01*
X108971718Y-123928282D01*
X109097159Y-124024536D01*
X109243238Y-124085044D01*
X109289428Y-124091125D01*
X109399999Y-124105682D01*
X109400000Y-124105682D01*
X109400001Y-124105682D01*
X109462483Y-124097456D01*
X109556762Y-124085044D01*
X109702841Y-124024536D01*
X109798803Y-123950901D01*
X109863969Y-123925708D01*
X109921736Y-123934716D01*
X110043238Y-123985044D01*
X110072877Y-123988946D01*
X110199999Y-124005682D01*
X110200000Y-124005682D01*
X110200001Y-124005682D01*
X110295380Y-123993125D01*
X110356762Y-123985044D01*
X110502841Y-123924536D01*
X110628282Y-123828282D01*
X110724536Y-123702841D01*
X110785044Y-123556762D01*
X110805682Y-123400000D01*
X110805144Y-123395916D01*
X110787655Y-123263069D01*
X110785044Y-123243238D01*
X110724536Y-123097159D01*
X110628282Y-122971718D01*
X110502841Y-122875464D01*
X110356762Y-122814956D01*
X110356760Y-122814955D01*
X110200001Y-122794318D01*
X110199999Y-122794318D01*
X110043239Y-122814955D01*
X110043237Y-122814956D01*
X109897158Y-122875464D01*
X109801196Y-122949097D01*
X109736027Y-122974290D01*
X109678259Y-122965281D01*
X109556765Y-122914957D01*
X109556760Y-122914955D01*
X109400001Y-122894318D01*
X109399999Y-122894318D01*
X109243239Y-122914955D01*
X109243237Y-122914956D01*
X109097160Y-122975463D01*
X108971718Y-123071718D01*
X108875463Y-123197160D01*
X108814956Y-123343237D01*
X108814955Y-123343239D01*
X108794318Y-123499998D01*
X108300500Y-123499998D01*
X108300500Y-122296510D01*
X108320185Y-122229471D01*
X108372989Y-122183716D01*
X108442147Y-122173772D01*
X108505703Y-122202797D01*
X108522872Y-122221020D01*
X108543879Y-122248396D01*
X108583475Y-122300000D01*
X108583606Y-122300170D01*
X108709047Y-122396424D01*
X108855126Y-122456932D01*
X108918323Y-122465252D01*
X109011887Y-122477570D01*
X109011888Y-122477570D01*
X109011889Y-122477570D01*
X109069441Y-122469993D01*
X109168650Y-122456932D01*
X109314729Y-122396424D01*
X109440170Y-122300170D01*
X109536424Y-122174729D01*
X109596932Y-122028650D01*
X109617570Y-121871888D01*
X109615080Y-121852977D01*
X109596932Y-121715127D01*
X109596932Y-121715126D01*
X109536424Y-121569047D01*
X109440170Y-121443606D01*
X109314729Y-121347352D01*
X109283414Y-121334381D01*
X109168650Y-121286844D01*
X109168648Y-121286843D01*
X109011889Y-121266206D01*
X109011887Y-121266206D01*
X108855127Y-121286843D01*
X108855125Y-121286844D01*
X108709048Y-121347351D01*
X108640196Y-121400183D01*
X108583606Y-121443606D01*
X108522874Y-121522753D01*
X108466448Y-121563954D01*
X108396702Y-121568109D01*
X108335781Y-121533897D01*
X108303029Y-121472179D01*
X108300500Y-121447265D01*
X108300500Y-117029500D01*
X108320185Y-116962461D01*
X108372989Y-116916706D01*
X108424500Y-116905500D01*
X109842294Y-116905500D01*
X109842304Y-116905500D01*
X109882180Y-116902886D01*
X109914272Y-116898661D01*
X109945834Y-116892382D01*
X109970025Y-116890000D01*
X111249971Y-116890000D01*
X111274162Y-116892382D01*
G37*
G04 #@! TD.AperFunction*
G04 #@! TA.AperFunction,Conductor*
G36*
X131814115Y-123589358D02*
G01*
X131829695Y-123602560D01*
X131834704Y-123607569D01*
X132103182Y-123876047D01*
X132136666Y-123937368D01*
X132139500Y-123963726D01*
X132139500Y-123969609D01*
X132119815Y-124036648D01*
X132110796Y-124048948D01*
X131915267Y-124283800D01*
X131888556Y-124321310D01*
X131888538Y-124321337D01*
X131886763Y-124324277D01*
X131886760Y-124324282D01*
X131886760Y-124324283D01*
X131863399Y-124371858D01*
X131844703Y-124471874D01*
X131842769Y-124482218D01*
X131842769Y-124490987D01*
X131842851Y-124498077D01*
X131866022Y-124607924D01*
X131867718Y-124613397D01*
X131867505Y-124613462D01*
X131874394Y-124639176D01*
X131880271Y-124683811D01*
X131880271Y-124716186D01*
X131874393Y-124760827D01*
X131866016Y-124792088D01*
X131853234Y-124822949D01*
X131809395Y-124877354D01*
X131743101Y-124899421D01*
X131738672Y-124899500D01*
X131237970Y-124899500D01*
X131170931Y-124879815D01*
X131125176Y-124827011D01*
X131115232Y-124757853D01*
X131144257Y-124694297D01*
X131150289Y-124687819D01*
X131224711Y-124613397D01*
X131304476Y-124533632D01*
X131331426Y-124486950D01*
X131381990Y-124438736D01*
X131385015Y-124437434D01*
X131390791Y-124434382D01*
X131390794Y-124434381D01*
X131496423Y-124356423D01*
X131574381Y-124250794D01*
X131599227Y-124179789D01*
X131617741Y-124126881D01*
X131617741Y-124126879D01*
X131620500Y-124097457D01*
X131620499Y-123722544D01*
X131618555Y-123701811D01*
X131631896Y-123633231D01*
X131680199Y-123582747D01*
X131748128Y-123566392D01*
X131814115Y-123589358D01*
G37*
G04 #@! TD.AperFunction*
G04 #@! TA.AperFunction,Conductor*
G36*
X152842539Y-116925185D02*
G01*
X152888294Y-116977989D01*
X152899500Y-117029500D01*
X152899500Y-123391494D01*
X152879815Y-123458533D01*
X152827011Y-123504288D01*
X152757853Y-123514232D01*
X152694297Y-123485207D01*
X152679957Y-123470535D01*
X152526393Y-123284909D01*
X152526391Y-123284907D01*
X152495169Y-123255587D01*
X152297030Y-123069522D01*
X152297027Y-123069520D01*
X152297021Y-123069515D01*
X152042495Y-122884591D01*
X152042488Y-122884586D01*
X152042484Y-122884584D01*
X151766766Y-122733006D01*
X151766763Y-122733004D01*
X151766758Y-122733002D01*
X151766757Y-122733001D01*
X151474228Y-122617181D01*
X151474225Y-122617180D01*
X151169476Y-122538934D01*
X151169463Y-122538932D01*
X150857329Y-122499500D01*
X150857318Y-122499500D01*
X150542682Y-122499500D01*
X150542670Y-122499500D01*
X150230527Y-122538933D01*
X150230516Y-122538935D01*
X150062788Y-122582000D01*
X149992959Y-122579606D01*
X149944270Y-122549577D01*
X146274195Y-118879502D01*
X146274167Y-118879472D01*
X146113452Y-118718757D01*
X146113445Y-118718751D01*
X145958682Y-118599998D01*
X147594318Y-118599998D01*
X147594318Y-118600001D01*
X147614955Y-118756760D01*
X147614956Y-118756762D01*
X147674092Y-118899530D01*
X147675464Y-118902841D01*
X147771718Y-119028282D01*
X147897159Y-119124536D01*
X148043238Y-119185044D01*
X148117677Y-119194844D01*
X148199999Y-119205682D01*
X148200000Y-119205682D01*
X148200001Y-119205682D01*
X148282323Y-119194844D01*
X148356762Y-119185044D01*
X148502841Y-119124536D01*
X148628282Y-119028282D01*
X148724536Y-118902841D01*
X148785044Y-118756762D01*
X148800533Y-118639110D01*
X148805682Y-118600001D01*
X148805682Y-118599998D01*
X148785044Y-118443239D01*
X148785044Y-118443238D01*
X148724536Y-118297159D01*
X148628282Y-118171718D01*
X148502841Y-118075464D01*
X148479191Y-118065668D01*
X148356762Y-118014956D01*
X148356760Y-118014955D01*
X148200001Y-117994318D01*
X148199999Y-117994318D01*
X148043239Y-118014955D01*
X148043237Y-118014956D01*
X147897160Y-118075463D01*
X147771718Y-118171718D01*
X147675463Y-118297160D01*
X147614956Y-118443237D01*
X147614955Y-118443239D01*
X147594318Y-118599998D01*
X145958682Y-118599998D01*
X145936605Y-118583058D01*
X145936603Y-118583057D01*
X145936597Y-118583052D01*
X145743549Y-118471595D01*
X145743545Y-118471593D01*
X145537613Y-118386293D01*
X145537606Y-118386291D01*
X145537604Y-118386290D01*
X145322286Y-118328596D01*
X145306578Y-118326528D01*
X145306576Y-118326527D01*
X145101286Y-118299499D01*
X145101279Y-118299499D01*
X144878367Y-118299499D01*
X144874527Y-118299499D01*
X144874495Y-118299500D01*
X143788543Y-118299500D01*
X143788537Y-118299500D01*
X143788533Y-118299501D01*
X143567547Y-118328594D01*
X143567540Y-118328595D01*
X143567537Y-118328596D01*
X143489440Y-118349522D01*
X143352219Y-118386290D01*
X143352209Y-118386293D01*
X143146277Y-118471593D01*
X143146273Y-118471595D01*
X142953226Y-118583052D01*
X142953217Y-118583058D01*
X142776377Y-118718751D01*
X142776370Y-118718757D01*
X142618757Y-118876370D01*
X142618751Y-118876377D01*
X142483058Y-119053217D01*
X142483052Y-119053226D01*
X142371595Y-119246273D01*
X142371593Y-119246277D01*
X142286293Y-119452209D01*
X142286290Y-119452219D01*
X142229600Y-119663792D01*
X142228597Y-119667534D01*
X142228594Y-119667547D01*
X142199501Y-119888533D01*
X142199500Y-119888549D01*
X142199500Y-120111450D01*
X142199501Y-120111466D01*
X142228594Y-120332452D01*
X142228595Y-120332457D01*
X142228596Y-120332463D01*
X142285418Y-120544527D01*
X142286290Y-120547780D01*
X142286293Y-120547790D01*
X142371593Y-120753722D01*
X142371595Y-120753726D01*
X142483052Y-120946774D01*
X142483057Y-120946780D01*
X142483058Y-120946782D01*
X142618751Y-121123622D01*
X142618757Y-121123629D01*
X142776370Y-121281242D01*
X142776376Y-121281247D01*
X142953226Y-121416948D01*
X142989376Y-121437819D01*
X143037592Y-121488384D01*
X143050816Y-121556991D01*
X143024849Y-121621856D01*
X143015059Y-121632887D01*
X142897440Y-121750506D01*
X142791006Y-121897002D01*
X142708788Y-122058360D01*
X142708787Y-122058363D01*
X142652829Y-122230589D01*
X142624500Y-122409448D01*
X142624500Y-122590551D01*
X142652829Y-122769410D01*
X142708787Y-122941636D01*
X142708788Y-122941639D01*
X142764664Y-123051300D01*
X142789478Y-123100000D01*
X142791006Y-123102997D01*
X142897441Y-123249494D01*
X142897445Y-123249499D01*
X143025500Y-123377554D01*
X143025505Y-123377558D01*
X143145736Y-123464910D01*
X143172006Y-123483996D01*
X143257067Y-123527337D01*
X143333360Y-123566211D01*
X143333363Y-123566212D01*
X143460649Y-123607569D01*
X143518324Y-123647006D01*
X143545523Y-123711364D01*
X143533609Y-123780211D01*
X143486365Y-123831687D01*
X143422331Y-123849500D01*
X143131898Y-123849500D01*
X143092853Y-123854188D01*
X143043438Y-123860122D01*
X142902656Y-123915639D01*
X142782077Y-124007077D01*
X142690639Y-124127656D01*
X142670081Y-124179789D01*
X142635123Y-124268436D01*
X142635122Y-124268438D01*
X142632207Y-124275832D01*
X142628971Y-124274556D01*
X142601484Y-124321090D01*
X142539066Y-124352487D01*
X142516812Y-124354500D01*
X142365000Y-124354500D01*
X142362616Y-124354610D01*
X142336812Y-124355802D01*
X142329739Y-124356957D01*
X142329627Y-124356276D01*
X142306521Y-124359500D01*
X141733823Y-124359500D01*
X141666784Y-124339815D01*
X141646142Y-124323181D01*
X141564073Y-124241112D01*
X141530588Y-124179789D01*
X141527754Y-124153431D01*
X141527754Y-123988946D01*
X141547439Y-123921907D01*
X141600243Y-123876152D01*
X141667939Y-123866007D01*
X141687254Y-123868550D01*
X141844016Y-123847912D01*
X141990095Y-123787404D01*
X142115536Y-123691150D01*
X142211790Y-123565709D01*
X142272298Y-123419630D01*
X142292936Y-123262868D01*
X142291977Y-123255587D01*
X142272298Y-123106107D01*
X142272298Y-123106106D01*
X142211790Y-122960027D01*
X142115536Y-122834586D01*
X141990095Y-122738332D01*
X141988062Y-122737490D01*
X141844016Y-122677824D01*
X141844009Y-122677822D01*
X141829198Y-122675872D01*
X141765302Y-122647603D01*
X141726833Y-122589277D01*
X141726005Y-122519412D01*
X141757704Y-122465256D01*
X141952488Y-122270474D01*
X142010481Y-122170027D01*
X142040500Y-122057994D01*
X142040500Y-121942007D01*
X142040500Y-120757007D01*
X142010481Y-120644973D01*
X141952488Y-120544527D01*
X141870473Y-120462512D01*
X141256818Y-119848857D01*
X141223333Y-119787534D01*
X141220499Y-119761176D01*
X141220499Y-119613539D01*
X141220499Y-119613538D01*
X141217662Y-119583271D01*
X141173057Y-119455799D01*
X141092862Y-119347138D01*
X140984201Y-119266943D01*
X140888548Y-119233472D01*
X140856733Y-119222339D01*
X140856724Y-119222337D01*
X140826467Y-119219500D01*
X140826463Y-119219500D01*
X140824980Y-119219500D01*
X140824697Y-119219416D01*
X140823566Y-119219364D01*
X140823578Y-119219088D01*
X140757941Y-119199815D01*
X140712186Y-119147011D01*
X140702751Y-119103645D01*
X140702041Y-119103739D01*
X140680342Y-118938920D01*
X140680342Y-118938919D01*
X140643996Y-118851174D01*
X140636528Y-118781707D01*
X140667803Y-118719227D01*
X140692580Y-118698733D01*
X140802262Y-118629816D01*
X140929816Y-118502262D01*
X141025789Y-118349522D01*
X141085368Y-118179255D01*
X141086091Y-118172842D01*
X141105565Y-118000003D01*
X141105565Y-117999996D01*
X141085369Y-117820750D01*
X141085368Y-117820745D01*
X141065849Y-117764964D01*
X141025789Y-117650478D01*
X141021240Y-117643239D01*
X140956316Y-117539913D01*
X140929816Y-117497738D01*
X140828202Y-117396124D01*
X140794717Y-117334801D01*
X140799701Y-117265109D01*
X140841573Y-117209176D01*
X140883773Y-117188673D01*
X141924457Y-116909727D01*
X141956561Y-116905500D01*
X152775500Y-116905500D01*
X152842539Y-116925185D01*
G37*
G04 #@! TD.AperFunction*
G04 #@! TA.AperFunction,Conductor*
G36*
X137105996Y-122721881D02*
G01*
X137156692Y-122742880D01*
X137194056Y-122747799D01*
X137313453Y-122763518D01*
X137313454Y-122763518D01*
X137313455Y-122763518D01*
X137369716Y-122756111D01*
X137470216Y-122742880D01*
X137470219Y-122742878D01*
X137478067Y-122740776D01*
X137478603Y-122742779D01*
X137537066Y-122736487D01*
X137599549Y-122767754D01*
X137629910Y-122818909D01*
X137631725Y-122818194D01*
X137634640Y-122825587D01*
X137634641Y-122825590D01*
X137657908Y-122884591D01*
X137687636Y-122959976D01*
X137774921Y-123075078D01*
X137890025Y-123162364D01*
X137901314Y-123166816D01*
X137956459Y-123209720D01*
X137979653Y-123275628D01*
X137963534Y-123343613D01*
X137943507Y-123369852D01*
X137750178Y-123563182D01*
X137688858Y-123596666D01*
X137662499Y-123599500D01*
X137326783Y-123599500D01*
X137259744Y-123579815D01*
X137213989Y-123527011D01*
X137210610Y-123518857D01*
X137201628Y-123494774D01*
X137193557Y-123483993D01*
X137174498Y-123458533D01*
X137119687Y-123385313D01*
X137022488Y-123312551D01*
X137010228Y-123303373D01*
X137010226Y-123303372D01*
X136882114Y-123255588D01*
X136882112Y-123255587D01*
X136882110Y-123255587D01*
X136825493Y-123249500D01*
X136384518Y-123249500D01*
X136384509Y-123249501D01*
X136327885Y-123255587D01*
X136224024Y-123294326D01*
X136154333Y-123299310D01*
X136113001Y-123282038D01*
X136096244Y-123271120D01*
X136096234Y-123271115D01*
X136088145Y-123267765D01*
X136081568Y-123265129D01*
X136005970Y-123250997D01*
X135971210Y-123244500D01*
X135954122Y-123244500D01*
X135954118Y-123244500D01*
X135875567Y-123257468D01*
X135855929Y-123260711D01*
X135852429Y-123261899D01*
X135848928Y-123263087D01*
X135809212Y-123284316D01*
X135740809Y-123298557D01*
X135707432Y-123291140D01*
X135612114Y-123255588D01*
X135612112Y-123255587D01*
X135612110Y-123255587D01*
X135555501Y-123249500D01*
X135555485Y-123249500D01*
X135300437Y-123249500D01*
X135280252Y-123247846D01*
X135266960Y-123245653D01*
X135259972Y-123244500D01*
X135003883Y-123244500D01*
X134960836Y-123251603D01*
X134905735Y-123260694D01*
X134898742Y-123263067D01*
X134810907Y-123310004D01*
X134810902Y-123310007D01*
X134761721Y-123347745D01*
X134733689Y-123363929D01*
X134692092Y-123381159D01*
X134660825Y-123389537D01*
X134646690Y-123391398D01*
X134577655Y-123380633D01*
X134556194Y-123367726D01*
X134470230Y-123303374D01*
X134470227Y-123303373D01*
X134470226Y-123303372D01*
X134342114Y-123255588D01*
X134342112Y-123255587D01*
X134342110Y-123255587D01*
X134285501Y-123249500D01*
X134285485Y-123249500D01*
X134236577Y-123249500D01*
X134216387Y-123247845D01*
X134196117Y-123244500D01*
X132955726Y-123244500D01*
X132955719Y-123244500D01*
X132914928Y-123248516D01*
X132910999Y-123248903D01*
X132898851Y-123249500D01*
X132604215Y-123249500D01*
X132537176Y-123229815D01*
X132516534Y-123213181D01*
X132336319Y-123032966D01*
X132302834Y-122971643D01*
X132300000Y-122945285D01*
X132300000Y-122890071D01*
X132319685Y-122823032D01*
X132372489Y-122777277D01*
X132441647Y-122767333D01*
X132478870Y-122780862D01*
X132478926Y-122780719D01*
X132485788Y-122783377D01*
X132489280Y-122784646D01*
X132489641Y-122784870D01*
X132600000Y-122805500D01*
X132600002Y-122805500D01*
X136799998Y-122805500D01*
X136800000Y-122805500D01*
X136828188Y-122804197D01*
X136936173Y-122773472D01*
X136983822Y-122737489D01*
X137049181Y-122712797D01*
X137105996Y-122721881D01*
G37*
G04 #@! TD.AperFunction*
G04 #@! TA.AperFunction,Conductor*
G36*
X115090703Y-122183911D02*
G01*
X115097181Y-122189943D01*
X115211714Y-122304476D01*
X115298479Y-122354569D01*
X115395252Y-122380500D01*
X115495440Y-122380500D01*
X115750654Y-122380500D01*
X115817693Y-122400185D01*
X115863448Y-122452989D01*
X115873392Y-122522147D01*
X115844367Y-122585703D01*
X115800739Y-122617935D01*
X115789732Y-122622794D01*
X115780258Y-122629285D01*
X115779455Y-122628113D01*
X115760015Y-122641102D01*
X115760169Y-122641369D01*
X115756100Y-122643718D01*
X115754198Y-122644989D01*
X115753138Y-122645428D01*
X115753133Y-122645430D01*
X115753132Y-122645431D01*
X115725634Y-122661306D01*
X115666367Y-122695523D01*
X115666365Y-122695525D01*
X115493717Y-122868175D01*
X115432394Y-122901660D01*
X115406036Y-122904494D01*
X115350294Y-122904494D01*
X115283255Y-122884809D01*
X115262613Y-122868175D01*
X115189961Y-122795523D01*
X115146579Y-122770477D01*
X115103197Y-122745431D01*
X115006424Y-122719500D01*
X115006423Y-122719500D01*
X115006419Y-122719499D01*
X114998365Y-122718439D01*
X114998609Y-122716581D01*
X114941511Y-122699815D01*
X114895756Y-122647011D01*
X114887671Y-122617016D01*
X114886689Y-122617212D01*
X114874448Y-122555676D01*
X114874447Y-122555675D01*
X114874447Y-122555671D01*
X114874444Y-122555666D01*
X114871044Y-122547458D01*
X114863572Y-122477989D01*
X114871044Y-122452542D01*
X114874443Y-122444334D01*
X114874447Y-122444329D01*
X114885500Y-122388762D01*
X114885500Y-122277624D01*
X114905185Y-122210585D01*
X114957989Y-122164830D01*
X115027147Y-122154886D01*
X115090703Y-122183911D01*
G37*
G04 #@! TD.AperFunction*
G04 #@! TA.AperFunction,Conductor*
G36*
X113640031Y-116869515D02*
G01*
X113659837Y-116873793D01*
X113713894Y-116890191D01*
X113761346Y-116899630D01*
X113820947Y-116905500D01*
X114491695Y-116905500D01*
X114558734Y-116925185D01*
X114604489Y-116977989D01*
X114614633Y-117045684D01*
X114612077Y-117065107D01*
X114594318Y-117199998D01*
X114594318Y-117200001D01*
X114614955Y-117356760D01*
X114614956Y-117356762D01*
X114625310Y-117381760D01*
X114675464Y-117502841D01*
X114771718Y-117628282D01*
X114897159Y-117724536D01*
X114904298Y-117727493D01*
X114958703Y-117771331D01*
X114980770Y-117837625D01*
X114963493Y-117905324D01*
X114962416Y-117906916D01*
X114911957Y-117994317D01*
X114911955Y-117994319D01*
X114887018Y-118037509D01*
X114887017Y-118037510D01*
X114882583Y-118054059D01*
X114849500Y-118177525D01*
X114849500Y-118177527D01*
X114849500Y-119035500D01*
X114829815Y-119102539D01*
X114777011Y-119148294D01*
X114725500Y-119159500D01*
X114226078Y-119159500D01*
X114159039Y-119139815D01*
X114113284Y-119087011D01*
X114103139Y-119019314D01*
X114105682Y-118999999D01*
X114105682Y-118999998D01*
X114085044Y-118843239D01*
X114085044Y-118843238D01*
X114024536Y-118697159D01*
X113928282Y-118571718D01*
X113928280Y-118571717D01*
X113928280Y-118571716D01*
X113821468Y-118489757D01*
X113780265Y-118433329D01*
X113776110Y-118363583D01*
X113782391Y-118343933D01*
X113790426Y-118324537D01*
X113809553Y-118179254D01*
X113811064Y-118167776D01*
X113811064Y-118167773D01*
X113793176Y-118031903D01*
X113790426Y-118011013D01*
X113729918Y-117864934D01*
X113633664Y-117739493D01*
X113508223Y-117643239D01*
X113501521Y-117640463D01*
X113404733Y-117600372D01*
X113380085Y-117590162D01*
X113325683Y-117546322D01*
X113304601Y-117491789D01*
X113285044Y-117343238D01*
X113224536Y-117197159D01*
X113153807Y-117104984D01*
X113128615Y-117039818D01*
X113142653Y-116971373D01*
X113191467Y-116921383D01*
X113252185Y-116905500D01*
X113359049Y-116905500D01*
X113359054Y-116905500D01*
X113418657Y-116899629D01*
X113466108Y-116890190D01*
X113520177Y-116873788D01*
X113539966Y-116869515D01*
X113573815Y-116865059D01*
X113606185Y-116865059D01*
X113640031Y-116869515D01*
G37*
G04 #@! TD.AperFunction*
G04 #@! TA.AperFunction,Conductor*
G36*
X120085628Y-116925185D02*
G01*
X120131383Y-116977989D01*
X120142545Y-117032767D01*
X120135126Y-117314206D01*
X120120937Y-117852399D01*
X120099492Y-117918896D01*
X120084661Y-117936812D01*
X119608294Y-118413181D01*
X119546971Y-118446666D01*
X119520613Y-118449500D01*
X118312768Y-118449500D01*
X118245729Y-118429815D01*
X118225087Y-118413181D01*
X117832359Y-118020453D01*
X117798874Y-117959130D01*
X117803858Y-117889438D01*
X117845730Y-117833505D01*
X117894778Y-117813531D01*
X117894408Y-117812147D01*
X117902250Y-117810044D01*
X117902258Y-117810044D01*
X118048337Y-117749536D01*
X118173778Y-117653282D01*
X118270032Y-117527841D01*
X118330540Y-117381762D01*
X118351178Y-117225000D01*
X118347886Y-117199998D01*
X118344298Y-117172746D01*
X118330540Y-117068238D01*
X118330536Y-117068230D01*
X118328759Y-117061594D01*
X118330422Y-116991744D01*
X118369584Y-116933882D01*
X118433812Y-116906377D01*
X118448534Y-116905500D01*
X120018589Y-116905500D01*
X120085628Y-116925185D01*
G37*
G04 #@! TD.AperFunction*
G04 #@! TA.AperFunction,Conductor*
G36*
X132562581Y-114508603D02*
G01*
X132626479Y-114524352D01*
X132654431Y-114534953D01*
X132712696Y-114565533D01*
X132737296Y-114582513D01*
X132786561Y-114626157D01*
X132806385Y-114648533D01*
X132843772Y-114702697D01*
X132857664Y-114729166D01*
X132880998Y-114790693D01*
X132888152Y-114819718D01*
X132896085Y-114885053D01*
X132896085Y-114914945D01*
X132888152Y-114980280D01*
X132880998Y-115009305D01*
X132857664Y-115070832D01*
X132843772Y-115097301D01*
X132806383Y-115151468D01*
X132786560Y-115173844D01*
X132737301Y-115217483D01*
X132712700Y-115234463D01*
X132654431Y-115265045D01*
X132626482Y-115275645D01*
X132562582Y-115291396D01*
X132532905Y-115295000D01*
X132467095Y-115295000D01*
X132437420Y-115291397D01*
X132373520Y-115275647D01*
X132345570Y-115265047D01*
X132345566Y-115265045D01*
X132287297Y-115234463D01*
X132262683Y-115217470D01*
X132260411Y-115215457D01*
X132260394Y-115215441D01*
X132200865Y-115162703D01*
X132189383Y-115151095D01*
X132180135Y-115140423D01*
X132174870Y-115134504D01*
X132080654Y-115063456D01*
X132081894Y-115061810D01*
X132041347Y-115016621D01*
X132030012Y-114949280D01*
X132035565Y-114900000D01*
X132029846Y-114849242D01*
X132041900Y-114780421D01*
X132089249Y-114729042D01*
X132093990Y-114726336D01*
X132105109Y-114720317D01*
X132159392Y-114676327D01*
X132167025Y-114668082D01*
X132175774Y-114659523D01*
X132262698Y-114582515D01*
X132287299Y-114565534D01*
X132291764Y-114563190D01*
X132345571Y-114534950D01*
X132373516Y-114524352D01*
X132426177Y-114511373D01*
X132437419Y-114508603D01*
X132467092Y-114505000D01*
X132532907Y-114505000D01*
X132562581Y-114508603D01*
G37*
G04 #@! TD.AperFunction*
G04 #@! TA.AperFunction,Conductor*
G36*
X119802445Y-112220185D02*
G01*
X119848200Y-112272989D01*
X119859297Y-112329705D01*
X119858430Y-112350331D01*
X119858430Y-112350332D01*
X119868371Y-112419478D01*
X119868375Y-112419494D01*
X119885206Y-112476817D01*
X119888967Y-112494102D01*
X119894467Y-112532350D01*
X119894467Y-112567647D01*
X119891561Y-112587858D01*
X119881618Y-112621720D01*
X119873139Y-112640287D01*
X119854059Y-112669977D01*
X119835725Y-112691136D01*
X119835719Y-112691143D01*
X119798469Y-112744795D01*
X119773210Y-112791056D01*
X119773201Y-112791073D01*
X119756477Y-112827094D01*
X119756475Y-112827100D01*
X119735842Y-112937454D01*
X119735841Y-113007312D01*
X119735841Y-113007328D01*
X119737713Y-113025840D01*
X119742028Y-113068506D01*
X119784338Y-113172499D01*
X119784340Y-113172502D01*
X119792954Y-113185906D01*
X119792965Y-113185946D01*
X119824397Y-113234832D01*
X119824411Y-113234855D01*
X119827479Y-113239629D01*
X119828521Y-113243178D01*
X119832762Y-113248844D01*
X119833784Y-113249402D01*
X119839803Y-113255866D01*
X119840624Y-113256813D01*
X119840656Y-113256853D01*
X119840658Y-113256852D01*
X119880368Y-113302692D01*
X119880411Y-113302729D01*
X119904055Y-113330016D01*
X119923137Y-113359707D01*
X119931618Y-113378278D01*
X119941561Y-113412141D01*
X119944467Y-113432351D01*
X119944467Y-113467647D01*
X119941561Y-113487857D01*
X119931618Y-113521720D01*
X119923137Y-113540291D01*
X119904053Y-113569985D01*
X119890684Y-113585413D01*
X119864011Y-113608524D01*
X119846835Y-113619562D01*
X119814739Y-113634221D01*
X119795147Y-113639975D01*
X119760205Y-113645000D01*
X119739792Y-113645000D01*
X119704858Y-113639977D01*
X119685268Y-113634225D01*
X119653165Y-113619565D01*
X119587622Y-113577443D01*
X119587601Y-113577429D01*
X119579570Y-113572268D01*
X119578887Y-113571829D01*
X119578868Y-113571817D01*
X119578046Y-113571289D01*
X119578046Y-113571288D01*
X119578006Y-113571263D01*
X119571440Y-113567043D01*
X119571375Y-113567153D01*
X119570519Y-113566641D01*
X119563646Y-113562531D01*
X119473818Y-113526656D01*
X119405647Y-113511341D01*
X119405644Y-113511340D01*
X119405631Y-113511338D01*
X119344615Y-113503969D01*
X119233874Y-113522453D01*
X119233872Y-113522453D01*
X119168260Y-113546417D01*
X119168246Y-113546423D01*
X119091639Y-113587579D01*
X119083547Y-113593551D01*
X119050880Y-113610762D01*
X119050897Y-113610810D01*
X119050880Y-113610816D01*
X119050567Y-113610926D01*
X119047890Y-113611862D01*
X119047885Y-113611864D01*
X119044520Y-113613041D01*
X119003566Y-113620000D01*
X118496433Y-113620000D01*
X118455469Y-113613038D01*
X118449112Y-113610813D01*
X118416446Y-113593548D01*
X118411351Y-113589788D01*
X118385211Y-113563648D01*
X118381450Y-113558552D01*
X118364177Y-113525869D01*
X118361954Y-113519516D01*
X118355000Y-113478573D01*
X118355000Y-112521429D01*
X118361959Y-112480472D01*
X118363238Y-112476817D01*
X118366899Y-112466356D01*
X118375307Y-112437991D01*
X118381004Y-112414683D01*
X118381917Y-112410839D01*
X118385763Y-112319294D01*
X118408245Y-112253141D01*
X118462923Y-112209643D01*
X118509654Y-112200500D01*
X119735406Y-112200500D01*
X119802445Y-112220185D01*
G37*
G04 #@! TD.AperFunction*
G04 #@! TA.AperFunction,Conductor*
G36*
X143156346Y-112220185D02*
G01*
X143202101Y-112272989D01*
X143213145Y-112318177D01*
X143215942Y-112372975D01*
X143216354Y-112381031D01*
X143233099Y-112466350D01*
X143233099Y-112466352D01*
X143233100Y-112466353D01*
X143238042Y-112480478D01*
X143245000Y-112521429D01*
X143245000Y-113478566D01*
X143238042Y-113519520D01*
X143235818Y-113525876D01*
X143218539Y-113558565D01*
X143214778Y-113563660D01*
X143188651Y-113589785D01*
X143183558Y-113593544D01*
X143150885Y-113610814D01*
X143150585Y-113610919D01*
X143150566Y-113610925D01*
X143150567Y-113610926D01*
X143147890Y-113611862D01*
X143147885Y-113611864D01*
X143144520Y-113613041D01*
X143103566Y-113620000D01*
X142596431Y-113620000D01*
X142555461Y-113613036D01*
X142552106Y-113611862D01*
X142549107Y-113610812D01*
X142516444Y-113593546D01*
X142495400Y-113578015D01*
X142487343Y-113572268D01*
X142480775Y-113567742D01*
X142461422Y-113558524D01*
X142393475Y-113526160D01*
X142326435Y-113506476D01*
X142266001Y-113495179D01*
X142265999Y-113495179D01*
X142154303Y-113506476D01*
X142154302Y-113506476D01*
X142087266Y-113526159D01*
X142087262Y-113526161D01*
X142008163Y-113562284D01*
X142008161Y-113562284D01*
X142008157Y-113562287D01*
X141996830Y-113569566D01*
X141964731Y-113584224D01*
X141945140Y-113589977D01*
X141910206Y-113595000D01*
X141889792Y-113595000D01*
X141854857Y-113589977D01*
X141835266Y-113584224D01*
X141803163Y-113569563D01*
X141785986Y-113558524D01*
X141759313Y-113535412D01*
X141745942Y-113519981D01*
X141726862Y-113490292D01*
X141718380Y-113471720D01*
X141708435Y-113437850D01*
X141705530Y-113417638D01*
X141705530Y-113382360D01*
X141708437Y-113362136D01*
X141718377Y-113328284D01*
X141726861Y-113309706D01*
X141743856Y-113283309D01*
X141743468Y-113282996D01*
X141744842Y-113281290D01*
X141744853Y-113281274D01*
X141744861Y-113281266D01*
X141770984Y-113246370D01*
X141790065Y-113216680D01*
X141799328Y-113201291D01*
X141835454Y-113094991D01*
X141845398Y-113025832D01*
X141847980Y-112964398D01*
X141820900Y-112855442D01*
X141791875Y-112791887D01*
X141744863Y-112718737D01*
X141744853Y-112718726D01*
X141742205Y-112715187D01*
X141742648Y-112714855D01*
X141726865Y-112690300D01*
X141718377Y-112671714D01*
X141708436Y-112637855D01*
X141705530Y-112617639D01*
X141705530Y-112582358D01*
X141708436Y-112562142D01*
X141718380Y-112528277D01*
X141729961Y-112502922D01*
X141745193Y-112462085D01*
X141755137Y-112428221D01*
X141759690Y-112410839D01*
X141763536Y-112319294D01*
X141786018Y-112253141D01*
X141840696Y-112209643D01*
X141887427Y-112200500D01*
X143089307Y-112200500D01*
X143156346Y-112220185D01*
G37*
G04 #@! TD.AperFunction*
G04 #@! TA.AperFunction,Conductor*
G36*
X139017675Y-112220185D02*
G01*
X139063430Y-112272989D01*
X139074526Y-112329705D01*
X139073323Y-112358330D01*
X139073249Y-112360097D01*
X139100325Y-112469049D01*
X139100328Y-112469057D01*
X139129347Y-112532602D01*
X139154193Y-112571263D01*
X139162670Y-112586789D01*
X139181616Y-112628273D01*
X139191561Y-112662140D01*
X139194467Y-112682353D01*
X139194467Y-112717647D01*
X139191561Y-112737857D01*
X139181618Y-112771720D01*
X139173137Y-112790291D01*
X139154053Y-112819985D01*
X139140684Y-112835413D01*
X139114011Y-112858524D01*
X139096835Y-112869562D01*
X139064739Y-112884221D01*
X139045147Y-112889975D01*
X139010205Y-112895000D01*
X138989794Y-112895000D01*
X138954858Y-112889977D01*
X138927031Y-112881806D01*
X138927019Y-112881803D01*
X138920382Y-112879854D01*
X138908847Y-112876711D01*
X138908840Y-112876709D01*
X138899438Y-112874344D01*
X138899437Y-112874343D01*
X138899434Y-112874343D01*
X138801045Y-112866049D01*
X138801044Y-112866049D01*
X138793908Y-112866608D01*
X138731392Y-112871507D01*
X138670889Y-112882454D01*
X138570515Y-112932762D01*
X138514877Y-112975006D01*
X138514873Y-112975010D01*
X138468327Y-113022192D01*
X138453688Y-113034876D01*
X138440151Y-113044867D01*
X138407510Y-113062126D01*
X138404935Y-113063028D01*
X138363941Y-113070000D01*
X137786057Y-113070000D01*
X137745104Y-113063042D01*
X137742529Y-113062141D01*
X137709853Y-113044872D01*
X137707787Y-113043347D01*
X137681651Y-113017211D01*
X137680126Y-113015145D01*
X137662850Y-112982446D01*
X137661949Y-112979870D01*
X137655000Y-112938943D01*
X137655000Y-112449573D01*
X137658546Y-112420130D01*
X137659879Y-112414677D01*
X137660791Y-112410839D01*
X137664637Y-112319294D01*
X137687118Y-112253141D01*
X137741796Y-112209643D01*
X137788528Y-112200500D01*
X138950636Y-112200500D01*
X139017675Y-112220185D01*
G37*
G04 #@! TD.AperFunction*
G04 #@! TD*
G04 #@! TA.AperFunction,Conductor*
G04 #@! TO.N,/Battery Charger/MOTORPWR*
G36*
X139834051Y-117153757D02*
G01*
X139834051Y-117153758D01*
X139834051Y-117153759D01*
X140482549Y-117532919D01*
X140487962Y-117540053D01*
X140487462Y-117547476D01*
X140302563Y-117996202D01*
X140296242Y-118002546D01*
X140296202Y-118002563D01*
X139847476Y-118187462D01*
X139838522Y-118187445D01*
X139832919Y-118182549D01*
X139813475Y-118149293D01*
X139420672Y-117477462D01*
X139419455Y-117468594D01*
X139422498Y-117463289D01*
X139769671Y-117116117D01*
X139834051Y-117153757D01*
G37*
G04 #@! TD.AperFunction*
G04 #@! TD*
M02*
