G04 #@! TF.GenerationSoftware,KiCad,Pcbnew,8.0.7-8.0.7-0~ubuntu24.04.1*
G04 #@! TF.CreationDate,2024-12-31T12:59:00-07:00*
G04 #@! TF.ProjectId,2s 40A PSU and charger,32732034-3041-4205-9053-5520616e6420,V1*
G04 #@! TF.SameCoordinates,Original*
G04 #@! TF.FileFunction,Soldermask,Top*
G04 #@! TF.FilePolarity,Negative*
%FSLAX46Y46*%
G04 Gerber Fmt 4.6, Leading zero omitted, Abs format (unit mm)*
G04 Created by KiCad (PCBNEW 8.0.7-8.0.7-0~ubuntu24.04.1) date 2024-12-31 12:59:00*
%MOMM*%
%LPD*%
G01*
G04 APERTURE LIST*
G04 Aperture macros list*
%AMRoundRect*
0 Rectangle with rounded corners*
0 $1 Rounding radius*
0 $2 $3 $4 $5 $6 $7 $8 $9 X,Y pos of 4 corners*
0 Add a 4 corners polygon primitive as box body*
4,1,4,$2,$3,$4,$5,$6,$7,$8,$9,$2,$3,0*
0 Add four circle primitives for the rounded corners*
1,1,$1+$1,$2,$3*
1,1,$1+$1,$4,$5*
1,1,$1+$1,$6,$7*
1,1,$1+$1,$8,$9*
0 Add four rect primitives between the rounded corners*
20,1,$1+$1,$2,$3,$4,$5,0*
20,1,$1+$1,$4,$5,$6,$7,0*
20,1,$1+$1,$6,$7,$8,$9,0*
20,1,$1+$1,$8,$9,$2,$3,0*%
%AMFreePoly0*
4,1,15,2.515355,1.085355,2.935355,0.665355,2.950000,0.630000,2.950000,-1.050000,2.935355,-1.085355,2.900000,-1.100000,-2.900000,-1.100000,-2.935355,-1.085355,-2.950000,-1.050000,-2.950000,0.630000,-2.935355,0.665355,-2.515355,1.085355,-2.480000,1.100000,2.480000,1.100000,2.515355,1.085355,2.515355,1.085355,$1*%
%AMFreePoly1*
4,1,21,2.135355,1.135355,2.150000,1.100000,2.150000,-1.950000,2.350000,-1.950000,2.385355,-1.964645,2.400000,-2.000000,2.400000,-3.500000,2.385355,-3.535355,2.350000,-3.550000,-2.350000,-3.550000,-2.385355,-3.535355,-2.400000,-3.500000,-2.400000,-2.000000,-2.385355,-1.964645,-2.350000,-1.950000,-2.150000,-1.950000,-2.150000,1.100000,-2.135355,1.135355,-2.100000,1.150000,2.100000,1.150000,
2.135355,1.135355,2.135355,1.135355,$1*%
G04 Aperture macros list end*
%ADD10C,0.000000*%
%ADD11RoundRect,0.050000X1.750000X2.550000X-1.750000X2.550000X-1.750000X-2.550000X1.750000X-2.550000X0*%
%ADD12RoundRect,0.165000X0.165000X0.195000X-0.165000X0.195000X-0.165000X-0.195000X0.165000X-0.195000X0*%
%ADD13RoundRect,0.050000X-0.337500X0.125000X-0.337500X-0.125000X0.337500X-0.125000X0.337500X0.125000X0*%
%ADD14RoundRect,0.050000X-0.387500X0.200000X-0.387500X-0.200000X0.387500X-0.200000X0.387500X0.200000X0*%
%ADD15RoundRect,0.160000X-0.210000X0.160000X-0.210000X-0.160000X0.210000X-0.160000X0.210000X0.160000X0*%
%ADD16RoundRect,0.160000X0.210000X-0.160000X0.210000X0.160000X-0.210000X0.160000X-0.210000X-0.160000X0*%
%ADD17RoundRect,0.275000X-0.275000X-0.500000X0.275000X-0.500000X0.275000X0.500000X-0.275000X0.500000X0*%
%ADD18RoundRect,0.165000X-0.165000X-0.195000X0.165000X-0.195000X0.165000X0.195000X-0.165000X0.195000X0*%
%ADD19RoundRect,0.272222X0.340278X0.652778X-0.340278X0.652778X-0.340278X-0.652778X0.340278X-0.652778X0*%
%ADD20RoundRect,0.225000X0.225000X-0.275000X0.225000X0.275000X-0.225000X0.275000X-0.225000X-0.275000X0*%
%ADD21RoundRect,0.172500X0.197500X-0.172500X0.197500X0.172500X-0.197500X0.172500X-0.197500X-0.172500X0*%
%ADD22RoundRect,0.225000X-0.275000X-0.225000X0.275000X-0.225000X0.275000X0.225000X-0.275000X0.225000X0*%
%ADD23RoundRect,0.160000X0.160000X0.210000X-0.160000X0.210000X-0.160000X-0.210000X0.160000X-0.210000X0*%
%ADD24RoundRect,0.250000X-0.275000X0.250000X-0.275000X-0.250000X0.275000X-0.250000X0.275000X0.250000X0*%
%ADD25RoundRect,0.160000X-0.160000X-0.210000X0.160000X-0.210000X0.160000X0.210000X-0.160000X0.210000X0*%
%ADD26RoundRect,0.275000X0.275000X0.500000X-0.275000X0.500000X-0.275000X-0.500000X0.275000X-0.500000X0*%
%ADD27RoundRect,0.102000X1.400000X1.400000X-1.400000X1.400000X-1.400000X-1.400000X1.400000X-1.400000X0*%
%ADD28RoundRect,0.275000X0.500000X-0.275000X0.500000X0.275000X-0.500000X0.275000X-0.500000X-0.275000X0*%
%ADD29FreePoly0,90.000000*%
%ADD30FreePoly0,270.000000*%
%ADD31RoundRect,0.264706X0.760294X-0.635294X0.760294X0.635294X-0.760294X0.635294X-0.760294X-0.635294X0*%
%ADD32O,2.050000X1.800000*%
%ADD33RoundRect,0.160000X0.035355X-0.261630X0.261630X-0.035355X-0.035355X0.261630X-0.261630X0.035355X0*%
%ADD34RoundRect,0.100000X-1.250000X-1.400000X1.250000X-1.400000X1.250000X1.400000X-1.250000X1.400000X0*%
%ADD35RoundRect,0.050000X0.500000X-0.500000X0.500000X0.500000X-0.500000X0.500000X-0.500000X-0.500000X0*%
%ADD36O,1.100000X1.100000*%
%ADD37RoundRect,0.165000X-0.195000X0.165000X-0.195000X-0.165000X0.195000X-0.165000X0.195000X0.165000X0*%
%ADD38RoundRect,0.274390X0.475610X-0.288110X0.475610X0.288110X-0.475610X0.288110X-0.475610X-0.288110X0*%
%ADD39RoundRect,0.050000X-0.500000X-0.500000X0.500000X-0.500000X0.500000X0.500000X-0.500000X0.500000X0*%
%ADD40RoundRect,0.262500X0.312500X0.262500X-0.312500X0.262500X-0.312500X-0.262500X0.312500X-0.262500X0*%
%ADD41RoundRect,0.200000X0.200000X0.425000X-0.200000X0.425000X-0.200000X-0.425000X0.200000X-0.425000X0*%
%ADD42FreePoly1,180.000000*%
%ADD43RoundRect,0.225000X-0.225000X0.275000X-0.225000X-0.275000X0.225000X-0.275000X0.225000X0.275000X0*%
%ADD44C,0.800000*%
%ADD45C,4.500000*%
%ADD46O,0.300000X0.699999*%
%ADD47O,0.699999X0.300000*%
%ADD48C,0.700000*%
%ADD49RoundRect,0.050000X-1.300000X1.300000X-1.300000X-1.300000X1.300000X-1.300000X1.300000X1.300000X0*%
%ADD50RoundRect,0.250000X0.250000X0.275000X-0.250000X0.275000X-0.250000X-0.275000X0.250000X-0.275000X0*%
%ADD51RoundRect,0.070005X-0.345005X0.070005X-0.345005X-0.070005X0.345005X-0.070005X0.345005X0.070005X0*%
%ADD52RoundRect,0.112505X-0.302505X0.112505X-0.302505X-0.112505X0.302505X-0.112505X0.302505X0.112505X0*%
%ADD53C,0.850020*%
%ADD54O,2.050020X0.800020*%
%ADD55RoundRect,0.250000X-0.250000X-0.275000X0.250000X-0.275000X0.250000X0.275000X-0.250000X0.275000X0*%
G04 APERTURE END LIST*
D10*
G04 #@! TO.C,U3*
G36*
X115412600Y-129963500D02*
G01*
X115036500Y-129963500D01*
X115036500Y-127236500D01*
X115412600Y-127236500D01*
X115412600Y-129963500D01*
G37*
G36*
X117763500Y-127612600D02*
G01*
X115036500Y-127612600D01*
X115036500Y-127236500D01*
X117763500Y-127236500D01*
X117763500Y-127612600D01*
G37*
G36*
X117763500Y-128400000D02*
G01*
X115036500Y-128400000D01*
X115036500Y-128012600D01*
X117763500Y-128012600D01*
X117763500Y-128400000D01*
G37*
G36*
X117763500Y-129187400D02*
G01*
X115036500Y-129187400D01*
X115036500Y-128800000D01*
X117763500Y-128800000D01*
X117763500Y-129187400D01*
G37*
G36*
X117763500Y-129963500D02*
G01*
X115036500Y-129963500D01*
X115036500Y-129587400D01*
X117763500Y-129587400D01*
X117763500Y-129963500D01*
G37*
G36*
X116200000Y-129963500D02*
G01*
X115812600Y-129963500D01*
X115812600Y-127236500D01*
X116200000Y-127236500D01*
X116200000Y-129963500D01*
G37*
G36*
X116987400Y-129963500D02*
G01*
X116600000Y-129963500D01*
X116600000Y-127236500D01*
X116987400Y-127236500D01*
X116987400Y-129963500D01*
G37*
G36*
X117763500Y-129963500D02*
G01*
X117387400Y-129963500D01*
X117387400Y-127236500D01*
X117763500Y-127236500D01*
X117763500Y-129963500D01*
G37*
G04 #@! TD*
D11*
G04 #@! TO.C,R18*
X139005000Y-127850000D03*
X134895000Y-127850000D03*
G04 #@! TD*
D12*
G04 #@! TO.C,C9*
X120080000Y-124900000D03*
X119120000Y-124900000D03*
G04 #@! TD*
D13*
G04 #@! TO.C,D11*
X116300000Y-121500000D03*
X116300000Y-122000000D03*
D14*
X116350000Y-122500000D03*
D13*
X116300000Y-123000000D03*
X116300000Y-123500000D03*
X117175000Y-123500000D03*
X117175000Y-123000000D03*
D14*
X117125000Y-122500000D03*
D13*
X117175000Y-122000000D03*
X117175000Y-121500000D03*
G04 #@! TD*
D15*
G04 #@! TO.C,R24*
X109500000Y-130290000D03*
X109500000Y-131310000D03*
G04 #@! TD*
D16*
G04 #@! TO.C,R20*
X120300000Y-129310000D03*
X120300000Y-128290000D03*
G04 #@! TD*
D15*
G04 #@! TO.C,R10*
X139600000Y-123190000D03*
X139600000Y-124210000D03*
G04 #@! TD*
D17*
G04 #@! TO.C,C20*
X142250000Y-131000000D03*
X144150000Y-131000000D03*
G04 #@! TD*
D18*
G04 #@! TO.C,C23*
X138370000Y-131400000D03*
X139330000Y-131400000D03*
G04 #@! TD*
D19*
G04 #@! TO.C,R1*
X130962500Y-118700000D03*
X128037500Y-118700000D03*
G04 #@! TD*
D20*
G04 #@! TO.C,Q1*
X120850000Y-120300000D03*
X122750000Y-120300000D03*
X121800000Y-117900000D03*
G04 #@! TD*
D21*
G04 #@! TO.C,D1*
X140600000Y-120785000D03*
X140600000Y-119815000D03*
G04 #@! TD*
D22*
G04 #@! TO.C,Q5*
X123200000Y-128750000D03*
X123200000Y-130650000D03*
X125600000Y-129700000D03*
G04 #@! TD*
D23*
G04 #@! TO.C,R19*
X116910000Y-124600000D03*
X115890000Y-124600000D03*
G04 #@! TD*
D24*
G04 #@! TO.C,C2*
X138400000Y-120925000D03*
X138400000Y-122475000D03*
G04 #@! TD*
D25*
G04 #@! TO.C,R25*
X134090000Y-112600000D03*
X135110000Y-112600000D03*
G04 #@! TD*
D18*
G04 #@! TO.C,C10*
X127320000Y-121500000D03*
X128280000Y-121500000D03*
G04 #@! TD*
D26*
G04 #@! TO.C,C12*
X118750000Y-113000000D03*
X116850000Y-113000000D03*
G04 #@! TD*
D18*
G04 #@! TO.C,C5*
X120620000Y-121500000D03*
X121580000Y-121500000D03*
G04 #@! TD*
D27*
G04 #@! TO.C,J3*
X110250000Y-113650000D03*
G04 #@! TD*
D28*
G04 #@! TO.C,C7*
X118900000Y-119950000D03*
X118900000Y-118050000D03*
G04 #@! TD*
D21*
G04 #@! TO.C,D3*
X108900000Y-128785000D03*
X108900000Y-127815000D03*
G04 #@! TD*
D16*
G04 #@! TO.C,R3*
X139600000Y-120810000D03*
X139600000Y-119790000D03*
G04 #@! TD*
D29*
G04 #@! TO.C,L2*
X127650000Y-128100000D03*
D30*
X131550000Y-128100000D03*
G04 #@! TD*
D31*
G04 #@! TO.C,J2*
X143900000Y-125000000D03*
D32*
X143900000Y-122500000D03*
X143900000Y-120000000D03*
G04 #@! TD*
D33*
G04 #@! TO.C,R8*
X120739376Y-123360624D03*
X121460624Y-122639376D03*
G04 #@! TD*
D34*
G04 #@! TO.C,J5*
X113950000Y-114600000D03*
G04 #@! TD*
D25*
G04 #@! TO.C,R23*
X109990000Y-127700000D03*
X111010000Y-127700000D03*
G04 #@! TD*
D35*
G04 #@! TO.C,J11*
X128690000Y-114900000D03*
D36*
X129960000Y-114900000D03*
X131230000Y-114900000D03*
X132500000Y-114900000D03*
G04 #@! TD*
D20*
G04 #@! TO.C,Q4*
X123550000Y-127000000D03*
X125450000Y-127000000D03*
X124500000Y-124600000D03*
G04 #@! TD*
D37*
G04 #@! TO.C,C21*
X121600000Y-129220000D03*
X121600000Y-130180000D03*
G04 #@! TD*
D38*
G04 #@! TO.C,R2*
X116600000Y-119612500D03*
X116600000Y-117787500D03*
G04 #@! TD*
D18*
G04 #@! TO.C,C11*
X121220000Y-125600000D03*
X122180000Y-125600000D03*
G04 #@! TD*
D23*
G04 #@! TO.C,R21*
X121710000Y-131100000D03*
X120690000Y-131100000D03*
G04 #@! TD*
D39*
G04 #@! TO.C,J12*
X119100000Y-121900000D03*
D36*
X119100000Y-123170000D03*
G04 #@! TD*
D40*
G04 #@! TO.C,D4*
X138075000Y-112700000D03*
X136325000Y-112700000D03*
G04 #@! TD*
D17*
G04 #@! TO.C,C14*
X142850000Y-113000000D03*
X144750000Y-113000000D03*
G04 #@! TD*
D23*
G04 #@! TO.C,R29*
X112210000Y-128700000D03*
X111190000Y-128700000D03*
G04 #@! TD*
D18*
G04 #@! TO.C,C22*
X135820000Y-131100000D03*
X136780000Y-131100000D03*
G04 #@! TD*
D41*
G04 #@! TO.C,Q3*
X132795000Y-124125000D03*
X134065000Y-124125000D03*
X135335000Y-124125000D03*
X136605000Y-124125000D03*
D42*
X134700000Y-121400000D03*
G04 #@! TD*
D15*
G04 #@! TO.C,R12*
X131000000Y-122890000D03*
X131000000Y-123910000D03*
G04 #@! TD*
D43*
G04 #@! TO.C,Q2*
X126350000Y-117900000D03*
X124450000Y-117900000D03*
X125400000Y-120300000D03*
G04 #@! TD*
D16*
G04 #@! TO.C,R7*
X125500000Y-122609999D03*
X125500000Y-121590001D03*
G04 #@! TD*
D27*
G04 #@! TO.C,J1*
X147199999Y-113650000D03*
G04 #@! TD*
D44*
G04 #@! TO.C,H1*
X149050000Y-129600000D03*
X149533274Y-128433274D03*
X149533274Y-130766726D03*
X150700000Y-127950000D03*
D45*
X150700000Y-129600000D03*
D44*
X150700000Y-131250000D03*
X151866726Y-128433274D03*
X151866726Y-130766726D03*
X152350000Y-129600000D03*
G04 #@! TD*
D46*
G04 #@! TO.C,U3*
X117600000Y-126700001D03*
X117200001Y-126700001D03*
X116799999Y-126700001D03*
X116400000Y-126700001D03*
X116000001Y-126700001D03*
X115599999Y-126700001D03*
X115200000Y-126700001D03*
D47*
X114500001Y-127400000D03*
X114500001Y-127799999D03*
X114500001Y-128200001D03*
X114500001Y-128600000D03*
X114500001Y-128999999D03*
X114500001Y-129400001D03*
X114500001Y-129800000D03*
D46*
X115200000Y-130500001D03*
X115599999Y-130500001D03*
X116000001Y-130500001D03*
X116400000Y-130500001D03*
X116799999Y-130500001D03*
X117200001Y-130500001D03*
X117600000Y-130500001D03*
D47*
X118299999Y-129800000D03*
X118299999Y-129400001D03*
X118299999Y-128999999D03*
X118299999Y-128600000D03*
X118299999Y-128200001D03*
X118299999Y-127799999D03*
X118299999Y-127400000D03*
D48*
X116400000Y-127550000D03*
X117450000Y-128600000D03*
X116400000Y-128600000D03*
D49*
X116400000Y-128600000D03*
D48*
X115350000Y-128600000D03*
X116400000Y-129650000D03*
G04 #@! TD*
D34*
G04 #@! TO.C,J4*
X150950000Y-114600000D03*
G04 #@! TD*
D50*
G04 #@! TO.C,C6*
X124275000Y-121800000D03*
X122725000Y-121800000D03*
G04 #@! TD*
D51*
G04 #@! TO.C,J10*
X114350000Y-118700000D03*
X114350000Y-119500000D03*
X114350000Y-120300000D03*
X114350000Y-121100000D03*
X114350000Y-121500000D03*
X114350000Y-121900000D03*
X114350000Y-123500000D03*
X114350000Y-124300000D03*
X114350000Y-124700000D03*
X114350000Y-123900000D03*
X114350000Y-123100000D03*
X114350000Y-122700000D03*
X114350000Y-122300000D03*
X114350000Y-120700000D03*
X114350000Y-119900000D03*
X114350000Y-119100000D03*
D52*
X114350000Y-118185000D03*
X114350000Y-125215000D03*
D53*
X113590000Y-117105000D03*
D54*
X110610000Y-117105000D03*
D53*
X113590000Y-126295000D03*
D54*
X110610000Y-126295000D03*
G04 #@! TD*
D55*
G04 #@! TO.C,C17*
X120425000Y-127100000D03*
X121975000Y-127100000D03*
G04 #@! TD*
D23*
G04 #@! TO.C,R11*
X112210000Y-129700000D03*
X111190000Y-129700000D03*
G04 #@! TD*
G04 #@! TO.C,R22*
X119810000Y-131400000D03*
X118790000Y-131400000D03*
G04 #@! TD*
D44*
G04 #@! TO.C,H2*
X149533274Y-123833274D03*
X150700000Y-123350000D03*
X149050000Y-125000000D03*
X151866726Y-123833274D03*
D45*
X150700000Y-125000000D03*
D44*
X149533274Y-126166726D03*
X152350000Y-125000000D03*
X150700000Y-126650000D03*
X151866726Y-126166726D03*
G04 #@! TD*
G36*
X127591863Y-113998367D02*
G01*
X127611206Y-113999963D01*
X127705488Y-114015244D01*
X127742253Y-114027320D01*
X127818461Y-114066419D01*
X127849713Y-114089240D01*
X127910158Y-114149927D01*
X127932855Y-114181272D01*
X127971649Y-114257638D01*
X127983577Y-114294449D01*
X127998481Y-114388786D01*
X128000000Y-114408136D01*
X128000000Y-115200005D01*
X128019575Y-115323604D01*
X128076394Y-115435114D01*
X128076397Y-115435119D01*
X128164880Y-115523602D01*
X128164885Y-115523605D01*
X128276396Y-115580424D01*
X128276395Y-115580424D01*
X128399995Y-115600000D01*
X132800005Y-115600000D01*
X132923604Y-115580424D01*
X133035114Y-115523605D01*
X133035119Y-115523602D01*
X133123602Y-115435119D01*
X133123605Y-115435114D01*
X133180424Y-115323604D01*
X133200000Y-115200005D01*
X133200000Y-114409755D01*
X133201527Y-114390358D01*
X133216504Y-114295793D01*
X133228492Y-114258895D01*
X133267477Y-114182383D01*
X133290281Y-114150997D01*
X133350997Y-114090281D01*
X133382383Y-114067477D01*
X133458895Y-114028492D01*
X133495793Y-114016503D01*
X133590359Y-114001526D01*
X133609756Y-114000000D01*
X145090244Y-114000000D01*
X145109641Y-114001527D01*
X145204206Y-114016504D01*
X145241104Y-114028492D01*
X145317616Y-114067477D01*
X145349002Y-114090281D01*
X145409718Y-114150997D01*
X145432522Y-114182383D01*
X145471507Y-114258895D01*
X145483495Y-114295792D01*
X145498473Y-114390357D01*
X145500000Y-114409755D01*
X145500000Y-114900005D01*
X145519575Y-115023604D01*
X145576394Y-115135114D01*
X145576397Y-115135119D01*
X145664880Y-115223602D01*
X145664885Y-115223605D01*
X145776396Y-115280424D01*
X145776395Y-115280424D01*
X145899995Y-115300000D01*
X148990244Y-115300000D01*
X149009641Y-115301527D01*
X149104206Y-115316504D01*
X149141104Y-115328492D01*
X149217616Y-115367477D01*
X149249002Y-115390281D01*
X149309718Y-115450997D01*
X149332522Y-115482383D01*
X149371507Y-115558895D01*
X149383495Y-115595792D01*
X149398473Y-115690357D01*
X149400000Y-115709755D01*
X149400000Y-116190244D01*
X149398473Y-116209642D01*
X149383495Y-116304207D01*
X149371507Y-116341104D01*
X149332522Y-116417616D01*
X149309718Y-116449002D01*
X149249002Y-116509718D01*
X149217616Y-116532522D01*
X149141104Y-116571507D01*
X149104207Y-116583495D01*
X149009642Y-116598473D01*
X148990244Y-116600000D01*
X141846951Y-116600000D01*
X141800338Y-116602727D01*
X141800312Y-116602730D01*
X141754316Y-116610877D01*
X141754296Y-116610881D01*
X137649203Y-117588284D01*
X137642109Y-117589755D01*
X137606823Y-117596005D01*
X137592441Y-117597694D01*
X137556662Y-117599788D01*
X137549417Y-117600000D01*
X129762037Y-117600000D01*
X129753176Y-117599683D01*
X129709447Y-117596550D01*
X129691907Y-117594024D01*
X129649068Y-117584689D01*
X129640480Y-117582493D01*
X126354366Y-116615989D01*
X126299422Y-116603951D01*
X126243335Y-116599737D01*
X115907879Y-116551888D01*
X115888545Y-116550280D01*
X115794311Y-116534952D01*
X115757566Y-116522863D01*
X115681404Y-116483745D01*
X115650173Y-116460921D01*
X115589771Y-116400239D01*
X115567092Y-116368902D01*
X115528327Y-116292559D01*
X115516408Y-116255758D01*
X115501518Y-116161460D01*
X115500000Y-116142120D01*
X115500000Y-114361388D01*
X115501534Y-114341943D01*
X115516587Y-114247140D01*
X115528637Y-114210156D01*
X115567811Y-114133503D01*
X115590720Y-114102077D01*
X115651710Y-114041329D01*
X115683232Y-114018542D01*
X115760042Y-113979676D01*
X115797070Y-113967776D01*
X115891928Y-113953102D01*
X115911381Y-113951645D01*
X127591863Y-113998367D01*
G37*
M02*
